<svg width="1024" height="512" viewBox="0 0 1024 512" fill="none" xmlns="http://www.w3.org/2000/svg">
<rect width="1024" height="512" fill="#1747E6"/>
<path d="M127.264 214.264C127.264 236.344 111.904 247 93.856 247H73.792V181.528H93.856C111.808 181.528 127.264 192.184 127.264 214.264ZM119.488 214.264C119.488 197.272 108.352 188.632 93.856 188.632H81.28V239.896H93.856C108.352 239.896 119.488 231.352 119.488 214.264ZM177.089 247H141.761V181.528H174.593V188.632H149.249V209.752H173.633V216.856H149.249V239.896H177.089V247ZM240.738 247H230.946L202.914 217.24V216.856C221.154 214.168 225.762 208.792 225.762 200.92C225.762 193.24 220.002 188.632 210.114 188.632H201.186V247H193.698V181.528H210.978C224.322 181.528 233.634 187.864 233.634 200.152C233.634 210.136 228.834 216.664 215.202 220.408V220.6L240.738 247ZM265.776 247H258.192V188.728H239.568V181.528H284.4V188.728H265.776V247ZM341.262 247H333.006L324.366 225.4H297.582L289.038 247H280.974L308.046 181.528H314.19L341.262 247ZM310.926 192.088L300.366 218.584H321.678L311.118 192.088H310.926ZM402.962 248.728C386.642 248.728 373.298 236.824 373.298 214.264C373.298 192.088 387.218 179.8 404.69 179.8C413.33 179.8 420.626 182.392 425.81 186.904V196.312H425.426C420.242 190.168 413.138 187 404.978 187C391.442 187 381.266 196.696 381.266 214.456C381.266 232.792 390.866 241.72 402.962 241.72C413.81 241.72 422.834 235.864 423.122 219.832H400.466V219.448L404.21 212.632H430.898C430.994 213.304 430.994 216.472 430.994 217.048C430.994 240.088 417.746 248.728 402.962 248.728ZM451.271 247H444.167V198.52H451.271V247ZM451.655 182.392H443.783V175H451.655V182.392ZM499.751 234.616V207.832C496.679 205.048 492.263 203.416 487.847 203.416C477.959 203.416 471.335 210.136 471.335 221.656C471.335 232.984 477.767 240.088 487.175 240.088C492.359 240.088 496.775 237.976 499.751 234.616ZM486.119 265.72C480.647 265.72 474.215 264.376 470.087 260.44V251.992H470.279C473.735 257.08 479.783 259.288 485.831 259.288C496.007 259.288 499.751 253.336 499.751 245.656V241.24H499.655C496.007 244.504 490.919 246.616 484.967 246.616C473.255 246.616 463.559 237.976 463.559 221.656C463.559 205.624 473.255 196.792 486.215 196.792C491.687 196.792 496.679 198.808 500.231 201.4H500.423L506.567 198.136H506.855V245.272C506.855 259 498.791 265.72 486.119 265.72Z" fill="white"/>
<path d="M86.957 280.301V296.93C86.957 298.746 86.5879 300.363 85.8496 301.781C85.123 303.199 84.0215 304.318 82.5449 305.139C81.0684 305.947 79.2168 306.352 76.9902 306.352C73.8145 306.352 71.3945 305.49 69.7305 303.768C68.0781 302.045 67.252 299.742 67.252 296.859V280.301H70.2578V296.947C70.2578 299.127 70.832 300.809 71.9805 301.992C73.1406 303.176 74.8691 303.768 77.166 303.768C78.7363 303.768 80.0195 303.486 81.0156 302.924C82.0234 302.35 82.7676 301.553 83.248 300.533C83.7402 299.502 83.9863 298.312 83.9863 296.965V280.301H86.957ZM100.492 280.301C103.809 280.301 106.229 280.951 107.752 282.252C109.287 283.541 110.055 285.393 110.055 287.807C110.055 288.896 109.873 289.934 109.51 290.918C109.158 291.891 108.584 292.752 107.787 293.502C106.99 294.24 105.941 294.826 104.641 295.26C103.352 295.682 101.77 295.893 99.8945 295.893H96.7656V306H93.7773V280.301H100.492ZM100.211 282.85H96.7656V293.326H99.5605C101.201 293.326 102.566 293.15 103.656 292.799C104.758 292.447 105.584 291.879 106.135 291.094C106.686 290.297 106.961 289.242 106.961 287.93C106.961 286.219 106.416 284.947 105.326 284.115C104.236 283.271 102.531 282.85 100.211 282.85ZM135.842 292.904C135.842 295.799 135.314 298.219 134.26 300.164C133.205 302.098 131.676 303.557 129.672 304.541C127.68 305.514 125.26 306 122.412 306H115.434V280.301H123.186C125.799 280.301 128.049 280.781 129.936 281.742C131.822 282.691 133.275 284.104 134.295 285.979C135.326 287.842 135.842 290.15 135.842 292.904ZM132.695 293.01C132.695 290.701 132.309 288.797 131.535 287.297C130.773 285.797 129.648 284.684 128.16 283.957C126.684 283.219 124.873 282.85 122.729 282.85H118.422V303.434H122.061C125.6 303.434 128.254 302.561 130.023 300.814C131.805 299.068 132.695 296.467 132.695 293.01ZM157.674 306L154.51 297.844H144.209L141.062 306H138.039L148.094 280.195H150.783L160.768 306H157.674ZM153.613 295.189L150.607 287.086C150.537 286.875 150.42 286.529 150.256 286.049C150.104 285.568 149.945 285.07 149.781 284.555C149.617 284.039 149.482 283.623 149.377 283.307C149.26 283.787 149.131 284.268 148.99 284.748C148.861 285.217 148.732 285.656 148.604 286.066C148.475 286.465 148.363 286.805 148.27 287.086L145.211 295.189H153.613ZM172.229 306H169.223V282.938H161.137V280.301H180.279V282.938H172.229V306ZM198.473 306H184.164V280.301H198.473V282.938H187.152V291.252H197.822V293.854H187.152V303.363H198.473V306ZM213.52 306V280.301H216.508V303.328H227.916V306H213.52ZM254.617 293.115C254.617 295.096 254.365 296.9 253.861 298.529C253.357 300.146 252.607 301.541 251.611 302.713C250.627 303.873 249.402 304.77 247.938 305.402C246.473 306.035 244.773 306.352 242.84 306.352C240.848 306.352 239.107 306.035 237.619 305.402C236.143 304.77 234.912 303.867 233.928 302.695C232.955 301.523 232.223 300.123 231.73 298.494C231.25 296.865 231.01 295.061 231.01 293.08C231.01 290.455 231.443 288.152 232.311 286.172C233.178 284.191 234.49 282.65 236.248 281.549C238.018 280.447 240.232 279.896 242.893 279.896C245.436 279.896 247.574 280.441 249.309 281.531C251.055 282.621 252.373 284.156 253.264 286.137C254.166 288.105 254.617 290.432 254.617 293.115ZM234.156 293.115C234.156 295.295 234.467 297.182 235.088 298.775C235.709 300.369 236.658 301.6 237.936 302.467C239.225 303.334 240.859 303.768 242.84 303.768C244.832 303.768 246.461 303.334 247.727 302.467C249.004 301.6 249.947 300.369 250.557 298.775C251.166 297.182 251.471 295.295 251.471 293.115C251.471 289.799 250.773 287.209 249.379 285.346C247.996 283.471 245.834 282.533 242.893 282.533C240.9 282.533 239.26 282.961 237.971 283.816C236.682 284.672 235.721 285.891 235.088 287.473C234.467 289.043 234.156 290.924 234.156 293.115ZM271.334 282.568C269.916 282.568 268.639 282.814 267.502 283.307C266.377 283.787 265.416 284.49 264.619 285.416C263.834 286.33 263.23 287.438 262.809 288.738C262.387 290.039 262.176 291.504 262.176 293.133C262.176 295.289 262.51 297.164 263.178 298.758C263.857 300.34 264.865 301.564 266.201 302.432C267.549 303.299 269.23 303.732 271.246 303.732C272.395 303.732 273.473 303.639 274.48 303.451C275.5 303.252 276.49 303.006 277.451 302.713V305.314C276.514 305.666 275.529 305.924 274.498 306.088C273.467 306.264 272.242 306.352 270.824 306.352C268.211 306.352 266.025 305.812 264.268 304.734C262.521 303.645 261.209 302.109 260.33 300.129C259.463 298.148 259.029 295.811 259.029 293.115C259.029 291.17 259.299 289.395 259.838 287.789C260.389 286.172 261.186 284.777 262.229 283.605C263.283 282.434 264.572 281.531 266.096 280.898C267.631 280.254 269.389 279.932 271.369 279.932C272.67 279.932 273.924 280.061 275.131 280.318C276.338 280.576 277.428 280.945 278.4 281.426L277.205 283.957C276.385 283.582 275.482 283.26 274.498 282.99C273.525 282.709 272.471 282.568 271.334 282.568ZM299.143 306L295.979 297.844H285.678L282.531 306H279.508L289.562 280.195H292.252L302.236 306H299.143ZM295.082 295.189L292.076 287.086C292.006 286.875 291.889 286.529 291.725 286.049C291.572 285.568 291.414 285.07 291.25 284.555C291.086 284.039 290.951 283.623 290.846 283.307C290.729 283.787 290.6 284.268 290.459 284.748C290.33 285.217 290.201 285.656 290.072 286.066C289.943 286.465 289.832 286.805 289.738 287.086L286.68 295.189H295.082ZM305.805 306V280.301H308.793V303.328H320.201V306H305.805ZM351.121 306.721C348.262 307.201 345.25 307.441 342.086 307.441C337.691 307.441 334.516 306.932 332.559 305.912C330.602 304.893 329.623 303.275 329.623 301.061C329.623 297.24 333.238 294.316 340.469 292.289C340.129 291.188 339.678 290.42 339.115 289.986C338.553 289.553 337.826 289.336 336.936 289.336C335.494 289.336 333.865 290.033 332.049 291.428C330.244 292.811 328.416 294.814 326.564 297.439L324.367 296.033C327.32 291.932 329.734 287.777 331.609 283.57H324.596V281.268H332.576C333.127 279.92 333.666 278.455 334.193 276.873L336.795 277.488C336.314 278.766 335.834 280.025 335.354 281.268H350.98V283.57H334.387C333.59 285.375 332.711 287.238 331.75 289.16L331.785 289.195C333.871 287.754 335.746 287.033 337.41 287.033C340.246 287.033 342.127 288.568 343.053 291.639C345.479 291.088 348.227 290.619 351.297 290.232L351.561 292.57C348.291 293.004 345.625 293.461 343.562 293.941C343.879 295.746 344.037 298.084 344.037 300.955H341.26C341.26 298.365 341.148 296.256 340.926 294.627C335.219 296.279 332.365 298.354 332.365 300.85C332.365 301.494 332.482 302.045 332.717 302.502C332.963 302.959 333.408 303.398 334.053 303.82C334.709 304.242 335.705 304.564 337.041 304.787C338.389 304.998 340.07 305.104 342.086 305.104C344.746 305.104 347.676 304.84 350.875 304.312L351.121 306.721ZM364.762 297.967V304.488H385.434V297.967H364.762ZM364.762 289.195V295.629H385.434V289.195H364.762ZM364.762 286.84H385.434V280.547H364.762V286.84ZM361.949 278.174H388.246V308.777H385.434V306.826H364.762V308.777H361.949V278.174ZM410.852 300.779V304.998H423.262V300.779H410.852ZM410.852 298.547H423.262V294.557H410.852V298.547ZM406.457 283.254V285.662H402.309V293.801C404.008 293.227 405.332 292.734 406.281 292.324L406.738 294.697C405.062 295.389 403.586 295.939 402.309 296.35V304.084C402.309 306.123 402.127 307.389 401.764 307.881C401.412 308.385 400.469 308.637 398.934 308.637C398.336 308.637 397.158 308.572 395.4 308.443L395.295 306.105C396.971 306.223 398.084 306.281 398.635 306.281C399.092 306.281 399.355 306.193 399.426 306.018C399.508 305.842 399.549 305.238 399.549 304.207V297.211C398.178 297.621 396.736 297.984 395.225 298.301L394.961 295.805C396.402 295.488 397.932 295.107 399.549 294.662V285.662H395.049V283.254H399.549V276.943H402.309V283.254H406.457ZM427.182 282.85C427.135 283.951 427.076 284.836 427.006 285.504C426.936 286.16 426.801 286.764 426.602 287.314C426.414 287.865 426.209 288.27 425.986 288.527C425.775 288.773 425.43 288.99 424.949 289.178C424.48 289.354 423.977 289.465 423.438 289.512C422.91 289.559 422.195 289.594 421.293 289.617C419.23 289.664 417.701 289.688 416.705 289.688C415.65 289.688 414.139 289.664 412.17 289.617C410.225 289.57 409 289.395 408.496 289.09C408.004 288.773 407.758 288.012 407.758 286.805V277.312H410.482V281.232C415.908 280.342 421 279.199 425.758 277.805L426.619 280.072C421.076 281.654 415.697 282.844 410.482 283.641V286.014C410.482 286.611 410.582 286.963 410.781 287.068C410.992 287.162 411.672 287.232 412.82 287.279C414.496 287.326 415.756 287.35 416.6 287.35C417.268 287.35 418.516 287.326 420.344 287.279C421.082 287.256 421.615 287.238 421.943 287.227C422.271 287.215 422.629 287.145 423.016 287.016C423.402 286.875 423.643 286.746 423.736 286.629C423.83 286.512 423.947 286.236 424.088 285.803C424.24 285.369 424.334 284.953 424.369 284.555C424.404 284.145 424.445 283.506 424.492 282.639L427.182 282.85ZM423.262 308.883V307.336H410.852V308.883H408.039V292.148H426.109V308.883H423.262ZM431.734 281.408H449.98V276.732H452.6V281.408H462.461V283.676H452.6V291.744C453.057 293.162 453.285 294.639 453.285 296.174C453.285 299.725 452.324 302.443 450.402 304.33C448.492 306.217 445.398 307.459 441.121 308.057L440.734 305.525C444.121 305.092 446.605 304.236 448.188 302.959C449.77 301.67 450.619 299.912 450.736 297.686V297.211H450.666C449.564 298.816 447.736 299.625 445.182 299.637C443.189 299.637 441.525 298.98 440.189 297.668C438.865 296.355 438.203 294.727 438.203 292.781C438.203 290.836 438.865 289.213 440.189 287.912C441.525 286.6 443.189 285.943 445.182 285.943C447.01 285.943 448.586 286.482 449.91 287.561H449.98V283.676H431.734V281.408ZM442.246 289.635C441.355 290.49 440.91 291.545 440.91 292.799C440.91 294.041 441.355 295.096 442.246 295.963C443.148 296.818 444.262 297.246 445.586 297.246C446.934 297.246 448.047 296.818 448.926 295.963C449.816 295.096 450.262 294.041 450.262 292.799C450.262 291.545 449.816 290.49 448.926 289.635C448.047 288.779 446.934 288.352 445.586 288.352C444.262 288.352 443.148 288.779 442.246 289.635ZM472.656 286.893V309.129H469.949V291.744C468.918 293.643 467.922 295.178 466.961 296.35L465.748 293.432C469.158 288.873 471.52 283.342 472.832 276.838L475.469 277.348C474.812 280.875 473.875 284.057 472.656 286.893ZM485.875 298.002H477.947V300.305H475.258V283.605H485.875V276.943H488.67V283.605H499.234V300.305H496.492V298.002H488.67V309.129H485.875V298.002ZM485.875 295.629V286.084H477.947V295.629H485.875ZM496.492 295.629V286.084H488.67V295.629H496.492ZM514.158 300.533V304.014H524.037V300.533H514.158ZM514.158 298.512H524.037V295.383H514.158V298.512ZM506.564 285.328V288.756H515.037V285.328H506.564ZM506.564 283.359H515.037V280.072H506.564V283.359ZM531.631 285.328H522.807V288.756H531.631V285.328ZM531.631 283.359V280.072H522.807V283.359H531.631ZM503.805 308.777V277.805H517.727V290.812H506.564V308.777H503.805ZM529.891 308.514C529.41 308.514 527.77 308.455 524.969 308.338L524.863 306.105H514.158V308.057H511.539V293.221H526.656V306.035C527.57 306.082 528.508 306.105 529.469 306.105C530.5 306.105 531.115 306.012 531.314 305.824C531.525 305.625 531.631 305.021 531.631 304.014V290.812H520.1V277.805H534.391V303.943C534.391 305.982 534.145 307.254 533.652 307.758C533.16 308.262 531.906 308.514 529.891 308.514ZM560.248 279.316L562.41 278.174C563.582 280.119 564.695 282.088 565.75 284.08L563.588 285.117C562.662 283.336 561.549 281.402 560.248 279.316ZM565.293 277.963L567.49 276.768C568.908 279.1 570.057 281.115 570.936 282.814L568.703 283.904C567.602 281.865 566.465 279.885 565.293 277.963ZM540.596 286.805V284.396H547.609C548.277 281.443 548.793 278.912 549.156 276.803L551.758 277.084C551.418 279.193 550.938 281.631 550.316 284.396H553.41C554.512 284.396 555.35 284.396 555.924 284.396C556.498 284.396 557.119 284.467 557.787 284.607C558.467 284.736 558.941 284.848 559.211 284.941C559.492 285.035 559.797 285.281 560.125 285.68C560.465 286.078 560.676 286.441 560.758 286.77C560.852 287.086 560.951 287.643 561.057 288.439C561.162 289.225 561.215 289.963 561.215 290.654C561.215 291.334 561.215 292.336 561.215 293.66C561.215 298.102 560.682 301.471 559.615 303.768C558.549 306.053 557.201 307.195 555.572 307.195C553.533 307.195 551.096 306.545 548.26 305.244L549.156 302.836C551.84 303.984 553.82 304.559 555.098 304.559C555.484 304.559 555.865 304.336 556.24 303.891C556.627 303.445 556.99 302.789 557.33 301.922C557.67 301.043 557.939 299.854 558.139 298.354C558.338 296.854 558.438 295.166 558.438 293.291C558.438 292.471 558.438 291.885 558.438 291.533C558.438 291.17 558.42 290.707 558.385 290.145C558.35 289.582 558.332 289.207 558.332 289.02C558.332 288.82 558.273 288.557 558.156 288.229C558.039 287.889 557.951 287.684 557.893 287.613C557.834 287.531 557.688 287.408 557.453 287.244C557.23 287.08 557.049 286.992 556.908 286.98C556.779 286.969 556.516 286.939 556.117 286.893C555.73 286.834 555.408 286.805 555.15 286.805C554.904 286.805 554.488 286.805 553.902 286.805H549.736C547.955 294 545.576 300.879 542.6 307.441L540.156 306.475C542.969 300.264 545.26 293.707 547.029 286.805H540.596ZM569.143 300.744C567.607 296.596 565.615 292.131 563.166 287.35L565.574 286.312C568.023 291.035 570.039 295.57 571.621 299.918L569.143 300.744ZM590.307 284.572V282.059H581.025V284.572H590.307ZM590.307 289.16V286.629H581.025V289.16H590.307ZM590.307 291.164H581.025V293.73H590.307V291.164ZM590.746 279.791C591.227 278.783 591.689 277.693 592.135 276.521L594.842 276.873C594.455 277.904 594.045 278.877 593.611 279.791H604.949V282.059H593.189V284.572H603.877V286.629H593.189V289.16H603.877V291.164H593.189V293.73H604.949V295.805H592.539V297.967H606.654V300.234H593.91C597.227 302.133 601.762 303.92 607.516 305.596L606.725 308.092C600.654 306.123 595.926 303.996 592.539 301.711V309.129H589.656V301.711C586.27 303.996 581.541 306.123 575.471 308.092L574.68 305.596C580.445 303.92 584.98 302.133 588.285 300.234H575.189V297.967H589.656V295.805H578.248V285.293C577.451 286.57 576.648 287.701 575.84 288.686L574.258 286.137C576.871 283.137 578.787 279.932 580.006 276.521L582.607 276.979C582.244 278.01 581.869 278.947 581.482 279.791H590.746ZM630.947 277.207V281.268H640.773V283.676H630.947V288.475H639.596V290.883H630.947V298.195C633.514 299.59 636.525 301.77 639.982 304.734L638.295 306.65C635.529 304.225 633.068 302.338 630.912 300.99C630.771 303.416 630.092 305.156 628.873 306.211C627.666 307.266 625.756 307.793 623.143 307.793C620.787 307.793 618.918 307.236 617.535 306.123C616.152 305.01 615.461 303.492 615.461 301.57C615.461 299.965 616.047 298.611 617.219 297.51C618.402 296.396 620.377 295.84 623.143 295.84C624.725 295.84 626.441 296.215 628.293 296.965V290.883H614.6V288.475H628.293V283.676H613.422V281.268H628.293V277.207H630.947ZM628.293 299.549C626.488 298.682 624.854 298.254 623.389 298.266C619.932 298.266 618.203 299.367 618.203 301.57C618.203 302.742 618.643 303.674 619.521 304.365C620.4 305.045 621.607 305.385 623.143 305.385C625.088 305.385 626.43 304.992 627.168 304.207C627.918 303.41 628.293 301.969 628.293 299.883V299.549ZM667.562 304.734C671.664 303.773 673.715 301.354 673.715 297.475C673.715 295.482 673.029 293.994 671.658 293.01C670.299 292.025 668.166 291.533 665.26 291.533C660.385 291.533 655.311 293.021 650.037 295.998L648.982 294.047L668.424 281.777V281.707H651.584V279.352H673.293L673.434 281.742L659.318 290.268L659.354 290.303C661.756 289.658 664 289.336 666.086 289.336C673.141 289.336 676.668 291.949 676.668 297.176C676.668 300.516 675.484 303.082 673.117 304.875C670.762 306.656 667.363 307.547 662.922 307.547C656.125 307.547 652.727 305.625 652.727 301.781C652.727 300.387 653.412 299.203 654.783 298.23C656.154 297.246 658.111 296.754 660.654 296.754C665.693 296.754 668.213 298.482 668.213 301.939C668.213 302.771 667.996 303.703 667.562 304.734ZM664.82 305.139C665.418 304.014 665.723 303.018 665.734 302.15C665.734 300.088 663.994 299.057 660.514 299.057C658.908 299.057 657.666 299.326 656.787 299.865C655.908 300.404 655.469 301.043 655.469 301.781C655.469 302.836 656.084 303.674 657.314 304.295C658.557 304.904 660.426 305.209 662.922 305.209C663.367 305.209 664 305.186 664.82 305.139ZM686.389 280.916H711.596V305.174H686.389V302.66H708.818V283.43H686.389V280.916ZM721.633 304.277L721.773 301.465C730.562 301.781 739.445 302.742 748.422 304.348L748.053 307.16C739.17 305.555 730.363 304.594 721.633 304.277ZM724.656 292.676L724.832 289.863C731.746 290.156 738.625 290.9 745.469 292.096L745.064 294.908C738.057 293.689 731.254 292.945 724.656 292.676ZM723.32 282.199L723.461 279.475C731.523 279.744 739.457 280.465 747.262 281.637L746.945 284.361C739.117 283.213 731.242 282.492 723.32 282.199ZM762.098 286.084H778.656L777.32 303.363H783.156V305.754H759.039V303.363H774.438L775.633 288.475H762.098V286.084ZM795.32 283.605V280.916H818.875V283.605H795.32ZM792.807 305.174V302.467H821.389V305.174H792.807ZM832.041 282.34V279.826H854.154V282.34H832.041ZM827.98 289.547H858.215V292.061H845.875C845.852 296.408 844.902 299.795 843.027 302.221C841.152 304.646 838.117 306.422 833.922 307.547L833.131 305.068C836.729 304.037 839.266 302.543 840.742 300.586C842.219 298.629 842.969 295.787 842.992 292.061H827.98V289.547ZM867.426 295.312C871.551 294.738 875.564 293.49 879.467 291.568C883.369 289.646 886.557 287.367 889.029 284.73L890.646 286.559C888.361 288.984 885.52 291.123 882.121 292.975V307.617H879.344V294.328C875.5 296.086 871.662 297.229 867.83 297.756L867.426 295.312ZM69.1504 333.916H94.8496V336.43H83.4414V355.66H95.9395V358.174H68.0605V355.66H80.5586V336.43H69.1504V333.916ZM105.291 335.199L106.592 332.756C110.436 334.678 114.104 336.717 117.596 338.873L116.207 341.316C112.891 339.254 109.252 337.215 105.291 335.199ZM133.117 336.605C130.691 350.434 121.826 358.016 106.521 359.352L106.082 356.662C113.113 356.018 118.639 353.996 122.658 350.598C126.678 347.199 129.291 342.342 130.498 336.025L133.117 336.605ZM141.73 357.805C149.359 357.137 155.025 355.238 158.729 352.109C162.443 348.98 164.91 343.982 166.129 337.115L168.766 337.537C167.441 344.979 164.705 350.486 160.557 354.061C156.42 357.623 150.285 359.75 142.152 360.441L141.73 357.805ZM160.803 330.453L162.789 329.416C163.773 331.021 164.781 332.809 165.812 334.777L163.826 335.779C162.959 334.127 161.951 332.352 160.803 330.453ZM165.672 329.873L167.676 328.801C168.637 330.406 169.668 332.24 170.77 334.303L168.766 335.305C167.711 333.312 166.68 331.502 165.672 329.873ZM140.289 343.812L140.781 341.246C144.977 341.961 148.879 342.693 152.488 343.443L151.979 346.045C146.271 344.92 142.375 344.176 140.289 343.812ZM141.836 334.953L142.328 332.352C146.5 333.02 150.584 333.764 154.58 334.584L154.07 337.15C150.695 336.459 146.617 335.727 141.836 334.953ZM178.223 336.605V333.916H201.777V336.605H178.223ZM175.709 358.174V355.467H204.291V358.174H175.709ZM212.395 335.779V333.336H240.836V335.779C240.121 338.346 238.891 340.66 237.145 342.723C235.398 344.785 233.289 346.42 230.816 347.627L229.393 345.395C233.787 343.215 236.617 340.01 237.883 335.779H212.395ZM223.012 339.207H225.754C225.754 345.348 224.998 349.988 223.486 353.129C221.975 356.27 219.391 358.625 215.734 360.195L214.451 357.893C217.592 356.568 219.801 354.518 221.078 351.74C222.367 348.951 223.012 344.773 223.012 339.207ZM265.463 357.312C268.346 356.996 270.59 355.854 272.195 353.885C273.801 351.916 274.604 349.303 274.604 346.045C274.604 342.998 273.596 340.479 271.58 338.486C269.564 336.494 266.98 335.445 263.828 335.34C263.324 339.992 262.691 343.93 261.93 347.152C261.18 350.375 260.348 352.807 259.434 354.447C258.531 356.088 257.623 357.242 256.709 357.91C255.795 358.566 254.799 358.895 253.721 358.895C251.998 358.895 250.41 357.852 248.957 355.766C247.504 353.68 246.777 351.119 246.777 348.084C246.777 343.572 248.318 339.904 251.4 337.08C254.482 334.244 258.496 332.826 263.441 332.826C267.426 332.826 270.719 334.068 273.32 336.553C275.922 339.037 277.223 342.201 277.223 346.045C277.223 350.029 276.215 353.252 274.199 355.713C272.184 358.174 269.447 359.545 265.99 359.826L265.463 357.312ZM261.104 335.498C257.553 335.932 254.711 337.291 252.578 339.576C250.457 341.85 249.396 344.686 249.396 348.084C249.396 350.346 249.877 352.268 250.838 353.85C251.799 355.432 252.76 356.223 253.721 356.223C254.154 356.223 254.605 356.064 255.074 355.748C255.543 355.42 256.064 354.787 256.639 353.85C257.213 352.912 257.752 351.711 258.256 350.246C258.76 348.781 259.27 346.783 259.785 344.252C260.301 341.709 260.74 338.791 261.104 335.498ZM311.676 343.777C306.73 343.777 301.967 344.088 297.385 344.709L297.174 342.336C302.002 341.691 306.836 341.363 311.676 341.352V343.777ZM312.115 356.943L312.432 359.352C309.701 359.832 307.17 360.072 304.838 360.072C301.744 360.072 299.248 359.521 297.35 358.42C295.451 357.318 294.502 355.895 294.502 354.148C294.502 352.367 295.85 350.516 298.545 348.594L300.232 350.211C299.107 351.031 298.316 351.717 297.859 352.268C297.402 352.818 297.174 353.357 297.174 353.885C297.174 354.986 297.877 355.895 299.283 356.609C300.689 357.312 302.541 357.664 304.838 357.664C307.006 357.664 309.432 357.424 312.115 356.943ZM283.955 337.045V334.637H289.932C290.271 332.961 290.559 331.385 290.793 329.908L293.43 330.172C293.066 332.328 292.803 333.816 292.639 334.637H305.664V337.045H292.129C290.348 345.541 288.139 353.469 285.502 360.828L282.883 360.195C285.543 352.918 287.729 345.201 289.439 337.045H283.955ZM323.453 331.824L325.967 331.279C326.564 334.01 327.021 335.955 327.338 337.115C329.564 336.107 332.025 335.604 334.721 335.604C335.998 335.604 337.211 335.709 338.359 335.92C338.84 334.432 339.426 332.416 340.117 329.873L342.648 330.453C342.121 332.469 341.518 334.508 340.838 336.57C343.451 337.484 345.502 338.938 346.99 340.93C348.479 342.922 349.223 345.26 349.223 347.943C349.223 351.471 348.203 354.354 346.164 356.592C344.125 358.818 341.354 360.137 337.85 360.547L337.27 358.104C340.152 357.787 342.426 356.732 344.09 354.939C345.766 353.135 346.604 350.803 346.604 347.943C346.604 345.857 346.018 344.041 344.846 342.494C343.686 340.947 342.074 339.811 340.012 339.084C337.633 345.799 335.078 350.814 332.348 354.131C329.629 357.447 327.098 359.105 324.754 359.105C323.102 359.105 321.689 358.32 320.518 356.75C319.357 355.18 318.777 353.012 318.777 350.246C318.777 347.75 319.328 345.477 320.43 343.426C321.531 341.375 323.066 339.688 325.035 338.363C324.648 336.934 324.121 334.754 323.453 331.824ZM337.498 338.451C336.631 338.311 335.705 338.234 334.721 338.223C332.318 338.223 330.086 338.703 328.023 339.664C329.078 343.484 330.256 347.252 331.557 350.967C333.736 347.662 335.717 343.49 337.498 338.451ZM325.756 341.035C322.779 343.297 321.291 346.367 321.291 350.246C321.291 352.215 321.66 353.762 322.398 354.887C323.148 356 324.016 356.557 325 356.557C326.371 356.557 327.953 355.502 329.746 353.393C328.188 349.045 326.857 344.926 325.756 341.035ZM373.463 357.312C376.346 356.996 378.59 355.854 380.195 353.885C381.801 351.916 382.604 349.303 382.604 346.045C382.604 342.998 381.596 340.479 379.58 338.486C377.564 336.494 374.98 335.445 371.828 335.34C371.324 339.992 370.691 343.93 369.93 347.152C369.18 350.375 368.348 352.807 367.434 354.447C366.531 356.088 365.623 357.242 364.709 357.91C363.795 358.566 362.799 358.895 361.721 358.895C359.998 358.895 358.41 357.852 356.957 355.766C355.504 353.68 354.777 351.119 354.777 348.084C354.777 343.572 356.318 339.904 359.4 337.08C362.482 334.244 366.496 332.826 371.441 332.826C375.426 332.826 378.719 334.068 381.32 336.553C383.922 339.037 385.223 342.201 385.223 346.045C385.223 350.029 384.215 353.252 382.199 355.713C380.184 358.174 377.447 359.545 373.99 359.826L373.463 357.312ZM369.104 335.498C365.553 335.932 362.711 337.291 360.578 339.576C358.457 341.85 357.396 344.686 357.396 348.084C357.396 350.346 357.877 352.268 358.838 353.85C359.799 355.432 360.76 356.223 361.721 356.223C362.154 356.223 362.605 356.064 363.074 355.748C363.543 355.42 364.064 354.787 364.639 353.85C365.213 352.912 365.752 351.711 366.256 350.246C366.76 348.781 367.27 346.783 367.785 344.252C368.301 341.709 368.74 338.791 369.104 335.498ZM399.883 340.174V346.836H403.592V340.174H399.883ZM393.766 346.836H397.352V340.174H393.766V346.836ZM400.463 333.916H395.418C394.938 335.158 394.352 336.465 393.66 337.836H398.266C398.887 336.875 399.619 335.568 400.463 333.916ZM410.605 329.908H413.312C413.312 332.111 413.277 334.15 413.207 336.025H421.117C421.117 345.318 420.854 351.166 420.326 353.568L422.559 353.744C422.441 355.139 422.348 356.188 422.277 356.891C422.207 357.582 422.043 358.273 421.785 358.965C421.539 359.656 421.287 360.113 421.029 360.336C420.783 360.57 420.314 360.799 419.623 361.021C418.943 361.256 418.264 361.385 417.584 361.408C416.916 361.432 415.896 361.455 414.525 361.479C413.447 361.502 411.807 361.514 409.604 361.514C409.486 361.514 408.713 361.508 407.283 361.496C405.854 361.484 405.068 361.479 404.928 361.479C402.701 361.408 401.23 361.191 400.516 360.828C399.801 360.477 399.443 359.785 399.443 358.754V349.104H397.211C397 355.127 394.791 359.434 390.584 362.023L389.195 359.65C392.652 357.447 394.451 353.932 394.592 349.104H393.766H391.059V341.686L388.896 340.859C391.322 337.379 393.086 333.441 394.188 329.047L396.824 329.363C396.707 329.867 396.502 330.629 396.209 331.648H403.293V333.916C402.695 335.264 402.016 336.57 401.254 337.836H405.754V336.025H410.5C410.57 334.209 410.605 332.17 410.605 329.908ZM415.967 354.254C416.588 354.254 417.045 353.99 417.338 353.463C417.631 352.936 417.871 351.512 418.059 349.191C418.246 346.871 418.34 343.279 418.34 338.416H413.084C412.768 343.291 412.064 347.164 410.975 350.035C409.885 352.895 408.203 355.461 405.93 357.734L403.803 356.188C405.15 354.863 406.234 353.504 407.055 352.109C407.887 350.703 408.59 348.881 409.164 346.643C409.738 344.393 410.137 341.65 410.359 338.416H406.246V349.104H402.221V357.559C402.221 358.203 402.35 358.607 402.607 358.771C402.877 358.924 403.709 359.023 405.104 359.07C405.244 359.07 406.012 359.076 407.406 359.088C408.801 359.1 409.557 359.105 409.674 359.105C411.83 359.105 413.424 359.094 414.455 359.07C416.764 359.023 418.176 358.83 418.691 358.49C419.207 358.139 419.547 357.072 419.711 355.291C419.395 355.865 419.025 356.252 418.604 356.451C418.193 356.639 417.631 356.732 416.916 356.732C415.592 356.732 413.787 356.609 411.502 356.363L411.432 353.885C413.635 354.131 415.146 354.254 415.967 354.254ZM449.207 342.863V349.174H454.709V342.863H449.207ZM446.43 342.863H441.033V349.174H446.43V342.863ZM427.129 339.383H433.791V333.547H426.443V331.174H436.498V341.721H429.73C429.613 343.76 429.467 345.682 429.291 347.486H436.568L436.498 349.068C436.264 353.029 436.012 355.871 435.742 357.594C435.473 359.305 435.156 360.383 434.793 360.828C434.441 361.285 433.844 361.514 433 361.514C432.062 361.514 430.035 361.42 426.918 361.232V358.754C429.203 358.965 430.832 359.07 431.805 359.07C432.262 359.07 432.566 358.93 432.719 358.648C432.988 358.051 433.275 355.303 433.58 350.404C433.58 350.217 433.592 350.023 433.615 349.824H429.045C429.021 350.117 428.975 350.557 428.904 351.143C428.846 351.729 428.793 352.174 428.746 352.479L426.057 352.303C426.537 348.318 426.895 344.012 427.129 339.383ZM452.336 353.393L454.709 352.514C456.244 355.701 457.574 358.666 458.699 361.408L456.186 362.234C456.068 361.941 455.658 360.945 454.955 359.246C448.615 360.301 442.727 360.939 437.289 361.162L437.148 358.754C440.008 358.66 443.102 358.42 446.43 358.033V351.336H441.033V353.129H438.326V340.719H446.43V338.082C442.949 338.352 440.066 338.51 437.781 338.557L437.676 336.219C438.637 336.172 439.369 336.131 439.873 336.096C441.268 333.693 442.504 331.449 443.582 329.363L446.359 329.943C445.117 332.322 443.998 334.326 443.002 335.955C446.213 335.791 449.623 335.516 453.232 335.129C452.178 333.477 451.287 332.123 450.561 331.068L452.951 329.943C454.92 332.779 456.812 335.779 458.629 338.943L456.221 340.068C456.033 339.752 455.746 339.277 455.359 338.645C454.973 338.012 454.709 337.561 454.568 337.291C454.451 337.314 452.664 337.496 449.207 337.836V340.719H457.416V351.336H449.207V357.699C451.492 357.383 453.086 357.154 453.988 357.014C453.895 356.803 453.648 356.264 453.25 355.396C452.852 354.518 452.547 353.85 452.336 353.393ZM484.838 351.688L487.176 350.58C489.379 354.061 491.471 357.588 493.451 361.162L490.99 362.234C490.416 361.156 489.771 360.008 489.057 358.789C480.607 360.066 472.205 360.857 463.85 361.162L463.709 358.754C466.088 358.66 467.793 358.572 468.824 358.49C470.266 355.678 471.631 352.572 472.92 349.174H462.883V346.766H493.117V349.174H475.908C474.736 352.268 473.418 355.303 471.953 358.279C477.613 357.846 482.881 357.283 487.756 356.592C487.545 356.205 487.234 355.672 486.824 354.992C486.414 354.301 486.051 353.686 485.734 353.146C485.43 352.607 485.131 352.121 484.838 351.688ZM479.758 329.768C484.199 333.729 489.191 337.221 494.734 340.244L493.521 342.582C487.791 339.512 482.617 335.867 478 331.648C473.395 335.867 468.221 339.512 462.479 342.582L461.266 340.244C466.809 337.221 471.801 333.729 476.242 329.768H479.758ZM467.998 342.441V340.104H488.002V342.441H467.998ZM513.719 331.209L516.338 330.488C516.502 331.062 516.672 331.689 516.848 332.369C517.035 333.037 517.234 333.787 517.445 334.619C517.668 335.439 517.838 336.078 517.955 336.535C519.561 336.148 520.967 335.955 522.174 335.955C524.482 335.955 526.316 336.641 527.676 338.012C529.047 339.383 529.732 341.217 529.732 343.514C529.732 345.939 528.994 347.855 527.518 349.262C526.041 350.668 524.055 351.371 521.559 351.371C520.023 351.371 518.383 351.166 516.637 350.756L516.953 348.312C518.418 348.676 519.871 348.852 521.312 348.84C523.035 348.84 524.406 348.377 525.426 347.451C526.445 346.514 526.955 345.242 526.955 343.637C526.955 342.008 526.504 340.742 525.602 339.84C524.711 338.938 523.445 338.486 521.805 338.486C520.891 338.486 519.824 338.639 518.605 338.943C518.723 339.424 519.145 341.117 519.871 344.023L517.393 344.709C517.205 343.865 516.76 342.184 516.057 339.664C514.088 340.285 511.797 341.076 509.184 342.037C510.812 347.369 512.553 353.562 514.404 360.617L511.732 361.268C510.057 354.904 508.34 348.822 506.582 343.021C505.715 343.338 504.332 343.865 502.434 344.604C500.547 345.342 499.328 345.822 498.777 346.045L497.828 343.672C502.129 341.996 504.807 340.959 505.861 340.561C504.924 337.584 504.121 335.053 503.453 332.967L506.072 332.176C507.127 335.492 507.912 337.977 508.428 339.629C511.428 338.527 513.754 337.725 515.406 337.221C514.855 335.135 514.293 333.131 513.719 331.209ZM542.072 345.148L544.533 343.918C546.092 347.328 547.914 349.994 550 351.916C552.086 349.994 553.908 347.328 555.467 343.918L557.998 345.025C556.416 348.529 554.459 351.389 552.127 353.604C555.127 355.713 559.639 357.559 565.662 359.141L564.836 361.637C558.426 360.031 553.48 357.939 550 355.361C546.52 357.928 541.574 360.02 535.164 361.637L534.338 359.141C540.361 357.559 544.873 355.713 547.873 353.604C545.588 351.424 543.654 348.605 542.072 345.148ZM534.777 333.441H548.559V329.012H551.441V333.441H565.223V335.885H534.777V333.441ZM534.988 344.92C539.23 342.564 542.588 339.793 545.061 336.605L546.977 338.258C544.457 341.691 540.883 344.656 536.254 347.152L534.988 344.92ZM563.324 347.152C560.184 344.059 556.68 341.17 552.812 338.486L554.395 336.43C558.426 339.219 561.977 342.148 565.047 345.219L563.324 347.152ZM570.514 332.316L572.148 330.383C574.211 331.941 576.162 333.582 578.002 335.305L576.35 337.256C574.545 335.568 572.6 333.922 570.514 332.316ZM575.277 345.676C573.332 343.801 571.182 341.99 568.826 340.244L570.443 338.293C572.869 340.098 575.031 341.902 576.93 343.707L575.277 345.676ZM577.791 350.246C576.396 354.488 574.498 358.297 572.096 361.672L569.863 360.195C572.172 356.879 574.023 353.252 575.418 349.314L577.791 350.246ZM593.084 337.221L595.404 335.99C597.924 338.896 600.191 341.814 602.207 344.744L599.975 346.08C599.518 345.412 598.867 344.521 598.023 343.408C591.039 344.299 584.318 344.838 577.861 345.025L577.756 342.617C578.623 342.594 579.965 342.535 581.781 342.441C582.953 340.18 584.107 337.637 585.244 334.812H578.266V332.439H588.232V329.223H591.115V332.439H601.732V334.812H588.197C587.33 337.039 586.229 339.523 584.893 342.266C589.041 341.973 592.867 341.633 596.371 341.246C595.305 339.887 594.209 338.545 593.084 337.221ZM581.254 346.221H583.943C583.943 350.498 583.369 353.914 582.221 356.469C581.072 359.023 579.285 360.957 576.859 362.27L575.172 360.23C577.281 359.082 578.822 357.395 579.795 355.168C580.768 352.941 581.254 349.959 581.254 346.221ZM587.547 361.443V346.326H590.254V361.443H587.547ZM594.455 345.975H597.162V358.209C597.162 358.807 597.215 359.158 597.32 359.264C597.426 359.381 597.795 359.439 598.428 359.439C599.248 359.439 599.734 359.152 599.887 358.578C600.039 357.992 600.174 355.971 600.291 352.514L602.664 352.777C602.641 353.809 602.617 354.6 602.594 355.15C602.57 355.701 602.535 356.328 602.488 357.031C602.441 357.723 602.4 358.232 602.365 358.561C602.33 358.877 602.254 359.246 602.137 359.668C602.031 360.09 601.938 360.377 601.855 360.529C601.773 360.682 601.621 360.863 601.398 361.074C601.188 361.297 600.994 361.432 600.818 361.479C600.654 361.525 600.396 361.584 600.045 361.654C599.705 361.736 599.383 361.777 599.078 361.777C598.785 361.777 598.387 361.777 597.883 361.777C596.371 361.777 595.422 361.637 595.035 361.355C594.648 361.086 594.455 360.383 594.455 359.246V345.975ZM628.838 351.688L631.176 350.58C633.379 354.061 635.471 357.588 637.451 361.162L634.99 362.234C634.416 361.156 633.771 360.008 633.057 358.789C624.607 360.066 616.205 360.857 607.85 361.162L607.709 358.754C610.088 358.66 611.793 358.572 612.824 358.49C614.266 355.678 615.631 352.572 616.92 349.174H606.883V346.766H637.117V349.174H619.908C618.736 352.268 617.418 355.303 615.953 358.279C621.613 357.846 626.881 357.283 631.756 356.592C631.545 356.205 631.234 355.672 630.824 354.992C630.414 354.301 630.051 353.686 629.734 353.146C629.43 352.607 629.131 352.121 628.838 351.688ZM623.758 329.768C628.199 333.729 633.191 337.221 638.734 340.244L637.521 342.582C631.791 339.512 626.617 335.867 622 331.648C617.395 335.867 612.221 339.512 606.479 342.582L605.266 340.244C610.809 337.221 615.801 333.729 620.242 329.768H623.758ZM611.998 342.441V340.104H632.002V342.441H611.998ZM670.023 359.721C667.164 360.201 664.152 360.441 660.988 360.441C656.594 360.441 653.418 359.932 651.461 358.912C649.504 357.893 648.525 356.275 648.525 354.061C648.525 350.24 652.141 347.316 659.371 345.289C659.031 344.188 658.58 343.42 658.018 342.986C657.455 342.553 656.729 342.336 655.838 342.336C654.396 342.336 652.768 343.033 650.951 344.428C649.146 345.811 647.318 347.814 645.467 350.439L643.27 349.033C646.223 344.932 648.637 340.777 650.512 336.57H643.498V334.268H651.479C652.029 332.92 652.568 331.455 653.096 329.873L655.697 330.488C655.217 331.766 654.736 333.025 654.256 334.268H669.883V336.57H653.289C652.492 338.375 651.613 340.238 650.652 342.16L650.688 342.195C652.773 340.754 654.648 340.033 656.312 340.033C659.148 340.033 661.029 341.568 661.955 344.639C664.381 344.088 667.129 343.619 670.199 343.232L670.463 345.57C667.193 346.004 664.527 346.461 662.465 346.941C662.781 348.746 662.939 351.084 662.939 353.955H660.162C660.162 351.365 660.051 349.256 659.828 347.627C654.121 349.279 651.268 351.354 651.268 353.85C651.268 354.494 651.385 355.045 651.619 355.502C651.865 355.959 652.311 356.398 652.955 356.82C653.611 357.242 654.607 357.564 655.943 357.787C657.291 357.998 658.973 358.104 660.988 358.104C663.648 358.104 666.578 357.84 669.777 357.312L670.023 359.721ZM681.467 338.328V341.756H689.939V338.328H681.467ZM681.467 336.359H689.939V333.072H681.467V336.359ZM706.533 338.328H697.709V341.756H706.533V338.328ZM706.533 336.359V333.072H697.709V336.359H706.533ZM688.85 353.604H684.209V351.547H689.096C689.096 351.477 689.102 351.359 689.113 351.195C689.137 351.02 689.148 350.885 689.148 350.791V348.137H684.93V345.975H702.719V348.137H698.781V351.547H703.281V353.604H698.781V360.723H696.162V353.604H691.486C690.936 356.697 689.219 359.193 686.336 361.092L684.244 359.439C686.787 357.811 688.322 355.865 688.85 353.604ZM678.707 361.777V330.805H692.629V343.812H681.467V361.777H678.707ZM695.002 330.805H709.293V356.943C709.293 358.982 709.047 360.254 708.555 360.758C708.062 361.262 706.809 361.514 704.793 361.514C703.809 361.514 702.49 361.455 700.838 361.338L700.732 358.93C702.725 359.047 703.938 359.105 704.371 359.105C705.402 359.105 706.018 359.012 706.217 358.824C706.428 358.625 706.533 358.021 706.533 357.014V343.812H695.002V330.805ZM696.162 348.137H691.732V350.545C691.732 350.662 691.727 350.838 691.715 351.072C691.703 351.295 691.697 351.453 691.697 351.547H696.162V348.137ZM736.943 347.592H745.047V349.648H736.943V352.883H745.047V354.939H736.943V358.174H746.312V360.512H726.572V362.234H723.777V347.943C723.133 349.479 722.312 350.932 721.316 352.303L719.383 350.211V362.129H716.676V344.744C715.668 346.619 714.648 348.189 713.617 349.455L712.404 346.432C715.768 341.779 718.094 336.248 719.383 329.838L722.002 330.348C721.404 333.582 720.531 336.617 719.383 339.453V349.561C722.066 346.15 724.094 342.506 725.465 338.627L728.277 339.242C727.961 340.156 727.598 341.1 727.188 342.072H734.641C735.051 341.111 735.484 339.963 735.941 338.627L738.684 339.242C738.391 340.203 738.051 341.146 737.664 342.072H745.943V344.34H736.943V347.592ZM734.219 347.592V344.34H726.572V347.592H734.219ZM734.219 352.883V349.648H726.572V352.883H734.219ZM734.219 354.939H726.572V358.174H734.219V354.939ZM742.709 330.998H745.363V338.047H723.268V330.998H725.939V335.779H732.953V329.838H735.695V335.779H742.709V330.998Z" fill="white"/>
</svg>
