<svg width="1024" height="512" viewBox="0 0 1024 512" fill="none" xmlns="http://www.w3.org/2000/svg">
<rect width="1024" height="512" fill="#1747E6"/>
<path d="M127.264 249.264C127.264 271.344 111.904 282 93.856 282H73.792V216.528H93.856C111.808 216.528 127.264 227.184 127.264 249.264ZM119.488 249.264C119.488 232.272 108.352 223.632 93.856 223.632H81.28V274.896H93.856C108.352 274.896 119.488 266.352 119.488 249.264ZM177.089 282H141.761V216.528H174.593V223.632H149.249V244.752H173.633V251.856H149.249V274.896H177.089V282ZM240.738 282H230.946L202.914 252.24V251.856C221.154 249.168 225.762 243.792 225.762 235.92C225.762 228.24 220.002 223.632 210.114 223.632H201.186V282H193.698V216.528H210.978C224.322 216.528 233.634 222.864 233.634 235.152C233.634 245.136 228.834 251.664 215.202 255.408V255.6L240.738 282ZM265.776 282H258.192V223.728H239.568V216.528H284.4V223.728H265.776V282ZM341.262 282H333.006L324.366 260.4H297.582L289.038 282H280.974L308.046 216.528H314.19L341.262 282ZM310.926 227.088L300.366 253.584H321.678L311.118 227.088H310.926ZM402.962 283.728C386.642 283.728 373.298 271.824 373.298 249.264C373.298 227.088 387.218 214.8 404.69 214.8C413.33 214.8 420.626 217.392 425.81 221.904V231.312H425.426C420.242 225.168 413.138 222 404.978 222C391.442 222 381.266 231.696 381.266 249.456C381.266 267.792 390.866 276.72 402.962 276.72C413.81 276.72 422.834 270.864 423.122 254.832H400.466V254.448L404.21 247.632H430.898C430.994 248.304 430.994 251.472 430.994 252.048C430.994 275.088 417.746 283.728 402.962 283.728ZM451.271 282H444.167V233.52H451.271V282ZM451.655 217.392H443.783V210H451.655V217.392ZM499.751 269.616V242.832C496.679 240.048 492.263 238.416 487.847 238.416C477.959 238.416 471.335 245.136 471.335 256.656C471.335 267.984 477.767 275.088 487.175 275.088C492.359 275.088 496.775 272.976 499.751 269.616ZM486.119 300.72C480.647 300.72 474.215 299.376 470.087 295.44V286.992H470.279C473.735 292.08 479.783 294.288 485.831 294.288C496.007 294.288 499.751 288.336 499.751 280.656V276.24H499.655C496.007 279.504 490.919 281.616 484.967 281.616C473.255 281.616 463.559 272.976 463.559 256.656C463.559 240.624 473.255 231.792 486.215 231.792C491.687 231.792 496.679 233.808 500.231 236.4H500.423L506.567 233.136H506.855V280.272C506.855 294 498.791 300.72 486.119 300.72Z" fill="white"/>
<path d="M68.6289 312.227V310.551H83.3711V312.227H68.6289ZM65.9219 317.031H86.0781V318.707H77.8516C77.8359 321.605 77.2031 323.863 75.9531 325.48C74.7031 327.098 72.6797 328.281 69.8828 329.031L69.3555 327.379C71.7539 326.691 73.4453 325.695 74.4297 324.391C75.4141 323.086 75.9141 321.191 75.9297 318.707H65.9219V317.031ZM106.211 313.363H96.7656C95.8203 316.129 94.2266 318.551 91.9844 320.629L90.6836 319.48C93.6602 316.684 95.3828 313.25 95.8516 309.18L97.6445 309.309C97.5664 310.043 97.4297 310.832 97.2344 311.676H108.156V312.086C108.156 317.414 106.895 321.391 104.371 324.016C101.855 326.641 97.8477 328.184 92.3477 328.645L92.0547 326.969C96.9375 326.508 100.477 325.234 102.672 323.148C104.875 321.055 106.055 317.793 106.211 313.363ZM115.41 326.945C120.035 325.812 123.402 323.973 125.512 321.426C127.621 318.879 128.902 315.094 129.355 310.07L131.371 310.27C131.051 313.949 130.316 317 129.168 319.422C128.027 321.844 126.402 323.805 124.293 325.305C122.191 326.797 119.445 327.961 116.055 328.797L115.41 326.945ZM140.875 327.836H138.953V310.891H157.047V327.836H140.875ZM140.875 326.125H155.125V312.59H140.875V326.125ZM163.82 327.203C168.906 326.758 172.684 325.492 175.152 323.406C177.629 321.32 179.273 317.988 180.086 313.41L181.844 313.691C180.961 318.652 179.137 322.324 176.371 324.707C173.613 327.082 169.523 328.5 164.102 328.961L163.82 327.203ZM176.535 308.969L177.859 308.277C178.516 309.348 179.188 310.539 179.875 311.852L178.551 312.52C177.973 311.418 177.301 310.234 176.535 308.969ZM179.781 308.582L181.117 307.867C181.758 308.938 182.445 310.16 183.18 311.535L181.844 312.203C181.141 310.875 180.453 309.668 179.781 308.582ZM162.859 317.875L163.188 316.164C165.984 316.641 168.586 317.129 170.992 317.629L170.652 319.363C166.848 318.613 164.25 318.117 162.859 317.875ZM163.891 311.969L164.219 310.234C167 310.68 169.723 311.176 172.387 311.723L172.047 313.434C169.797 312.973 167.078 312.484 163.891 311.969ZM186.227 320.277V318.449H205.773V320.277H186.227ZM228.016 328.48C226.109 328.801 224.102 328.961 221.992 328.961C219.062 328.961 216.945 328.621 215.641 327.941C214.336 327.262 213.684 326.184 213.684 324.707C213.684 322.16 216.094 320.211 220.914 318.859C220.688 318.125 220.387 317.613 220.012 317.324C219.637 317.035 219.152 316.891 218.559 316.891C217.598 316.891 216.512 317.355 215.301 318.285C214.098 319.207 212.879 320.543 211.645 322.293L210.18 321.355C212.148 318.621 213.758 315.852 215.008 313.047H210.332V311.512H215.652C216.02 310.613 216.379 309.637 216.73 308.582L218.465 308.992C218.145 309.844 217.824 310.684 217.504 311.512H227.922V313.047H216.859C216.328 314.25 215.742 315.492 215.102 316.773L215.125 316.797C216.516 315.836 217.766 315.355 218.875 315.355C220.766 315.355 222.02 316.379 222.637 318.426C224.254 318.059 226.086 317.746 228.133 317.488L228.309 319.047C226.129 319.336 224.352 319.641 222.977 319.961C223.188 321.164 223.293 322.723 223.293 324.637H221.441C221.441 322.91 221.367 321.504 221.219 320.418C217.414 321.52 215.512 322.902 215.512 324.566C215.512 324.996 215.59 325.363 215.746 325.668C215.91 325.973 216.207 326.266 216.637 326.547C217.074 326.828 217.738 327.043 218.629 327.191C219.527 327.332 220.648 327.402 221.992 327.402C223.766 327.402 225.719 327.227 227.852 326.875L228.016 328.48ZM246.086 318.355H241.961V320.758H246.086V318.355ZM247.797 318.355V320.758H252.039V318.355H247.797ZM246.086 316.984V314.723H241.961V316.984H246.086ZM247.797 316.984H252.039V314.723H247.797V316.984ZM246.977 312.859C248.352 312.234 249.703 311.52 251.031 310.715H243.496C245.082 311.668 246.242 312.383 246.977 312.859ZM238.961 313.527L237.707 314.629C236.152 312.871 234.824 311.457 233.723 310.387L235 309.285C236.312 310.605 237.633 312.02 238.961 313.527ZM233.277 317.629H238.316V325.07C238.746 325.836 239.27 326.422 239.887 326.828C240.504 327.227 241.387 327.516 242.535 327.695C243.691 327.867 245.301 327.953 247.363 327.953H254.605L254.512 329.559H247.293C244.426 329.559 242.27 329.359 240.824 328.961C239.387 328.562 238.301 327.852 237.566 326.828C236.605 327.883 235.383 328.93 233.898 329.969L233.031 328.434C234.375 327.52 235.535 326.551 236.512 325.527V319.234H233.277V317.629ZM239.758 310.715V309.203H253.844V310.715C252.789 311.496 251.277 312.355 249.309 313.293H253.844V323.922C253.844 325.055 253.727 325.75 253.492 326.008C253.258 326.266 252.629 326.395 251.605 326.395C250.996 326.395 250.215 326.371 249.262 326.324L249.203 324.836C250.305 324.898 251.027 324.93 251.371 324.93C251.691 324.93 251.883 324.883 251.945 324.789C252.008 324.688 252.039 324.391 252.039 323.898V322.117H247.797V326.324H246.086V322.117H241.961V326.488H240.203V313.293H244.867C243.938 312.715 243.023 312.16 242.125 311.629L243.016 310.715H239.758ZM263.125 309.496C262.93 313.832 262.836 317.441 262.844 320.324C262.844 321.832 262.934 323.062 263.113 324.016C263.301 324.961 263.605 325.691 264.027 326.207C264.449 326.715 264.941 327.062 265.504 327.25C266.066 327.43 266.793 327.52 267.684 327.52C269.363 327.52 270.898 326.883 272.289 325.609C273.688 324.336 274.852 322.484 275.781 320.055L277.434 320.699C276.395 323.496 275.039 325.625 273.367 327.086C271.695 328.547 269.801 329.277 267.684 329.277C265.152 329.277 263.398 328.633 262.422 327.344C261.453 326.055 260.969 323.715 260.969 320.324C260.969 317.105 261.055 313.473 261.227 309.426L263.125 309.496ZM282.285 311.348C288.637 311.348 295.105 311.188 301.691 310.867L301.797 312.543C297.766 312.91 294.672 313.867 292.516 315.414C290.367 316.953 289.293 318.852 289.293 321.109C289.293 322.953 289.906 324.41 291.133 325.48C292.367 326.551 294.016 327.086 296.078 327.086C297.023 327.086 298.023 327 299.078 326.828L299.301 328.527C298.309 328.707 297.211 328.797 296.008 328.797C293.352 328.797 291.238 328.121 289.668 326.77C288.105 325.41 287.324 323.582 287.324 321.285C287.324 319.426 287.941 317.758 289.176 316.281C290.418 314.797 292.176 313.633 294.449 312.789V312.73C289.684 312.926 285.629 313.023 282.285 313.023V311.348ZM306.766 311.395H315.062V308.395H316.938V311.395H325.234V313H316.938V317.324H326.242V318.93H317.758C319.836 321.844 322.93 324.57 327.039 327.109L326.148 328.645C322.148 326.113 319.078 323.371 316.938 320.418V330.086H315.062V320.348C312.906 323.371 309.836 326.137 305.852 328.645L304.961 327.109C309.07 324.562 312.164 321.836 314.242 318.93H305.758V317.324H315.062V313H306.766V311.395ZM349.668 312.449H340.938V318.812H350.559V320.395H342.262C344.324 322.973 347.25 325.395 351.039 327.66L350.148 329.219C346.148 326.758 343.078 324.086 340.938 321.203V330.086H339.062V321.156C336.906 324.102 333.836 326.789 329.852 329.219L328.961 327.66C332.75 325.387 335.676 322.965 337.738 320.395H329.441V318.812H339.062V312.449H330.332V310.844H339.062V308.395H340.938V310.844H349.668V312.449ZM331.984 313.434L333.613 312.637C334.48 313.965 335.48 315.695 336.613 317.828L334.984 318.566C334.188 317.035 333.188 315.324 331.984 313.434ZM343.48 317.805C344.652 316.078 345.582 314.363 346.27 312.66L347.898 313.363C347.195 315.059 346.242 316.801 345.039 318.59L343.48 317.805ZM372.016 328.48C370.109 328.801 368.102 328.961 365.992 328.961C363.062 328.961 360.945 328.621 359.641 327.941C358.336 327.262 357.684 326.184 357.684 324.707C357.684 322.16 360.094 320.211 364.914 318.859C364.688 318.125 364.387 317.613 364.012 317.324C363.637 317.035 363.152 316.891 362.559 316.891C361.598 316.891 360.512 317.355 359.301 318.285C358.098 319.207 356.879 320.543 355.645 322.293L354.18 321.355C356.148 318.621 357.758 315.852 359.008 313.047H354.332V311.512H359.652C360.02 310.613 360.379 309.637 360.73 308.582L362.465 308.992C362.145 309.844 361.824 310.684 361.504 311.512H371.922V313.047H360.859C360.328 314.25 359.742 315.492 359.102 316.773L359.125 316.797C360.516 315.836 361.766 315.355 362.875 315.355C364.766 315.355 366.02 316.379 366.637 318.426C368.254 318.059 370.086 317.746 372.133 317.488L372.309 319.047C370.129 319.336 368.352 319.641 366.977 319.961C367.188 321.164 367.293 322.723 367.293 324.637H365.441C365.441 322.91 365.367 321.504 365.219 320.418C361.414 321.52 359.512 322.902 359.512 324.566C359.512 324.996 359.59 325.363 359.746 325.668C359.91 325.973 360.207 326.266 360.637 326.547C361.074 326.828 361.738 327.043 362.629 327.191C363.527 327.332 364.648 327.402 365.992 327.402C367.766 327.402 369.719 327.227 371.852 326.875L372.016 328.48ZM378.109 313.41C382.828 312.176 386.391 311.559 388.797 311.559C394.828 311.559 397.844 314.078 397.844 319.117C397.844 322.094 396.559 324.359 393.988 325.914C391.418 327.461 387.605 328.234 382.551 328.234L382.434 326.488C391.395 326.488 395.875 324.09 395.875 319.293C395.875 317.277 395.285 315.785 394.105 314.816C392.934 313.848 391.113 313.363 388.645 313.363C386.465 313.363 383.09 313.961 378.52 315.156L378.109 313.41ZM417.402 310.188C414.137 312.812 411.121 315.031 408.355 316.844C407.395 317.469 406.789 317.898 406.539 318.133C406.289 318.359 406.164 318.609 406.164 318.883C406.164 319.141 406.277 319.379 406.504 319.598C406.73 319.809 407.258 320.203 408.086 320.781C411.43 323.055 414.781 325.652 418.141 328.574L416.852 329.875C413.555 327.023 410.273 324.469 407.008 322.211C405.727 321.328 404.918 320.707 404.582 320.348C404.246 319.98 404.078 319.492 404.078 318.883C404.078 318.242 404.254 317.734 404.605 317.359C404.957 316.984 405.82 316.348 407.195 315.449C410.188 313.465 413.195 311.266 416.219 308.852L417.402 310.188ZM438.977 327.156C441.711 326.516 443.078 324.902 443.078 322.316C443.078 320.988 442.621 319.996 441.707 319.34C440.801 318.684 439.379 318.355 437.441 318.355C434.191 318.355 430.809 319.348 427.293 321.332L426.59 320.031L439.551 311.852V311.805H428.324V310.234H442.797L442.891 311.828L433.48 317.512L433.504 317.535C435.105 317.105 436.602 316.891 437.992 316.891C442.695 316.891 445.047 318.633 445.047 322.117C445.047 324.344 444.258 326.055 442.68 327.25C441.109 328.438 438.844 329.031 435.883 329.031C431.352 329.031 429.086 327.75 429.086 325.188C429.086 324.258 429.543 323.469 430.457 322.82C431.371 322.164 432.676 321.836 434.371 321.836C437.73 321.836 439.41 322.988 439.41 325.293C439.41 325.848 439.266 326.469 438.977 327.156ZM437.148 327.426C437.547 326.676 437.75 326.012 437.758 325.434C437.758 324.059 436.598 323.371 434.277 323.371C433.207 323.371 432.379 323.551 431.793 323.91C431.207 324.27 430.914 324.695 430.914 325.188C430.914 325.891 431.324 326.449 432.145 326.863C432.973 327.27 434.219 327.473 435.883 327.473C436.18 327.473 436.602 327.457 437.148 327.426ZM462.953 326.395H461.195V308.242H470.395V309.766H462.953V326.395ZM490.211 313.363H480.766C479.82 316.129 478.227 318.551 475.984 320.629L474.684 319.48C477.66 316.684 479.383 313.25 479.852 309.18L481.645 309.309C481.566 310.043 481.43 310.832 481.234 311.676H492.156V312.086C492.156 317.414 490.895 321.391 488.371 324.016C485.855 326.641 481.848 328.184 476.348 328.645L476.055 326.969C480.938 326.508 484.477 325.234 486.672 323.148C488.875 321.055 490.055 317.793 490.211 313.363ZM513.285 310.164H515.242V316.316C515.242 320.348 514.332 323.363 512.512 325.363C510.691 327.363 507.715 328.641 503.582 329.195L503.172 327.449C506.914 326.887 509.535 325.785 511.035 324.145C512.535 322.504 513.285 319.91 513.285 316.363V310.164ZM500.758 320.723V310.164H502.668V320.723H500.758ZM523.434 311.277H540.566V312.953H532.961V325.773H541.293V327.449H522.707V325.773H531.039V312.953H523.434V311.277ZM546.332 319C549.77 318.523 553.125 317.477 556.398 315.859C559.672 314.242 562.324 312.32 564.355 310.094L565.527 311.395C563.668 313.426 561.277 315.227 558.355 316.797V329.078H556.41V317.781C553.223 319.266 549.957 320.246 546.613 320.723L546.332 319ZM572.488 328.891L572.219 327.203C575.227 326.914 577.699 326.34 579.637 325.48C581.574 324.613 583.078 323.375 584.148 321.766C581.492 320.391 578.82 319.117 576.133 317.945L576.977 316.34C579.586 317.473 582.273 318.742 585.039 320.148C585.852 318.289 586.301 315.945 586.387 313.117H576.566C575.652 316 574.086 318.48 571.867 320.559L570.613 319.41C571.988 318.113 573.109 316.578 573.977 314.805C574.844 313.023 575.387 311.125 575.605 309.109L577.363 309.203C577.316 309.75 577.195 310.496 577 311.441H588.332V312.156C588.332 317.547 587.066 321.57 584.535 324.227C582.012 326.875 577.996 328.43 572.488 328.891ZM594.227 320.277V318.449H613.773V320.277H594.227ZM625.047 312.332H626.805V330.473H617.605V328.961H625.047V312.332ZM660.016 328.48C658.109 328.801 656.102 328.961 653.992 328.961C651.062 328.961 648.945 328.621 647.641 327.941C646.336 327.262 645.684 326.184 645.684 324.707C645.684 322.16 648.094 320.211 652.914 318.859C652.688 318.125 652.387 317.613 652.012 317.324C651.637 317.035 651.152 316.891 650.559 316.891C649.598 316.891 648.512 317.355 647.301 318.285C646.098 319.207 644.879 320.543 643.645 322.293L642.18 321.355C644.148 318.621 645.758 315.852 647.008 313.047H642.332V311.512H647.652C648.02 310.613 648.379 309.637 648.73 308.582L650.465 308.992C650.145 309.844 649.824 310.684 649.504 311.512H659.922V313.047H648.859C648.328 314.25 647.742 315.492 647.102 316.773L647.125 316.797C648.516 315.836 649.766 315.355 650.875 315.355C652.766 315.355 654.02 316.379 654.637 318.426C656.254 318.059 658.086 317.746 660.133 317.488L660.309 319.047C658.129 319.336 656.352 319.641 654.977 319.961C655.188 321.164 655.293 322.723 655.293 324.637H653.441C653.441 322.91 653.367 321.504 653.219 320.418C649.414 321.52 647.512 322.902 647.512 324.566C647.512 324.996 647.59 325.363 647.746 325.668C647.91 325.973 648.207 326.266 648.637 326.547C649.074 326.828 649.738 327.043 650.629 327.191C651.527 327.332 652.648 327.402 653.992 327.402C655.766 327.402 657.719 327.227 659.852 326.875L660.016 328.48ZM676.961 322.715H682.844V321.566H676.961V322.715ZM676.961 323.852V325H682.844V323.852H676.961ZM669.156 322.715H675.039V321.566H669.156V322.715ZM669.156 325H675.039V323.852H669.156V325ZM686.875 327.18V328.598H676.961V330.449H675.039V328.598H665.125V327.18H675.039V326.195H669.156H667.363V320.348H675.039V319.41H665.371V318.039H671.969L670.363 317.172C671.035 316.789 671.57 316.422 671.969 316.07C669.219 316.422 666.977 316.664 665.242 316.797L665.102 315.426C667.648 315.23 670.266 314.949 672.953 314.582C673.031 314.309 673.094 314.039 673.141 313.773H665.969V312.496H673.188V311.195H665.559V309.812H673.188V308.512H675.086V312.109C675.086 313.695 674.895 314.883 674.512 315.672C674.129 316.453 673.344 317.242 672.156 318.039H675.039V316.668H676.914V308.512H678.836V309.812H686.441V311.195H678.836V312.496H686.031V313.773H678.836V315.062H686.805V316.41H678.836V317.441H676.961V318.039H686.629V319.41H676.961V320.348H684.637V326.195H676.961V327.18H686.875ZM693.449 310.551V316.715H699.039V308.488H700.961V316.715H706.551V310.551H708.402V318.332H700.961V326.852H707.676V320.242H709.527V329.992H707.676V328.48H692.324V329.992H690.473V320.242H692.324V326.852H699.039V318.332H691.598V310.551H693.449ZM713.758 311.605H725.922V308.488H727.668V311.605H734.242V313.117H727.668V318.496C727.973 319.441 728.125 320.426 728.125 321.449C728.125 323.816 727.484 325.629 726.203 326.887C724.93 328.145 722.867 328.973 720.016 329.371L719.758 327.684C722.016 327.395 723.672 326.824 724.727 325.973C725.781 325.113 726.348 323.941 726.426 322.457V322.141H726.379C725.645 323.211 724.426 323.75 722.723 323.758C721.395 323.758 720.285 323.32 719.395 322.445C718.512 321.57 718.07 320.484 718.07 319.188C718.07 317.891 718.512 316.809 719.395 315.941C720.285 315.066 721.395 314.629 722.723 314.629C723.941 314.629 724.992 314.988 725.875 315.707H725.922V313.117H713.758V311.605ZM720.766 317.09C720.172 317.66 719.875 318.363 719.875 319.199C719.875 320.027 720.172 320.73 720.766 321.309C721.367 321.879 722.109 322.164 722.992 322.164C723.891 322.164 724.633 321.879 725.219 321.309C725.812 320.73 726.109 320.027 726.109 319.199C726.109 318.363 725.812 317.66 725.219 317.09C724.633 316.52 723.891 316.234 722.992 316.234C722.109 316.234 721.367 316.52 720.766 317.09ZM750.977 327.156C753.711 326.516 755.078 324.902 755.078 322.316C755.078 320.988 754.621 319.996 753.707 319.34C752.801 318.684 751.379 318.355 749.441 318.355C746.191 318.355 742.809 319.348 739.293 321.332L738.59 320.031L751.551 311.852V311.805H740.324V310.234H754.797L754.891 311.828L745.48 317.512L745.504 317.535C747.105 317.105 748.602 316.891 749.992 316.891C754.695 316.891 757.047 318.633 757.047 322.117C757.047 324.344 756.258 326.055 754.68 327.25C753.109 328.438 750.844 329.031 747.883 329.031C743.352 329.031 741.086 327.75 741.086 325.188C741.086 324.258 741.543 323.469 742.457 322.82C743.371 322.164 744.676 321.836 746.371 321.836C749.73 321.836 751.41 322.988 751.41 325.293C751.41 325.848 751.266 326.469 750.977 327.156ZM749.148 327.426C749.547 326.676 749.75 326.012 749.758 325.434C749.758 324.059 748.598 323.371 746.277 323.371C745.207 323.371 744.379 323.551 743.793 323.91C743.207 324.27 742.914 324.695 742.914 325.188C742.914 325.891 743.324 326.449 744.145 326.863C744.973 327.27 746.219 327.473 747.883 327.473C748.18 327.473 748.602 327.457 749.148 327.426ZM763.527 311.277H780.332V327.449H763.527V325.773H778.48V312.953H763.527V311.277ZM787.023 326.852L787.117 324.977C792.977 325.188 798.898 325.828 804.883 326.898L804.637 328.773C798.715 327.703 792.844 327.062 787.023 326.852ZM789.039 319.117L789.156 317.242C793.766 317.438 798.352 317.934 802.914 318.73L802.645 320.605C797.973 319.793 793.438 319.297 789.039 319.117ZM788.148 312.133L788.242 310.316C793.617 310.496 798.906 310.977 804.109 311.758L803.898 313.574C798.68 312.809 793.43 312.328 788.148 312.133ZM814 314.723H825.039L824.148 326.242H828.039V327.836H811.961V326.242H822.227L823.023 316.316H814V314.723ZM836.148 313.07V311.277H851.852V313.07H836.148ZM834.473 327.449V325.645H853.527V327.449H834.473ZM860.629 312.227V310.551H875.371V312.227H860.629ZM857.922 317.031H878.078V318.707H869.852C869.836 321.605 869.203 323.863 867.953 325.48C866.703 327.098 864.68 328.281 861.883 329.031L861.355 327.379C863.754 326.691 865.445 325.695 866.43 324.391C867.414 323.086 867.914 321.191 867.93 318.707H857.922V317.031ZM884.219 320.875C886.969 320.492 889.645 319.66 892.246 318.379C894.848 317.098 896.973 315.578 898.621 313.82L899.699 315.039C898.176 316.656 896.281 318.082 894.016 319.316V329.078H892.164V320.219C889.602 321.391 887.043 322.152 884.488 322.504L884.219 320.875Z" fill="white"/>
</svg>
