<svg width="1024" height="512" viewBox="0 0 1024 512" fill="none" xmlns="http://www.w3.org/2000/svg">
<rect width="1024" height="512" fill="#E63A69"/>
<path d="M77.056 275.228C73.408 275.228 69.568 274.076 67.072 271.964V263.708H67.456C69.76 266.588 72.832 268.028 75.808 268.028C81.856 268.028 85.024 263.9 85.024 256.028V208.028H92.512V257.18C92.512 267.836 87.808 275.228 77.056 275.228ZM144.995 273.5H138.083V269.564H137.891C134.147 273.02 129.251 275.228 123.203 275.228C113.891 275.228 106.883 269.468 106.883 260.156C106.883 250.652 113.411 244.508 124.835 244.508C129.827 244.508 134.243 245.66 137.891 247.58V242.492C137.891 233.372 131.939 229.724 124.643 229.724C118.595 229.724 113.315 232.796 110.147 236.54H109.859V228.956C114.083 225.308 119.843 223.292 125.891 223.292C136.739 223.292 144.995 229.148 144.995 242.012V273.5ZM137.891 263.228V253.724C134.819 251.804 130.403 250.46 126.083 250.46C118.499 250.46 114.083 253.724 114.083 259.676C114.083 264.86 117.827 268.988 125.411 268.988C130.211 268.988 134.627 266.876 137.891 263.228ZM205.771 249.308C205.771 265.82 195.883 275.228 182.443 275.228C176.683 275.228 171.883 273.5 168.523 271.1H168.427V292.028H161.323V225.02H168.331V229.148H168.427C172.459 225.5 177.451 223.292 183.595 223.292C196.171 223.292 205.771 232.796 205.771 249.308ZM198.187 249.308C198.187 237.212 191.563 229.916 181.675 229.916C176.203 229.916 171.691 232.22 168.427 235.964V263.9C171.499 266.78 175.915 268.7 180.907 268.7C191.467 268.7 198.187 261.596 198.187 249.308ZM253.464 273.5H246.552V269.564H246.36C242.616 273.02 237.72 275.228 231.672 275.228C222.359 275.228 215.352 269.468 215.352 260.156C215.352 250.652 221.88 244.508 233.304 244.508C238.296 244.508 242.712 245.66 246.36 247.58V242.492C246.36 233.372 240.408 229.724 233.112 229.724C227.064 229.724 221.784 232.796 218.616 236.54H218.328V228.956C222.552 225.308 228.312 223.292 234.359 223.292C245.208 223.292 253.464 229.148 253.464 242.012V273.5ZM246.36 263.228V253.724C243.288 251.804 238.872 250.46 234.552 250.46C226.968 250.46 222.552 253.724 222.552 259.676C222.552 264.86 226.296 268.988 233.88 268.988C238.68 268.988 243.096 266.876 246.36 263.228ZM310.496 273.5H303.392V243.164C303.392 233.948 297.728 229.916 290.336 229.916C284.768 229.916 280.352 232.028 276.896 235.964V273.5H269.792V225.02H276.8V229.148H276.896C280.928 225.5 286.016 223.292 292.16 223.292C302.24 223.292 310.496 228.956 310.496 240.86V273.5ZM389.439 257.18C389.439 267.26 382.047 275.228 368.799 275.228C361.887 275.228 355.167 273.308 350.655 269.084V260.06H350.943C355.551 265.532 361.983 268.412 368.607 268.412C376.863 268.412 381.855 264.284 381.855 257.756C381.855 240.86 350.943 246.908 350.943 223.964C350.943 214.94 356.703 206.3 370.431 206.3C376.671 206.3 382.815 208.22 387.135 212.444V221.468H386.847C382.431 215.9 376.479 213.116 370.527 213.116C362.655 213.116 358.623 217.436 358.623 223.388C358.623 240.092 389.439 233.852 389.439 257.18ZM412.097 273.5H404.993V231.644H401.057V231.26L404.993 225.02V210.428H412.097V225.02H424.001V231.644H412.097V273.5ZM474.143 225.02V256.22C474.143 268.316 466.271 275.228 454.271 275.228C442.463 275.228 434.591 268.316 434.591 256.22V225.02H441.695V255.452C441.695 264.572 446.495 268.796 454.367 268.796C462.143 268.796 467.039 264.572 467.039 255.452V225.02H474.143ZM530.415 273.5H523.407V269.468H523.311C519.279 273.02 514.287 275.228 508.047 275.228C495.471 275.228 485.871 265.82 485.871 249.308C485.871 232.796 495.855 223.292 509.295 223.292C514.959 223.292 519.759 225.02 523.215 227.42H523.311V201.5H530.415V273.5ZM523.311 262.556V234.716C520.239 231.74 515.727 229.916 510.831 229.916C500.271 229.916 493.551 236.924 493.551 249.308C493.551 261.404 500.079 268.7 510.063 268.7C515.439 268.7 520.047 266.396 523.311 262.556ZM583.964 269.852C579.74 273.404 573.596 275.228 567.068 275.228C553.244 275.228 542.684 266.012 542.684 249.308C542.684 232.796 552.092 223.292 564.956 223.292C576.86 223.292 586.172 232.22 586.172 245.66C586.172 246.908 586.076 248.732 586.076 250.076H550.172C550.268 262.268 557.66 268.796 568.028 268.796C574.94 268.796 580.316 266.012 583.58 261.884H583.964V269.852ZM564.956 229.724C556.796 229.724 551.324 235.1 550.364 243.932H578.78C578.588 235.676 572.924 229.724 564.956 229.724ZM640.027 273.5H632.923V243.164C632.923 233.948 627.259 229.916 619.867 229.916C614.299 229.916 609.883 232.028 606.427 235.964V273.5H599.323V225.02H606.331V229.148H606.427C610.459 225.5 615.547 223.292 621.691 223.292C631.771 223.292 640.027 228.956 640.027 240.86V273.5ZM664.003 273.5H656.899V231.644H652.963V231.26L656.899 225.02V210.428H664.003V225.02H675.907V231.644H664.003V273.5ZM767.577 240.764C767.577 262.844 752.217 273.5 734.169 273.5H714.105V208.028H734.169C752.121 208.028 767.577 218.684 767.577 240.764ZM759.801 240.764C759.801 223.772 748.665 215.132 734.169 215.132H721.593V266.396H734.169C748.665 266.396 759.801 257.852 759.801 240.764ZM832.043 273.5H823.787L815.147 251.9H788.363L779.819 273.5H771.755L798.827 208.028H804.971L832.043 273.5ZM801.707 218.588L791.147 245.084H812.459L801.899 218.588H801.707ZM897.865 240.764C897.865 263.228 883.561 275.228 866.953 275.228C850.825 275.228 836.329 263.324 836.329 240.764C836.329 218.3 850.633 206.3 867.145 206.3C883.369 206.3 897.865 218.204 897.865 240.764ZM889.897 240.764C889.897 222.908 879.625 213.404 867.145 213.404C854.761 213.404 844.297 222.716 844.297 240.764C844.297 258.62 854.569 268.124 866.953 268.124C879.433 268.124 889.897 258.812 889.897 240.764Z" fill="white"/>
<path d="M72.1035 315.572V313.164H91.8965V315.572C89.6113 317.904 86.9512 320.043 83.916 321.988V322.885H98.3125V325.363H83.916V331.393C83.916 333.174 83.6875 334.264 83.2305 334.662C82.7734 335.072 81.5605 335.277 79.5918 335.277C78.748 335.277 76.8613 335.213 73.9316 335.084L73.8613 332.605C76.627 332.723 78.4375 332.781 79.293 332.781C80.1602 332.781 80.6641 332.711 80.8047 332.57C80.957 332.43 81.0332 331.926 81.0332 331.059V325.363H65.6875V322.885H81.0332V319.65H82.791C84.6426 318.408 86.418 317.049 88.1172 315.572H72.1035ZM94.1641 310.246H69.8359V316.117H67.1289V307.908H72.4551C71.7637 306.631 71.0195 305.418 70.2227 304.27L72.6484 303.197C73.6094 304.615 74.5527 306.186 75.4785 307.908H80.9277C80.0371 306.256 79.252 304.914 78.5723 303.883L80.998 302.828C82.0762 304.48 83.0488 306.174 83.916 307.908H88.5215C89.459 306.514 90.4199 304.873 91.4043 302.986L93.918 303.777C93.1797 305.242 92.3887 306.619 91.5449 307.908H96.8711V316.117H94.1641V310.246ZM117.104 303.338H119.986V309.209H132.15V311.688H119.986V319.545H130.34V321.953H119.986V331.85H133.486V334.293H102.514V331.85H117.104V321.953H107.084V319.545H117.104V311.688H108.068C107.061 314.594 105.836 317.342 104.395 319.932L101.951 318.648C104.354 314.277 106.164 309.414 107.383 304.059L110.072 304.533C109.779 305.904 109.375 307.463 108.859 309.209H117.104V303.338ZM159.15 305.816L161.312 304.674C162.484 306.619 163.598 308.588 164.652 310.58L162.49 311.617C161.564 309.836 160.451 307.902 159.15 305.816ZM164.195 304.463L166.393 303.268C167.811 305.6 168.959 307.615 169.838 309.314L167.605 310.404C166.504 308.365 165.367 306.385 164.195 304.463ZM139.498 313.305V310.896H146.512C147.18 307.943 147.695 305.412 148.059 303.303L150.66 303.584C150.32 305.693 149.84 308.131 149.219 310.896H152.312C153.414 310.896 154.252 310.896 154.826 310.896C155.4 310.896 156.021 310.967 156.689 311.107C157.369 311.236 157.844 311.348 158.113 311.441C158.395 311.535 158.699 311.781 159.027 312.18C159.367 312.578 159.578 312.941 159.66 313.27C159.754 313.586 159.854 314.143 159.959 314.939C160.064 315.725 160.117 316.463 160.117 317.154C160.117 317.834 160.117 318.836 160.117 320.16C160.117 324.602 159.584 327.971 158.518 330.268C157.451 332.553 156.104 333.695 154.475 333.695C152.436 333.695 149.998 333.045 147.162 331.744L148.059 329.336C150.742 330.484 152.723 331.059 154 331.059C154.387 331.059 154.768 330.836 155.143 330.391C155.529 329.945 155.893 329.289 156.232 328.422C156.572 327.543 156.842 326.354 157.041 324.854C157.24 323.354 157.34 321.666 157.34 319.791C157.34 318.971 157.34 318.385 157.34 318.033C157.34 317.67 157.322 317.207 157.287 316.645C157.252 316.082 157.234 315.707 157.234 315.52C157.234 315.32 157.176 315.057 157.059 314.729C156.941 314.389 156.854 314.184 156.795 314.113C156.736 314.031 156.59 313.908 156.355 313.744C156.133 313.58 155.951 313.492 155.811 313.48C155.682 313.469 155.418 313.439 155.02 313.393C154.633 313.334 154.311 313.305 154.053 313.305C153.807 313.305 153.391 313.305 152.805 313.305H148.639C146.857 320.5 144.479 327.379 141.502 333.941L139.059 332.975C141.871 326.764 144.162 320.207 145.932 313.305H139.498ZM168.045 327.244C166.51 323.096 164.518 318.631 162.068 313.85L164.477 312.812C166.926 317.535 168.941 322.07 170.523 326.418L168.045 327.244ZM183.479 332.781L181.141 334.627C178.691 331.697 176.342 329.143 174.092 326.963L176.289 324.977C178.727 327.367 181.123 329.969 183.479 332.781ZM216.209 319.65V330.584H235.791V319.65H216.209ZM216.209 317.277H235.791V307.117H216.209V317.277ZM213.396 304.674H238.604V335.277H235.791V332.975H216.209V335.277H213.396V304.674ZM258.941 311.512H246.057V309.033H260.594V303.092H263.406V309.033H277.943V311.512H265.059C268.176 317.512 272.904 323.283 279.244 328.826L277.732 331.199C271.732 325.914 266.957 320.037 263.406 313.568V327.174H271.545V329.547H263.406V335.998H260.594V329.547H252.455V327.174H260.594V313.568C257.043 320.049 252.268 325.926 246.268 331.199L244.756 328.826C251.096 323.283 255.824 317.512 258.941 311.512ZM304.012 315.291L306.139 314.148C307.311 316.094 308.424 318.057 309.479 320.037L307.316 321.127C306.145 318.912 305.043 316.967 304.012 315.291ZM309.057 313.92L311.219 312.742C312.637 315.074 313.785 317.09 314.664 318.789L312.467 319.861C311.365 317.822 310.229 315.842 309.057 313.92ZM282.707 310.035V307.521C292.234 307.521 301.938 307.281 311.816 306.801L311.975 309.314C305.904 309.865 301.258 311.33 298.035 313.709C294.824 316.088 293.219 319.041 293.219 322.568C293.219 325.451 294.139 327.719 295.979 329.371C297.83 331.023 300.303 331.85 303.396 331.85C304.814 331.85 306.314 331.721 307.896 331.463L308.23 333.977C306.625 334.27 304.979 334.416 303.291 334.416C299.307 334.416 296.137 333.379 293.781 331.305C291.438 329.219 290.266 326.389 290.266 322.814C290.266 319.885 291.191 317.289 293.043 315.027C294.906 312.754 297.555 310.973 300.988 309.684L300.953 309.596C293.758 309.889 287.676 310.035 282.707 310.035ZM317.916 320.16V317.383H350.084V320.16H317.916ZM368.629 326.383V323.025H360.648V326.383H368.629ZM371.371 326.383H379.352V323.025H371.371V326.383ZM360.648 331.85H368.629V328.352H360.648V331.85ZM371.371 315.607V320.951H378.385C375.561 319.24 373.223 317.459 371.371 315.607ZM368.629 315.607C366.777 317.459 364.439 319.24 361.615 320.951H368.629V315.607ZM379.352 331.85V328.352H371.371V331.85H379.352ZM356.605 305.219C366.613 305.219 375.42 304.674 383.025 303.584L383.535 305.852C380.008 306.379 375.953 306.789 371.371 307.082V313.129H375.326C376.674 311.16 377.764 309.227 378.596 307.328L381.127 307.979C380.436 309.584 379.498 311.301 378.314 313.129H385.838V315.467H374.395C377.418 317.939 381.461 320.184 386.523 322.199L385.697 324.607C384.303 324.01 383.113 323.459 382.129 322.955V335.453H379.352V333.871H360.648V335.453H357.871V322.955C356.887 323.459 355.697 324.01 354.303 324.607L353.477 322.199C358.539 320.184 362.582 317.939 365.605 315.467H354.162V313.129H361.51C360.525 311.406 359.635 309.994 358.838 308.893L361.246 308.049C362.254 309.467 363.314 311.16 364.428 313.129H368.629V307.258C364.598 307.445 360.637 307.545 356.746 307.557L356.605 305.219ZM406.65 303.057H409.34C409.34 304.475 409.381 305.828 409.463 307.117H416.986C415.064 305.898 413.312 304.867 411.73 304.023L413.137 302.107C415.363 303.256 417.449 304.492 419.395 305.816L418.428 307.117H421.223V309.525H409.639C410.096 314.635 411.045 319.146 412.486 323.061C414.525 319.967 415.984 316.451 416.863 312.514L419.43 313.234C418.328 318.062 416.406 322.287 413.664 325.908C414.262 327.15 414.889 328.258 415.545 329.23C416.213 330.191 416.775 330.871 417.232 331.27C417.689 331.656 418.023 331.85 418.234 331.85C419.102 331.85 419.764 329.594 420.221 325.082L422.805 325.908C422.254 332.049 420.854 335.125 418.604 335.137C417.713 335.137 416.635 334.533 415.369 333.326C414.115 332.131 412.902 330.426 411.73 328.211C408.871 331.211 405.566 333.396 401.816 334.768L400.498 332.5C404.436 331.059 407.77 328.768 410.5 325.627C408.578 321.021 407.377 315.654 406.896 309.525H395.277V313.885H404.998C404.998 320.506 404.828 324.561 404.488 326.049C404.195 327.268 403.645 328 402.836 328.246C402.449 328.363 401.822 328.428 400.955 328.439C400.182 328.439 398.477 328.328 395.84 328.105L395.594 325.732C397.516 325.92 398.98 326.014 399.988 326.014C401.137 326.014 401.811 325.592 402.01 324.748C402.221 323.893 402.326 321.039 402.326 316.188H395.277V317.277C395.277 324.836 393.965 330.836 391.34 335.277L389.301 332.939C390.426 330.783 391.24 328.346 391.744 325.627C392.248 322.908 392.5 319.533 392.5 315.502V307.117H406.756C406.686 305.828 406.65 304.475 406.65 303.057ZM458.207 319.545V321.883H440.277C442.34 324.238 444.848 326.336 447.801 328.176C449.77 326.594 451.568 324.748 453.197 322.639L455.465 324.01C453.836 326.096 452.049 327.93 450.104 329.512C452.482 330.812 455.254 332.014 458.418 333.115L457.258 335.383C448.258 332.289 441.514 327.789 437.025 321.883H433.65V332.061C437.084 331.604 440.729 330.994 444.584 330.232L444.918 332.5C438.73 333.777 432.672 334.68 426.742 335.207L426.443 332.852C429.279 332.559 430.744 332.418 430.838 332.43V321.883H425.793V319.545H430.838V304.34H454.674V306.695H433.65V309.455H453.584V311.582H433.65V314.43H453.584V316.557H433.65V319.545H458.207ZM484.012 315.291L486.139 314.148C487.311 316.094 488.424 318.057 489.479 320.037L487.316 321.127C486.145 318.912 485.043 316.967 484.012 315.291ZM489.057 313.92L491.219 312.742C492.637 315.074 493.785 317.09 494.664 318.789L492.467 319.861C491.365 317.822 490.229 315.842 489.057 313.92ZM462.707 310.035V307.521C472.234 307.521 481.938 307.281 491.816 306.801L491.975 309.314C485.904 309.865 481.258 311.33 478.035 313.709C474.824 316.088 473.219 319.041 473.219 322.568C473.219 325.451 474.139 327.719 475.979 329.371C477.83 331.023 480.303 331.85 483.396 331.85C484.814 331.85 486.314 331.721 487.896 331.463L488.23 333.977C486.625 334.27 484.979 334.416 483.291 334.416C479.307 334.416 476.137 333.379 473.781 331.305C471.438 329.219 470.266 326.389 470.266 322.814C470.266 319.885 471.191 317.289 473.043 315.027C474.906 312.754 477.555 310.973 480.988 309.684L480.953 309.596C473.758 309.889 467.676 310.035 462.707 310.035ZM515.195 307.943C514.984 306.572 514.838 305.16 514.756 303.707L517.393 303.549C517.486 304.92 517.65 306.361 517.885 307.873C520.955 307.779 524.125 307.639 527.395 307.451L527.5 309.754C523.305 309.941 520.234 310.07 518.289 310.141C518.605 311.652 519.033 313.164 519.572 314.676C523.463 314.535 526.357 314.418 528.256 314.324L528.326 316.592C526.604 316.686 523.99 316.803 520.486 316.943C521.354 318.912 522.549 321.051 524.072 323.359L521.664 325.047C518.324 323.488 515.184 322.709 512.242 322.709C507.367 322.709 504.93 324.051 504.93 326.734C504.93 328.457 505.738 329.74 507.355 330.584C508.973 331.428 511.598 331.85 515.23 331.85C517.82 331.85 520.615 331.609 523.615 331.129L523.932 333.467C520.979 333.947 518.078 334.188 515.23 334.188C506.441 334.188 502.047 331.703 502.047 326.734C502.047 324.906 502.861 323.4 504.49 322.217C506.131 321.033 508.715 320.441 512.242 320.441C514.785 320.441 517.387 320.957 520.047 321.988L520.082 321.918C519.285 320.477 518.494 318.842 517.709 317.014C511.229 317.201 505.229 317.301 499.709 317.312V315.045C505.732 315.045 511.445 314.957 516.848 314.781C516.367 313.41 515.945 311.887 515.582 310.211C509.793 310.375 504.936 310.463 501.01 310.475V308.172C505.639 308.16 510.367 308.084 515.195 307.943ZM554.465 331.234C558.566 330.273 560.617 327.854 560.617 323.975C560.617 321.982 559.932 320.494 558.561 319.51C557.201 318.525 555.068 318.033 552.162 318.033C547.287 318.033 542.213 319.521 536.939 322.498L535.885 320.547L555.326 308.277V308.207H538.486V305.852H560.195L560.336 308.242L546.221 316.768L546.256 316.803C548.658 316.158 550.902 315.836 552.988 315.836C560.043 315.836 563.57 318.449 563.57 323.676C563.57 327.016 562.387 329.582 560.02 331.375C557.664 333.156 554.266 334.047 549.824 334.047C543.027 334.047 539.629 332.125 539.629 328.281C539.629 326.887 540.314 325.703 541.686 324.73C543.057 323.746 545.014 323.254 547.557 323.254C552.596 323.254 555.115 324.982 555.115 328.439C555.115 329.271 554.898 330.203 554.465 331.234ZM551.723 331.639C552.32 330.514 552.625 329.518 552.637 328.65C552.637 326.588 550.896 325.557 547.416 325.557C545.811 325.557 544.568 325.826 543.689 326.365C542.811 326.904 542.371 327.543 542.371 328.281C542.371 329.336 542.986 330.174 544.217 330.795C545.459 331.404 547.328 331.709 549.824 331.709C550.27 331.709 550.902 331.686 551.723 331.639ZM584.453 311.266V313.955H597.637V311.266H584.453ZM584.453 309.174H597.637V306.572H584.453V309.174ZM581.746 304.34H600.467V315.977H584.453H581.746V304.34ZM597.338 335.207C596.213 335.207 594.725 335.143 592.873 335.014L592.768 332.676C594.279 332.793 595.527 332.852 596.512 332.852C597.227 332.852 597.754 332.219 598.094 330.953C598.434 329.676 598.615 327.408 598.639 324.15V324.045H596.863C595.855 326.201 594.402 328.387 592.504 330.602C590.617 332.805 588.666 334.551 586.65 335.84L584.998 334.047C586.721 332.969 588.443 331.492 590.166 329.617C591.9 327.742 593.271 325.885 594.279 324.045H590.359C589.082 325.873 587.412 327.701 585.35 329.529C583.287 331.346 581.225 332.793 579.162 333.871L577.686 332.025C579.361 331.158 581.084 329.998 582.854 328.545C584.635 327.08 586.152 325.58 587.406 324.045H583.486C582.268 325.006 581.26 325.715 580.463 326.172L580.814 327.859C577.217 329.559 573.508 330.936 569.688 331.99L569.301 329.617C570.473 329.324 571.803 328.943 573.291 328.475V314.939H569.441V312.637H573.291V304.129H576.033V312.637H580.129V314.939H576.033V327.525C576.771 327.256 577.885 326.816 579.373 326.207L578.301 324.695C580.41 323.664 582.508 322.076 584.594 319.932H579.707V317.699H602.312V319.932H587.652C587.055 320.646 586.469 321.297 585.895 321.883H601.363V323.605C601.363 326.629 601.211 328.996 600.906 330.707C600.613 332.406 600.186 333.578 599.623 334.223C599.061 334.879 598.299 335.207 597.338 335.207ZM610.768 320.723H618.695V313.164H610.768V320.723ZM626.395 314.395H638.453V316.908H634.428V335.277H631.721V316.908H626.254C625.938 321.303 625.311 324.824 624.373 327.473C623.436 330.109 622.035 332.529 620.172 334.732L618.08 333.045C619.568 331.24 620.711 329.348 621.508 327.367C622.316 325.387 622.92 322.721 623.318 319.369C623.717 316.006 623.916 311.6 623.916 306.15C629.025 305.764 633.32 304.926 636.801 303.637L637.521 306.115C634.615 307.17 630.953 307.938 626.535 308.418C626.488 311.055 626.441 313.047 626.395 314.395ZM606.268 307.416V304.955H622.07V307.416H606.268ZM608.061 310.826H621.209V323.061H610.768C610.627 328.146 609.766 332.266 608.184 335.418L605.688 334.082C606.531 332.324 607.135 330.379 607.498 328.246C607.873 326.113 608.061 323.354 608.061 319.967V310.826Z" fill="white"/>
</svg>
