<svg width="1024" height="512" viewBox="0 0 1024 512" fill="none" xmlns="http://www.w3.org/2000/svg">
<rect width="1024" height="512" fill="#E63A69"/>
<path d="M77.056 248.728C73.408 248.728 69.568 247.576 67.072 245.464V237.208H67.456C69.76 240.088 72.832 241.528 75.808 241.528C81.856 241.528 85.024 237.4 85.024 229.528V181.528H92.512V230.68C92.512 241.336 87.808 248.728 77.056 248.728ZM144.995 247H138.083V243.064H137.891C134.147 246.52 129.251 248.728 123.203 248.728C113.891 248.728 106.883 242.968 106.883 233.656C106.883 224.152 113.411 218.008 124.835 218.008C129.827 218.008 134.243 219.16 137.891 221.08V215.992C137.891 206.872 131.939 203.224 124.643 203.224C118.595 203.224 113.315 206.296 110.147 210.04H109.859V202.456C114.083 198.808 119.843 196.792 125.891 196.792C136.739 196.792 144.995 202.648 144.995 215.512V247ZM137.891 236.728V227.224C134.819 225.304 130.403 223.96 126.083 223.96C118.499 223.96 114.083 227.224 114.083 233.176C114.083 238.36 117.827 242.488 125.411 242.488C130.211 242.488 134.627 240.376 137.891 236.728ZM205.771 222.808C205.771 239.32 195.883 248.728 182.443 248.728C176.683 248.728 171.883 247 168.523 244.6H168.427V265.528H161.323V198.52H168.331V202.648H168.427C172.459 199 177.451 196.792 183.595 196.792C196.171 196.792 205.771 206.296 205.771 222.808ZM198.187 222.808C198.187 210.712 191.563 203.416 181.675 203.416C176.203 203.416 171.691 205.72 168.427 209.464V237.4C171.499 240.28 175.915 242.2 180.907 242.2C191.467 242.2 198.187 235.096 198.187 222.808ZM253.464 247H246.552V243.064H246.36C242.616 246.52 237.72 248.728 231.672 248.728C222.359 248.728 215.352 242.968 215.352 233.656C215.352 224.152 221.88 218.008 233.304 218.008C238.296 218.008 242.712 219.16 246.36 221.08V215.992C246.36 206.872 240.408 203.224 233.112 203.224C227.064 203.224 221.784 206.296 218.616 210.04H218.328V202.456C222.552 198.808 228.312 196.792 234.359 196.792C245.208 196.792 253.464 202.648 253.464 215.512V247ZM246.36 236.728V227.224C243.288 225.304 238.872 223.96 234.552 223.96C226.968 223.96 222.552 227.224 222.552 233.176C222.552 238.36 226.296 242.488 233.88 242.488C238.68 242.488 243.096 240.376 246.36 236.728ZM310.496 247H303.392V216.664C303.392 207.448 297.728 203.416 290.336 203.416C284.768 203.416 280.352 205.528 276.896 209.464V247H269.792V198.52H276.8V202.648H276.896C280.928 199 286.016 196.792 292.16 196.792C302.24 196.792 310.496 202.456 310.496 214.36V247ZM389.439 230.68C389.439 240.76 382.047 248.728 368.799 248.728C361.887 248.728 355.167 246.808 350.655 242.584V233.56H350.943C355.551 239.032 361.983 241.912 368.607 241.912C376.863 241.912 381.855 237.784 381.855 231.256C381.855 214.36 350.943 220.408 350.943 197.464C350.943 188.44 356.703 179.8 370.431 179.8C376.671 179.8 382.815 181.72 387.135 185.944V194.968H386.847C382.431 189.4 376.479 186.616 370.527 186.616C362.655 186.616 358.623 190.936 358.623 196.888C358.623 213.592 389.439 207.352 389.439 230.68ZM412.097 247H404.993V205.144H401.057V204.76L404.993 198.52V183.928H412.097V198.52H424.001V205.144H412.097V247ZM474.143 198.52V229.72C474.143 241.816 466.271 248.728 454.271 248.728C442.463 248.728 434.591 241.816 434.591 229.72V198.52H441.695V228.952C441.695 238.072 446.495 242.296 454.367 242.296C462.143 242.296 467.039 238.072 467.039 228.952V198.52H474.143ZM530.415 247H523.407V242.968H523.311C519.279 246.52 514.287 248.728 508.047 248.728C495.471 248.728 485.871 239.32 485.871 222.808C485.871 206.296 495.855 196.792 509.295 196.792C514.959 196.792 519.759 198.52 523.215 200.92H523.311V175H530.415V247ZM523.311 236.056V208.216C520.239 205.24 515.727 203.416 510.831 203.416C500.271 203.416 493.551 210.424 493.551 222.808C493.551 234.904 500.079 242.2 510.063 242.2C515.439 242.2 520.047 239.896 523.311 236.056ZM583.964 243.352C579.74 246.904 573.596 248.728 567.068 248.728C553.244 248.728 542.684 239.512 542.684 222.808C542.684 206.296 552.092 196.792 564.956 196.792C576.86 196.792 586.172 205.72 586.172 219.16C586.172 220.408 586.076 222.232 586.076 223.576H550.172C550.268 235.768 557.66 242.296 568.028 242.296C574.94 242.296 580.316 239.512 583.58 235.384H583.964V243.352ZM564.956 203.224C556.796 203.224 551.324 208.6 550.364 217.432H578.78C578.588 209.176 572.924 203.224 564.956 203.224ZM640.027 247H632.923V216.664C632.923 207.448 627.259 203.416 619.867 203.416C614.299 203.416 609.883 205.528 606.427 209.464V247H599.323V198.52H606.331V202.648H606.427C610.459 199 615.547 196.792 621.691 196.792C631.771 196.792 640.027 202.456 640.027 214.36V247ZM664.003 247H656.899V205.144H652.963V204.76L656.899 198.52V183.928H664.003V198.52H675.907V205.144H664.003V247ZM767.577 214.264C767.577 236.344 752.217 247 734.169 247H714.105V181.528H734.169C752.121 181.528 767.577 192.184 767.577 214.264ZM759.801 214.264C759.801 197.272 748.665 188.632 734.169 188.632H721.593V239.896H734.169C748.665 239.896 759.801 231.352 759.801 214.264ZM832.043 247H823.787L815.147 225.4H788.363L779.819 247H771.755L798.827 181.528H804.971L832.043 247ZM801.707 192.088L791.147 218.584H812.459L801.899 192.088H801.707ZM897.865 214.264C897.865 236.728 883.561 248.728 866.953 248.728C850.825 248.728 836.329 236.824 836.329 214.264C836.329 191.8 850.633 179.8 867.145 179.8C883.369 179.8 897.865 191.704 897.865 214.264ZM889.897 214.264C889.897 196.408 879.625 186.904 867.145 186.904C854.761 186.904 844.297 196.216 844.297 214.264C844.297 232.12 854.569 241.624 866.953 241.624C879.433 241.624 889.897 232.312 889.897 214.264Z" fill="white"/>
<path d="M72.1035 289.072V286.664H91.8965V289.072C89.6113 291.404 86.9512 293.543 83.916 295.488V296.385H98.3125V298.863H83.916V304.893C83.916 306.674 83.6875 307.764 83.2305 308.162C82.7734 308.572 81.5605 308.777 79.5918 308.777C78.748 308.777 76.8613 308.713 73.9316 308.584L73.8613 306.105C76.627 306.223 78.4375 306.281 79.293 306.281C80.1602 306.281 80.6641 306.211 80.8047 306.07C80.957 305.93 81.0332 305.426 81.0332 304.559V298.863H65.6875V296.385H81.0332V293.15H82.791C84.6426 291.908 86.418 290.549 88.1172 289.072H72.1035ZM94.1641 283.746H69.8359V289.617H67.1289V281.408H72.4551C71.7637 280.131 71.0195 278.918 70.2227 277.77L72.6484 276.697C73.6094 278.115 74.5527 279.686 75.4785 281.408H80.9277C80.0371 279.756 79.252 278.414 78.5723 277.383L80.998 276.328C82.0762 277.98 83.0488 279.674 83.916 281.408H88.5215C89.459 280.014 90.4199 278.373 91.4043 276.486L93.918 277.277C93.1797 278.742 92.3887 280.119 91.5449 281.408H96.8711V289.617H94.1641V283.746ZM117.104 276.838H119.986V282.709H132.15V285.188H119.986V293.045H130.34V295.453H119.986V305.35H133.486V307.793H102.514V305.35H117.104V295.453H107.084V293.045H117.104V285.188H108.068C107.061 288.094 105.836 290.842 104.395 293.432L101.951 292.148C104.354 287.777 106.164 282.914 107.383 277.559L110.072 278.033C109.779 279.404 109.375 280.963 108.859 282.709H117.104V276.838ZM159.15 279.316L161.312 278.174C162.484 280.119 163.598 282.088 164.652 284.08L162.49 285.117C161.564 283.336 160.451 281.402 159.15 279.316ZM164.195 277.963L166.393 276.768C167.811 279.1 168.959 281.115 169.838 282.814L167.605 283.904C166.504 281.865 165.367 279.885 164.195 277.963ZM139.498 286.805V284.396H146.512C147.18 281.443 147.695 278.912 148.059 276.803L150.66 277.084C150.32 279.193 149.84 281.631 149.219 284.396H152.312C153.414 284.396 154.252 284.396 154.826 284.396C155.4 284.396 156.021 284.467 156.689 284.607C157.369 284.736 157.844 284.848 158.113 284.941C158.395 285.035 158.699 285.281 159.027 285.68C159.367 286.078 159.578 286.441 159.66 286.77C159.754 287.086 159.854 287.643 159.959 288.439C160.064 289.225 160.117 289.963 160.117 290.654C160.117 291.334 160.117 292.336 160.117 293.66C160.117 298.102 159.584 301.471 158.518 303.768C157.451 306.053 156.104 307.195 154.475 307.195C152.436 307.195 149.998 306.545 147.162 305.244L148.059 302.836C150.742 303.984 152.723 304.559 154 304.559C154.387 304.559 154.768 304.336 155.143 303.891C155.529 303.445 155.893 302.789 156.232 301.922C156.572 301.043 156.842 299.854 157.041 298.354C157.24 296.854 157.34 295.166 157.34 293.291C157.34 292.471 157.34 291.885 157.34 291.533C157.34 291.17 157.322 290.707 157.287 290.145C157.252 289.582 157.234 289.207 157.234 289.02C157.234 288.82 157.176 288.557 157.059 288.229C156.941 287.889 156.854 287.684 156.795 287.613C156.736 287.531 156.59 287.408 156.355 287.244C156.133 287.08 155.951 286.992 155.811 286.98C155.682 286.969 155.418 286.939 155.02 286.893C154.633 286.834 154.311 286.805 154.053 286.805C153.807 286.805 153.391 286.805 152.805 286.805H148.639C146.857 294 144.479 300.879 141.502 307.441L139.059 306.475C141.871 300.264 144.162 293.707 145.932 286.805H139.498ZM168.045 300.744C166.51 296.596 164.518 292.131 162.068 287.35L164.477 286.312C166.926 291.035 168.941 295.57 170.523 299.918L168.045 300.744ZM183.479 306.281L181.141 308.127C178.691 305.197 176.342 302.643 174.092 300.463L176.289 298.477C178.727 300.867 181.123 303.469 183.479 306.281ZM216.209 293.15V304.084H235.791V293.15H216.209ZM216.209 290.777H235.791V280.617H216.209V290.777ZM213.396 278.174H238.604V308.777H235.791V306.475H216.209V308.777H213.396V278.174ZM258.941 285.012H246.057V282.533H260.594V276.592H263.406V282.533H277.943V285.012H265.059C268.176 291.012 272.904 296.783 279.244 302.326L277.732 304.699C271.732 299.414 266.957 293.537 263.406 287.068V300.674H271.545V303.047H263.406V309.498H260.594V303.047H252.455V300.674H260.594V287.068C257.043 293.549 252.268 299.426 246.268 304.699L244.756 302.326C251.096 296.783 255.824 291.012 258.941 285.012ZM304.012 288.791L306.139 287.648C307.311 289.594 308.424 291.557 309.479 293.537L307.316 294.627C306.145 292.412 305.043 290.467 304.012 288.791ZM309.057 287.42L311.219 286.242C312.637 288.574 313.785 290.59 314.664 292.289L312.467 293.361C311.365 291.322 310.229 289.342 309.057 287.42ZM282.707 283.535V281.021C292.234 281.021 301.938 280.781 311.816 280.301L311.975 282.814C305.904 283.365 301.258 284.83 298.035 287.209C294.824 289.588 293.219 292.541 293.219 296.068C293.219 298.951 294.139 301.219 295.979 302.871C297.83 304.523 300.303 305.35 303.396 305.35C304.814 305.35 306.314 305.221 307.896 304.963L308.23 307.477C306.625 307.77 304.979 307.916 303.291 307.916C299.307 307.916 296.137 306.879 293.781 304.805C291.438 302.719 290.266 299.889 290.266 296.314C290.266 293.385 291.191 290.789 293.043 288.527C294.906 286.254 297.555 284.473 300.988 283.184L300.953 283.096C293.758 283.389 287.676 283.535 282.707 283.535ZM317.916 293.66V290.883H350.084V293.66H317.916ZM368.629 299.883V296.525H360.648V299.883H368.629ZM371.371 299.883H379.352V296.525H371.371V299.883ZM360.648 305.35H368.629V301.852H360.648V305.35ZM371.371 289.107V294.451H378.385C375.561 292.74 373.223 290.959 371.371 289.107ZM368.629 289.107C366.777 290.959 364.439 292.74 361.615 294.451H368.629V289.107ZM379.352 305.35V301.852H371.371V305.35H379.352ZM356.605 278.719C366.613 278.719 375.42 278.174 383.025 277.084L383.535 279.352C380.008 279.879 375.953 280.289 371.371 280.582V286.629H375.326C376.674 284.66 377.764 282.727 378.596 280.828L381.127 281.479C380.436 283.084 379.498 284.801 378.314 286.629H385.838V288.967H374.395C377.418 291.439 381.461 293.684 386.523 295.699L385.697 298.107C384.303 297.51 383.113 296.959 382.129 296.455V308.953H379.352V307.371H360.648V308.953H357.871V296.455C356.887 296.959 355.697 297.51 354.303 298.107L353.477 295.699C358.539 293.684 362.582 291.439 365.605 288.967H354.162V286.629H361.51C360.525 284.906 359.635 283.494 358.838 282.393L361.246 281.549C362.254 282.967 363.314 284.66 364.428 286.629H368.629V280.758C364.598 280.945 360.637 281.045 356.746 281.057L356.605 278.719ZM406.65 276.557H409.34C409.34 277.975 409.381 279.328 409.463 280.617H416.986C415.064 279.398 413.312 278.367 411.73 277.523L413.137 275.607C415.363 276.756 417.449 277.992 419.395 279.316L418.428 280.617H421.223V283.025H409.639C410.096 288.135 411.045 292.646 412.486 296.561C414.525 293.467 415.984 289.951 416.863 286.014L419.43 286.734C418.328 291.562 416.406 295.787 413.664 299.408C414.262 300.65 414.889 301.758 415.545 302.73C416.213 303.691 416.775 304.371 417.232 304.77C417.689 305.156 418.023 305.35 418.234 305.35C419.102 305.35 419.764 303.094 420.221 298.582L422.805 299.408C422.254 305.549 420.854 308.625 418.604 308.637C417.713 308.637 416.635 308.033 415.369 306.826C414.115 305.631 412.902 303.926 411.73 301.711C408.871 304.711 405.566 306.896 401.816 308.268L400.498 306C404.436 304.559 407.77 302.268 410.5 299.127C408.578 294.521 407.377 289.154 406.896 283.025H395.277V287.385H404.998C404.998 294.006 404.828 298.061 404.488 299.549C404.195 300.768 403.645 301.5 402.836 301.746C402.449 301.863 401.822 301.928 400.955 301.939C400.182 301.939 398.477 301.828 395.84 301.605L395.594 299.232C397.516 299.42 398.98 299.514 399.988 299.514C401.137 299.514 401.811 299.092 402.01 298.248C402.221 297.393 402.326 294.539 402.326 289.688H395.277V290.777C395.277 298.336 393.965 304.336 391.34 308.777L389.301 306.439C390.426 304.283 391.24 301.846 391.744 299.127C392.248 296.408 392.5 293.033 392.5 289.002V280.617H406.756C406.686 279.328 406.65 277.975 406.65 276.557ZM458.207 293.045V295.383H440.277C442.34 297.738 444.848 299.836 447.801 301.676C449.77 300.094 451.568 298.248 453.197 296.139L455.465 297.51C453.836 299.596 452.049 301.43 450.104 303.012C452.482 304.312 455.254 305.514 458.418 306.615L457.258 308.883C448.258 305.789 441.514 301.289 437.025 295.383H433.65V305.561C437.084 305.104 440.729 304.494 444.584 303.732L444.918 306C438.73 307.277 432.672 308.18 426.742 308.707L426.443 306.352C429.279 306.059 430.744 305.918 430.838 305.93V295.383H425.793V293.045H430.838V277.84H454.674V280.195H433.65V282.955H453.584V285.082H433.65V287.93H453.584V290.057H433.65V293.045H458.207ZM484.012 288.791L486.139 287.648C487.311 289.594 488.424 291.557 489.479 293.537L487.316 294.627C486.145 292.412 485.043 290.467 484.012 288.791ZM489.057 287.42L491.219 286.242C492.637 288.574 493.785 290.59 494.664 292.289L492.467 293.361C491.365 291.322 490.229 289.342 489.057 287.42ZM462.707 283.535V281.021C472.234 281.021 481.938 280.781 491.816 280.301L491.975 282.814C485.904 283.365 481.258 284.83 478.035 287.209C474.824 289.588 473.219 292.541 473.219 296.068C473.219 298.951 474.139 301.219 475.979 302.871C477.83 304.523 480.303 305.35 483.396 305.35C484.814 305.35 486.314 305.221 487.896 304.963L488.23 307.477C486.625 307.77 484.979 307.916 483.291 307.916C479.307 307.916 476.137 306.879 473.781 304.805C471.438 302.719 470.266 299.889 470.266 296.314C470.266 293.385 471.191 290.789 473.043 288.527C474.906 286.254 477.555 284.473 480.988 283.184L480.953 283.096C473.758 283.389 467.676 283.535 462.707 283.535ZM515.195 281.443C514.984 280.072 514.838 278.66 514.756 277.207L517.393 277.049C517.486 278.42 517.65 279.861 517.885 281.373C520.955 281.279 524.125 281.139 527.395 280.951L527.5 283.254C523.305 283.441 520.234 283.57 518.289 283.641C518.605 285.152 519.033 286.664 519.572 288.176C523.463 288.035 526.357 287.918 528.256 287.824L528.326 290.092C526.604 290.186 523.99 290.303 520.486 290.443C521.354 292.412 522.549 294.551 524.072 296.859L521.664 298.547C518.324 296.988 515.184 296.209 512.242 296.209C507.367 296.209 504.93 297.551 504.93 300.234C504.93 301.957 505.738 303.24 507.355 304.084C508.973 304.928 511.598 305.35 515.23 305.35C517.82 305.35 520.615 305.109 523.615 304.629L523.932 306.967C520.979 307.447 518.078 307.688 515.23 307.688C506.441 307.688 502.047 305.203 502.047 300.234C502.047 298.406 502.861 296.9 504.49 295.717C506.131 294.533 508.715 293.941 512.242 293.941C514.785 293.941 517.387 294.457 520.047 295.488L520.082 295.418C519.285 293.977 518.494 292.342 517.709 290.514C511.229 290.701 505.229 290.801 499.709 290.812V288.545C505.732 288.545 511.445 288.457 516.848 288.281C516.367 286.91 515.945 285.387 515.582 283.711C509.793 283.875 504.936 283.963 501.01 283.975V281.672C505.639 281.66 510.367 281.584 515.195 281.443ZM554.465 304.734C558.566 303.773 560.617 301.354 560.617 297.475C560.617 295.482 559.932 293.994 558.561 293.01C557.201 292.025 555.068 291.533 552.162 291.533C547.287 291.533 542.213 293.021 536.939 295.998L535.885 294.047L555.326 281.777V281.707H538.486V279.352H560.195L560.336 281.742L546.221 290.268L546.256 290.303C548.658 289.658 550.902 289.336 552.988 289.336C560.043 289.336 563.57 291.949 563.57 297.176C563.57 300.516 562.387 303.082 560.02 304.875C557.664 306.656 554.266 307.547 549.824 307.547C543.027 307.547 539.629 305.625 539.629 301.781C539.629 300.387 540.314 299.203 541.686 298.23C543.057 297.246 545.014 296.754 547.557 296.754C552.596 296.754 555.115 298.482 555.115 301.939C555.115 302.771 554.898 303.703 554.465 304.734ZM551.723 305.139C552.32 304.014 552.625 303.018 552.637 302.15C552.637 300.088 550.896 299.057 547.416 299.057C545.811 299.057 544.568 299.326 543.689 299.865C542.811 300.404 542.371 301.043 542.371 301.781C542.371 302.836 542.986 303.674 544.217 304.295C545.459 304.904 547.328 305.209 549.824 305.209C550.27 305.209 550.902 305.186 551.723 305.139ZM584.453 284.766V287.455H597.637V284.766H584.453ZM584.453 282.674H597.637V280.072H584.453V282.674ZM581.746 277.84H600.467V289.477H584.453H581.746V277.84ZM597.338 308.707C596.213 308.707 594.725 308.643 592.873 308.514L592.768 306.176C594.279 306.293 595.527 306.352 596.512 306.352C597.227 306.352 597.754 305.719 598.094 304.453C598.434 303.176 598.615 300.908 598.639 297.65V297.545H596.863C595.855 299.701 594.402 301.887 592.504 304.102C590.617 306.305 588.666 308.051 586.65 309.34L584.998 307.547C586.721 306.469 588.443 304.992 590.166 303.117C591.9 301.242 593.271 299.385 594.279 297.545H590.359C589.082 299.373 587.412 301.201 585.35 303.029C583.287 304.846 581.225 306.293 579.162 307.371L577.686 305.525C579.361 304.658 581.084 303.498 582.854 302.045C584.635 300.58 586.152 299.08 587.406 297.545H583.486C582.268 298.506 581.26 299.215 580.463 299.672L580.814 301.359C577.217 303.059 573.508 304.436 569.688 305.49L569.301 303.117C570.473 302.824 571.803 302.443 573.291 301.975V288.439H569.441V286.137H573.291V277.629H576.033V286.137H580.129V288.439H576.033V301.025C576.771 300.756 577.885 300.316 579.373 299.707L578.301 298.195C580.41 297.164 582.508 295.576 584.594 293.432H579.707V291.199H602.312V293.432H587.652C587.055 294.146 586.469 294.797 585.895 295.383H601.363V297.105C601.363 300.129 601.211 302.496 600.906 304.207C600.613 305.906 600.186 307.078 599.623 307.723C599.061 308.379 598.299 308.707 597.338 308.707ZM610.768 294.223H618.695V286.664H610.768V294.223ZM626.395 287.895H638.453V290.408H634.428V308.777H631.721V290.408H626.254C625.938 294.803 625.311 298.324 624.373 300.973C623.436 303.609 622.035 306.029 620.172 308.232L618.08 306.545C619.568 304.74 620.711 302.848 621.508 300.867C622.316 298.887 622.92 296.221 623.318 292.869C623.717 289.506 623.916 285.1 623.916 279.65C629.025 279.264 633.32 278.426 636.801 277.137L637.521 279.615C634.615 280.67 630.953 281.438 626.535 281.918C626.488 284.555 626.441 286.547 626.395 287.895ZM606.268 280.916V278.455H622.07V280.916H606.268ZM608.061 284.326H621.209V296.561H610.768C610.627 301.646 609.766 305.766 608.184 308.918L605.688 307.582C606.531 305.824 607.135 303.879 607.498 301.746C607.873 299.613 608.061 296.854 608.061 293.467V284.326ZM76.3398 339.488V332.439C75.0156 332.873 73.7207 333.219 72.4551 333.477V339.488H76.3398ZM95.8516 339.928V334.338H78.8711V340.033H76.4277V341.896H72.7188C74.8047 346.021 76.1348 348.688 76.709 349.895L74.6875 351.195C73.293 348.078 72.5488 346.408 72.4551 346.186V362.129H69.8359V348.418C68.9453 351.301 67.8145 353.891 66.4434 356.188L64.9316 353.498C67.2871 349.49 68.875 345.623 69.6953 341.896H65.6875V339.488H69.8359V333.986C68.2539 334.221 67.041 334.385 66.1973 334.479L65.9512 332.176C69.6426 331.742 73.0938 331.045 76.3047 330.084L76.9199 332.07H85.9551V328.871H88.7676V332.07H98.4531V339.928H95.8516ZM82.3516 359.105C84.2266 359.223 85.5742 359.281 86.3945 359.281C87.0391 359.281 87.4727 359.059 87.6953 358.613C87.9297 358.156 88.0469 357.061 88.0469 355.326C88.0469 354.635 87.9883 353.809 87.8711 352.848C84.9414 356.035 81.0859 358.76 76.3047 361.021L74.9863 358.895C80.1895 356.516 84.3027 353.633 87.3262 350.246C87.0332 349.168 86.6758 348.137 86.2539 347.152C83.6875 349.719 80.4355 351.975 76.498 353.92L75.1621 351.793C79.5098 349.777 82.8789 347.545 85.2695 345.096C84.7422 344.158 84.25 343.402 83.793 342.828C81.7305 344.363 79.3926 345.746 76.7793 346.977L75.4785 344.92C79.123 343.338 82.1875 341.469 84.6719 339.312H79.7676V336.975H94.9551V339.312H90.7188C91.1523 341.926 91.7969 344.375 92.6523 346.66C94.1172 345.195 95.4766 343.525 96.7305 341.65L98.7695 343.232C97.2109 345.564 95.5234 347.568 93.707 349.244C95.2891 352.818 97.252 355.783 99.5957 358.139L98.2422 360.688C95.8633 358.426 93.7539 355.35 91.9141 351.459C90.0859 347.557 88.832 343.508 88.1523 339.312H87.8359C87.1211 340.027 86.4355 340.66 85.7793 341.211C87.3379 343.32 88.5566 345.664 89.4355 348.242C90.3145 350.809 90.7539 353.293 90.7539 355.695C90.7539 357.957 90.4961 359.521 89.9805 360.389C89.4648 361.268 88.5684 361.707 87.291 361.707C85.8262 361.707 84.2207 361.643 82.4746 361.514L82.3516 359.105ZM125.523 330.084L127.51 329.047C128.494 330.652 129.502 332.439 130.533 334.408L128.547 335.428C127.68 333.764 126.672 331.982 125.523 330.084ZM130.393 329.521L132.396 328.432C133.357 330.037 134.389 331.877 135.49 333.951L133.486 334.953C132.432 332.961 131.4 331.15 130.393 329.521ZM117.754 330.559L120.408 330.418C120.525 332.07 120.684 333.512 120.883 334.742C122.184 334.695 124.246 334.596 127.07 334.443L127.176 336.746C125.852 336.816 123.895 336.904 121.305 337.01C121.621 338.568 122.055 340.092 122.605 341.58C124.867 341.51 127.967 341.375 131.904 341.176L131.975 343.443C130.123 343.537 127.299 343.66 123.502 343.812C124.369 345.805 125.57 347.938 127.105 350.211L124.662 351.916C121.322 350.357 118.188 349.572 115.258 349.561C110.535 349.561 108.174 350.908 108.174 353.604C108.174 355.326 108.982 356.609 110.6 357.453C112.217 358.297 114.854 358.719 118.51 358.719C121.076 358.719 123.859 358.479 126.859 357.998L127.176 360.336C124.223 360.816 121.334 361.057 118.51 361.057C109.697 361.057 105.291 358.572 105.291 353.604C105.291 351.799 106.1 350.299 107.717 349.104C109.346 347.896 111.859 347.293 115.258 347.293C117.801 347.293 120.408 347.809 123.08 348.84L123.115 348.77C122.131 346.965 121.34 345.348 120.742 343.918C115.27 344.082 109.469 344.164 103.34 344.164V341.896C109.152 341.896 114.66 341.814 119.863 341.65C119.383 340.279 118.967 338.756 118.615 337.08C113.072 337.244 108.414 337.326 104.641 337.326V335.023C109.059 335.023 113.57 334.953 118.176 334.812C117.965 333.441 117.824 332.023 117.754 330.559ZM169.521 338.223C167.143 337.812 164.67 337.596 162.104 337.572V350.826C164.412 352.045 166.979 353.82 169.803 356.152L168.15 358.104C165.725 356.158 163.709 354.682 162.104 353.674C162.01 356.146 161.354 357.91 160.135 358.965C158.928 360.02 156.977 360.547 154.281 360.547C151.855 360.547 149.969 360.002 148.621 358.912C147.285 357.822 146.617 356.328 146.617 354.43C146.617 352.578 147.279 351.137 148.604 350.105C149.939 349.074 151.832 348.559 154.281 348.559C155.863 348.559 157.592 348.922 159.467 349.648V335.129C163.381 335.129 166.838 335.369 169.838 335.85L169.521 338.223ZM138.637 337.502V335.129H145.281C145.926 332.996 146.453 331.174 146.863 329.662L149.359 330.014C148.949 331.666 148.48 333.371 147.953 335.129H154.721V337.502H147.232C145.451 343.139 143.137 349.238 140.289 355.801L137.863 354.939C140.477 348.939 142.697 343.127 144.525 337.502H138.637ZM159.467 352.197C157.639 351.33 155.91 350.896 154.281 350.896C150.918 350.896 149.242 352.074 149.254 354.43C149.254 355.625 149.688 356.568 150.555 357.26C151.434 357.939 152.676 358.279 154.281 358.279C156.25 358.279 157.604 357.916 158.342 357.189C159.092 356.451 159.467 355.074 159.467 353.059V352.197ZM195.15 332.316L197.312 331.174C198.484 333.119 199.598 335.088 200.652 337.08L198.49 338.117C197.564 336.336 196.451 334.402 195.15 332.316ZM200.195 330.963L202.393 329.768C203.811 332.1 204.959 334.115 205.838 335.814L203.605 336.904C202.504 334.865 201.367 332.885 200.195 330.963ZM175.498 339.805V337.396H182.512C183.18 334.443 183.695 331.912 184.059 329.803L186.66 330.084C186.32 332.193 185.84 334.631 185.219 337.396H188.312C189.414 337.396 190.252 337.396 190.826 337.396C191.4 337.396 192.021 337.467 192.689 337.607C193.369 337.736 193.844 337.848 194.113 337.941C194.395 338.035 194.699 338.281 195.027 338.68C195.367 339.078 195.578 339.441 195.66 339.77C195.754 340.086 195.854 340.643 195.959 341.439C196.064 342.225 196.117 342.963 196.117 343.654C196.117 344.334 196.117 345.336 196.117 346.66C196.117 351.102 195.584 354.471 194.518 356.768C193.451 359.053 192.104 360.195 190.475 360.195C188.436 360.195 185.998 359.545 183.162 358.244L184.059 355.836C186.742 356.984 188.723 357.559 190 357.559C190.387 357.559 190.768 357.336 191.143 356.891C191.529 356.445 191.893 355.789 192.232 354.922C192.572 354.043 192.842 352.854 193.041 351.354C193.24 349.854 193.34 348.166 193.34 346.291C193.34 345.471 193.34 344.885 193.34 344.533C193.34 344.17 193.322 343.707 193.287 343.145C193.252 342.582 193.234 342.207 193.234 342.02C193.234 341.82 193.176 341.557 193.059 341.229C192.941 340.889 192.854 340.684 192.795 340.613C192.736 340.531 192.59 340.408 192.355 340.244C192.133 340.08 191.951 339.992 191.811 339.98C191.682 339.969 191.418 339.939 191.02 339.893C190.633 339.834 190.311 339.805 190.053 339.805C189.807 339.805 189.391 339.805 188.805 339.805H184.639C182.857 347 180.479 353.879 177.502 360.441L175.059 359.475C177.871 353.264 180.162 346.707 181.932 339.805H175.498ZM204.045 353.744C202.51 349.596 200.518 345.131 198.068 340.35L200.477 339.312C202.926 344.035 204.941 348.57 206.523 352.918L204.045 353.744ZM218.195 338.328C217.715 341.855 217.281 344.715 216.895 346.906L216.965 346.941C218.547 345.699 220.463 344.68 222.713 343.883C224.975 343.086 227.09 342.688 229.059 342.688C235.773 342.688 239.137 345.365 239.148 350.721C239.148 353.885 237.836 356.299 235.211 357.963C232.598 359.615 228.713 360.441 223.557 360.441C221.201 360.441 218.729 360.295 216.139 360.002L216.279 357.559C219.256 357.875 221.682 358.033 223.557 358.033C231.912 358.033 236.084 355.596 236.072 350.721C236.072 346.947 233.617 345.061 228.707 345.061C226.855 345.061 224.746 345.535 222.379 346.484C220.012 347.434 217.932 348.641 216.139 350.105L213.695 349.455C214.316 345.998 214.914 342.207 215.488 338.082L218.195 338.328ZM218.23 332C223.773 332.715 229.146 333.072 234.35 333.072V335.498C228.924 335.498 223.451 335.135 217.932 334.408L218.23 332ZM250.838 335.779V333.195H273.162V335.779C271.486 339.904 268.896 343.83 265.393 347.557C268.873 350.768 272.447 354.295 276.115 358.139L274.164 360.002C270.66 356.311 267.109 352.783 263.512 349.42C259.457 353.334 254.611 356.721 248.975 359.58L247.744 357.277C253.123 354.488 257.729 351.248 261.561 347.557C265.404 343.854 268.264 339.928 270.139 335.779H250.838ZM295.363 330.893L298.246 330.664L298.721 336.816L311.148 336.395L311.254 338.908L298.932 339.348L299.652 348.664L312.572 348.277L312.695 350.791L299.828 351.195L300.637 361.197L297.754 361.408L296.963 351.301L283.428 351.723L283.305 349.209L296.77 348.77L296.014 339.453L284.852 339.84L284.746 337.326L295.838 336.939L295.363 330.893ZM325.246 332.475H328.129V339.559C328.129 344.258 327.859 347.932 327.32 350.58C326.781 353.217 325.955 355.221 324.842 356.592C323.729 357.963 322.076 359.164 319.885 360.195L318.408 357.805C320.33 356.867 321.748 355.83 322.662 354.693C323.576 353.557 324.232 351.852 324.631 349.578C325.041 347.293 325.246 343.953 325.246 339.559V332.475ZM337.498 357.207C340.498 356.727 342.895 355.338 344.688 353.041C346.492 350.744 347.576 347.668 347.939 343.812L350.559 344.129C350.125 349.074 348.531 352.959 345.777 355.783C343.035 358.596 339.508 360.002 335.195 360.002H334.615V332.475H337.498V357.207ZM369.719 331.209L372.338 330.488C372.502 331.062 372.672 331.689 372.848 332.369C373.035 333.037 373.234 333.787 373.445 334.619C373.668 335.439 373.838 336.078 373.955 336.535C375.561 336.148 376.967 335.955 378.174 335.955C380.482 335.955 382.316 336.641 383.676 338.012C385.047 339.383 385.732 341.217 385.732 343.514C385.732 345.939 384.994 347.855 383.518 349.262C382.041 350.668 380.055 351.371 377.559 351.371C376.023 351.371 374.383 351.166 372.637 350.756L372.953 348.312C374.418 348.676 375.871 348.852 377.312 348.84C379.035 348.84 380.406 348.377 381.426 347.451C382.445 346.514 382.955 345.242 382.955 343.637C382.955 342.008 382.504 340.742 381.602 339.84C380.711 338.938 379.445 338.486 377.805 338.486C376.891 338.486 375.824 338.639 374.605 338.943C374.723 339.424 375.145 341.117 375.871 344.023L373.393 344.709C373.205 343.865 372.76 342.184 372.057 339.664C370.088 340.285 367.797 341.076 365.184 342.037C366.812 347.369 368.553 353.562 370.404 360.617L367.732 361.268C366.057 354.904 364.34 348.822 362.582 343.021C361.715 343.338 360.332 343.865 358.434 344.604C356.547 345.342 355.328 345.822 354.777 346.045L353.828 343.672C358.129 341.996 360.807 340.959 361.861 340.561C360.924 337.584 360.121 335.053 359.453 332.967L362.072 332.176C363.127 335.492 363.912 337.977 364.428 339.629C367.428 338.527 369.754 337.725 371.406 337.221C370.855 335.135 370.293 333.131 369.719 331.209ZM399.777 340.174L402.08 339.594C403.064 342.43 403.844 345.359 404.418 348.383L402.115 348.84C401.951 348.043 401.828 347.516 401.746 347.258L397.967 347.486V362.129H395.277V347.627L389.512 347.943L389.406 345.605L392.746 345.43C392.887 345.219 393.109 344.902 393.414 344.48C393.719 344.059 393.953 343.736 394.117 343.514C392.312 340.49 390.789 338.035 389.547 336.148L391.094 333.916C391.258 334.186 391.504 334.578 391.832 335.094C392.16 335.598 392.395 335.973 392.535 336.219C393.637 334.297 394.756 332.111 395.893 329.662L398.16 330.664C396.941 333.23 395.535 335.85 393.941 338.521C394.855 340.033 395.418 340.965 395.629 341.316C397.328 338.75 398.939 336.09 400.463 333.336L402.572 334.443C400.557 338.158 398.301 341.773 395.805 345.289L401.219 344.99C400.902 343.771 400.422 342.166 399.777 340.174ZM389.336 359.756C390.203 356.369 390.754 353.012 390.988 349.684L393.326 349.895C393.057 353.398 392.494 356.844 391.639 360.23L389.336 359.756ZM403.223 357.137L400.92 357.348C400.709 354.852 400.352 352.285 399.848 349.648L402.08 349.279C402.631 352.021 403.012 354.641 403.223 357.137ZM405.561 335.639L407.758 334.127C409.316 336.33 411.227 338.346 413.488 340.174C415.621 338.451 417.373 336.242 418.744 333.547H403.803V331.174H421.662V333.547C420.127 336.91 418.111 339.646 415.615 341.756C417.748 343.221 420.133 344.48 422.77 345.535L421.908 347.943C418.908 346.795 416.09 345.271 413.453 343.373C411.297 344.814 408.619 346.098 405.42 347.223L404.559 344.85C407.172 343.982 409.428 342.951 411.326 341.756C409.088 339.881 407.166 337.842 405.561 335.639ZM414.719 358.648H422.734V361.057H402.73V358.648H411.906V352.162H404.629V349.824H411.906V345.676H414.719V349.824H421.803V352.162H414.719V358.648ZM433.07 343.883H429.467V347.293H433.07V343.883ZM433.07 338.557H429.467V341.791H433.07V338.557ZM433.07 336.43V333.266H429.467V336.43H433.07ZM444.549 336.57H453.514C452.002 335.152 450.525 333.512 449.084 331.648C447.619 333.512 446.107 335.152 444.549 336.57ZM447.361 351.547H443.441H440.998V341.439H447.695V338.768H443.371V337.607C442.504 338.346 441.438 339.178 440.172 340.104L439.328 338.557H435.707V341.791H439.486V343.883H435.707V347.293H439.732V349.35C439.732 354.342 439.527 357.693 439.117 359.404C443.629 357.693 446.377 355.074 447.361 351.547ZM447.695 349.455V349.104V343.584H443.441V349.455H447.695ZM450.385 349.174V349.455H454.674V343.584H450.385V349.104V349.174ZM425.072 360.107C425.811 357.154 426.332 354.049 426.637 350.791L428.57 351.037C428.336 354.248 427.832 357.441 427.059 360.617L425.072 360.107ZM429.766 359.686C429.648 356.92 429.455 354.113 429.186 351.266L430.943 350.967C431.307 354.283 431.535 357.119 431.629 359.475L429.766 359.686ZM432.859 358.033C432.648 355.9 432.326 353.58 431.893 351.072L433.615 350.756C434.096 353.439 434.441 355.766 434.652 357.734L432.859 358.033ZM457.223 341.439V351.547H450.719C451.633 355.121 454.404 357.775 459.033 359.51L458.084 361.848C456.068 361.051 454.287 359.955 452.74 358.561C451.193 357.154 450.016 355.596 449.207 353.885C448.34 355.584 447.086 357.137 445.445 358.543C443.816 359.949 441.947 361.051 439.838 361.848L439.012 359.861C438.801 360.6 438.525 361.104 438.186 361.373C437.846 361.643 437.4 361.777 436.85 361.777C436.053 361.777 434.734 361.666 432.895 361.443L432.859 359.07C434.078 359.258 435.203 359.352 436.234 359.352C436.551 359.352 436.785 359.135 436.938 358.701C437.102 358.256 437.219 357.371 437.289 356.047L435.742 356.328C435.531 355.027 435.133 353.205 434.547 350.861L436.234 350.545C436.668 352.221 437.031 353.814 437.324 355.326C437.371 353.451 437.395 351.529 437.395 349.561H426.707V330.998H440.137V333.266H435.707V336.43H439.486V337.502C442.604 335.17 445.398 332.533 447.871 329.592H450.279C452.822 332.639 455.752 335.375 459.068 337.801L457.873 340.104C456.818 339.365 455.787 338.562 454.779 337.695V338.768H450.385V341.439H457.223ZM490.023 359.721C487.164 360.201 484.152 360.441 480.988 360.441C476.594 360.441 473.418 359.932 471.461 358.912C469.504 357.893 468.525 356.275 468.525 354.061C468.525 350.24 472.141 347.316 479.371 345.289C479.031 344.188 478.58 343.42 478.018 342.986C477.455 342.553 476.729 342.336 475.838 342.336C474.396 342.336 472.768 343.033 470.951 344.428C469.146 345.811 467.318 347.814 465.467 350.439L463.27 349.033C466.223 344.932 468.637 340.777 470.512 336.57H463.498V334.268H471.479C472.029 332.92 472.568 331.455 473.096 329.873L475.697 330.488C475.217 331.766 474.736 333.025 474.256 334.268H489.883V336.57H473.289C472.492 338.375 471.613 340.238 470.652 342.16L470.688 342.195C472.773 340.754 474.648 340.033 476.312 340.033C479.148 340.033 481.029 341.568 481.955 344.639C484.381 344.088 487.129 343.619 490.199 343.232L490.463 345.57C487.193 346.004 484.527 346.461 482.465 346.941C482.781 348.746 482.939 351.084 482.939 353.955H480.162C480.162 351.365 480.051 349.256 479.828 347.627C474.121 349.279 471.268 351.354 471.268 353.85C471.268 354.494 471.385 355.045 471.619 355.502C471.865 355.959 472.311 356.398 472.955 356.82C473.611 357.242 474.607 357.564 475.943 357.787C477.291 357.998 478.973 358.104 480.988 358.104C483.648 358.104 486.578 357.84 489.777 357.312L490.023 359.721ZM522.174 342.336C523.135 340.051 523.891 337.625 524.441 335.059H513.385C514.158 337.32 514.855 339.746 515.477 342.336H522.174ZM511.943 360.336V361.883H509.219V347.908H528.572V361.883H525.777V360.336H511.943ZM503.805 330.629V338.486H507.637V340.895H503.805V354.781C505.504 354.043 506.898 353.398 507.988 352.848L508.305 355.256C504.801 357.084 501.168 358.584 497.406 359.756L497.037 357.348C497.928 357.055 499.264 356.574 501.045 355.906V340.895H497.195V338.486H501.045V330.629H503.805ZM506.986 344.709V342.336H512.77C512.172 339.863 511.469 337.438 510.66 335.059H507.338V332.721H517.498V329.188H520.363V332.721H530.453V335.059H527.096C526.521 337.789 525.807 340.215 524.951 342.336H530.805V344.709H506.986ZM525.777 358.033V350.246H511.943V358.033H525.777ZM536.746 342.441C542.934 340.93 548.277 340.174 552.777 340.174C556.516 340.174 559.205 340.859 560.846 342.23C562.498 343.59 563.324 345.342 563.324 347.486C563.324 351.014 561.625 353.932 558.227 356.24C554.828 358.537 550.059 359.938 543.918 360.441L543.268 357.928C548.834 357.4 553.105 356.199 556.082 354.324C559.059 352.449 560.547 350.205 560.547 347.592C560.547 344.322 557.91 342.688 552.637 342.688C548.723 342.688 543.619 343.42 537.326 344.885L536.746 342.441ZM541.791 333.723L542.107 331.279C547.674 332.17 552.982 332.615 558.033 332.615V335.129C553.275 335.129 547.861 334.66 541.791 333.723ZM584.453 337.766V340.455H597.637V337.766H584.453ZM584.453 335.674H597.637V333.072H584.453V335.674ZM581.746 330.84H600.467V342.477H584.453H581.746V330.84ZM597.338 361.707C596.213 361.707 594.725 361.643 592.873 361.514L592.768 359.176C594.279 359.293 595.527 359.352 596.512 359.352C597.227 359.352 597.754 358.719 598.094 357.453C598.434 356.176 598.615 353.908 598.639 350.65V350.545H596.863C595.855 352.701 594.402 354.887 592.504 357.102C590.617 359.305 588.666 361.051 586.65 362.34L584.998 360.547C586.721 359.469 588.443 357.992 590.166 356.117C591.9 354.242 593.271 352.385 594.279 350.545H590.359C589.082 352.373 587.412 354.201 585.35 356.029C583.287 357.846 581.225 359.293 579.162 360.371L577.686 358.525C579.361 357.658 581.084 356.498 582.854 355.045C584.635 353.58 586.152 352.08 587.406 350.545H583.486C582.268 351.506 581.26 352.215 580.463 352.672L580.814 354.359C577.217 356.059 573.508 357.436 569.688 358.49L569.301 356.117C570.473 355.824 571.803 355.443 573.291 354.975V341.439H569.441V339.137H573.291V330.629H576.033V339.137H580.129V341.439H576.033V354.025C576.771 353.756 577.885 353.316 579.373 352.707L578.301 351.195C580.41 350.164 582.508 348.576 584.594 346.432H579.707V344.199H602.312V346.432H587.652C587.055 347.146 586.469 347.797 585.895 348.383H601.363V350.105C601.363 353.129 601.211 355.496 600.906 357.207C600.613 358.906 600.186 360.078 599.623 360.723C599.061 361.379 598.299 361.707 597.338 361.707ZM634.023 359.721C631.164 360.201 628.152 360.441 624.988 360.441C620.594 360.441 617.418 359.932 615.461 358.912C613.504 357.893 612.525 356.275 612.525 354.061C612.525 350.24 616.141 347.316 623.371 345.289C623.031 344.188 622.58 343.42 622.018 342.986C621.455 342.553 620.729 342.336 619.838 342.336C618.396 342.336 616.768 343.033 614.951 344.428C613.146 345.811 611.318 347.814 609.467 350.439L607.27 349.033C610.223 344.932 612.637 340.777 614.512 336.57H607.498V334.268H615.479C616.029 332.92 616.568 331.455 617.096 329.873L619.697 330.488C619.217 331.766 618.736 333.025 618.256 334.268H633.883V336.57H617.289C616.492 338.375 615.613 340.238 614.652 342.16L614.688 342.195C616.773 340.754 618.648 340.033 620.312 340.033C623.148 340.033 625.029 341.568 625.955 344.639C628.381 344.088 631.129 343.619 634.199 343.232L634.463 345.57C631.193 346.004 628.527 346.461 626.465 346.941C626.781 348.746 626.939 351.084 626.939 353.955H624.162C624.162 351.365 624.051 349.256 623.828 347.627C618.121 349.279 615.268 351.354 615.268 353.85C615.268 354.494 615.385 355.045 615.619 355.502C615.865 355.959 616.311 356.398 616.955 356.82C617.611 357.242 618.607 357.564 619.943 357.787C621.291 357.998 622.973 358.104 624.988 358.104C627.648 358.104 630.578 357.84 633.777 357.312L634.023 359.721ZM649.176 339.137V362.129H646.293V344.059C645.051 346.238 643.832 348.014 642.637 349.385L641.195 346.836C645.133 342.113 647.852 336.447 649.352 329.838L652.059 330.453C651.461 333.406 650.5 336.301 649.176 339.137ZM674.559 335.498H663.326V342.002H673.486V344.428H663.326V351.195H673.486V353.674H663.326V362.129H660.408V335.498H658.281C656.77 339.119 654.959 342.441 652.85 345.465L650.617 343.812C653.664 339.465 655.967 334.689 657.525 329.486L660.197 330.014C659.881 331.139 659.559 332.158 659.23 333.072H674.559V335.498ZM698.465 357.734C702.566 356.773 704.617 354.354 704.617 350.475C704.617 348.482 703.932 346.994 702.561 346.01C701.201 345.025 699.068 344.533 696.162 344.533C691.287 344.533 686.213 346.021 680.939 348.998L679.885 347.047L699.326 334.777V334.707H682.486V332.352H704.195L704.336 334.742L690.221 343.268L690.256 343.303C692.658 342.658 694.902 342.336 696.988 342.336C704.043 342.336 707.57 344.949 707.57 350.176C707.57 353.516 706.387 356.082 704.02 357.875C701.664 359.656 698.266 360.547 693.824 360.547C687.027 360.547 683.629 358.625 683.629 354.781C683.629 353.387 684.314 352.203 685.686 351.23C687.057 350.246 689.014 349.754 691.557 349.754C696.596 349.754 699.115 351.482 699.115 354.939C699.115 355.771 698.898 356.703 698.465 357.734ZM695.723 358.139C696.32 357.014 696.625 356.018 696.637 355.15C696.637 353.088 694.896 352.057 691.416 352.057C689.811 352.057 688.568 352.326 687.689 352.865C686.811 353.404 686.371 354.043 686.371 354.781C686.371 355.836 686.986 356.674 688.217 357.295C689.459 357.904 691.328 358.209 693.824 358.209C694.27 358.209 694.902 358.186 695.723 358.139Z" fill="white"/>
</svg>
