<svg width="1024" height="512" viewBox="0 0 1024 512" fill="none" xmlns="http://www.w3.org/2000/svg">
<rect width="1024" height="512" fill="#1747E6"/>
<path d="M126.592 247H120.832L81.376 196.312H81.28V247H73.792V185.368L71.296 182.008V181.528H79.936L118.912 232.312H119.008V181.528H126.592V247ZM180.057 247H173.145V243.064H172.953C169.209 246.52 164.313 248.728 158.265 248.728C148.953 248.728 141.945 242.968 141.945 233.656C141.945 224.152 148.473 218.008 159.897 218.008C164.889 218.008 169.305 219.16 172.953 221.08V215.992C172.953 206.872 167.001 203.224 159.705 203.224C153.657 203.224 148.377 206.296 145.209 210.04H144.921V202.456C149.145 198.808 154.905 196.792 160.953 196.792C171.801 196.792 180.057 202.648 180.057 215.512V247ZM172.953 236.728V227.224C169.881 225.304 165.465 223.96 161.145 223.96C153.561 223.96 149.145 227.224 149.145 233.176C149.145 238.36 152.889 242.488 160.473 242.488C165.273 242.488 169.689 240.376 172.953 236.728ZM227.97 234.616V207.832C224.898 205.048 220.482 203.416 216.066 203.416C206.178 203.416 199.554 210.136 199.554 221.656C199.554 232.984 205.986 240.088 215.394 240.088C220.578 240.088 224.994 237.976 227.97 234.616ZM214.338 265.72C208.866 265.72 202.434 264.376 198.306 260.44V251.992H198.498C201.954 257.08 208.002 259.288 214.05 259.288C224.226 259.288 227.97 253.336 227.97 245.656V241.24H227.874C224.226 244.504 219.138 246.616 213.186 246.616C201.474 246.616 191.778 237.976 191.778 221.656C191.778 205.624 201.474 196.792 214.434 196.792C219.906 196.792 224.898 198.808 228.45 201.4H228.642L234.786 198.136H235.074V245.272C235.074 259 227.01 265.72 214.338 265.72ZM286.839 247H279.927V243.064H279.735C275.991 246.52 271.095 248.728 265.047 248.728C255.734 248.728 248.727 242.968 248.727 233.656C248.727 224.152 255.255 218.008 266.679 218.008C271.671 218.008 276.087 219.16 279.735 221.08V215.992C279.735 206.872 273.783 203.224 266.487 203.224C260.439 203.224 255.159 206.296 251.991 210.04H251.703V202.456C255.927 198.808 261.687 196.792 267.734 196.792C278.583 196.792 286.839 202.648 286.839 215.512V247ZM279.735 236.728V227.224C276.663 225.304 272.247 223.96 267.927 223.96C260.343 223.96 255.927 227.224 255.927 233.176C255.927 238.36 259.671 242.488 267.255 242.488C272.055 242.488 276.471 240.376 279.735 236.728ZM338.495 222.808C338.495 210.52 331.775 203.224 322.367 203.224C312.863 203.224 306.047 210.328 306.047 222.808C306.047 235.096 312.767 242.296 322.175 242.296C331.679 242.296 338.495 235.288 338.495 222.808ZM346.079 222.808C346.079 239.32 335.615 248.728 322.175 248.728C308.927 248.728 298.559 239.416 298.559 222.808C298.559 206.104 308.927 196.792 322.367 196.792C335.615 196.792 346.079 206.104 346.079 222.808ZM365.396 247H358.292V175H365.396V247ZM395.732 247H386.9L366.644 222.616V222.232L386.132 198.52H394.58L374.996 221.944V222.136L395.732 247ZM439.089 247H432.177V243.064H431.985C428.241 246.52 423.345 248.728 417.297 248.728C407.984 248.728 400.977 242.968 400.977 233.656C400.977 224.152 407.505 218.008 418.929 218.008C423.921 218.008 428.337 219.16 431.985 221.08V215.992C431.985 206.872 426.033 203.224 418.737 203.224C412.689 203.224 407.409 206.296 404.241 210.04H403.953V202.456C408.177 198.808 413.937 196.792 419.984 196.792C430.833 196.792 439.089 202.648 439.089 215.512V247ZM431.985 236.728V227.224C428.913 225.304 424.497 223.96 420.177 223.96C412.593 223.96 408.177 227.224 408.177 233.176C408.177 238.36 411.921 242.488 419.505 242.488C424.305 242.488 428.721 240.376 431.985 236.728ZM535.92 214.264C535.92 236.344 520.56 247 502.512 247H482.448V181.528H502.512C520.464 181.528 535.92 192.184 535.92 214.264ZM528.144 214.264C528.144 197.272 517.008 188.632 502.512 188.632H489.936V239.896H502.512C517.008 239.896 528.144 231.352 528.144 214.264ZM600.387 247H592.131L583.491 225.4H556.707L548.163 247H540.099L567.171 181.528H573.315L600.387 247ZM570.051 192.088L559.491 218.584H580.803L570.243 192.088H570.051ZM666.209 214.264C666.209 236.728 651.905 248.728 635.297 248.728C619.169 248.728 604.673 236.824 604.673 214.264C604.673 191.8 618.977 179.8 635.489 179.8C651.713 179.8 666.209 191.704 666.209 214.264ZM658.241 214.264C658.241 196.408 647.969 186.904 635.489 186.904C623.105 186.904 612.641 196.216 612.641 214.264C612.641 232.12 622.913 241.624 635.297 241.624C647.777 241.624 658.241 232.312 658.241 214.264Z" fill="white"/>
<path d="M98.207 293.045V295.383H80.2773C82.3398 297.738 84.8477 299.836 87.8008 301.676C89.7695 300.094 91.5684 298.248 93.1973 296.139L95.4648 297.51C93.8359 299.596 92.0488 301.43 90.1035 303.012C92.4824 304.312 95.2539 305.514 98.418 306.615L97.2578 308.883C88.2578 305.789 81.5137 301.289 77.0254 295.383H73.6504V305.561C77.084 305.104 80.7285 304.494 84.584 303.732L84.918 306C78.7305 307.277 72.6719 308.18 66.7422 308.707L66.4434 306.352C69.2793 306.059 70.7441 305.918 70.8379 305.93V295.383H65.793V293.045H70.8379V277.84H94.6738V280.195H73.6504V282.955H93.584V285.082H73.6504V287.93H93.584V290.057H73.6504V293.045H98.207ZM130.059 303.768V280.195H105.941V308.584H103.164V277.805H132.836V303.768C132.836 305.83 132.602 307.107 132.133 307.6C131.664 308.092 130.469 308.338 128.547 308.338C127.949 308.338 126.027 308.279 122.781 308.162L122.676 305.719C125.863 305.836 127.627 305.895 127.967 305.895C128.975 305.895 129.572 305.795 129.76 305.596C129.959 305.385 130.059 304.775 130.059 303.768ZM128.336 290.584H119.371V299.514H123.695V292.605H126.35V303.908H123.695V301.852H112.305V305.561H109.65V292.605H112.305V299.514H116.629V290.584H107.664V288.246H113.395C112.574 285.891 111.76 283.781 110.951 281.918L113.359 281.232C114.32 283.412 115.205 285.75 116.014 288.246H119.758C120.953 286.043 121.949 283.658 122.746 281.092L125.207 281.812C124.516 284.098 123.637 286.242 122.57 288.246H128.336V290.584ZM170.084 282.955H155.336V287.648H167.781V301.5C167.781 303.539 167.57 304.811 167.148 305.314C166.738 305.818 165.678 306.07 163.967 306.07C163.51 306.07 161.869 306.012 159.045 305.895L158.939 303.416C160.979 303.533 162.479 303.592 163.439 303.592C164.236 303.592 164.705 303.504 164.846 303.328C164.986 303.141 165.057 302.531 165.057 301.5V290.092H155.336V309.498H152.453V290.092H142.943V306.07H140.219V287.648H152.453V282.955H137.916V280.512H152.453V276.592H155.336V280.512H170.084V282.955ZM187.943 284.045V281.584H203.254V284.045H187.943ZM180.824 278.719C179.676 283.09 179.096 287.865 179.084 293.045C179.084 298.225 179.664 303 180.824 307.371L178.117 307.723C176.922 303.164 176.324 298.271 176.324 293.045C176.324 287.807 176.922 282.908 178.117 278.35L180.824 278.719ZM203.746 302.537L204.15 304.963C201.244 305.701 198.484 306.07 195.871 306.07C192.578 306.07 189.977 305.467 188.066 304.26C186.168 303.041 185.219 301.424 185.219 299.408C185.219 298.377 185.629 297.193 186.449 295.857C187.281 294.51 188.406 293.256 189.824 292.096L191.758 293.766C190.586 294.727 189.654 295.729 188.963 296.771C188.283 297.814 187.943 298.693 187.943 299.408C187.943 300.756 188.629 301.787 190 302.502C191.371 303.205 193.328 303.557 195.871 303.557C198.355 303.545 200.98 303.205 203.746 302.537ZM214.012 280.916V291.709H214.082C215.406 288.662 217.205 286.283 219.479 284.572C221.764 282.85 224.453 281.854 227.547 281.584V277.084H230.324V281.549C233.875 281.713 236.588 282.645 238.463 284.344C240.35 286.043 241.293 288.428 241.293 291.498C241.293 294.615 240.285 297.029 238.27 298.74C236.254 300.439 233.377 301.336 229.639 301.43C229.135 303.211 228.268 304.652 227.037 305.754C225.818 306.855 224.107 307.775 221.904 308.514L220.639 306.246C222.338 305.648 223.668 304.969 224.629 304.207C225.59 303.434 226.299 302.449 226.756 301.254C224.998 300.984 223.381 300.404 221.904 299.514C220.439 298.611 219.203 297.451 218.195 296.033L219.777 294.188C221.629 296.801 224.16 298.336 227.371 298.793C227.488 297.949 227.547 296.789 227.547 295.312V284.115C223.516 284.549 220.24 286.406 217.721 289.688C215.201 292.957 213.941 297.076 213.941 302.045H211.498V280.916H214.012ZM230.148 298.863C232.914 298.723 235 298.031 236.406 296.789C237.824 295.535 238.533 293.771 238.533 291.498C238.533 289.213 237.836 287.443 236.441 286.189C235.047 284.924 233.008 284.221 230.324 284.08V295.312C230.324 296.766 230.266 297.949 230.148 298.863ZM247.498 286.805V284.396H254.512C255.18 281.443 255.695 278.912 256.059 276.803L258.66 277.084C258.32 279.193 257.84 281.631 257.219 284.396H260.453C261.344 284.396 262.035 284.396 262.527 284.396C263.02 284.396 263.564 284.432 264.162 284.502C264.76 284.572 265.199 284.637 265.48 284.695C265.773 284.742 266.102 284.877 266.465 285.1C266.828 285.311 267.074 285.492 267.203 285.645C267.332 285.797 267.484 286.09 267.66 286.523C267.848 286.957 267.959 287.344 267.994 287.684C268.029 288.012 268.076 288.539 268.135 289.266C268.193 289.98 268.223 290.625 268.223 291.199C268.223 291.773 268.223 292.594 268.223 293.66C268.223 298.102 267.695 301.471 266.641 303.768C265.586 306.053 264.244 307.195 262.615 307.195C260.576 307.195 258.139 306.545 255.303 305.244L256.164 302.836C258.848 303.984 260.828 304.559 262.105 304.559C262.633 304.559 263.143 304.189 263.635 303.451C264.127 302.701 264.561 301.441 264.936 299.672C265.311 297.891 265.498 295.764 265.498 293.291C265.498 292.494 265.498 291.908 265.498 291.533C265.498 291.146 265.48 290.684 265.445 290.145C265.41 289.605 265.381 289.236 265.357 289.037C265.346 288.826 265.281 288.562 265.164 288.246C265.047 287.918 264.965 287.713 264.918 287.631C264.871 287.537 264.725 287.408 264.479 287.244C264.244 287.08 264.057 286.992 263.916 286.98C263.787 286.969 263.523 286.939 263.125 286.893C262.738 286.834 262.416 286.805 262.158 286.805C261.912 286.805 261.502 286.805 260.928 286.805H256.639C254.857 294 252.479 300.879 249.502 307.441L247.059 306.475C249.871 300.264 252.162 293.707 253.932 286.805H247.498ZM269.805 282.059L272.301 281.162C274.961 287.209 277.082 293.303 278.664 299.443L276.115 300.094C274.451 293.883 272.348 287.871 269.805 282.059ZM287.137 278.754H289.826V288.545H289.896C291.092 285.709 292.727 283.488 294.801 281.883C296.887 280.277 299.119 279.475 301.498 279.475C304.264 279.475 306.408 280.471 307.932 282.463C309.467 284.455 310.234 287.297 310.234 290.988C310.234 296.672 308.641 300.855 305.453 303.539C302.266 306.211 297.262 307.547 290.441 307.547L290.336 305.033C296.359 305.033 300.701 303.932 303.361 301.729C306.021 299.514 307.352 295.934 307.352 290.988C307.352 288.059 306.83 285.85 305.787 284.361C304.744 282.873 303.227 282.129 301.234 282.129C298.574 282.129 296.066 283.57 293.711 286.453C291.367 289.336 290.061 292.816 289.791 296.895H287.137V278.754ZM339.15 279.316L341.312 278.174C342.484 280.119 343.598 282.088 344.652 284.08L342.49 285.117C341.564 283.336 340.451 281.402 339.15 279.316ZM344.195 277.963L346.393 276.768C347.811 279.1 348.959 281.115 349.838 282.814L347.605 283.904C346.504 281.865 345.367 279.885 344.195 277.963ZM319.498 286.805V284.396H326.512C327.18 281.443 327.695 278.912 328.059 276.803L330.66 277.084C330.32 279.193 329.84 281.631 329.219 284.396H332.312C333.414 284.396 334.252 284.396 334.826 284.396C335.4 284.396 336.021 284.467 336.689 284.607C337.369 284.736 337.844 284.848 338.113 284.941C338.395 285.035 338.699 285.281 339.027 285.68C339.367 286.078 339.578 286.441 339.66 286.77C339.754 287.086 339.854 287.643 339.959 288.439C340.064 289.225 340.117 289.963 340.117 290.654C340.117 291.334 340.117 292.336 340.117 293.66C340.117 298.102 339.584 301.471 338.518 303.768C337.451 306.053 336.104 307.195 334.475 307.195C332.436 307.195 329.998 306.545 327.162 305.244L328.059 302.836C330.742 303.984 332.723 304.559 334 304.559C334.387 304.559 334.768 304.336 335.143 303.891C335.529 303.445 335.893 302.789 336.232 301.922C336.572 301.043 336.842 299.854 337.041 298.354C337.24 296.854 337.34 295.166 337.34 293.291C337.34 292.471 337.34 291.885 337.34 291.533C337.34 291.17 337.322 290.707 337.287 290.145C337.252 289.582 337.234 289.207 337.234 289.02C337.234 288.82 337.176 288.557 337.059 288.229C336.941 287.889 336.854 287.684 336.795 287.613C336.736 287.531 336.59 287.408 336.355 287.244C336.133 287.08 335.951 286.992 335.811 286.98C335.682 286.969 335.418 286.939 335.02 286.893C334.633 286.834 334.311 286.805 334.053 286.805C333.807 286.805 333.391 286.805 332.805 286.805H328.639C326.857 294 324.479 300.879 321.502 307.441L319.059 306.475C321.871 300.264 324.162 293.707 325.932 286.805H319.498ZM348.045 300.744C346.51 296.596 344.518 292.131 342.068 287.35L344.477 286.312C346.926 291.035 348.941 295.57 350.523 299.918L348.045 300.744ZM373.463 305.895C376.076 305.391 378.133 304.418 379.633 302.977C381.133 301.535 381.883 299.818 381.883 297.826C381.883 294.709 380.371 292.564 377.348 291.393C375.766 296.021 373.469 299.695 370.457 302.414C367.445 305.121 364.451 306.475 361.475 306.475C359.6 306.475 358.135 305.918 357.08 304.805C356.025 303.68 355.498 302.121 355.498 300.129C355.498 297.68 356.295 295.494 357.889 293.572C359.482 291.639 361.686 290.203 364.498 289.266V283.939H356.781V281.637H364.498V277.084H367.117V281.637H383.219V283.939H367.117V288.58C368.723 288.264 370.322 288.105 371.916 288.105C375.854 288.105 378.936 288.979 381.162 290.725C383.389 292.459 384.502 294.826 384.502 297.826C384.502 300.486 383.576 302.742 381.725 304.594C379.885 306.445 377.342 307.67 374.096 308.268L373.463 305.895ZM374.939 290.742C374.025 290.602 373.018 290.525 371.916 290.514C370.217 290.514 368.617 290.695 367.117 291.059V302.01C368.699 300.861 370.182 299.32 371.564 297.387C372.947 295.453 374.072 293.238 374.939 290.742ZM364.498 291.885C362.529 292.705 360.971 293.818 359.822 295.225C358.686 296.619 358.117 298.172 358.117 299.883C358.117 301.23 358.428 302.268 359.049 302.994C359.682 303.721 360.572 304.084 361.721 304.084C362.635 304.084 363.561 303.896 364.498 303.521V291.885ZM410.465 304.734C414.566 303.773 416.617 301.354 416.617 297.475C416.617 295.482 415.932 293.994 414.561 293.01C413.201 292.025 411.068 291.533 408.162 291.533C403.287 291.533 398.213 293.021 392.939 295.998L391.885 294.047L411.326 281.777V281.707H394.486V279.352H416.195L416.336 281.742L402.221 290.268L402.256 290.303C404.658 289.658 406.902 289.336 408.988 289.336C416.043 289.336 419.57 291.949 419.57 297.176C419.57 300.516 418.387 303.082 416.02 304.875C413.664 306.656 410.266 307.547 405.824 307.547C399.027 307.547 395.629 305.625 395.629 301.781C395.629 300.387 396.314 299.203 397.686 298.23C399.057 297.246 401.014 296.754 403.557 296.754C408.596 296.754 411.115 298.482 411.115 301.939C411.115 302.771 410.898 303.703 410.465 304.734ZM407.723 305.139C408.32 304.014 408.625 303.018 408.637 302.15C408.637 300.088 406.896 299.057 403.416 299.057C401.811 299.057 400.568 299.326 399.689 299.865C398.811 300.404 398.371 301.043 398.371 301.781C398.371 302.836 398.986 303.674 400.217 304.295C401.459 304.904 403.328 305.209 405.824 305.209C406.27 305.209 406.902 305.186 407.723 305.139ZM425.582 306.141C430.281 303.832 433.949 300.492 436.586 296.121C439.234 291.738 440.559 286.752 440.559 281.162V276.943H443.441V281.162C443.441 286.752 444.76 291.738 447.396 296.121C450.033 300.504 453.707 303.844 458.418 306.141L456.906 308.373C453.449 306.768 450.42 304.354 447.818 301.131C445.217 297.896 443.312 294.24 442.105 290.162C440.887 294.24 438.953 297.896 436.305 301.131C433.668 304.354 430.598 306.768 427.094 308.373L425.582 306.141ZM491.676 290.777C486.73 290.777 481.967 291.088 477.385 291.709L477.174 289.336C482.002 288.691 486.836 288.363 491.676 288.352V290.777ZM492.115 303.943L492.432 306.352C489.701 306.832 487.17 307.072 484.838 307.072C481.744 307.072 479.248 306.521 477.35 305.42C475.451 304.318 474.502 302.895 474.502 301.148C474.502 299.367 475.85 297.516 478.545 295.594L480.232 297.211C479.107 298.031 478.316 298.717 477.859 299.268C477.402 299.818 477.174 300.357 477.174 300.885C477.174 301.986 477.877 302.895 479.283 303.609C480.689 304.312 482.541 304.664 484.838 304.664C487.006 304.664 489.432 304.424 492.115 303.943ZM463.955 284.045V281.637H469.932C470.271 279.961 470.559 278.385 470.793 276.908L473.43 277.172C473.066 279.328 472.803 280.816 472.639 281.637H485.664V284.045H472.129C470.348 292.541 468.139 300.469 465.502 307.828L462.883 307.195C465.543 299.918 467.729 292.201 469.439 284.045H463.955ZM499.709 284.66V282.234H508.164C508.352 281.367 508.65 279.715 509.061 277.277L511.732 277.488C511.521 278.953 511.211 280.535 510.801 282.234H528.291V284.66H510.221C509.447 287.473 508.404 290.279 507.092 293.08L507.127 293.15C508.475 292.506 509.998 291.967 511.697 291.533C513.396 291.1 514.92 290.883 516.268 290.883C519.537 290.883 522.016 291.557 523.703 292.904C525.391 294.24 526.234 296.168 526.234 298.688C526.234 301.348 525.062 303.475 522.719 305.068C520.387 306.65 517.24 307.441 513.279 307.441C510.373 307.441 507.479 307.166 504.596 306.615L505.035 304.207C507.918 304.758 510.666 305.033 513.279 305.033C516.396 305.033 518.875 304.447 520.715 303.275C522.555 302.092 523.475 300.516 523.475 298.547C523.475 295.043 521.037 293.291 516.162 293.291C514.439 293.291 512.6 293.59 510.643 294.188C508.686 294.785 506.986 295.564 505.545 296.525L503.242 295.453C505.164 291.68 506.6 288.082 507.549 284.66H499.709ZM555.15 279.316L557.312 278.174C558.484 280.119 559.598 282.088 560.652 284.08L558.49 285.117C557.564 283.336 556.451 281.402 555.15 279.316ZM560.195 277.963L562.393 276.768C563.811 279.1 564.959 281.115 565.838 282.814L563.605 283.904C562.504 281.865 561.367 279.885 560.195 277.963ZM535.498 286.805V284.396H542.512C543.18 281.443 543.695 278.912 544.059 276.803L546.66 277.084C546.32 279.193 545.84 281.631 545.219 284.396H548.312C549.414 284.396 550.252 284.396 550.826 284.396C551.4 284.396 552.021 284.467 552.689 284.607C553.369 284.736 553.844 284.848 554.113 284.941C554.395 285.035 554.699 285.281 555.027 285.68C555.367 286.078 555.578 286.441 555.66 286.77C555.754 287.086 555.854 287.643 555.959 288.439C556.064 289.225 556.117 289.963 556.117 290.654C556.117 291.334 556.117 292.336 556.117 293.66C556.117 298.102 555.584 301.471 554.518 303.768C553.451 306.053 552.104 307.195 550.475 307.195C548.436 307.195 545.998 306.545 543.162 305.244L544.059 302.836C546.742 303.984 548.723 304.559 550 304.559C550.387 304.559 550.768 304.336 551.143 303.891C551.529 303.445 551.893 302.789 552.232 301.922C552.572 301.043 552.842 299.854 553.041 298.354C553.24 296.854 553.34 295.166 553.34 293.291C553.34 292.471 553.34 291.885 553.34 291.533C553.34 291.17 553.322 290.707 553.287 290.145C553.252 289.582 553.234 289.207 553.234 289.02C553.234 288.82 553.176 288.557 553.059 288.229C552.941 287.889 552.854 287.684 552.795 287.613C552.736 287.531 552.59 287.408 552.355 287.244C552.133 287.08 551.951 286.992 551.811 286.98C551.682 286.969 551.418 286.939 551.02 286.893C550.633 286.834 550.311 286.805 550.053 286.805C549.807 286.805 549.391 286.805 548.805 286.805H544.639C542.857 294 540.479 300.879 537.502 307.441L535.059 306.475C537.871 300.264 540.162 293.707 541.932 286.805H535.498ZM564.045 300.744C562.51 296.596 560.518 292.131 558.068 287.35L560.477 286.312C562.926 291.035 564.941 295.57 566.523 299.918L564.045 300.744ZM585.209 284.572V282.059H575.928V284.572H585.209ZM585.209 289.16V286.629H575.928V289.16H585.209ZM585.209 291.164H575.928V293.73H585.209V291.164ZM585.648 279.791C586.129 278.783 586.592 277.693 587.037 276.521L589.744 276.873C589.357 277.904 588.947 278.877 588.514 279.791H599.852V282.059H588.092V284.572H598.779V286.629H588.092V289.16H598.779V291.164H588.092V293.73H599.852V295.805H587.441V297.967H601.557V300.234H588.812C592.129 302.133 596.664 303.92 602.418 305.596L601.627 308.092C595.557 306.123 590.828 303.996 587.441 301.711V309.129H584.559V301.711C581.172 303.996 576.443 306.123 570.373 308.092L569.582 305.596C575.348 303.92 579.883 302.133 583.188 300.234H570.092V297.967H584.559V295.805H573.15V285.293C572.354 286.57 571.551 287.701 570.742 288.686L569.16 286.137C571.773 283.137 573.689 279.932 574.908 276.521L577.51 276.979C577.146 278.01 576.771 278.947 576.385 279.791H585.648ZM625.85 277.207V281.268H635.676V283.676H625.85V288.475H634.498V290.883H625.85V298.195C628.416 299.59 631.428 301.77 634.885 304.734L633.197 306.65C630.432 304.225 627.971 302.338 625.814 300.99C625.674 303.416 624.994 305.156 623.775 306.211C622.568 307.266 620.658 307.793 618.045 307.793C615.689 307.793 613.82 307.236 612.438 306.123C611.055 305.01 610.363 303.492 610.363 301.57C610.363 299.965 610.949 298.611 612.121 297.51C613.305 296.396 615.279 295.84 618.045 295.84C619.627 295.84 621.344 296.215 623.195 296.965V290.883H609.502V288.475H623.195V283.676H608.324V281.268H623.195V277.207H625.85ZM623.195 299.549C621.391 298.682 619.756 298.254 618.291 298.266C614.834 298.266 613.105 299.367 613.105 301.57C613.105 302.742 613.545 303.674 614.424 304.365C615.303 305.045 616.51 305.385 618.045 305.385C619.99 305.385 621.332 304.992 622.07 304.207C622.82 303.41 623.195 301.969 623.195 299.883V299.549ZM662.465 304.734C666.566 303.773 668.617 301.354 668.617 297.475C668.617 295.482 667.932 293.994 666.561 293.01C665.201 292.025 663.068 291.533 660.162 291.533C655.287 291.533 650.213 293.021 644.939 295.998L643.885 294.047L663.326 281.777V281.707H646.486V279.352H668.195L668.336 281.742L654.221 290.268L654.256 290.303C656.658 289.658 658.902 289.336 660.988 289.336C668.043 289.336 671.57 291.949 671.57 297.176C671.57 300.516 670.387 303.082 668.02 304.875C665.664 306.656 662.266 307.547 657.824 307.547C651.027 307.547 647.629 305.625 647.629 301.781C647.629 300.387 648.314 299.203 649.686 298.23C651.057 297.246 653.014 296.754 655.557 296.754C660.596 296.754 663.115 298.482 663.115 301.939C663.115 302.771 662.898 303.703 662.465 304.734ZM659.723 305.139C660.32 304.014 660.625 303.018 660.637 302.15C660.637 300.088 658.896 299.057 655.416 299.057C653.811 299.057 652.568 299.326 651.689 299.865C650.811 300.404 650.371 301.043 650.371 301.781C650.371 302.836 650.986 303.674 652.217 304.295C653.459 304.904 655.328 305.209 657.824 305.209C658.27 305.209 658.902 305.186 659.723 305.139ZM681.291 280.916H706.498V305.174H681.291V302.66H703.721V283.43H681.291V280.916ZM716.535 304.277L716.676 301.465C725.465 301.781 734.348 302.742 743.324 304.348L742.955 307.16C734.072 305.555 725.266 304.594 716.535 304.277ZM719.559 292.676L719.734 289.863C726.648 290.156 733.527 290.9 740.371 292.096L739.967 294.908C732.959 293.689 726.156 292.945 719.559 292.676ZM718.223 282.199L718.363 279.475C726.426 279.744 734.359 280.465 742.164 281.637L741.848 284.361C734.02 283.213 726.145 282.492 718.223 282.199ZM757 286.084H773.559L772.223 303.363H778.059V305.754H753.941V303.363H769.34L770.535 288.475H757V286.084ZM790.223 283.605V280.916H813.777V283.605H790.223ZM787.709 305.174V302.467H816.291V305.174H787.709ZM826.943 282.34V279.826H849.057V282.34H826.943ZM822.883 289.547H853.117V292.061H840.777C840.754 296.408 839.805 299.795 837.93 302.221C836.055 304.646 833.02 306.422 828.824 307.547L828.033 305.068C831.631 304.037 834.168 302.543 835.645 300.586C837.121 298.629 837.871 295.787 837.895 292.061H822.883V289.547ZM862.328 295.312C866.453 294.738 870.467 293.49 874.369 291.568C878.271 289.646 881.459 287.367 883.932 284.73L885.549 286.559C883.264 288.984 880.422 291.123 877.023 292.975V307.617H874.246V294.328C870.402 296.086 866.564 297.229 862.732 297.756L862.328 295.312ZM86.4297 356.592H83.793V329.363H97.5918V331.648H86.4297V356.592ZM133.521 338.223C131.143 337.812 128.67 337.596 126.104 337.572V350.826C128.412 352.045 130.979 353.82 133.803 356.152L132.15 358.104C129.725 356.158 127.709 354.682 126.104 353.674C126.01 356.146 125.354 357.91 124.135 358.965C122.928 360.02 120.977 360.547 118.281 360.547C115.855 360.547 113.969 360.002 112.621 358.912C111.285 357.822 110.617 356.328 110.617 354.43C110.617 352.578 111.279 351.137 112.604 350.105C113.939 349.074 115.832 348.559 118.281 348.559C119.863 348.559 121.592 348.922 123.467 349.648V335.129C127.381 335.129 130.838 335.369 133.838 335.85L133.521 338.223ZM102.637 337.502V335.129H109.281C109.926 332.996 110.453 331.174 110.863 329.662L113.359 330.014C112.949 331.666 112.48 333.371 111.953 335.129H118.721V337.502H111.232C109.451 343.139 107.137 349.238 104.289 355.801L101.863 354.939C104.477 348.939 106.697 343.127 108.525 337.502H102.637ZM123.467 352.197C121.639 351.33 119.91 350.896 118.281 350.896C114.918 350.896 113.242 352.074 113.254 354.43C113.254 355.625 113.688 356.568 114.555 357.26C115.434 357.939 116.676 358.279 118.281 358.279C120.25 358.279 121.604 357.916 122.342 357.189C123.092 356.451 123.467 355.074 123.467 353.059V352.197ZM159.15 332.316L161.312 331.174C162.484 333.119 163.598 335.088 164.652 337.08L162.49 338.117C161.564 336.336 160.451 334.402 159.15 332.316ZM164.195 330.963L166.393 329.768C167.811 332.1 168.959 334.115 169.838 335.814L167.605 336.904C166.504 334.865 165.367 332.885 164.195 330.963ZM139.498 339.805V337.396H146.512C147.18 334.443 147.695 331.912 148.059 329.803L150.66 330.084C150.32 332.193 149.84 334.631 149.219 337.396H152.312C153.414 337.396 154.252 337.396 154.826 337.396C155.4 337.396 156.021 337.467 156.689 337.607C157.369 337.736 157.844 337.848 158.113 337.941C158.395 338.035 158.699 338.281 159.027 338.68C159.367 339.078 159.578 339.441 159.66 339.77C159.754 340.086 159.854 340.643 159.959 341.439C160.064 342.225 160.117 342.963 160.117 343.654C160.117 344.334 160.117 345.336 160.117 346.66C160.117 351.102 159.584 354.471 158.518 356.768C157.451 359.053 156.104 360.195 154.475 360.195C152.436 360.195 149.998 359.545 147.162 358.244L148.059 355.836C150.742 356.984 152.723 357.559 154 357.559C154.387 357.559 154.768 357.336 155.143 356.891C155.529 356.445 155.893 355.789 156.232 354.922C156.572 354.043 156.842 352.854 157.041 351.354C157.24 349.854 157.34 348.166 157.34 346.291C157.34 345.471 157.34 344.885 157.34 344.533C157.34 344.17 157.322 343.707 157.287 343.145C157.252 342.582 157.234 342.207 157.234 342.02C157.234 341.82 157.176 341.557 157.059 341.229C156.941 340.889 156.854 340.684 156.795 340.613C156.736 340.531 156.59 340.408 156.355 340.244C156.133 340.08 155.951 339.992 155.811 339.98C155.682 339.969 155.418 339.939 155.02 339.893C154.633 339.834 154.311 339.805 154.053 339.805C153.807 339.805 153.391 339.805 152.805 339.805H148.639C146.857 347 144.479 353.879 141.502 360.441L139.059 359.475C141.871 353.264 144.162 346.707 145.932 339.805H139.498ZM168.045 353.744C166.51 349.596 164.518 345.131 162.068 340.35L164.477 339.312C166.926 344.035 168.941 348.57 170.523 352.918L168.045 353.744ZM176.43 334.988H185.324V330.084H187.943V334.988H197.207V337.291H187.943V343.443C189.068 343.326 190.152 343.268 191.195 343.268C194.793 343.268 197.67 344.064 199.826 345.658C201.982 347.252 203.061 349.145 203.061 351.336C203.061 354.066 202.205 356.234 200.494 357.84C198.783 359.434 196.258 360.383 192.918 360.688L192.373 358.279C197.705 357.705 200.371 355.426 200.371 351.441C200.371 349.93 199.539 348.611 197.875 347.486C196.223 346.35 193.996 345.781 191.195 345.781C190.164 345.781 189.08 345.846 187.943 345.975V355.15C187.943 356.955 187.568 358.227 186.818 358.965C186.08 359.703 184.826 360.072 183.057 360.072C180.971 360.072 179.125 359.369 177.52 357.963C175.926 356.545 175.129 354.887 175.129 352.988C175.129 350.926 176.014 349.057 177.783 347.381C179.564 345.693 182.078 344.516 185.324 343.848V337.291H176.43V334.988ZM198.648 335.129L200.512 333.617C202.621 335.902 204.578 338.422 206.383 341.176L204.396 342.477C202.744 339.91 200.828 337.461 198.648 335.129ZM185.324 346.396C182.898 346.947 181.029 347.826 179.717 349.033C178.416 350.229 177.766 351.547 177.766 352.988C177.766 354.184 178.293 355.273 179.348 356.258C180.402 357.242 181.551 357.734 182.793 357.734C183.707 357.734 184.357 357.541 184.744 357.154C185.131 356.756 185.324 356.076 185.324 355.115V346.396ZM211.498 339.805V337.396H218.512C219.18 334.443 219.695 331.912 220.059 329.803L222.66 330.084C222.32 332.193 221.84 334.631 221.219 337.396H224.453C225.344 337.396 226.035 337.396 226.527 337.396C227.02 337.396 227.564 337.432 228.162 337.502C228.76 337.572 229.199 337.637 229.48 337.695C229.773 337.742 230.102 337.877 230.465 338.1C230.828 338.311 231.074 338.492 231.203 338.645C231.332 338.797 231.484 339.09 231.66 339.523C231.848 339.957 231.959 340.344 231.994 340.684C232.029 341.012 232.076 341.539 232.135 342.266C232.193 342.98 232.223 343.625 232.223 344.199C232.223 344.773 232.223 345.594 232.223 346.66C232.223 351.102 231.695 354.471 230.641 356.768C229.586 359.053 228.244 360.195 226.615 360.195C224.576 360.195 222.139 359.545 219.303 358.244L220.164 355.836C222.848 356.984 224.828 357.559 226.105 357.559C226.633 357.559 227.143 357.189 227.635 356.451C228.127 355.701 228.561 354.441 228.936 352.672C229.311 350.891 229.498 348.764 229.498 346.291C229.498 345.494 229.498 344.908 229.498 344.533C229.498 344.146 229.48 343.684 229.445 343.145C229.41 342.605 229.381 342.236 229.357 342.037C229.346 341.826 229.281 341.562 229.164 341.246C229.047 340.918 228.965 340.713 228.918 340.631C228.871 340.537 228.725 340.408 228.479 340.244C228.244 340.08 228.057 339.992 227.916 339.98C227.787 339.969 227.523 339.939 227.125 339.893C226.738 339.834 226.416 339.805 226.158 339.805C225.912 339.805 225.502 339.805 224.928 339.805H220.639C218.857 347 216.479 353.879 213.502 360.441L211.059 359.475C213.871 353.264 216.162 346.707 217.932 339.805H211.498ZM233.805 335.059L236.301 334.162C238.961 340.209 241.082 346.303 242.664 352.443L240.115 353.094C238.451 346.883 236.348 340.871 233.805 335.059ZM257.57 335.498H260.207V362.709H246.408V360.441H257.57V335.498ZM295.943 337.045V334.584H311.254V337.045H295.943ZM288.824 331.719C287.676 336.09 287.096 340.865 287.084 346.045C287.084 351.225 287.664 356 288.824 360.371L286.117 360.723C284.922 356.164 284.324 351.271 284.324 346.045C284.324 340.807 284.922 335.908 286.117 331.35L288.824 331.719ZM311.746 355.537L312.15 357.963C309.244 358.701 306.484 359.07 303.871 359.07C300.578 359.07 297.977 358.467 296.066 357.26C294.168 356.041 293.219 354.424 293.219 352.408C293.219 351.377 293.629 350.193 294.449 348.857C295.281 347.51 296.406 346.256 297.824 345.096L299.758 346.766C298.586 347.727 297.654 348.729 296.963 349.771C296.283 350.814 295.943 351.693 295.943 352.408C295.943 353.756 296.629 354.787 298 355.502C299.371 356.205 301.328 356.557 303.871 356.557C306.355 356.545 308.98 356.205 311.746 355.537ZM337.463 358.895C340.076 358.391 342.133 357.418 343.633 355.977C345.133 354.535 345.883 352.818 345.883 350.826C345.883 347.709 344.371 345.564 341.348 344.393C339.766 349.021 337.469 352.695 334.457 355.414C331.445 358.121 328.451 359.475 325.475 359.475C323.6 359.475 322.135 358.918 321.08 357.805C320.025 356.68 319.498 355.121 319.498 353.129C319.498 350.68 320.295 348.494 321.889 346.572C323.482 344.639 325.686 343.203 328.498 342.266V336.939H320.781V334.637H328.498V330.084H331.117V334.637H347.219V336.939H331.117V341.58C332.723 341.264 334.322 341.105 335.916 341.105C339.854 341.105 342.936 341.979 345.162 343.725C347.389 345.459 348.502 347.826 348.502 350.826C348.502 353.486 347.576 355.742 345.725 357.594C343.885 359.445 341.342 360.67 338.096 361.268L337.463 358.895ZM338.939 343.742C338.025 343.602 337.018 343.525 335.916 343.514C334.217 343.514 332.617 343.695 331.117 344.059V355.01C332.699 353.861 334.182 352.32 335.564 350.387C336.947 348.453 338.072 346.238 338.939 343.742ZM328.498 344.885C326.529 345.705 324.971 346.818 323.822 348.225C322.686 349.619 322.117 351.172 322.117 352.883C322.117 354.23 322.428 355.268 323.049 355.994C323.682 356.721 324.572 357.084 325.721 357.084C326.635 357.084 327.561 356.896 328.498 356.521V344.885ZM374.465 357.734C378.566 356.773 380.617 354.354 380.617 350.475C380.617 348.482 379.932 346.994 378.561 346.01C377.201 345.025 375.068 344.533 372.162 344.533C367.287 344.533 362.213 346.021 356.939 348.998L355.885 347.047L375.326 334.777V334.707H358.486V332.352H380.195L380.336 334.742L366.221 343.268L366.256 343.303C368.658 342.658 370.902 342.336 372.988 342.336C380.043 342.336 383.57 344.949 383.57 350.176C383.57 353.516 382.387 356.082 380.02 357.875C377.664 359.656 374.266 360.547 369.824 360.547C363.027 360.547 359.629 358.625 359.629 354.781C359.629 353.387 360.314 352.203 361.686 351.23C363.057 350.246 365.014 349.754 367.557 349.754C372.596 349.754 375.115 351.482 375.115 354.939C375.115 355.771 374.898 356.703 374.465 357.734ZM371.723 358.139C372.32 357.014 372.625 356.018 372.637 355.15C372.637 353.088 370.896 352.057 367.416 352.057C365.811 352.057 364.568 352.326 363.689 352.865C362.811 353.404 362.371 354.043 362.371 354.781C362.371 355.836 362.986 356.674 364.217 357.295C365.459 357.904 367.328 358.209 369.824 358.209C370.27 358.209 370.902 358.186 371.723 358.139ZM395.277 349.455H416.723V343.812H395.277V349.455ZM395.277 357.488H416.723V351.723H395.277V357.488ZM395.277 359.826V361.777H392.43V333.688H402.941C403.609 332.223 404.195 330.594 404.699 328.801L407.547 329.188C407.043 330.887 406.516 332.387 405.965 333.688H419.57V361.777H416.723V359.826H395.277ZM416.723 341.545V336.061H395.277V341.545H416.723ZM441.648 361.162L441.596 358.648C443.682 358.789 445.486 358.859 447.01 358.859C447.83 358.859 448.445 358.59 448.855 358.051C449.277 357.512 449.605 356.258 449.84 354.289C450.086 352.32 450.209 349.367 450.209 345.43V344.129H440.014C439.65 348.523 438.643 352.121 436.99 354.922C435.338 357.711 432.865 360.055 429.572 361.953L427.85 359.756C430.779 358.15 432.994 356.117 434.494 353.656C435.994 351.195 436.914 348.02 437.254 344.129H430.838V342.301C429.537 343.625 428.266 344.797 427.023 345.816L425.107 343.812C429.736 340.016 433.316 335.621 435.848 330.629L438.361 331.561C436.557 335.252 434.254 338.615 431.453 341.65H452.547C449.734 338.627 447.432 335.264 445.639 331.561L448.152 330.629C450.672 335.621 454.252 340.016 458.893 343.812L456.977 345.816C455.676 344.762 454.369 343.555 453.057 342.195V344.234C453.057 349.391 452.881 353.164 452.529 355.555C452.178 357.945 451.627 359.516 450.877 360.266C450.139 361.027 448.955 361.408 447.326 361.408C446.33 361.408 444.438 361.326 441.648 361.162ZM481.463 357.312C484.346 356.996 486.59 355.854 488.195 353.885C489.801 351.916 490.604 349.303 490.604 346.045C490.604 342.998 489.596 340.479 487.58 338.486C485.564 336.494 482.98 335.445 479.828 335.34C479.324 339.992 478.691 343.93 477.93 347.152C477.18 350.375 476.348 352.807 475.434 354.447C474.531 356.088 473.623 357.242 472.709 357.91C471.795 358.566 470.799 358.895 469.721 358.895C467.998 358.895 466.41 357.852 464.957 355.766C463.504 353.68 462.777 351.119 462.777 348.084C462.777 343.572 464.318 339.904 467.4 337.08C470.482 334.244 474.496 332.826 479.441 332.826C483.426 332.826 486.719 334.068 489.32 336.553C491.922 339.037 493.223 342.201 493.223 346.045C493.223 350.029 492.215 353.252 490.199 355.713C488.184 358.174 485.447 359.545 481.99 359.826L481.463 357.312ZM477.104 335.498C473.553 335.932 470.711 337.291 468.578 339.576C466.457 341.85 465.396 344.686 465.396 348.084C465.396 350.346 465.877 352.268 466.838 353.85C467.799 355.432 468.76 356.223 469.721 356.223C470.154 356.223 470.605 356.064 471.074 355.748C471.543 355.42 472.064 354.787 472.639 353.85C473.213 352.912 473.752 351.711 474.256 350.246C474.76 348.781 475.27 346.783 475.785 344.252C476.301 341.709 476.74 338.791 477.104 335.498ZM500.43 337.66V335.234H508.498C508.521 334.895 508.574 334.168 508.656 333.055C508.738 331.941 508.803 331.062 508.85 330.418L511.592 330.523C511.498 331.895 511.387 333.465 511.258 335.234H525.408V337.66H511.117C511.07 338.574 511 339.805 510.906 341.352C510.812 342.898 510.766 343.719 510.766 343.812H523.246V346.221H510.66C510.566 349.057 510.514 350.797 510.502 351.441C510.502 354.277 510.93 356.129 511.785 356.996C512.641 357.852 514.492 358.279 517.34 358.279C522.953 358.279 525.766 356.334 525.777 352.443C525.777 351.729 525.631 350.779 525.338 349.596L527.904 348.998C528.244 350.346 528.408 351.559 528.396 352.637C528.396 355.297 527.465 357.324 525.602 358.719C523.75 360.102 520.996 360.793 517.34 360.793C513.602 360.793 511.07 360.154 509.746 358.877C508.434 357.588 507.777 355.109 507.777 351.441C507.777 350.047 507.812 348.307 507.883 346.221H499.604V343.812H507.988C507.988 343.719 508.035 342.898 508.129 341.352C508.223 339.793 508.293 338.562 508.34 337.66H500.43ZM536.746 342.441C542.934 340.93 548.277 340.174 552.777 340.174C556.516 340.174 559.205 340.859 560.846 342.23C562.498 343.59 563.324 345.342 563.324 347.486C563.324 351.014 561.625 353.932 558.227 356.24C554.828 358.537 550.059 359.938 543.918 360.441L543.268 357.928C548.834 357.4 553.105 356.199 556.082 354.324C559.059 352.449 560.547 350.205 560.547 347.592C560.547 344.322 557.91 342.688 552.637 342.688C548.723 342.688 543.619 343.42 537.326 344.885L536.746 342.441ZM541.791 333.723L542.107 331.279C547.674 332.17 552.982 332.615 558.033 332.615V335.129C553.275 335.129 547.861 334.66 541.791 333.723ZM571.498 333.195H584.559V335.674C581.992 337.186 579.895 339.248 578.266 341.861C576.648 344.475 575.84 347.105 575.84 349.754C575.84 352.543 576.584 354.664 578.072 356.117C579.561 357.559 581.688 358.279 584.453 358.279C587.336 358.279 589.604 357.383 591.256 355.59C592.908 353.785 593.734 351.283 593.734 348.084C593.734 343.455 592.562 338.691 590.219 333.793L592.188 332.211C593.512 333.863 595.152 335.633 597.109 337.52C599.066 339.406 600.965 341.059 602.805 342.477L601.328 344.498C599.102 342.822 596.857 340.807 594.596 338.451L594.561 338.486C595.803 342.154 596.43 345.547 596.441 348.664C596.441 352.355 595.357 355.285 593.189 357.453C591.033 359.609 588.121 360.688 584.453 360.688C580.855 360.688 578.066 359.756 576.086 357.893C574.105 356.018 573.115 353.352 573.115 349.895C573.115 347.352 573.789 344.814 575.137 342.283C576.496 339.752 578.365 337.549 580.744 335.674L580.709 335.604H571.498V333.195ZM613.246 331.209L616.059 330.77C616.727 334.754 617.541 338.633 618.502 342.406C622.299 340.648 627.279 339.066 633.443 337.66L633.988 340.139C626.711 341.791 621.273 343.637 617.676 345.676C614.078 347.715 612.279 349.877 612.279 352.162C612.279 356.006 615.842 357.928 622.967 357.928C626.26 357.928 629.934 357.646 633.988 357.084L634.27 359.615C630.191 360.166 626.424 360.441 622.967 360.441C618.525 360.441 615.15 359.744 612.842 358.35C610.545 356.955 609.396 354.928 609.396 352.268C609.396 349.08 611.559 346.238 615.883 343.742C614.77 339.348 613.891 335.17 613.246 331.209ZM643.164 337.115C650.242 335.264 655.586 334.338 659.195 334.338C668.242 334.338 672.766 338.117 672.766 345.676C672.766 350.141 670.838 353.539 666.982 355.871C663.127 358.191 657.408 359.352 649.826 359.352L649.65 356.732C663.092 356.732 669.812 353.135 669.812 345.939C669.812 342.916 668.928 340.678 667.158 339.225C665.4 337.771 662.67 337.045 658.967 337.045C655.697 337.045 650.635 337.941 643.779 339.734L643.164 337.115ZM697.463 357.312C700.346 356.996 702.59 355.854 704.195 353.885C705.801 351.916 706.604 349.303 706.604 346.045C706.604 342.998 705.596 340.479 703.58 338.486C701.564 336.494 698.98 335.445 695.828 335.34C695.324 339.992 694.691 343.93 693.93 347.152C693.18 350.375 692.348 352.807 691.434 354.447C690.531 356.088 689.623 357.242 688.709 357.91C687.795 358.566 686.799 358.895 685.721 358.895C683.998 358.895 682.41 357.852 680.957 355.766C679.504 353.68 678.777 351.119 678.777 348.084C678.777 343.572 680.318 339.904 683.4 337.08C686.482 334.244 690.496 332.826 695.441 332.826C699.426 332.826 702.719 334.068 705.32 336.553C707.922 339.037 709.223 342.201 709.223 346.045C709.223 350.029 708.215 353.252 706.199 355.713C704.184 358.174 701.447 359.545 697.99 359.826L697.463 357.312ZM693.104 335.498C689.553 335.932 686.711 337.291 684.578 339.576C682.457 341.85 681.396 344.686 681.396 348.084C681.396 350.346 681.877 352.268 682.838 353.85C683.799 355.432 684.76 356.223 685.721 356.223C686.154 356.223 686.605 356.064 687.074 355.748C687.543 355.42 688.064 354.787 688.639 353.85C689.213 352.912 689.752 351.711 690.256 350.246C690.76 348.781 691.27 346.783 691.785 344.252C692.301 341.709 692.74 338.791 693.104 335.498ZM719.488 337.115H741.057V333.195H719.488V337.115ZM719.488 342.916H730.721V339.312H719.488V342.916ZM716.746 342.002V330.928H743.852V339.312H733.533V342.916H745.293V345.324H733.533V349.35H743.219V361.988H740.371V360.072H723.707V361.988H721V349.35H730.721V345.324H719.488C719.324 351.711 718.088 357.119 715.779 361.549L713.617 359.475C715.703 354.881 716.746 349.057 716.746 342.002ZM740.371 357.84V351.547H723.707V357.84H740.371ZM764.453 337.766V340.455H777.637V337.766H764.453ZM764.453 335.674H777.637V333.072H764.453V335.674ZM761.746 330.84H780.467V342.477H764.453H761.746V330.84ZM777.338 361.707C776.213 361.707 774.725 361.643 772.873 361.514L772.768 359.176C774.279 359.293 775.527 359.352 776.512 359.352C777.227 359.352 777.754 358.719 778.094 357.453C778.434 356.176 778.615 353.908 778.639 350.65V350.545H776.863C775.855 352.701 774.402 354.887 772.504 357.102C770.617 359.305 768.666 361.051 766.65 362.34L764.998 360.547C766.721 359.469 768.443 357.992 770.166 356.117C771.9 354.242 773.271 352.385 774.279 350.545H770.359C769.082 352.373 767.412 354.201 765.35 356.029C763.287 357.846 761.225 359.293 759.162 360.371L757.686 358.525C759.361 357.658 761.084 356.498 762.854 355.045C764.635 353.58 766.152 352.08 767.406 350.545H763.486C762.268 351.506 761.26 352.215 760.463 352.672L760.814 354.359C757.217 356.059 753.508 357.436 749.688 358.49L749.301 356.117C750.473 355.824 751.803 355.443 753.291 354.975V341.439H749.441V339.137H753.291V330.629H756.033V339.137H760.129V341.439H756.033V354.025C756.771 353.756 757.885 353.316 759.373 352.707L758.301 351.195C760.41 350.164 762.508 348.576 764.594 346.432H759.707V344.199H782.312V346.432H767.652C767.055 347.146 766.469 347.797 765.895 348.383H781.363V350.105C781.363 353.129 781.211 355.496 780.906 357.207C780.613 358.906 780.186 360.078 779.623 360.723C779.061 361.379 778.299 361.707 777.338 361.707ZM790.768 347.223H798.695V339.664H790.768V347.223ZM806.395 340.895H818.453V343.408H814.428V361.777H811.721V343.408H806.254C805.938 347.803 805.311 351.324 804.373 353.973C803.436 356.609 802.035 359.029 800.172 361.232L798.08 359.545C799.568 357.74 800.711 355.848 801.508 353.867C802.316 351.887 802.92 349.221 803.318 345.869C803.717 342.506 803.916 338.1 803.916 332.65C809.025 332.264 813.32 331.426 816.801 330.137L817.521 332.615C814.615 333.67 810.953 334.438 806.535 334.918C806.488 337.555 806.441 339.547 806.395 340.895ZM786.268 333.916V331.455H802.07V333.916H786.268ZM788.061 337.326H801.209V349.561H790.768C790.627 354.646 789.766 358.766 788.184 361.918L785.688 360.582C786.531 358.824 787.135 356.879 787.498 354.746C787.873 352.613 788.061 349.854 788.061 346.467V337.326Z" fill="white"/>
</svg>
