<svg width="1024" height="512" viewBox="0 0 1024 512" fill="none" xmlns="http://www.w3.org/2000/svg">
<rect width="1024" height="512" fill="#1747E6"/>
<path d="M126.592 273.5H120.832L81.376 222.812H81.28V273.5H73.792V211.868L71.296 208.508V208.028H79.936L118.912 258.812H119.008V208.028H126.592V273.5ZM180.057 273.5H173.145V269.564H172.953C169.209 273.02 164.313 275.228 158.265 275.228C148.953 275.228 141.945 269.468 141.945 260.156C141.945 250.652 148.473 244.508 159.897 244.508C164.889 244.508 169.305 245.66 172.953 247.58V242.492C172.953 233.372 167.001 229.724 159.705 229.724C153.657 229.724 148.377 232.796 145.209 236.54H144.921V228.956C149.145 225.308 154.905 223.292 160.953 223.292C171.801 223.292 180.057 229.148 180.057 242.012V273.5ZM172.953 263.228V253.724C169.881 251.804 165.465 250.46 161.145 250.46C153.561 250.46 149.145 253.724 149.145 259.676C149.145 264.86 152.889 268.988 160.473 268.988C165.273 268.988 169.689 266.876 172.953 263.228ZM227.97 261.116V234.332C224.898 231.548 220.482 229.916 216.066 229.916C206.178 229.916 199.554 236.636 199.554 248.156C199.554 259.484 205.986 266.588 215.394 266.588C220.578 266.588 224.994 264.476 227.97 261.116ZM214.338 292.22C208.866 292.22 202.434 290.876 198.306 286.94V278.492H198.498C201.954 283.58 208.002 285.788 214.05 285.788C224.226 285.788 227.97 279.836 227.97 272.156V267.74H227.874C224.226 271.004 219.138 273.116 213.186 273.116C201.474 273.116 191.778 264.476 191.778 248.156C191.778 232.124 201.474 223.292 214.434 223.292C219.906 223.292 224.898 225.308 228.45 227.9H228.642L234.786 224.636H235.074V271.772C235.074 285.5 227.01 292.22 214.338 292.22ZM286.839 273.5H279.927V269.564H279.735C275.991 273.02 271.095 275.228 265.047 275.228C255.734 275.228 248.727 269.468 248.727 260.156C248.727 250.652 255.255 244.508 266.679 244.508C271.671 244.508 276.087 245.66 279.735 247.58V242.492C279.735 233.372 273.783 229.724 266.487 229.724C260.439 229.724 255.159 232.796 251.991 236.54H251.703V228.956C255.927 225.308 261.687 223.292 267.734 223.292C278.583 223.292 286.839 229.148 286.839 242.012V273.5ZM279.735 263.228V253.724C276.663 251.804 272.247 250.46 267.927 250.46C260.343 250.46 255.927 253.724 255.927 259.676C255.927 264.86 259.671 268.988 267.255 268.988C272.055 268.988 276.471 266.876 279.735 263.228ZM338.495 249.308C338.495 237.02 331.775 229.724 322.367 229.724C312.863 229.724 306.047 236.828 306.047 249.308C306.047 261.596 312.767 268.796 322.175 268.796C331.679 268.796 338.495 261.788 338.495 249.308ZM346.079 249.308C346.079 265.82 335.615 275.228 322.175 275.228C308.927 275.228 298.559 265.916 298.559 249.308C298.559 232.604 308.927 223.292 322.367 223.292C335.615 223.292 346.079 232.604 346.079 249.308ZM365.396 273.5H358.292V201.5H365.396V273.5ZM395.732 273.5H386.9L366.644 249.116V248.732L386.132 225.02H394.58L374.996 248.444V248.636L395.732 273.5ZM439.089 273.5H432.177V269.564H431.985C428.241 273.02 423.345 275.228 417.297 275.228C407.984 275.228 400.977 269.468 400.977 260.156C400.977 250.652 407.505 244.508 418.929 244.508C423.921 244.508 428.337 245.66 431.985 247.58V242.492C431.985 233.372 426.033 229.724 418.737 229.724C412.689 229.724 407.409 232.796 404.241 236.54H403.953V228.956C408.177 225.308 413.937 223.292 419.984 223.292C430.833 223.292 439.089 229.148 439.089 242.012V273.5ZM431.985 263.228V253.724C428.913 251.804 424.497 250.46 420.177 250.46C412.593 250.46 408.177 253.724 408.177 259.676C408.177 264.86 411.921 268.988 419.505 268.988C424.305 268.988 428.721 266.876 431.985 263.228ZM535.92 240.764C535.92 262.844 520.56 273.5 502.512 273.5H482.448V208.028H502.512C520.464 208.028 535.92 218.684 535.92 240.764ZM528.144 240.764C528.144 223.772 517.008 215.132 502.512 215.132H489.936V266.396H502.512C517.008 266.396 528.144 257.852 528.144 240.764ZM600.387 273.5H592.131L583.491 251.9H556.707L548.163 273.5H540.099L567.171 208.028H573.315L600.387 273.5ZM570.051 218.588L559.491 245.084H580.803L570.243 218.588H570.051ZM666.209 240.764C666.209 263.228 651.905 275.228 635.297 275.228C619.169 275.228 604.673 263.324 604.673 240.764C604.673 218.3 618.977 206.3 635.489 206.3C651.713 206.3 666.209 218.204 666.209 240.764ZM658.241 240.764C658.241 222.908 647.969 213.404 635.489 213.404C623.105 213.404 612.641 222.716 612.641 240.764C612.641 258.62 622.913 268.124 635.297 268.124C647.777 268.124 658.241 258.812 658.241 240.764Z" fill="white"/>
<path d="M98.207 319.545V321.883H80.2773C82.3398 324.238 84.8477 326.336 87.8008 328.176C89.7695 326.594 91.5684 324.748 93.1973 322.639L95.4648 324.01C93.8359 326.096 92.0488 327.93 90.1035 329.512C92.4824 330.812 95.2539 332.014 98.418 333.115L97.2578 335.383C88.2578 332.289 81.5137 327.789 77.0254 321.883H73.6504V332.061C77.084 331.604 80.7285 330.994 84.584 330.232L84.918 332.5C78.7305 333.777 72.6719 334.68 66.7422 335.207L66.4434 332.852C69.2793 332.559 70.7441 332.418 70.8379 332.43V321.883H65.793V319.545H70.8379V304.34H94.6738V306.695H73.6504V309.455H93.584V311.582H73.6504V314.43H93.584V316.557H73.6504V319.545H98.207ZM130.059 330.268V306.695H105.941V335.084H103.164V304.305H132.836V330.268C132.836 332.33 132.602 333.607 132.133 334.1C131.664 334.592 130.469 334.838 128.547 334.838C127.949 334.838 126.027 334.779 122.781 334.662L122.676 332.219C125.863 332.336 127.627 332.395 127.967 332.395C128.975 332.395 129.572 332.295 129.76 332.096C129.959 331.885 130.059 331.275 130.059 330.268ZM128.336 317.084H119.371V326.014H123.695V319.105H126.35V330.408H123.695V328.352H112.305V332.061H109.65V319.105H112.305V326.014H116.629V317.084H107.664V314.746H113.395C112.574 312.391 111.76 310.281 110.951 308.418L113.359 307.732C114.32 309.912 115.205 312.25 116.014 314.746H119.758C120.953 312.543 121.949 310.158 122.746 307.592L125.207 308.312C124.516 310.598 123.637 312.742 122.57 314.746H128.336V317.084ZM170.084 309.455H155.336V314.148H167.781V328C167.781 330.039 167.57 331.311 167.148 331.814C166.738 332.318 165.678 332.57 163.967 332.57C163.51 332.57 161.869 332.512 159.045 332.395L158.939 329.916C160.979 330.033 162.479 330.092 163.439 330.092C164.236 330.092 164.705 330.004 164.846 329.828C164.986 329.641 165.057 329.031 165.057 328V316.592H155.336V335.998H152.453V316.592H142.943V332.57H140.219V314.148H152.453V309.455H137.916V307.012H152.453V303.092H155.336V307.012H170.084V309.455ZM187.943 310.545V308.084H203.254V310.545H187.943ZM180.824 305.219C179.676 309.59 179.096 314.365 179.084 319.545C179.084 324.725 179.664 329.5 180.824 333.871L178.117 334.223C176.922 329.664 176.324 324.771 176.324 319.545C176.324 314.307 176.922 309.408 178.117 304.85L180.824 305.219ZM203.746 329.037L204.15 331.463C201.244 332.201 198.484 332.57 195.871 332.57C192.578 332.57 189.977 331.967 188.066 330.76C186.168 329.541 185.219 327.924 185.219 325.908C185.219 324.877 185.629 323.693 186.449 322.357C187.281 321.01 188.406 319.756 189.824 318.596L191.758 320.266C190.586 321.227 189.654 322.229 188.963 323.271C188.283 324.314 187.943 325.193 187.943 325.908C187.943 327.256 188.629 328.287 190 329.002C191.371 329.705 193.328 330.057 195.871 330.057C198.355 330.045 200.98 329.705 203.746 329.037ZM214.012 307.416V318.209H214.082C215.406 315.162 217.205 312.783 219.479 311.072C221.764 309.35 224.453 308.354 227.547 308.084V303.584H230.324V308.049C233.875 308.213 236.588 309.145 238.463 310.844C240.35 312.543 241.293 314.928 241.293 317.998C241.293 321.115 240.285 323.529 238.27 325.24C236.254 326.939 233.377 327.836 229.639 327.93C229.135 329.711 228.268 331.152 227.037 332.254C225.818 333.355 224.107 334.275 221.904 335.014L220.639 332.746C222.338 332.148 223.668 331.469 224.629 330.707C225.59 329.934 226.299 328.949 226.756 327.754C224.998 327.484 223.381 326.904 221.904 326.014C220.439 325.111 219.203 323.951 218.195 322.533L219.777 320.688C221.629 323.301 224.16 324.836 227.371 325.293C227.488 324.449 227.547 323.289 227.547 321.812V310.615C223.516 311.049 220.24 312.906 217.721 316.188C215.201 319.457 213.941 323.576 213.941 328.545H211.498V307.416H214.012ZM230.148 325.363C232.914 325.223 235 324.531 236.406 323.289C237.824 322.035 238.533 320.271 238.533 317.998C238.533 315.713 237.836 313.943 236.441 312.689C235.047 311.424 233.008 310.721 230.324 310.58V321.812C230.324 323.266 230.266 324.449 230.148 325.363ZM247.498 313.305V310.896H254.512C255.18 307.943 255.695 305.412 256.059 303.303L258.66 303.584C258.32 305.693 257.84 308.131 257.219 310.896H260.453C261.344 310.896 262.035 310.896 262.527 310.896C263.02 310.896 263.564 310.932 264.162 311.002C264.76 311.072 265.199 311.137 265.48 311.195C265.773 311.242 266.102 311.377 266.465 311.6C266.828 311.811 267.074 311.992 267.203 312.145C267.332 312.297 267.484 312.59 267.66 313.023C267.848 313.457 267.959 313.844 267.994 314.184C268.029 314.512 268.076 315.039 268.135 315.766C268.193 316.48 268.223 317.125 268.223 317.699C268.223 318.273 268.223 319.094 268.223 320.16C268.223 324.602 267.695 327.971 266.641 330.268C265.586 332.553 264.244 333.695 262.615 333.695C260.576 333.695 258.139 333.045 255.303 331.744L256.164 329.336C258.848 330.484 260.828 331.059 262.105 331.059C262.633 331.059 263.143 330.689 263.635 329.951C264.127 329.201 264.561 327.941 264.936 326.172C265.311 324.391 265.498 322.264 265.498 319.791C265.498 318.994 265.498 318.408 265.498 318.033C265.498 317.646 265.48 317.184 265.445 316.645C265.41 316.105 265.381 315.736 265.357 315.537C265.346 315.326 265.281 315.062 265.164 314.746C265.047 314.418 264.965 314.213 264.918 314.131C264.871 314.037 264.725 313.908 264.479 313.744C264.244 313.58 264.057 313.492 263.916 313.48C263.787 313.469 263.523 313.439 263.125 313.393C262.738 313.334 262.416 313.305 262.158 313.305C261.912 313.305 261.502 313.305 260.928 313.305H256.639C254.857 320.5 252.479 327.379 249.502 333.941L247.059 332.975C249.871 326.764 252.162 320.207 253.932 313.305H247.498ZM269.805 308.559L272.301 307.662C274.961 313.709 277.082 319.803 278.664 325.943L276.115 326.594C274.451 320.383 272.348 314.371 269.805 308.559ZM287.137 305.254H289.826V315.045H289.896C291.092 312.209 292.727 309.988 294.801 308.383C296.887 306.777 299.119 305.975 301.498 305.975C304.264 305.975 306.408 306.971 307.932 308.963C309.467 310.955 310.234 313.797 310.234 317.488C310.234 323.172 308.641 327.355 305.453 330.039C302.266 332.711 297.262 334.047 290.441 334.047L290.336 331.533C296.359 331.533 300.701 330.432 303.361 328.229C306.021 326.014 307.352 322.434 307.352 317.488C307.352 314.559 306.83 312.35 305.787 310.861C304.744 309.373 303.227 308.629 301.234 308.629C298.574 308.629 296.066 310.07 293.711 312.953C291.367 315.836 290.061 319.316 289.791 323.395H287.137V305.254ZM339.15 305.816L341.312 304.674C342.484 306.619 343.598 308.588 344.652 310.58L342.49 311.617C341.564 309.836 340.451 307.902 339.15 305.816ZM344.195 304.463L346.393 303.268C347.811 305.6 348.959 307.615 349.838 309.314L347.605 310.404C346.504 308.365 345.367 306.385 344.195 304.463ZM319.498 313.305V310.896H326.512C327.18 307.943 327.695 305.412 328.059 303.303L330.66 303.584C330.32 305.693 329.84 308.131 329.219 310.896H332.312C333.414 310.896 334.252 310.896 334.826 310.896C335.4 310.896 336.021 310.967 336.689 311.107C337.369 311.236 337.844 311.348 338.113 311.441C338.395 311.535 338.699 311.781 339.027 312.18C339.367 312.578 339.578 312.941 339.66 313.27C339.754 313.586 339.854 314.143 339.959 314.939C340.064 315.725 340.117 316.463 340.117 317.154C340.117 317.834 340.117 318.836 340.117 320.16C340.117 324.602 339.584 327.971 338.518 330.268C337.451 332.553 336.104 333.695 334.475 333.695C332.436 333.695 329.998 333.045 327.162 331.744L328.059 329.336C330.742 330.484 332.723 331.059 334 331.059C334.387 331.059 334.768 330.836 335.143 330.391C335.529 329.945 335.893 329.289 336.232 328.422C336.572 327.543 336.842 326.354 337.041 324.854C337.24 323.354 337.34 321.666 337.34 319.791C337.34 318.971 337.34 318.385 337.34 318.033C337.34 317.67 337.322 317.207 337.287 316.645C337.252 316.082 337.234 315.707 337.234 315.52C337.234 315.32 337.176 315.057 337.059 314.729C336.941 314.389 336.854 314.184 336.795 314.113C336.736 314.031 336.59 313.908 336.355 313.744C336.133 313.58 335.951 313.492 335.811 313.48C335.682 313.469 335.418 313.439 335.02 313.393C334.633 313.334 334.311 313.305 334.053 313.305C333.807 313.305 333.391 313.305 332.805 313.305H328.639C326.857 320.5 324.479 327.379 321.502 333.941L319.059 332.975C321.871 326.764 324.162 320.207 325.932 313.305H319.498ZM348.045 327.244C346.51 323.096 344.518 318.631 342.068 313.85L344.477 312.812C346.926 317.535 348.941 322.07 350.523 326.418L348.045 327.244ZM373.463 332.395C376.076 331.891 378.133 330.918 379.633 329.477C381.133 328.035 381.883 326.318 381.883 324.326C381.883 321.209 380.371 319.064 377.348 317.893C375.766 322.521 373.469 326.195 370.457 328.914C367.445 331.621 364.451 332.975 361.475 332.975C359.6 332.975 358.135 332.418 357.08 331.305C356.025 330.18 355.498 328.621 355.498 326.629C355.498 324.18 356.295 321.994 357.889 320.072C359.482 318.139 361.686 316.703 364.498 315.766V310.439H356.781V308.137H364.498V303.584H367.117V308.137H383.219V310.439H367.117V315.08C368.723 314.764 370.322 314.605 371.916 314.605C375.854 314.605 378.936 315.479 381.162 317.225C383.389 318.959 384.502 321.326 384.502 324.326C384.502 326.986 383.576 329.242 381.725 331.094C379.885 332.945 377.342 334.17 374.096 334.768L373.463 332.395ZM374.939 317.242C374.025 317.102 373.018 317.025 371.916 317.014C370.217 317.014 368.617 317.195 367.117 317.559V328.51C368.699 327.361 370.182 325.82 371.564 323.887C372.947 321.953 374.072 319.738 374.939 317.242ZM364.498 318.385C362.529 319.205 360.971 320.318 359.822 321.725C358.686 323.119 358.117 324.672 358.117 326.383C358.117 327.73 358.428 328.768 359.049 329.494C359.682 330.221 360.572 330.584 361.721 330.584C362.635 330.584 363.561 330.396 364.498 330.021V318.385ZM410.465 331.234C414.566 330.273 416.617 327.854 416.617 323.975C416.617 321.982 415.932 320.494 414.561 319.51C413.201 318.525 411.068 318.033 408.162 318.033C403.287 318.033 398.213 319.521 392.939 322.498L391.885 320.547L411.326 308.277V308.207H394.486V305.852H416.195L416.336 308.242L402.221 316.768L402.256 316.803C404.658 316.158 406.902 315.836 408.988 315.836C416.043 315.836 419.57 318.449 419.57 323.676C419.57 327.016 418.387 329.582 416.02 331.375C413.664 333.156 410.266 334.047 405.824 334.047C399.027 334.047 395.629 332.125 395.629 328.281C395.629 326.887 396.314 325.703 397.686 324.73C399.057 323.746 401.014 323.254 403.557 323.254C408.596 323.254 411.115 324.982 411.115 328.439C411.115 329.271 410.898 330.203 410.465 331.234ZM407.723 331.639C408.32 330.514 408.625 329.518 408.637 328.65C408.637 326.588 406.896 325.557 403.416 325.557C401.811 325.557 400.568 325.826 399.689 326.365C398.811 326.904 398.371 327.543 398.371 328.281C398.371 329.336 398.986 330.174 400.217 330.795C401.459 331.404 403.328 331.709 405.824 331.709C406.27 331.709 406.902 331.686 407.723 331.639ZM425.582 332.641C430.281 330.332 433.949 326.992 436.586 322.621C439.234 318.238 440.559 313.252 440.559 307.662V303.443H443.441V307.662C443.441 313.252 444.76 318.238 447.396 322.621C450.033 327.004 453.707 330.344 458.418 332.641L456.906 334.873C453.449 333.268 450.42 330.854 447.818 327.631C445.217 324.396 443.312 320.74 442.105 316.662C440.887 320.74 438.953 324.396 436.305 327.631C433.668 330.854 430.598 333.268 427.094 334.873L425.582 332.641ZM491.676 317.277C486.73 317.277 481.967 317.588 477.385 318.209L477.174 315.836C482.002 315.191 486.836 314.863 491.676 314.852V317.277ZM492.115 330.443L492.432 332.852C489.701 333.332 487.17 333.572 484.838 333.572C481.744 333.572 479.248 333.021 477.35 331.92C475.451 330.818 474.502 329.395 474.502 327.648C474.502 325.867 475.85 324.016 478.545 322.094L480.232 323.711C479.107 324.531 478.316 325.217 477.859 325.768C477.402 326.318 477.174 326.857 477.174 327.385C477.174 328.486 477.877 329.395 479.283 330.109C480.689 330.812 482.541 331.164 484.838 331.164C487.006 331.164 489.432 330.924 492.115 330.443ZM463.955 310.545V308.137H469.932C470.271 306.461 470.559 304.885 470.793 303.408L473.43 303.672C473.066 305.828 472.803 307.316 472.639 308.137H485.664V310.545H472.129C470.348 319.041 468.139 326.969 465.502 334.328L462.883 333.695C465.543 326.418 467.729 318.701 469.439 310.545H463.955ZM499.709 311.16V308.734H508.164C508.352 307.867 508.65 306.215 509.061 303.777L511.732 303.988C511.521 305.453 511.211 307.035 510.801 308.734H528.291V311.16H510.221C509.447 313.973 508.404 316.779 507.092 319.58L507.127 319.65C508.475 319.006 509.998 318.467 511.697 318.033C513.396 317.6 514.92 317.383 516.268 317.383C519.537 317.383 522.016 318.057 523.703 319.404C525.391 320.74 526.234 322.668 526.234 325.188C526.234 327.848 525.062 329.975 522.719 331.568C520.387 333.15 517.24 333.941 513.279 333.941C510.373 333.941 507.479 333.666 504.596 333.115L505.035 330.707C507.918 331.258 510.666 331.533 513.279 331.533C516.396 331.533 518.875 330.947 520.715 329.775C522.555 328.592 523.475 327.016 523.475 325.047C523.475 321.543 521.037 319.791 516.162 319.791C514.439 319.791 512.6 320.09 510.643 320.688C508.686 321.285 506.986 322.064 505.545 323.025L503.242 321.953C505.164 318.18 506.6 314.582 507.549 311.16H499.709ZM555.15 305.816L557.312 304.674C558.484 306.619 559.598 308.588 560.652 310.58L558.49 311.617C557.564 309.836 556.451 307.902 555.15 305.816ZM560.195 304.463L562.393 303.268C563.811 305.6 564.959 307.615 565.838 309.314L563.605 310.404C562.504 308.365 561.367 306.385 560.195 304.463ZM535.498 313.305V310.896H542.512C543.18 307.943 543.695 305.412 544.059 303.303L546.66 303.584C546.32 305.693 545.84 308.131 545.219 310.896H548.312C549.414 310.896 550.252 310.896 550.826 310.896C551.4 310.896 552.021 310.967 552.689 311.107C553.369 311.236 553.844 311.348 554.113 311.441C554.395 311.535 554.699 311.781 555.027 312.18C555.367 312.578 555.578 312.941 555.66 313.27C555.754 313.586 555.854 314.143 555.959 314.939C556.064 315.725 556.117 316.463 556.117 317.154C556.117 317.834 556.117 318.836 556.117 320.16C556.117 324.602 555.584 327.971 554.518 330.268C553.451 332.553 552.104 333.695 550.475 333.695C548.436 333.695 545.998 333.045 543.162 331.744L544.059 329.336C546.742 330.484 548.723 331.059 550 331.059C550.387 331.059 550.768 330.836 551.143 330.391C551.529 329.945 551.893 329.289 552.232 328.422C552.572 327.543 552.842 326.354 553.041 324.854C553.24 323.354 553.34 321.666 553.34 319.791C553.34 318.971 553.34 318.385 553.34 318.033C553.34 317.67 553.322 317.207 553.287 316.645C553.252 316.082 553.234 315.707 553.234 315.52C553.234 315.32 553.176 315.057 553.059 314.729C552.941 314.389 552.854 314.184 552.795 314.113C552.736 314.031 552.59 313.908 552.355 313.744C552.133 313.58 551.951 313.492 551.811 313.48C551.682 313.469 551.418 313.439 551.02 313.393C550.633 313.334 550.311 313.305 550.053 313.305C549.807 313.305 549.391 313.305 548.805 313.305H544.639C542.857 320.5 540.479 327.379 537.502 333.941L535.059 332.975C537.871 326.764 540.162 320.207 541.932 313.305H535.498ZM564.045 327.244C562.51 323.096 560.518 318.631 558.068 313.85L560.477 312.812C562.926 317.535 564.941 322.07 566.523 326.418L564.045 327.244ZM585.209 311.072V308.559H575.928V311.072H585.209ZM585.209 315.66V313.129H575.928V315.66H585.209ZM585.209 317.664H575.928V320.23H585.209V317.664ZM585.648 306.291C586.129 305.283 586.592 304.193 587.037 303.021L589.744 303.373C589.357 304.404 588.947 305.377 588.514 306.291H599.852V308.559H588.092V311.072H598.779V313.129H588.092V315.66H598.779V317.664H588.092V320.23H599.852V322.305H587.441V324.467H601.557V326.734H588.812C592.129 328.633 596.664 330.42 602.418 332.096L601.627 334.592C595.557 332.623 590.828 330.496 587.441 328.211V335.629H584.559V328.211C581.172 330.496 576.443 332.623 570.373 334.592L569.582 332.096C575.348 330.42 579.883 328.633 583.188 326.734H570.092V324.467H584.559V322.305H573.15V311.793C572.354 313.07 571.551 314.201 570.742 315.186L569.16 312.637C571.773 309.637 573.689 306.432 574.908 303.021L577.51 303.479C577.146 304.51 576.771 305.447 576.385 306.291H585.648ZM625.85 303.707V307.768H635.676V310.176H625.85V314.975H634.498V317.383H625.85V324.695C628.416 326.09 631.428 328.27 634.885 331.234L633.197 333.15C630.432 330.725 627.971 328.838 625.814 327.49C625.674 329.916 624.994 331.656 623.775 332.711C622.568 333.766 620.658 334.293 618.045 334.293C615.689 334.293 613.82 333.736 612.438 332.623C611.055 331.51 610.363 329.992 610.363 328.07C610.363 326.465 610.949 325.111 612.121 324.01C613.305 322.896 615.279 322.34 618.045 322.34C619.627 322.34 621.344 322.715 623.195 323.465V317.383H609.502V314.975H623.195V310.176H608.324V307.768H623.195V303.707H625.85ZM623.195 326.049C621.391 325.182 619.756 324.754 618.291 324.766C614.834 324.766 613.105 325.867 613.105 328.07C613.105 329.242 613.545 330.174 614.424 330.865C615.303 331.545 616.51 331.885 618.045 331.885C619.99 331.885 621.332 331.492 622.07 330.707C622.82 329.91 623.195 328.469 623.195 326.383V326.049ZM662.465 331.234C666.566 330.273 668.617 327.854 668.617 323.975C668.617 321.982 667.932 320.494 666.561 319.51C665.201 318.525 663.068 318.033 660.162 318.033C655.287 318.033 650.213 319.521 644.939 322.498L643.885 320.547L663.326 308.277V308.207H646.486V305.852H668.195L668.336 308.242L654.221 316.768L654.256 316.803C656.658 316.158 658.902 315.836 660.988 315.836C668.043 315.836 671.57 318.449 671.57 323.676C671.57 327.016 670.387 329.582 668.02 331.375C665.664 333.156 662.266 334.047 657.824 334.047C651.027 334.047 647.629 332.125 647.629 328.281C647.629 326.887 648.314 325.703 649.686 324.73C651.057 323.746 653.014 323.254 655.557 323.254C660.596 323.254 663.115 324.982 663.115 328.439C663.115 329.271 662.898 330.203 662.465 331.234ZM659.723 331.639C660.32 330.514 660.625 329.518 660.637 328.65C660.637 326.588 658.896 325.557 655.416 325.557C653.811 325.557 652.568 325.826 651.689 326.365C650.811 326.904 650.371 327.543 650.371 328.281C650.371 329.336 650.986 330.174 652.217 330.795C653.459 331.404 655.328 331.709 657.824 331.709C658.27 331.709 658.902 331.686 659.723 331.639ZM681.291 307.416H706.498V331.674H681.291V329.16H703.721V309.93H681.291V307.416ZM716.535 330.777L716.676 327.965C725.465 328.281 734.348 329.242 743.324 330.848L742.955 333.66C734.072 332.055 725.266 331.094 716.535 330.777ZM719.559 319.176L719.734 316.363C726.648 316.656 733.527 317.4 740.371 318.596L739.967 321.408C732.959 320.189 726.156 319.445 719.559 319.176ZM718.223 308.699L718.363 305.975C726.426 306.244 734.359 306.965 742.164 308.137L741.848 310.861C734.02 309.713 726.145 308.992 718.223 308.699ZM757 312.584H773.559L772.223 329.863H778.059V332.254H753.941V329.863H769.34L770.535 314.975H757V312.584ZM790.223 310.105V307.416H813.777V310.105H790.223ZM787.709 331.674V328.967H816.291V331.674H787.709ZM826.943 308.84V306.326H849.057V308.84H826.943ZM822.883 316.047H853.117V318.561H840.777C840.754 322.908 839.805 326.295 837.93 328.721C836.055 331.146 833.02 332.922 828.824 334.047L828.033 331.568C831.631 330.537 834.168 329.043 835.645 327.086C837.121 325.129 837.871 322.287 837.895 318.561H822.883V316.047ZM862.328 321.812C866.453 321.238 870.467 319.99 874.369 318.068C878.271 316.146 881.459 313.867 883.932 311.23L885.549 313.059C883.264 315.484 880.422 317.623 877.023 319.475V334.117H874.246V320.828C870.402 322.586 866.564 323.729 862.732 324.256L862.328 321.812Z" fill="white"/>
</svg>
