<svg width="1024" height="512" viewBox="0 0 1024 512" fill="none" xmlns="http://www.w3.org/2000/svg">
<rect width="1024" height="512" fill="#5CE66D"/>
<path d="M98.056 223.76C98.056 231.32 92.512 237.296 82.576 237.296C77.392 237.296 72.352 235.856 68.968 232.688V225.92H69.184C72.64 230.024 77.464 232.184 82.432 232.184C88.624 232.184 92.368 229.088 92.368 224.192C92.368 211.52 69.184 216.056 69.184 198.848C69.184 192.08 73.504 185.6 83.8 185.6C88.48 185.6 93.088 187.04 96.328 190.208V196.976H96.112C92.8 192.8 88.336 190.712 83.872 190.712C77.968 190.712 74.944 193.952 74.944 198.416C74.944 210.944 98.056 206.264 98.056 223.76ZM115.049 236H109.721V204.608H106.769V204.32L109.721 199.64V188.696H115.049V199.64H123.977V204.608H115.049V236ZM156.738 236H151.554V233.048H151.41C148.602 235.64 144.93 237.296 140.394 237.296C133.41 237.296 128.154 232.976 128.154 225.992C128.154 218.864 133.05 214.256 141.618 214.256C145.362 214.256 148.674 215.12 151.41 216.56V212.744C151.41 205.904 146.946 203.168 141.474 203.168C136.938 203.168 132.978 205.472 130.602 208.28H130.386V202.592C133.554 199.856 137.874 198.344 142.41 198.344C150.546 198.344 156.738 202.736 156.738 212.384V236ZM151.41 228.296V221.168C149.106 219.728 145.794 218.72 142.554 218.72C136.866 218.72 133.554 221.168 133.554 225.632C133.554 229.52 136.362 232.616 142.05 232.616C145.65 232.616 148.962 231.032 151.41 228.296ZM174.6 236H169.272V199.64H174.312V202.808H174.384C177.12 200.216 180.144 198.344 183.888 198.344C185.256 198.344 186.552 198.56 187.704 198.992V204.824H187.488C186.12 203.888 184.608 203.456 183.024 203.456C179.784 203.456 177.048 205.256 174.6 207.776V236ZM201.815 236H196.487V204.608H193.535V204.32L196.487 199.64V188.696H201.815V199.64H210.743V204.608H201.815V236ZM248.349 199.64V223.04C248.349 232.112 242.445 237.296 233.445 237.296C224.589 237.296 218.685 232.112 218.685 223.04V199.64H224.013V222.464C224.013 229.304 227.613 232.472 233.517 232.472C239.349 232.472 243.021 229.304 243.021 222.464V199.64H248.349ZM293.938 217.856C293.938 230.24 286.522 237.296 276.442 237.296C272.122 237.296 268.522 236 266.002 234.2H265.93V249.896H260.602V199.64H265.858V202.736H265.93C268.954 200 272.698 198.344 277.306 198.344C286.738 198.344 293.938 205.472 293.938 217.856ZM288.25 217.856C288.25 208.784 283.282 203.312 275.866 203.312C271.762 203.312 268.378 205.04 265.93 207.848V228.8C268.234 230.96 271.546 232.4 275.29 232.4C283.21 232.4 288.25 227.072 288.25 217.856ZM365.111 236H360.791L350.207 207.128H350.135L339.479 236H335.159L317.447 186.896H323.639L337.607 226.352H337.679L347.399 198.992L343.223 186.896H349.271L362.951 226.352L376.919 186.896H382.823L365.111 236ZM414.598 233.264C411.43 235.928 406.822 237.296 401.926 237.296C391.558 237.296 383.638 230.384 383.638 217.856C383.638 205.472 390.694 198.344 400.342 198.344C409.27 198.344 416.254 205.04 416.254 215.12C416.254 216.056 416.182 217.424 416.182 218.432H389.254C389.326 227.576 394.87 232.472 402.646 232.472C407.83 232.472 411.862 230.384 414.31 227.288H414.598V233.264ZM400.342 203.168C394.222 203.168 390.118 207.2 389.398 213.824H410.71C410.566 207.632 406.318 203.168 400.342 203.168ZM453.621 233.264C450.453 235.928 445.845 237.296 440.949 237.296C430.581 237.296 422.661 230.384 422.661 217.856C422.661 205.472 429.717 198.344 439.365 198.344C448.293 198.344 455.277 205.04 455.277 215.12C455.277 216.056 455.205 217.424 455.205 218.432H428.277C428.349 227.576 433.893 232.472 441.669 232.472C446.853 232.472 450.885 230.384 453.333 227.288H453.621V233.264ZM439.365 203.168C433.245 203.168 429.141 207.2 428.421 213.824H449.733C449.589 207.632 445.341 203.168 439.365 203.168ZM470.469 236H465.141V182H470.469V236ZM493.221 236H486.597L471.405 217.712V217.424L486.021 199.64H492.357L477.669 217.208V217.352L493.221 236ZM527.168 233.264C524 235.928 519.392 237.296 514.496 237.296C504.128 237.296 496.208 230.384 496.208 217.856C496.208 205.472 503.264 198.344 512.912 198.344C521.84 198.344 528.824 205.04 528.824 215.12C528.824 216.056 528.752 217.424 528.752 218.432H501.824C501.896 227.576 507.44 232.472 515.216 232.472C520.4 232.472 524.432 230.384 526.88 227.288H527.168V233.264ZM512.912 203.168C506.792 203.168 502.688 207.2 501.968 213.824H523.28C523.136 207.632 518.888 203.168 512.912 203.168ZM569.216 236H563.888V213.248C563.888 206.336 559.64 203.312 554.096 203.312C549.92 203.312 546.608 204.896 544.016 207.848V236H538.688V199.64H543.944V202.736H544.016C547.04 200 550.856 198.344 555.464 198.344C563.024 198.344 569.216 202.592 569.216 211.52V236ZM611.39 236H606.134V232.976H606.062C603.038 235.64 599.294 237.296 594.614 237.296C585.182 237.296 577.982 230.24 577.982 217.856C577.982 205.472 585.47 198.344 595.55 198.344C599.798 198.344 603.398 199.64 605.99 201.44H606.062V182H611.39V236ZM606.062 227.792V206.912C603.758 204.68 600.374 203.312 596.702 203.312C588.782 203.312 583.742 208.568 583.742 217.856C583.742 226.928 588.638 232.4 596.126 232.4C600.158 232.4 603.614 230.672 606.062 227.792ZM683.921 236H679.601L650.009 197.984H649.937V236H644.321V189.776L642.449 187.256V186.896H648.929L678.161 224.984H678.233V186.896H683.921V236ZM724.02 236H718.836V233.048H718.692C715.884 235.64 712.212 237.296 707.676 237.296C700.691 237.296 695.436 232.976 695.436 225.992C695.436 218.864 700.332 214.256 708.9 214.256C712.644 214.256 715.956 215.12 718.692 216.56V212.744C718.692 205.904 714.228 203.168 708.756 203.168C704.22 203.168 700.26 205.472 697.884 208.28H697.668V202.592C700.836 199.856 705.156 198.344 709.691 198.344C717.828 198.344 724.02 202.736 724.02 212.384V236ZM718.692 228.296V221.168C716.388 219.728 713.076 218.72 709.836 218.72C704.148 218.72 700.836 221.168 700.836 225.632C700.836 229.52 703.644 232.616 709.332 232.616C712.932 232.616 716.244 231.032 718.692 228.296ZM759.954 226.712V206.624C757.65 204.536 754.338 203.312 751.026 203.312C743.61 203.312 738.642 208.352 738.642 216.992C738.642 225.488 743.466 230.816 750.522 230.816C754.41 230.816 757.722 229.232 759.954 226.712ZM749.73 250.04C745.626 250.04 740.802 249.032 737.706 246.08V239.744H737.85C740.442 243.56 744.978 245.216 749.514 245.216C757.146 245.216 759.954 240.752 759.954 234.992V231.68H759.882C757.146 234.128 753.33 235.712 748.866 235.712C740.082 235.712 732.81 229.232 732.81 216.992C732.81 204.968 740.082 198.344 749.802 198.344C753.906 198.344 757.65 199.856 760.314 201.8H760.458L765.066 199.352H765.282V234.704C765.282 245 759.234 250.04 749.73 250.04ZM804.105 236H798.921V233.048H798.777C795.969 235.64 792.297 237.296 787.761 237.296C780.777 237.296 775.521 232.976 775.521 225.992C775.521 218.864 780.417 214.256 788.985 214.256C792.729 214.256 796.041 215.12 798.777 216.56V212.744C798.777 205.904 794.313 203.168 788.841 203.168C784.305 203.168 780.345 205.472 777.969 208.28H777.753V202.592C780.921 199.856 785.241 198.344 789.777 198.344C797.913 198.344 804.105 202.736 804.105 212.384V236ZM798.777 228.296V221.168C796.473 219.728 793.161 218.72 789.921 218.72C784.233 218.72 780.921 221.168 780.921 225.632C780.921 229.52 783.729 232.616 789.417 232.616C793.017 232.616 796.329 231.032 798.777 228.296ZM842.848 217.856C842.848 208.64 837.808 203.168 830.752 203.168C823.624 203.168 818.512 208.496 818.512 217.856C818.512 227.072 823.552 232.472 830.608 232.472C837.736 232.472 842.848 227.216 842.848 217.856ZM848.536 217.856C848.536 230.24 840.688 237.296 830.608 237.296C820.672 237.296 812.896 230.312 812.896 217.856C812.896 205.328 820.672 198.344 830.752 198.344C840.688 198.344 848.536 205.328 848.536 217.856ZM863.023 236H857.695V182H863.023V236ZM885.775 236H879.151L863.959 217.712V217.424L878.575 199.64H884.911L870.223 217.208V217.352L885.775 236ZM918.293 236H913.109V233.048H912.965C910.157 235.64 906.485 237.296 901.949 237.296C894.965 237.296 889.709 232.976 889.709 225.992C889.709 218.864 894.605 214.256 903.173 214.256C906.917 214.256 910.229 215.12 912.965 216.56V212.744C912.965 205.904 908.501 203.168 903.029 203.168C898.493 203.168 894.533 205.472 892.157 208.28H891.941V202.592C895.109 199.856 899.429 198.344 903.965 198.344C912.101 198.344 918.293 202.736 918.293 212.384V236ZM912.965 228.296V221.168C910.661 219.728 907.349 218.72 904.109 218.72C898.421 218.72 895.109 221.168 895.109 225.632C895.109 229.52 897.917 232.616 903.605 232.616C907.205 232.616 910.517 231.032 912.965 228.296Z" fill="black"/>
<path d="M82.6504 284.164V285.746H80.1367V275.604H92.1953V284.164H82.6504ZM82.6504 282.072H89.7344V277.73H82.6504V282.072ZM84.8828 264.072H78.1152V273.195C78.1152 276.605 77.9512 279.377 77.623 281.51C77.3066 283.643 76.7734 285.582 76.0234 287.328L73.6855 286.186C74.3535 284.533 74.8105 282.734 75.0566 280.789C75.3145 278.844 75.4434 276.131 75.4434 272.65V261.805H97.0469V283.953C97.0469 285.676 96.8242 286.766 96.3789 287.223C95.9336 287.68 94.8848 287.908 93.2324 287.908C92.3418 287.908 91.0703 287.861 89.418 287.768L89.3477 285.359C90.9531 285.453 92.125 285.5 92.8633 285.5C93.5781 285.5 94 285.418 94.1289 285.254C94.2695 285.078 94.3398 284.498 94.3398 283.514V264.072H87.5723V266.498H92.6172V268.572H87.5723V271.561H93.0918V273.688H79.3633V271.561H84.8828V268.572H79.8379V266.498H84.8828V264.072ZM65.9863 263.58L67.8848 261.928C69.877 263.92 71.8574 266.041 73.8262 268.291L71.998 269.943C69.8184 267.506 67.8145 265.385 65.9863 263.58ZM70.416 286.467V276.852H65.916V274.443H73.1055V285.605C73.75 286.754 74.5352 287.633 75.4609 288.242C76.3867 288.84 77.7109 289.273 79.4336 289.543C81.168 289.801 83.582 289.93 86.6758 289.93H97.9082L97.7676 292.338H86.5703C82.3516 292.338 79.1582 292.045 76.9902 291.459C74.834 290.873 73.2051 289.848 72.1035 288.383C70.709 289.918 68.957 291.441 66.8477 292.953L65.5469 290.65C67.5156 289.279 69.1738 287.885 70.5215 286.467H70.416ZM102.637 265.092H116.594V260.592H119.406V265.092H133.363V267.5H119.406V273.986H131.852V276.395H120.637C123.754 280.766 128.395 284.855 134.559 288.664L133.223 290.967C127.223 287.17 122.617 283.057 119.406 278.627V293.129H116.594V278.521C113.359 283.057 108.754 287.205 102.777 290.967L101.441 288.664C107.605 284.844 112.246 280.754 115.363 276.395H104.148V273.986H116.594V267.5H102.637V265.092ZM160.012 272.791L162.139 271.648C163.311 273.594 164.424 275.557 165.479 277.537L163.316 278.627C162.145 276.412 161.043 274.467 160.012 272.791ZM165.057 271.42L167.219 270.242C168.637 272.574 169.785 274.59 170.664 276.289L168.467 277.361C167.365 275.322 166.229 273.342 165.057 271.42ZM138.707 267.535V265.021C148.234 265.021 157.938 264.781 167.816 264.301L167.975 266.814C161.904 267.365 157.258 268.83 154.035 271.209C150.824 273.588 149.219 276.541 149.219 280.068C149.219 282.951 150.139 285.219 151.979 286.871C153.83 288.523 156.303 289.35 159.396 289.35C160.814 289.35 162.314 289.221 163.896 288.963L164.23 291.477C162.625 291.77 160.979 291.916 159.291 291.916C155.307 291.916 152.137 290.879 149.781 288.805C147.438 286.719 146.266 283.889 146.266 280.314C146.266 277.385 147.191 274.789 149.043 272.527C150.906 270.254 153.555 268.473 156.988 267.184L156.953 267.096C149.758 267.389 143.676 267.535 138.707 267.535ZM198.35 264.072C198.35 262.795 198.801 261.711 199.703 260.82C200.605 259.918 201.689 259.467 202.955 259.467C204.232 259.467 205.316 259.918 206.207 260.82C207.109 261.723 207.561 262.812 207.561 264.09C207.561 265.355 207.109 266.439 206.207 267.342C205.316 268.244 204.232 268.695 202.955 268.695C202.615 268.695 202.375 268.684 202.234 268.66C201.777 275.598 199.691 280.889 195.977 284.533C192.262 288.178 186.719 290.398 179.348 291.195L178.873 288.629C185.717 287.855 190.779 285.811 194.061 282.494C197.354 279.166 199.146 274.227 199.439 267.676H175.604V265.057H198.42C198.373 264.834 198.35 264.506 198.35 264.072ZM204.801 265.918C205.305 265.414 205.557 264.805 205.557 264.09C205.557 263.363 205.305 262.748 204.801 262.244C204.297 261.74 203.682 261.488 202.955 261.488C202.24 261.488 201.631 261.74 201.127 262.244C200.623 262.748 200.371 263.363 200.371 264.09C200.371 264.805 200.623 265.414 201.127 265.918C201.631 266.422 202.24 266.674 202.955 266.674C203.682 266.674 204.297 266.422 204.801 265.918ZM215.312 289.754H212.43V264.336H239.57V289.754H215.312ZM215.312 287.188H236.688V266.885H215.312V287.188ZM255.988 262.385V272.896C262.609 274.479 269.318 276.541 276.115 279.084L275.254 281.721C268.434 279.178 262.012 277.174 255.988 275.709V291.688H253.105V262.385H255.988ZM286.732 291.336L286.328 288.805C290.84 288.371 294.549 287.51 297.455 286.221C300.361 284.92 302.617 283.062 304.223 280.648C300.238 278.586 296.23 276.676 292.199 274.918L293.465 272.51C297.379 274.209 301.41 276.113 305.559 278.223C306.777 275.434 307.451 271.918 307.58 267.676H292.85C291.479 272 289.129 275.721 285.801 278.838L283.92 277.115C285.982 275.17 287.664 272.867 288.965 270.207C290.266 267.535 291.08 264.688 291.408 261.664L294.045 261.805C293.975 262.625 293.793 263.744 293.5 265.162H310.498V266.234C310.498 274.32 308.6 280.355 304.803 284.34C301.018 288.312 294.994 290.645 286.732 291.336ZM319.498 276.5C324.654 275.785 329.688 274.215 334.598 271.789C339.508 269.363 343.486 266.48 346.533 263.141L348.291 265.092C345.502 268.139 341.916 270.84 337.533 273.195V291.617H334.615V274.672C329.834 276.898 324.936 278.369 319.92 279.084L319.498 276.5ZM378.35 264.072C378.35 262.795 378.801 261.711 379.703 260.82C380.605 259.918 381.689 259.467 382.955 259.467C384.232 259.467 385.316 259.918 386.207 260.82C387.109 261.723 387.561 262.812 387.561 264.09C387.561 265.355 387.109 266.439 386.207 267.342C385.316 268.244 384.232 268.695 382.955 268.695C382.615 268.695 382.375 268.684 382.234 268.66C381.777 275.598 379.691 280.889 375.977 284.533C372.262 288.178 366.719 290.398 359.348 291.195L358.873 288.629C365.717 287.855 370.779 285.811 374.061 282.494C377.354 279.166 379.146 274.227 379.439 267.676H355.604V265.057H378.42C378.373 264.834 378.35 264.506 378.35 264.072ZM384.801 265.918C385.305 265.414 385.557 264.805 385.557 264.09C385.557 263.363 385.305 262.748 384.801 262.244C384.297 261.74 383.682 261.488 382.955 261.488C382.24 261.488 381.631 261.74 381.127 262.244C380.623 262.748 380.371 263.363 380.371 264.09C380.371 264.805 380.623 265.414 381.127 265.918C381.631 266.422 382.24 266.674 382.955 266.674C383.682 266.674 384.297 266.422 384.801 265.918ZM397.176 270.137V293.129H394.293V275.059C393.051 277.238 391.832 279.014 390.637 280.385L389.195 277.836C393.133 273.113 395.852 267.447 397.352 260.838L400.059 261.453C399.461 264.406 398.5 267.301 397.176 270.137ZM422.559 266.498H411.326V273.002H421.486V275.428H411.326V282.195H421.486V284.674H411.326V293.129H408.408V266.498H406.281C404.77 270.119 402.959 273.441 400.85 276.465L398.617 274.812C401.664 270.465 403.967 265.689 405.525 260.486L408.197 261.014C407.881 262.139 407.559 263.158 407.23 264.072H422.559V266.498ZM442.65 260.557H445.34C445.34 261.975 445.381 263.328 445.463 264.617H452.986C451.064 263.398 449.312 262.367 447.73 261.523L449.137 259.607C451.363 260.756 453.449 261.992 455.395 263.316L454.428 264.617H457.223V267.025H445.639C446.096 272.135 447.045 276.646 448.486 280.561C450.525 277.467 451.984 273.951 452.863 270.014L455.43 270.734C454.328 275.562 452.406 279.787 449.664 283.408C450.262 284.65 450.889 285.758 451.545 286.73C452.213 287.691 452.775 288.371 453.232 288.77C453.689 289.156 454.023 289.35 454.234 289.35C455.102 289.35 455.764 287.094 456.221 282.582L458.805 283.408C458.254 289.549 456.854 292.625 454.604 292.637C453.713 292.637 452.635 292.033 451.369 290.826C450.115 289.631 448.902 287.926 447.73 285.711C444.871 288.711 441.566 290.896 437.816 292.268L436.498 290C440.436 288.559 443.77 286.268 446.5 283.127C444.578 278.521 443.377 273.154 442.896 267.025H431.277V271.385H440.998C440.998 278.006 440.828 282.061 440.488 283.549C440.195 284.768 439.645 285.5 438.836 285.746C438.449 285.863 437.822 285.928 436.955 285.939C436.182 285.939 434.477 285.828 431.84 285.605L431.594 283.232C433.516 283.42 434.98 283.514 435.988 283.514C437.137 283.514 437.811 283.092 438.01 282.248C438.221 281.393 438.326 278.539 438.326 273.688H431.277V274.777C431.277 282.336 429.965 288.336 427.34 292.777L425.301 290.439C426.426 288.283 427.24 285.846 427.744 283.127C428.248 280.408 428.5 277.033 428.5 273.002V264.617H442.756C442.686 263.328 442.65 261.975 442.65 260.557ZM469.246 262.209L472.059 261.77C472.727 265.754 473.541 269.633 474.502 273.406C478.299 271.648 483.279 270.066 489.443 268.66L489.988 271.139C482.711 272.791 477.273 274.637 473.676 276.676C470.078 278.715 468.279 280.877 468.279 283.162C468.279 287.006 471.842 288.928 478.967 288.928C482.26 288.928 485.934 288.646 489.988 288.084L490.27 290.615C486.191 291.166 482.424 291.441 478.967 291.441C474.525 291.441 471.15 290.744 468.842 289.35C466.545 287.955 465.396 285.928 465.396 283.268C465.396 280.08 467.559 277.238 471.883 274.742C470.77 270.348 469.891 266.17 469.246 262.209ZM503.805 271.754V293.129H501.045V276.025C499.896 278.018 498.836 279.541 497.863 280.596L496.65 277.66C498.455 275.375 500.061 272.75 501.467 269.785C502.885 266.82 503.928 263.838 504.596 260.838L507.268 261.418C506.588 264.734 505.434 268.18 503.805 271.754ZM513.209 274.162L515.828 273.301C517.047 277.016 518.682 280.168 520.732 282.758C523.018 279.969 524.746 276.564 525.918 272.545H511.732V274.443C511.732 281.721 510.127 287.721 506.916 292.443L504.965 290.281C507.625 285.957 508.955 280.127 508.955 272.791V262.174H529.838V264.547H511.732V270.207H528.766V272.545C527.395 277.467 525.326 281.557 522.561 284.814C524.787 287.041 527.547 288.852 530.84 290.246L529.557 292.637C526.193 291.266 523.24 289.32 520.697 286.801C518.061 289.297 514.914 291.242 511.258 292.637L510.115 290.211C513.549 288.91 516.461 287.1 518.852 284.779C516.461 281.873 514.58 278.334 513.209 274.162ZM551.072 276.324H562.674V268.871H551.072V276.324ZM537.695 291.723V293.305H535.059V282.547H546.326V290.211C548.412 289.016 549.918 287.539 550.844 285.781C551.77 284.012 552.279 281.615 552.373 278.592H551.072H548.453V266.533H551.863C551.148 264.904 550.393 263.316 549.596 261.77L552.127 260.908C553.182 262.924 554.055 264.799 554.746 266.533H558.49C559.768 264.705 560.828 262.771 561.672 260.732L564.256 261.488C563.635 263.094 562.744 264.775 561.584 266.533H565.416V278.592H560.547V288.488C560.547 289.262 560.623 289.719 560.775 289.859C560.939 290 561.461 290.07 562.34 290.07C563.301 290.07 563.875 289.748 564.062 289.104C564.262 288.459 564.373 286.332 564.396 282.723L566.928 282.916C566.904 284.018 566.881 284.861 566.857 285.447C566.846 286.033 566.811 286.701 566.752 287.451C566.693 288.189 566.652 288.734 566.629 289.086C566.605 289.426 566.535 289.818 566.418 290.264C566.301 290.709 566.201 291.008 566.119 291.16C566.049 291.324 565.896 291.518 565.662 291.74C565.439 291.975 565.246 292.115 565.082 292.162C564.918 292.209 564.66 292.268 564.309 292.338C563.957 292.408 563.635 292.443 563.342 292.443C563.061 292.443 562.656 292.443 562.129 292.443C560.207 292.443 559.012 292.256 558.543 291.881C558.074 291.518 557.84 290.557 557.84 288.998V278.592H555.08C554.986 282.307 554.307 285.266 553.041 287.469C551.787 289.66 549.742 291.5 546.906 292.988L546.045 291.723H537.695ZM537.695 289.455H543.812V284.85H537.695V289.455ZM535.059 264.441V262.104H546.291V264.441H535.059ZM534.057 269.557V267.148H547.047V269.557H534.057ZM535.305 274.637V272.352H546.15V274.637H535.305ZM535.305 279.734V277.432H546.15V279.734H535.305ZM585.385 267.57H596.688C594.719 266.035 592.838 264.307 591.045 262.385C589.24 264.307 587.354 266.035 585.385 267.57ZM589.674 274.584H584.014V280.455H589.639C589.639 280.432 589.645 280.373 589.656 280.279C589.668 280.186 589.674 280.127 589.674 280.104V274.584ZM592.416 280.174C592.416 280.197 592.422 280.244 592.434 280.314C592.445 280.385 592.451 280.432 592.451 280.455H597.988V274.584H592.416V280.104V280.174ZM580.199 292.883L579.197 290.439C581.787 289.643 583.949 288.547 585.684 287.152C587.43 285.758 588.602 284.223 589.199 282.547H584.014H581.43V272.439H589.674V269.768H584.207V268.432C583.059 269.275 581.711 270.178 580.164 271.139L579.479 269.592H576.648C576.883 270.166 577.627 272.035 578.881 275.199C580.146 278.352 580.814 280.021 580.885 280.209L578.951 281.545C578.717 280.807 577.92 278.703 576.561 275.234V293.129H573.941V276.641C573.051 279.805 571.861 282.746 570.373 285.465L568.686 282.986C571.088 278.639 572.758 274.174 573.695 269.592H569.441V267.219H573.941V260.943H576.561V267.219H579.953V268.361C583.527 266.158 586.768 263.568 589.674 260.592H592.416C595.439 263.732 598.943 266.492 602.928 268.871L601.908 271.139C600.373 270.178 599.031 269.275 597.883 268.432V269.768H592.416V272.439H600.66V282.547H592.838C593.412 284.223 594.572 285.758 596.318 287.152C598.076 288.547 600.268 289.643 602.893 290.439L601.873 292.883C599.4 292.062 597.232 290.92 595.369 289.455C593.518 287.99 592.135 286.361 591.221 284.568C590.26 286.35 588.812 287.979 586.879 289.455C584.945 290.92 582.719 292.062 580.199 292.883ZM609.326 291.723V293.305H606.812V282.547H617.324V291.723H609.326ZM609.326 289.455H614.916V284.85H609.326V289.455ZM618.941 262.719H638.488V265.162H631.105V274.707H637.592V277.15H631.105V289.279H638.805V291.723H618.291V289.279H621.279V270.928H623.916V289.279H628.293V265.162H618.941V262.719ZM606.812 264.441V262.104H617.254V264.441H606.812ZM605.793 269.557V267.148H618.115V269.557H605.793ZM607.059 274.637V272.352H617.148V274.637H607.059ZM607.059 279.734V277.432H617.148V279.734H607.059ZM670.023 290.721C667.164 291.201 664.152 291.441 660.988 291.441C656.594 291.441 653.418 290.932 651.461 289.912C649.504 288.893 648.525 287.275 648.525 285.061C648.525 281.24 652.141 278.316 659.371 276.289C659.031 275.188 658.58 274.42 658.018 273.986C657.455 273.553 656.729 273.336 655.838 273.336C654.396 273.336 652.768 274.033 650.951 275.428C649.146 276.811 647.318 278.814 645.467 281.439L643.27 280.033C646.223 275.932 648.637 271.777 650.512 267.57H643.498V265.268H651.479C652.029 263.92 652.568 262.455 653.096 260.873L655.697 261.488C655.217 262.766 654.736 264.025 654.256 265.268H669.883V267.57H653.289C652.492 269.375 651.613 271.238 650.652 273.16L650.688 273.195C652.773 271.754 654.648 271.033 656.312 271.033C659.148 271.033 661.029 272.568 661.955 275.639C664.381 275.088 667.129 274.619 670.199 274.232L670.463 276.57C667.193 277.004 664.527 277.461 662.465 277.941C662.781 279.746 662.939 282.084 662.939 284.955H660.162C660.162 282.365 660.051 280.256 659.828 278.627C654.121 280.279 651.268 282.354 651.268 284.85C651.268 285.494 651.385 286.045 651.619 286.502C651.865 286.959 652.311 287.398 652.955 287.82C653.611 288.242 654.607 288.564 655.943 288.787C657.291 288.998 658.973 289.104 660.988 289.104C663.648 289.104 666.578 288.84 669.777 288.312L670.023 290.721ZM684.35 275.305V293.129H681.572V277.695C680.295 279.137 679.059 280.297 677.863 281.176L677.002 278.328C678.9 276.957 680.529 275.539 681.889 274.074C683.248 272.598 684.49 270.887 685.615 268.941L687.812 270.242C686.875 272.035 685.721 273.723 684.35 275.305ZM678.584 270.453L677.512 268.15C681.016 266.064 683.787 263.545 685.826 260.592L687.953 261.893C685.621 265.244 682.498 268.098 678.584 270.453ZM690.15 264.688V262.209H708.871V264.688H690.15ZM710.559 271.525V273.986H704.617V288.084C704.617 290.123 704.377 291.389 703.896 291.881C703.416 292.385 702.18 292.637 700.188 292.637C698.723 292.637 696.912 292.572 694.756 292.443L694.686 289.93C697.451 290.047 699.145 290.105 699.766 290.105C700.727 290.105 701.295 290.012 701.471 289.824C701.646 289.625 701.734 289.021 701.734 288.014V273.986H688.604V271.525H710.559ZM716.746 273.441C722.934 271.93 728.277 271.174 732.777 271.174C736.516 271.174 739.205 271.859 740.846 273.23C742.498 274.59 743.324 276.342 743.324 278.486C743.324 282.014 741.625 284.932 738.227 287.24C734.828 289.537 730.059 290.938 723.918 291.441L723.268 288.928C728.834 288.4 733.105 287.199 736.082 285.324C739.059 283.449 740.547 281.205 740.547 278.592C740.547 275.322 737.91 273.688 732.637 273.688C728.723 273.688 723.619 274.42 717.326 275.885L716.746 273.441ZM721.791 264.723L722.107 262.279C727.674 263.17 732.982 263.615 738.033 263.615V266.129C733.275 266.129 727.861 265.66 721.791 264.723ZM68.3945 319.779V317.336H96.8359V319.779C96.1211 322.346 94.8906 324.66 93.1445 326.723C91.3984 328.785 89.2891 330.42 86.8164 331.627L85.3926 329.395C89.7871 327.215 92.6172 324.01 93.8828 319.779H68.3945ZM79.0117 323.207H81.7539C81.7539 329.348 80.998 333.988 79.4863 337.129C77.9746 340.27 75.3906 342.625 71.7344 344.195L70.4512 341.893C73.5918 340.568 75.8008 338.518 77.0781 335.74C78.3672 332.951 79.0117 328.773 79.0117 323.207ZM107.664 323.084L109.439 320.975C113.014 323.494 116.395 326.061 119.582 328.674C122.125 324.9 124.082 320.582 125.453 315.719L128.266 316.281C126.777 321.754 124.65 326.518 121.885 330.572C125.553 333.643 128.816 336.549 131.676 339.291L129.707 341.312C126.344 338.125 123.186 335.289 120.232 332.805C116.494 337.48 111.49 341.43 105.221 344.652L103.604 342.314C109.604 339.174 114.379 335.383 117.93 330.941C113.945 327.695 110.523 325.076 107.664 323.084ZM161.928 316.246H164.863V325.475C164.863 331.521 163.498 336.045 160.768 339.045C158.037 342.045 153.572 343.961 147.373 344.793L146.758 342.174C152.371 341.33 156.303 339.678 158.553 337.217C160.803 334.756 161.928 330.865 161.928 325.545V316.246ZM143.137 332.084V316.246H146.002V332.084H143.137ZM186.045 314.207H188.734C188.734 316.27 188.699 318.186 188.629 319.955H202.709V322.012C202.709 325.809 202.639 328.961 202.498 331.469C202.369 333.977 202.176 336.039 201.918 337.656C201.672 339.273 201.297 340.498 200.793 341.33C200.289 342.15 199.732 342.713 199.123 343.018C198.514 343.322 197.729 343.475 196.768 343.475C194.775 343.475 192.496 343.34 189.93 343.07L190.141 340.486C192.297 340.721 194.266 340.838 196.047 340.838C197.055 340.838 197.799 340.486 198.279 339.783C198.76 339.068 199.135 337.445 199.404 334.914C199.686 332.383 199.826 328.516 199.826 323.312V322.486H188.453C188.02 327.982 187.018 332.318 185.447 335.494C183.877 338.67 181.398 341.559 178.012 344.16L176.289 342.209C178.305 340.674 179.91 339.133 181.105 337.586C182.312 336.039 183.314 334.035 184.111 331.574C184.92 329.113 185.465 326.084 185.746 322.486H176.57V319.955H185.939C186.01 318.209 186.045 316.293 186.045 314.207ZM234.596 326.688C230.881 323.898 228.016 320.898 226 317.688C223.984 320.898 221.119 323.898 217.404 326.688H234.596ZM222.361 333.93H228.988V329.025H222.432V332.207C222.432 332.582 222.408 333.156 222.361 333.93ZM219.637 329.025H215.893V327.742C214.064 328.984 212.26 330.039 210.479 330.906L209.336 328.533C212.102 327.162 214.574 325.686 216.754 324.104C214.574 322.158 212.799 320.623 211.428 319.498L213.256 317.688C214.979 319.105 216.824 320.705 218.793 322.486C220.691 320.857 222.279 319.041 223.557 317.037H214.012V314.699H227.336C228.156 316.398 229.211 318.01 230.5 319.533C231.965 318.045 233.295 316.445 234.49 314.734L236.617 316.07C235.398 317.828 233.91 319.58 232.152 321.326C233.066 322.217 234.086 323.096 235.211 323.963C236.863 322.311 238.352 320.559 239.676 318.707L241.768 320.025C240.396 321.924 238.873 323.717 237.197 325.404C238.826 326.506 240.648 327.549 242.664 328.533L241.521 330.906C239.576 329.945 237.748 328.891 236.037 327.742V329.025H231.801V333.93H241.451V336.338H231.801V342.104C231.801 342.654 231.93 342.988 232.188 343.105C232.457 343.223 233.289 343.281 234.684 343.281C235.422 343.281 235.938 343.281 236.23 343.281C236.535 343.281 236.881 343.211 237.268 343.07C237.654 342.93 237.889 342.801 237.971 342.684C238.053 342.555 238.158 342.238 238.287 341.734C238.428 341.23 238.51 340.773 238.533 340.363C238.557 339.941 238.592 339.215 238.639 338.184L241.328 338.465C241.258 339.789 241.205 340.773 241.17 341.418C241.135 342.062 241 342.707 240.766 343.352C240.543 344.008 240.326 344.436 240.115 344.635C239.916 344.846 239.506 345.051 238.885 345.25C238.264 345.449 237.66 345.555 237.074 345.566C236.488 345.578 235.568 345.584 234.314 345.584C231.959 345.584 230.482 345.438 229.885 345.145C229.287 344.863 228.988 344.172 228.988 343.07V336.338H222.045C221.494 338.881 220.346 340.938 218.6 342.508C216.865 344.078 214.445 345.273 211.34 346.094L210.408 343.686C212.904 343.018 214.85 342.098 216.244 340.926C217.639 339.742 218.6 338.213 219.127 336.338H210.479V333.93H219.514C219.584 333.332 219.625 332.693 219.637 332.014V329.025ZM269.928 335.336H278.805V337.779H269.928V346.129H267.115V337.779H257.148V335.336H267.115V329.254H258.396V326.916H267.115V321.221H257.746V318.812H262.967C262.229 317.16 261.426 315.572 260.559 314.049L263.037 313.363C264.045 315.145 264.959 316.961 265.779 318.812H271.105C272.207 316.914 273.145 315.098 273.918 313.363L276.467 313.943C275.67 315.725 274.855 317.348 274.023 318.812H278.277V321.221H269.928V326.916H277.592V329.254H269.928V335.336ZM252.525 319.604H256.885V322.117C256.064 324.777 255.045 327.08 253.826 329.025C255.654 331.111 257.025 332.781 257.939 334.035L255.918 335.828C254.91 334.457 253.779 333.045 252.525 331.592V346.129H249.766V333.455C248.371 334.92 246.941 336.133 245.477 337.094L244.545 334.316C249.221 331.176 252.408 327.109 254.107 322.117H245.441V319.604H249.766V313.943H252.525V319.604ZM301.463 341.312C304.346 340.996 306.59 339.854 308.195 337.885C309.801 335.916 310.604 333.303 310.604 330.045C310.604 326.998 309.596 324.479 307.58 322.486C305.564 320.494 302.98 319.445 299.828 319.34C299.324 323.992 298.691 327.93 297.93 331.152C297.18 334.375 296.348 336.807 295.434 338.447C294.531 340.088 293.623 341.242 292.709 341.91C291.795 342.566 290.799 342.895 289.721 342.895C287.998 342.895 286.41 341.852 284.957 339.766C283.504 337.68 282.777 335.119 282.777 332.084C282.777 327.572 284.318 323.904 287.4 321.08C290.482 318.244 294.496 316.826 299.441 316.826C303.426 316.826 306.719 318.068 309.32 320.553C311.922 323.037 313.223 326.201 313.223 330.045C313.223 334.029 312.215 337.252 310.199 339.713C308.184 342.174 305.447 343.545 301.99 343.826L301.463 341.312ZM297.104 319.498C293.553 319.932 290.711 321.291 288.578 323.576C286.457 325.85 285.396 328.686 285.396 332.084C285.396 334.346 285.877 336.268 286.838 337.85C287.799 339.432 288.76 340.223 289.721 340.223C290.154 340.223 290.605 340.064 291.074 339.748C291.543 339.42 292.064 338.787 292.639 337.85C293.213 336.912 293.752 335.711 294.256 334.246C294.76 332.781 295.27 330.783 295.785 328.252C296.301 325.709 296.74 322.791 297.104 319.498ZM322.838 319.779V317.195H345.162V319.779C343.486 323.904 340.896 327.83 337.393 331.557C340.873 334.768 344.447 338.295 348.115 342.139L346.164 344.002C342.66 340.311 339.109 336.783 335.512 333.42C331.457 337.334 326.611 340.721 320.975 343.58L319.744 341.277C325.123 338.488 329.729 335.248 333.561 331.557C337.404 327.854 340.264 323.928 342.139 319.779H322.838ZM358.732 344.336L358.328 341.805C362.84 341.371 366.549 340.51 369.455 339.221C372.361 337.92 374.617 336.062 376.223 333.648C372.238 331.586 368.23 329.676 364.199 327.918L365.465 325.51C369.379 327.209 373.41 329.113 377.559 331.223C378.777 328.434 379.451 324.918 379.58 320.676H364.85C363.479 325 361.129 328.721 357.801 331.838L355.92 330.115C357.982 328.17 359.664 325.867 360.965 323.207C362.266 320.535 363.08 317.688 363.408 314.664L366.045 314.805C365.975 315.625 365.793 316.744 365.5 318.162H382.498V319.234C382.498 327.32 380.6 333.355 376.803 337.34C373.018 341.312 366.994 343.645 358.732 344.336ZM391.34 331.416V328.674H420.66V331.416H391.34ZM435.988 315.385V325.896C442.609 327.479 449.318 329.541 456.115 332.084L455.254 334.721C448.434 332.178 442.012 330.174 435.988 328.709V344.688H433.105V315.385H435.988ZM464.395 319.779V317.336H492.836V319.779C492.121 322.346 490.891 324.66 489.145 326.723C487.398 328.785 485.289 330.42 482.816 331.627L481.393 329.395C485.787 327.215 488.617 324.01 489.883 319.779H464.395ZM475.012 323.207H477.754C477.754 329.348 476.998 333.988 475.486 337.129C473.975 340.27 471.391 342.625 467.734 344.195L466.451 341.893C469.592 340.568 471.801 338.518 473.078 335.74C474.367 332.951 475.012 328.773 475.012 323.207ZM525.443 322.557C525.303 327.385 524.605 331.27 523.352 334.211C522.109 337.141 520.211 339.391 517.656 340.961C515.102 342.531 511.65 343.621 507.303 344.23L506.758 341.805C512.641 340.938 516.736 339.121 519.045 336.355C521.365 333.59 522.625 328.943 522.824 322.416L525.443 322.557ZM502.557 323.928L505.07 323.348C505.809 325.867 506.676 329.061 507.672 332.928L505.105 333.49C504.297 330.162 503.447 326.975 502.557 323.928ZM510.432 322.873L513.033 322.293C513.994 325.633 514.855 328.961 515.617 332.277L513.033 332.84C512.213 329.383 511.346 326.061 510.432 322.873ZM558.35 317.072C558.35 315.795 558.801 314.711 559.703 313.82C560.605 312.918 561.689 312.467 562.955 312.467C564.232 312.467 565.316 312.918 566.207 313.82C567.109 314.723 567.561 315.812 567.561 317.09C567.561 318.355 567.109 319.439 566.207 320.342C565.316 321.244 564.232 321.695 562.955 321.695C562.615 321.695 562.375 321.684 562.234 321.66C561.777 328.598 559.691 333.889 555.977 337.533C552.262 341.178 546.719 343.398 539.348 344.195L538.873 341.629C545.717 340.855 550.779 338.811 554.061 335.494C557.354 332.166 559.146 327.227 559.439 320.676H535.604V318.057H558.42C558.373 317.834 558.35 317.506 558.35 317.072ZM564.801 318.918C565.305 318.414 565.557 317.805 565.557 317.09C565.557 316.363 565.305 315.748 564.801 315.244C564.297 314.74 563.682 314.488 562.955 314.488C562.24 314.488 561.631 314.74 561.127 315.244C560.623 315.748 560.371 316.363 560.371 317.09C560.371 317.805 560.623 318.414 561.127 318.918C561.631 319.422 562.24 319.674 562.955 319.674C563.682 319.674 564.297 319.422 564.801 318.918ZM575.488 323.453V346.129H572.781V328.744C571.773 330.619 570.754 332.189 569.723 333.455L568.545 330.432C571.861 325.826 574.176 320.295 575.488 313.838L578.107 314.348C577.51 317.582 576.637 320.617 575.488 323.453ZM602.734 320.148V322.557H593.084C595.217 328.006 598.674 333.367 603.455 338.641L601.838 341.207C597.209 335.852 593.799 330.438 591.607 324.965V337.305H598.305V339.66H591.607V346.129H588.848V339.66H581.641V337.305H588.848V325.035C586.422 330.602 582.736 336.004 577.791 341.242L575.928 339.115C581.33 333.643 585.191 328.123 587.512 322.557H577.791V320.148H588.848V313.943H591.607V320.148H602.734ZM613.07 327.883H609.467V331.293H613.07V327.883ZM613.07 322.557H609.467V325.791H613.07V322.557ZM613.07 320.43V317.266H609.467V320.43H613.07ZM624.549 320.57H633.514C632.002 319.152 630.525 317.512 629.084 315.648C627.619 317.512 626.107 319.152 624.549 320.57ZM627.361 335.547H623.441H620.998V325.439H627.695V322.768H623.371V321.607C622.504 322.346 621.438 323.178 620.172 324.104L619.328 322.557H615.707V325.791H619.486V327.883H615.707V331.293H619.732V333.35C619.732 338.342 619.527 341.693 619.117 343.404C623.629 341.693 626.377 339.074 627.361 335.547ZM627.695 333.455V333.104V327.584H623.441V333.455H627.695ZM630.385 333.174V333.455H634.674V327.584H630.385V333.104V333.174ZM605.072 344.107C605.811 341.154 606.332 338.049 606.637 334.791L608.57 335.037C608.336 338.248 607.832 341.441 607.059 344.617L605.072 344.107ZM609.766 343.686C609.648 340.92 609.455 338.113 609.186 335.266L610.943 334.967C611.307 338.283 611.535 341.119 611.629 343.475L609.766 343.686ZM612.859 342.033C612.648 339.9 612.326 337.58 611.893 335.072L613.615 334.756C614.096 337.439 614.441 339.766 614.652 341.734L612.859 342.033ZM637.223 325.439V335.547H630.719C631.633 339.121 634.404 341.775 639.033 343.51L638.084 345.848C636.068 345.051 634.287 343.955 632.74 342.561C631.193 341.154 630.016 339.596 629.207 337.885C628.34 339.584 627.086 341.137 625.445 342.543C623.816 343.949 621.947 345.051 619.838 345.848L619.012 343.861C618.801 344.6 618.525 345.104 618.186 345.373C617.846 345.643 617.4 345.777 616.85 345.777C616.053 345.777 614.734 345.666 612.895 345.443L612.859 343.07C614.078 343.258 615.203 343.352 616.234 343.352C616.551 343.352 616.785 343.135 616.938 342.701C617.102 342.256 617.219 341.371 617.289 340.047L615.742 340.328C615.531 339.027 615.133 337.205 614.547 334.861L616.234 334.545C616.668 336.221 617.031 337.814 617.324 339.326C617.371 337.451 617.395 335.529 617.395 333.561H606.707V314.998H620.137V317.266H615.707V320.43H619.486V321.502C622.604 319.17 625.398 316.533 627.871 313.592H630.279C632.822 316.639 635.752 319.375 639.068 321.801L637.873 324.104C636.818 323.365 635.787 322.562 634.779 321.695V322.768H630.385V325.439H637.223ZM643.498 329.5C648.654 328.785 653.688 327.215 658.598 324.789C663.508 322.363 667.486 319.48 670.533 316.141L672.291 318.092C669.502 321.139 665.916 323.84 661.533 326.195V344.617H658.615V327.672C653.834 329.898 648.936 331.369 643.92 332.084L643.498 329.5ZM697.744 317.512L700.082 316.281C701.406 318.438 702.631 320.588 703.756 322.732L701.418 323.893C700.551 322.252 699.326 320.125 697.744 317.512ZM703.07 315.965L705.408 314.734C706.756 316.914 708.016 319.1 709.188 321.291L706.814 322.451C705.807 320.576 704.559 318.414 703.07 315.965ZM679.568 337.92L677.371 336.232C678.168 335.271 679.07 334.141 680.078 332.84C681.098 331.527 682.088 330.25 683.049 329.008C684.01 327.754 684.59 327.004 684.789 326.758C686.758 324.074 688.07 322.41 688.727 321.766C689.383 321.109 690.156 320.781 691.047 320.781C692.008 320.781 692.852 321.074 693.578 321.66C694.316 322.234 695.811 323.734 698.061 326.16C702.068 330.508 706.246 334.861 710.594 339.221L708.572 341.312C704.4 337.117 700.217 332.734 696.021 328.164C694.346 326.336 693.197 325.141 692.576 324.578C691.967 324.016 691.457 323.734 691.047 323.734C690.754 323.734 690.361 324.027 689.869 324.613C689.389 325.188 688.645 326.143 687.637 327.479C687.449 327.748 687.303 327.953 687.197 328.094C684.197 332.078 681.654 335.354 679.568 337.92ZM717.291 319.199L718.592 316.756C722.436 318.678 726.104 320.717 729.596 322.873L728.207 325.316C724.891 323.254 721.252 321.215 717.291 319.199ZM745.117 320.605C742.691 334.434 733.826 342.016 718.521 343.352L718.082 340.662C725.113 340.018 730.639 337.996 734.658 334.598C738.678 331.199 741.291 326.342 742.498 320.025L745.117 320.605ZM759.988 315.385V325.896C766.609 327.479 773.318 329.541 780.115 332.084L779.254 334.721C772.434 332.178 766.012 330.174 759.988 328.709V344.688H757.105V315.385H759.988ZM799.346 323.734V343H796.428V323.734H799.346ZM797.922 316.527C798.402 316.527 798.812 316.686 799.152 317.002C799.504 317.307 799.68 317.787 799.68 318.443C799.68 319.088 799.504 319.568 799.152 319.885C798.812 320.201 798.402 320.359 797.922 320.359C797.418 320.359 796.996 320.201 796.656 319.885C796.328 319.568 796.164 319.088 796.164 318.443C796.164 317.787 796.328 317.307 796.656 317.002C796.996 316.686 797.418 316.527 797.922 316.527ZM814.656 323.383C816.941 323.383 818.67 323.945 819.842 325.07C821.014 326.184 821.6 327.977 821.6 330.449V343H818.717V330.643C818.717 329.037 818.348 327.836 817.609 327.039C816.883 326.242 815.764 325.844 814.252 325.844C812.119 325.844 810.619 326.447 809.752 327.654C808.885 328.861 808.451 330.613 808.451 332.91V343H805.533V323.734H807.889L808.328 326.512H808.486C808.896 325.832 809.418 325.264 810.051 324.807C810.684 324.338 811.393 323.986 812.178 323.752C812.963 323.506 813.789 323.383 814.656 323.383ZM868.094 330.045V332.383H850.164C852.227 334.738 854.734 336.836 857.688 338.676C859.656 337.094 861.455 335.248 863.084 333.139L865.352 334.51C863.723 336.596 861.936 338.43 859.99 340.012C862.369 341.312 865.141 342.514 868.305 343.615L867.145 345.883C858.145 342.789 851.4 338.289 846.912 332.383H843.537V342.561C846.971 342.104 850.615 341.494 854.471 340.732L854.805 343C848.617 344.277 842.559 345.18 836.629 345.707L836.33 343.352C839.166 343.059 840.631 342.918 840.725 342.93V332.383H835.68V330.045H840.725V314.84H864.561V317.195H843.537V319.955H863.471V322.082H843.537V324.93H863.471V327.057H843.537V330.045H868.094ZM899.945 340.768V317.195H875.828V345.584H873.051V314.805H902.723V340.768C902.723 342.83 902.488 344.107 902.02 344.6C901.551 345.092 900.355 345.338 898.434 345.338C897.836 345.338 895.914 345.279 892.668 345.162L892.562 342.719C895.75 342.836 897.514 342.895 897.854 342.895C898.861 342.895 899.459 342.795 899.646 342.596C899.846 342.385 899.945 341.775 899.945 340.768ZM898.223 327.584H889.258V336.514H893.582V329.605H896.236V340.908H893.582V338.852H882.191V342.561H879.537V329.605H882.191V336.514H886.516V327.584H877.551V325.246H883.281C882.461 322.891 881.646 320.781 880.838 318.918L883.246 318.232C884.207 320.412 885.092 322.75 885.9 325.246H889.645C890.84 323.043 891.836 320.658 892.633 318.092L895.094 318.812C894.402 321.098 893.523 323.242 892.457 325.246H898.223V327.584Z" fill="black"/>
</svg>
