<svg width="1024" height="512" viewBox="0 0 1024 512" fill="none" xmlns="http://www.w3.org/2000/svg">
<g clip-path="url(#clip0_910_12)">
<rect width="1024" height="512" fill="#1747E6"/>
<path d="M0 256H1024.36ZM369.909 -57V569Z" fill="black"/>
<path d="M0 256H1024.36M369.909 -57V569" stroke="#002F6C" stroke-opacity="0.5" stroke-width="170"/>
<path d="M94.272 222.12C94.272 228.84 89.344 234.152 80.512 234.152C75.904 234.152 71.424 232.872 68.416 230.056V224.04H68.608C71.68 227.688 75.968 229.608 80.384 229.608C85.888 229.608 89.216 226.856 89.216 222.504C89.216 211.24 68.608 215.272 68.608 199.976C68.608 193.96 72.448 188.2 81.6 188.2C85.76 188.2 89.856 189.48 92.736 192.296V198.312H92.544C89.6 194.6 85.632 192.744 81.664 192.744C76.416 192.744 73.728 195.624 73.728 199.592C73.728 210.728 94.272 206.568 94.272 222.12ZM126.872 233H122.264V230.376H122.136C119.64 232.68 116.376 234.152 112.344 234.152C106.135 234.152 101.464 230.312 101.464 224.104C101.464 217.768 105.816 213.672 113.432 213.672C116.76 213.672 119.704 214.44 122.136 215.72V212.328C122.136 206.248 118.168 203.816 113.304 203.816C109.272 203.816 105.752 205.864 103.64 208.36H103.448V203.304C106.264 200.872 110.104 199.528 114.135 199.528C121.368 199.528 126.872 203.432 126.872 212.008V233ZM122.136 226.152V219.816C120.088 218.536 117.144 217.64 114.264 217.64C109.208 217.64 106.264 219.816 106.264 223.784C106.264 227.24 108.76 229.992 113.816 229.992C117.016 229.992 119.96 228.584 122.136 226.152ZM110.36 189.928H105.496V185H110.36V189.928ZM123.416 189.928H118.424V185H123.416V189.928ZM142.493 233H137.757V185H142.493V233ZM162.717 233H156.829L143.325 216.744V216.488L156.317 200.68H161.949L148.893 216.296V216.424L162.717 233ZM174.181 233H169.445V185H174.181V233ZM194.405 233H188.517L175.013 216.744V216.488L188.005 200.68H193.637L180.581 216.296V216.424L194.405 233ZM205.868 233H201.132V200.68H205.868V233ZM206.124 189.928H200.876V185H206.124V189.928ZM222.124 189.928H216.876V185H222.124V189.928ZM221.868 243.688L217.324 245.352H217.132V200.68H221.868V243.688ZM256.684 233H252.076V230.376H251.948C249.452 232.68 246.188 234.152 242.156 234.152C235.948 234.152 231.276 230.312 231.276 224.104C231.276 217.768 235.628 213.672 243.244 213.672C246.572 213.672 249.516 214.44 251.948 215.72V212.328C251.948 206.248 247.98 203.816 243.116 203.816C239.084 203.816 235.564 205.864 233.452 208.36H233.26V203.304C236.076 200.872 239.916 199.528 243.948 199.528C251.18 199.528 256.684 203.432 256.684 212.008V233ZM251.948 226.152V219.816C249.9 218.536 246.956 217.64 244.076 217.64C239.02 217.64 236.076 219.816 236.076 223.784C236.076 227.24 238.572 229.992 243.628 229.992C246.828 229.992 249.772 228.584 251.948 226.152ZM240.172 189.928H235.308V185H240.172V189.928ZM253.228 189.928H248.236V185H253.228V189.928ZM272.562 233H267.826V200.68H272.306V203.496H272.37C274.802 201.192 277.49 199.528 280.818 199.528C282.034 199.528 283.186 199.72 284.21 200.104V205.288H284.018C282.802 204.456 281.458 204.072 280.05 204.072C277.17 204.072 274.738 205.672 272.562 207.912V233ZM303.92 233H300.592L286.768 200.68H292.144L302.384 225.32H302.448L312.56 200.68H317.744L303.92 233ZM347.893 230.568C345.077 232.936 340.981 234.152 336.628 234.152C327.413 234.152 320.373 228.008 320.373 216.872C320.373 205.864 326.645 199.528 335.221 199.528C343.157 199.528 349.365 205.48 349.365 214.44C349.365 215.272 349.301 216.488 349.301 217.384H325.365C325.429 225.512 330.357 229.864 337.269 229.864C341.877 229.864 345.461 228.008 347.637 225.256H347.893V230.568ZM335.221 203.816C329.781 203.816 326.133 207.4 325.493 213.288H344.437C344.309 207.784 340.533 203.816 335.221 203.816ZM385.268 233H380.532V212.776C380.532 206.632 376.756 203.944 371.828 203.944C368.116 203.944 365.172 205.352 362.868 207.976V233H358.132V200.68H362.804V203.432H362.868C365.556 201 368.948 199.528 373.044 199.528C379.764 199.528 385.268 203.304 385.268 211.24V233ZM441.225 202.536C441.225 210.728 435.785 217.192 419.145 218.536V233H414.153V189.352H425.737C434.249 189.352 441.225 193.64 441.225 202.536ZM436.041 202.92C436.041 197.16 431.689 194.088 425.609 194.088H419.145V213.8C431.945 213.032 436.041 208.168 436.041 202.92ZM471.184 216.872C471.184 208.68 466.704 203.816 460.432 203.816C454.096 203.816 449.552 208.552 449.552 216.872C449.552 225.064 454.032 229.864 460.304 229.864C466.64 229.864 471.184 225.192 471.184 216.872ZM476.24 216.872C476.24 227.88 469.264 234.152 460.304 234.152C451.472 234.152 444.56 227.944 444.56 216.872C444.56 205.736 451.472 199.528 460.432 199.528C469.264 199.528 476.24 205.736 476.24 216.872ZM489.118 233H484.382V185H489.118V233ZM505.118 233H500.382V185H505.118V233ZM525.342 233H519.454L505.95 216.744V216.488L518.942 200.68H524.574L511.518 216.296V216.424L525.342 233ZM536.806 233H532.07V185H536.806V233ZM557.03 233H551.142L537.638 216.744V216.488L550.63 200.68H556.262L543.206 216.296V216.424L557.03 233ZM585.934 233H581.326V230.376H581.198C578.702 232.68 575.438 234.152 571.406 234.152C565.198 234.152 560.526 230.312 560.526 224.104C560.526 217.768 564.878 213.672 572.494 213.672C575.822 213.672 578.766 214.44 581.198 215.72V212.328C581.198 206.248 577.23 203.816 572.366 203.816C568.334 203.816 564.814 205.864 562.702 208.36H562.51V203.304C565.326 200.872 569.166 199.528 573.198 199.528C580.43 199.528 585.934 203.432 585.934 212.008V233ZM581.198 226.152V219.816C579.15 218.536 576.206 217.64 573.326 217.64C568.27 217.64 565.326 219.816 565.326 223.784C565.326 227.24 567.822 229.992 572.878 229.992C576.078 229.992 579.022 228.584 581.198 226.152ZM85.75 303.438H92.9375V298.875H85.75V303.438ZM85.75 311.031H92.9375V306.5H85.75V311.031ZM85.75 326.844C90.5208 326.281 94.2188 325.812 96.8438 325.438L97.0938 328.5C99.4896 324.583 101.302 319.979 102.531 314.688C103.76 309.396 104.573 302.354 104.969 293.562H97.3438V291.406H85.75V295.094H97.4062V314.812H85.75V318.719H97.4062V322.562H85.75V326.844ZM73.5938 306.5V311.031H80.7188V306.5H73.5938ZM73.5938 303.438H80.7188V298.875H73.5938V303.438ZM67.4062 287.562H80.7188V283.125C76.2812 283.458 72.2708 283.698 68.6875 283.844L68.4688 279.688C78.2396 279.354 87.8021 278.354 97.1562 276.688L97.7188 280.969C93.8438 281.656 89.8542 282.208 85.75 282.625V287.562H98.0625V289.281H105.094C105.219 285.365 105.281 281.031 105.281 276.281H109.938C109.938 282.302 109.896 286.635 109.812 289.281H124.344V292.281C124.344 301.802 124.26 309.115 124.094 314.219C123.927 319.302 123.521 323.229 122.875 326C122.229 328.75 121.51 330.427 120.719 331.031C119.948 331.656 118.75 331.969 117.125 331.969C115.167 331.969 112.302 331.75 108.531 331.312V326.719C111.656 327.135 114.094 327.354 115.844 327.375C116.74 327.375 117.417 326.76 117.875 325.531C118.354 324.281 118.74 321.281 119.031 316.531C119.344 311.76 119.5 304.656 119.5 295.219V293.562H109.625C109.146 303.625 108.146 311.594 106.625 317.469C105.125 323.344 102.844 328.542 99.7812 333.062L95.75 330.562C95.8333 330.479 95.9479 330.292 96.0938 330C96.2396 329.729 96.3542 329.552 96.4375 329.469C86.0208 331.052 76.2083 332.094 67 332.594L66.75 328.438C70.8958 328.188 75.5521 327.833 80.7188 327.375V322.562H67.9688V318.719H80.7188V314.812H73.5938H68.9375V295.094H80.7188V291.406H67.4062V287.562ZM162.438 302.469H171.188V293.438H162.438V302.469ZM162.438 306.188V316.031H171.188V306.188H162.438ZM148.812 306.188V316.031H157.562V306.188H148.812ZM148.812 302.469H157.562V293.438H148.812V302.469ZM148.812 319.875H144.312V289.531H157.562V282.75H132.281V278.531H187.719V282.75H162.438V289.531H175.688V319.875H148.812ZM138.75 291.531V325.312H181.25V291.531H186.062V332.938H181.25V329.469H138.75V332.938H133.938V291.531H138.75ZM219.406 311.281C225.844 307.865 231.812 304.333 237.312 300.688H226.125C222.25 303.375 218.427 305.781 214.656 307.906C216.198 308.969 217.781 310.094 219.406 311.281ZM238.656 310.531L242.625 308.031C246.042 311.156 249.771 314.865 253.812 319.156L249.906 321.719C248.635 320.344 247.573 319.24 246.719 318.406L226.438 318.906V333.562H221.312V319.031L195.844 319.625L195.719 315.656L211.656 315.25C211.99 315.083 212.49 314.844 213.156 314.531C213.823 314.219 214.323 313.969 214.656 313.781C210.01 310.365 205.958 307.531 202.5 305.281L206.219 302.156C206.635 302.448 208.146 303.469 210.75 305.219C213.229 303.802 215.708 302.292 218.188 300.688H195.188V296.781H221.312V292.281H200.188V288.5H221.312V284.031H197.875V280H221.312V275.719H226.688V280H250.125V284.031H226.688V288.5H247.812V292.281H226.688V296.781H252.812V300.688H238.719L241.531 303.281C234.969 307.594 228.229 311.521 221.312 315.062L242.875 314.562C242.75 314.438 241.344 313.094 238.656 310.531ZM196.219 328.125C202.573 325.604 208.188 322.75 213.062 319.562L215.812 322.938C211.417 325.958 205.615 328.948 198.406 331.906L196.219 328.125ZM231.219 322.938L233.656 319.438C240.448 322.5 246.448 325.542 251.656 328.562L249.219 332.344C243.781 329.135 237.781 326 231.219 322.938ZM284.594 285.562H306.75V276.344H311.812V285.562H317.625V289.906H311.812V324.812C311.812 328.479 311.385 330.75 310.531 331.625C309.677 332.5 307.438 332.938 303.812 332.938C301.458 332.938 297.896 332.823 293.125 332.594L292.938 328.188C297.417 328.396 300.781 328.5 303.031 328.5C304.823 328.5 305.885 328.344 306.219 328.031C306.573 327.719 306.75 326.646 306.75 324.812V295.75C301.125 306.583 292.979 316.073 282.312 324.219L279.281 320.625C291.406 311.333 299.969 301.094 304.969 289.906H284.594V285.562ZM259.406 285.562H269.438V276.344H274.375V285.562H282.062V289.906H275.188C278.479 296.135 281.594 302.26 284.531 308.281L280.969 311.031C278.885 306.427 276.688 301.865 274.375 297.344V333.562H269.438V300.75C267.125 307.667 263.969 313.917 259.969 319.5L257.031 315.844C262.698 307.448 266.667 298.802 268.938 289.906H259.406V285.562ZM329.406 319.562V325.625H347.188V319.562H329.406ZM347.188 305.156V293.562H343.562V303.375C343.562 304.271 343.635 304.792 343.781 304.938C343.927 305.083 344.385 305.156 345.156 305.156H347.188ZM329.406 312V315.656H347.188V308.938H343.219C341.719 308.938 340.781 308.688 340.406 308.188C340.031 307.667 339.844 306.479 339.844 304.625V293.562H336.562C336.562 299.375 336.25 303.448 335.625 305.781C335.021 308.094 333.583 310.656 331.312 313.469L329.406 312ZM329.406 309.062C330.823 307.271 331.74 305.406 332.156 303.469C332.594 301.51 332.812 298.208 332.812 293.562H329.406V309.062ZM332.094 282.688H323.531V278.531H352.125V282.688H344.188V289.469H351.562V332.938H347.188V329.719H329.406V332.938H324.812V289.469H332.094V282.688ZM336.562 282.688V289.469H339.844V282.688H336.562ZM366.719 332.344C364.51 332.344 362.396 332.26 360.375 332.094C358.021 331.927 356.604 331.406 356.125 330.531C355.646 329.656 355.406 327.365 355.406 323.656V298.562H374.281V282.875H354.688V278.531H379.188V307H374.281V302.906H360.125V322.688C360.125 325.083 360.219 326.5 360.406 326.938C360.615 327.354 361.312 327.604 362.5 327.688C364.208 327.812 365.76 327.875 367.156 327.875C368.823 327.875 370.552 327.812 372.344 327.688C374.094 327.562 375.146 326.948 375.5 325.844C375.875 324.719 376.208 320.854 376.5 314.25L381.312 314.688C381.146 317.667 381.01 319.958 380.906 321.562C380.802 323.167 380.615 324.708 380.344 326.188C380.094 327.646 379.844 328.667 379.594 329.25C379.365 329.833 378.948 330.375 378.344 330.875C377.76 331.396 377.156 331.708 376.531 331.812C375.927 331.917 375.042 332.01 373.875 332.094C371.792 332.26 369.406 332.344 366.719 332.344ZM403.062 304.5V330.375H398.281V307.406C395.219 311.427 391.948 314.792 388.469 317.5L385.844 313.281C394.677 306.198 401.083 297.448 405.062 287.031H387.969V282.688H406.594C407.406 280 408.083 277.396 408.625 274.875L413.625 275.312C413.104 277.708 412.49 280.167 411.781 282.688H444.031V287.031H410.375C408.667 291.594 406.49 296.01 403.844 300.281H416.844V291.188H421.875V300.281H441.594V323.25C441.594 326.104 441.219 327.854 440.469 328.5C439.74 329.146 437.729 329.469 434.438 329.469C432.979 329.469 430.521 329.365 427.062 329.156L427 324.812C430.062 325.021 432.302 325.125 433.719 325.125C435.219 325.125 436.083 325.052 436.312 324.906C436.562 324.76 436.688 324.188 436.688 323.188V304.5H421.875V334.219H416.844V304.5H403.062Z" fill="white"/>
</g>
<defs>
<clipPath id="clip0_910_12">
<rect width="1024" height="512" fill="white"/>
</clipPath>
</defs>
</svg>
