<svg width="1024" height="512" viewBox="0 0 1024 512" fill="none" xmlns="http://www.w3.org/2000/svg">
<g clip-path="url(#clip0_907_2)">
<rect width="1024" height="512" fill="#1747E6"/>
<path d="M0 256H1024.36ZM369.909 -57V569Z" fill="black"/>
<path d="M0 256H1024.36M369.909 -57V569" stroke="#002F6C" stroke-opacity="0.5" stroke-width="170"/>
<path d="M94.272 222.12C94.272 228.84 89.344 234.152 80.512 234.152C75.904 234.152 71.424 232.872 68.416 230.056V224.04H68.608C71.68 227.688 75.968 229.608 80.384 229.608C85.888 229.608 89.216 226.856 89.216 222.504C89.216 211.24 68.608 215.272 68.608 199.976C68.608 193.96 72.448 188.2 81.6 188.2C85.76 188.2 89.856 189.48 92.736 192.296V198.312H92.544C89.6 194.6 85.632 192.744 81.664 192.744C76.416 192.744 73.728 195.624 73.728 199.592C73.728 210.728 94.272 206.568 94.272 222.12ZM126.872 233H122.264V230.376H122.136C119.64 232.68 116.376 234.152 112.344 234.152C106.135 234.152 101.464 230.312 101.464 224.104C101.464 217.768 105.816 213.672 113.432 213.672C116.76 213.672 119.704 214.44 122.136 215.72V212.328C122.136 206.248 118.168 203.816 113.304 203.816C109.272 203.816 105.752 205.864 103.64 208.36H103.448V203.304C106.264 200.872 110.104 199.528 114.135 199.528C121.368 199.528 126.872 203.432 126.872 212.008V233ZM122.136 226.152V219.816C120.088 218.536 117.144 217.64 114.264 217.64C109.208 217.64 106.264 219.816 106.264 223.784C106.264 227.24 108.76 229.992 113.816 229.992C117.016 229.992 119.96 228.584 122.136 226.152ZM110.36 189.928H105.496V185H110.36V189.928ZM123.416 189.928H118.424V185H123.416V189.928ZM142.493 233H137.757V185H142.493V233ZM162.717 233H156.829L143.325 216.744V216.488L156.317 200.68H161.949L148.893 216.296V216.424L162.717 233ZM174.181 233H169.445V185H174.181V233ZM194.405 233H188.517L175.013 216.744V216.488L188.005 200.68H193.637L180.581 216.296V216.424L194.405 233ZM205.868 233H201.132V200.68H205.868V233ZM206.124 189.928H200.876V185H206.124V189.928ZM222.124 189.928H216.876V185H222.124V189.928ZM221.868 243.688L217.324 245.352H217.132V200.68H221.868V243.688ZM256.684 233H252.076V230.376H251.948C249.452 232.68 246.188 234.152 242.156 234.152C235.948 234.152 231.276 230.312 231.276 224.104C231.276 217.768 235.628 213.672 243.244 213.672C246.572 213.672 249.516 214.44 251.948 215.72V212.328C251.948 206.248 247.98 203.816 243.116 203.816C239.084 203.816 235.564 205.864 233.452 208.36H233.26V203.304C236.076 200.872 239.916 199.528 243.948 199.528C251.18 199.528 256.684 203.432 256.684 212.008V233ZM251.948 226.152V219.816C249.9 218.536 246.956 217.64 244.076 217.64C239.02 217.64 236.076 219.816 236.076 223.784C236.076 227.24 238.572 229.992 243.628 229.992C246.828 229.992 249.772 228.584 251.948 226.152ZM240.172 189.928H235.308V185H240.172V189.928ZM253.228 189.928H248.236V185H253.228V189.928ZM272.562 233H267.826V200.68H272.306V203.496H272.37C274.802 201.192 277.49 199.528 280.818 199.528C282.034 199.528 283.186 199.72 284.21 200.104V205.288H284.018C282.802 204.456 281.458 204.072 280.05 204.072C277.17 204.072 274.738 205.672 272.562 207.912V233ZM303.92 233H300.592L286.768 200.68H292.144L302.384 225.32H302.448L312.56 200.68H317.744L303.92 233ZM347.893 230.568C345.077 232.936 340.981 234.152 336.628 234.152C327.413 234.152 320.373 228.008 320.373 216.872C320.373 205.864 326.645 199.528 335.221 199.528C343.157 199.528 349.365 205.48 349.365 214.44C349.365 215.272 349.301 216.488 349.301 217.384H325.365C325.429 225.512 330.357 229.864 337.269 229.864C341.877 229.864 345.461 228.008 347.637 225.256H347.893V230.568ZM335.221 203.816C329.781 203.816 326.133 207.4 325.493 213.288H344.437C344.309 207.784 340.533 203.816 335.221 203.816ZM385.268 233H380.532V212.776C380.532 206.632 376.756 203.944 371.828 203.944C368.116 203.944 365.172 205.352 362.868 207.976V233H358.132V200.68H362.804V203.432H362.868C365.556 201 368.948 199.528 373.044 199.528C379.764 199.528 385.268 203.304 385.268 211.24V233ZM441.225 202.536C441.225 210.728 435.785 217.192 419.145 218.536V233H414.153V189.352H425.737C434.249 189.352 441.225 193.64 441.225 202.536ZM436.041 202.92C436.041 197.16 431.689 194.088 425.609 194.088H419.145V213.8C431.945 213.032 436.041 208.168 436.041 202.92ZM471.184 216.872C471.184 208.68 466.704 203.816 460.432 203.816C454.096 203.816 449.552 208.552 449.552 216.872C449.552 225.064 454.032 229.864 460.304 229.864C466.64 229.864 471.184 225.192 471.184 216.872ZM476.24 216.872C476.24 227.88 469.264 234.152 460.304 234.152C451.472 234.152 444.56 227.944 444.56 216.872C444.56 205.736 451.472 199.528 460.432 199.528C469.264 199.528 476.24 205.736 476.24 216.872ZM489.118 233H484.382V185H489.118V233ZM505.118 233H500.382V185H505.118V233ZM525.342 233H519.454L505.95 216.744V216.488L518.942 200.68H524.574L511.518 216.296V216.424L525.342 233ZM536.806 233H532.07V185H536.806V233ZM557.03 233H551.142L537.638 216.744V216.488L550.63 200.68H556.262L543.206 216.296V216.424L557.03 233ZM585.934 233H581.326V230.376H581.198C578.702 232.68 575.438 234.152 571.406 234.152C565.198 234.152 560.526 230.312 560.526 224.104C560.526 217.768 564.878 213.672 572.494 213.672C575.822 213.672 578.766 214.44 581.198 215.72V212.328C581.198 206.248 577.23 203.816 572.366 203.816C568.334 203.816 564.814 205.864 562.702 208.36H562.51V203.304C565.326 200.872 569.166 199.528 573.198 199.528C580.43 199.528 585.934 203.432 585.934 212.008V233ZM581.198 226.152V219.816C579.15 218.536 576.206 217.64 573.326 217.64C568.27 217.64 565.326 219.816 565.326 223.784C565.326 227.24 567.822 229.992 572.878 229.992C576.078 229.992 579.022 228.584 581.198 226.152ZM104.812 282.312V311.875C104.812 315.104 104.156 317.979 102.844 320.5C101.552 323.021 99.5938 325.01 96.9688 326.469C94.3438 327.906 91.0521 328.625 87.0938 328.625C81.4479 328.625 77.1458 327.094 74.1875 324.031C71.25 320.969 69.7812 316.875 69.7812 311.75V282.312H75.125V311.906C75.125 315.781 76.1458 318.771 78.1875 320.875C80.25 322.979 83.3229 324.031 87.4062 324.031C90.1979 324.031 92.4792 323.531 94.25 322.531C96.0417 321.51 97.3646 320.094 98.2188 318.281C99.0938 316.448 99.5312 314.333 99.5312 311.938V282.312H104.812ZM142.719 315.844C142.719 318.552 142.042 320.865 140.688 322.781C139.354 324.677 137.479 326.125 135.062 327.125C132.646 328.125 129.802 328.625 126.531 328.625C124.802 328.625 123.167 328.542 121.625 328.375C120.083 328.208 118.667 327.969 117.375 327.656C116.083 327.344 114.948 326.958 113.969 326.5V321.406C115.531 322.052 117.438 322.656 119.688 323.219C121.938 323.76 124.292 324.031 126.75 324.031C129.042 324.031 130.979 323.729 132.562 323.125C134.146 322.5 135.344 321.615 136.156 320.469C136.99 319.302 137.406 317.906 137.406 316.281C137.406 314.719 137.062 313.417 136.375 312.375C135.688 311.312 134.542 310.354 132.938 309.5C131.354 308.625 129.188 307.698 126.438 306.719C124.5 306.031 122.792 305.281 121.312 304.469C119.833 303.635 118.594 302.698 117.594 301.656C116.594 300.615 115.833 299.406 115.312 298.031C114.812 296.656 114.562 295.083 114.562 293.312C114.562 290.875 115.177 288.792 116.406 287.062C117.656 285.312 119.375 283.979 121.562 283.062C123.771 282.125 126.302 281.656 129.156 281.656C131.594 281.656 133.844 281.885 135.906 282.344C137.99 282.802 139.896 283.417 141.625 284.188L139.969 288.75C138.323 288.062 136.573 287.49 134.719 287.031C132.885 286.573 130.99 286.344 129.031 286.344C127.073 286.344 125.417 286.635 124.062 287.219C122.729 287.781 121.708 288.583 121 289.625C120.292 290.667 119.938 291.906 119.938 293.344C119.938 294.948 120.271 296.281 120.938 297.344C121.625 298.406 122.708 299.354 124.188 300.188C125.688 301 127.667 301.854 130.125 302.75C132.812 303.729 135.094 304.771 136.969 305.875C138.844 306.958 140.271 308.292 141.25 309.875C142.229 311.438 142.719 313.427 142.719 315.844ZM166.094 328H160.75V287H146.375V282.312H180.406V287H166.094V328ZM190.469 319.562V325.625H208.25V319.562H190.469ZM208.25 305.156V293.562H204.625V303.375C204.625 304.271 204.698 304.792 204.844 304.938C204.99 305.083 205.448 305.156 206.219 305.156H208.25ZM190.469 312V315.656H208.25V308.938H204.281C202.781 308.938 201.844 308.688 201.469 308.188C201.094 307.667 200.906 306.479 200.906 304.625V293.562H197.625C197.625 299.375 197.312 303.448 196.688 305.781C196.083 308.094 194.646 310.656 192.375 313.469L190.469 312ZM190.469 309.062C191.885 307.271 192.802 305.406 193.219 303.469C193.656 301.51 193.875 298.208 193.875 293.562H190.469V309.062ZM193.156 282.688H184.594V278.531H213.188V282.688H205.25V289.469H212.625V332.938H208.25V329.719H190.469V332.938H185.875V289.469H193.156V282.688ZM197.625 282.688V289.469H200.906V282.688H197.625ZM227.781 332.344C225.573 332.344 223.458 332.26 221.438 332.094C219.083 331.927 217.667 331.406 217.188 330.531C216.708 329.656 216.469 327.365 216.469 323.656V298.562H235.344V282.875H215.75V278.531H240.25V307H235.344V302.906H221.188V322.688C221.188 325.083 221.281 326.5 221.469 326.938C221.677 327.354 222.375 327.604 223.562 327.688C225.271 327.812 226.823 327.875 228.219 327.875C229.885 327.875 231.615 327.812 233.406 327.688C235.156 327.562 236.208 326.948 236.562 325.844C236.938 324.719 237.271 320.854 237.562 314.25L242.375 314.688C242.208 317.667 242.073 319.958 241.969 321.562C241.865 323.167 241.677 324.708 241.406 326.188C241.156 327.646 240.906 328.667 240.656 329.25C240.427 329.833 240.01 330.375 239.406 330.875C238.823 331.396 238.219 331.708 237.594 331.812C236.99 331.917 236.104 332.01 234.938 332.094C232.854 332.26 230.469 332.344 227.781 332.344ZM264.125 304.5V330.375H259.344V307.406C256.281 311.427 253.01 314.792 249.531 317.5L246.906 313.281C255.74 306.198 262.146 297.448 266.125 287.031H249.031V282.688H267.656C268.469 280 269.146 277.396 269.688 274.875L274.688 275.312C274.167 277.708 273.552 280.167 272.844 282.688H305.094V287.031H271.438C269.729 291.594 267.552 296.01 264.906 300.281H277.906V291.188H282.938V300.281H302.656V323.25C302.656 326.104 302.281 327.854 301.531 328.5C300.802 329.146 298.792 329.469 295.5 329.469C294.042 329.469 291.583 329.365 288.125 329.156L288.062 324.812C291.125 325.021 293.365 325.125 294.781 325.125C296.281 325.125 297.146 325.052 297.375 324.906C297.625 324.76 297.75 324.188 297.75 323.188V304.5H282.938V334.219H277.906V304.5H264.125Z" fill="white"/>
</g>
<defs>
<clipPath id="clip0_907_2">
<rect width="1024" height="512" fill="white"/>
</clipPath>
</defs>
</svg>
