<svg width="1024" height="512" viewBox="0 0 1024 512" fill="none" xmlns="http://www.w3.org/2000/svg">
<g clip-path="url(#clip0_1272_5)">
<rect width="1024" height="512" fill="#1747E6"/>
<g opacity="0.33">
<path d="M320 160C320 248.366 248.366 320 160 320C71.6344 320 0 248.366 0 160C0 71.6344 71.6344 0 160 0C248.366 0 320 71.6344 320 160ZM480 480C480 568.366 408.366 640 320 640C231.634 640 160 568.366 160 480C160 391.634 231.634 320 320 320C408.366 320 480 391.634 480 480ZM480 0C303.269 0 160 143.269 160 320C160 496.731 303.269 640 480 640C656.731 640 800 496.731 800 320C800 143.269 656.731 0 480 0Z" fill="black"/>
</g>
<path d="M139.072 264.5H131.584L127.456 218.9H127.36L105.952 266.228H105.376L83.968 218.804H83.872L79.744 264.5H72.352L78.016 199.028H83.776L105.664 249.14H105.76L127.552 199.028H133.312L139.072 264.5ZM194.768 216.02V247.22C194.768 259.316 186.896 266.228 174.896 266.228C163.088 266.228 155.216 259.316 155.216 247.22V216.02H162.32V246.452C162.32 255.572 167.12 259.796 174.992 259.796C182.768 259.796 187.664 255.572 187.664 246.452V216.02H194.768ZM239.328 252.308C239.328 260.372 233.76 266.228 223.008 266.228C217.248 266.228 212.352 264.5 208.896 261.332V253.172H209.184C212.64 257.588 217.824 260.084 223.008 260.084C228.768 260.084 232.416 257.204 232.416 252.788C232.416 240.692 209.088 245.492 209.088 227.828C209.088 220.244 214.176 214.292 224.352 214.292C229.44 214.292 234.432 215.732 237.6 218.996V227.156H237.408C234.336 223.316 229.536 220.532 224.544 220.532C218.976 220.532 216.192 223.412 216.192 227.444C216.192 239.348 239.328 234.26 239.328 252.308ZM260.958 264.5H253.854V216.02H260.958V264.5ZM261.342 199.892H253.47V192.5H261.342V199.892ZM310.206 252.692V261.14C306.654 264.404 301.278 266.228 295.518 266.228C283.23 266.228 273.246 257.204 273.246 240.308C273.246 223.796 282.75 214.292 295.614 214.292C301.182 214.292 306.27 215.924 309.918 219.284V227.828H309.63C306.846 223.796 301.854 220.724 296.094 220.724C286.686 220.724 280.734 228.404 280.734 240.308C280.734 252.212 286.878 259.796 296.478 259.796C302.43 259.796 307.038 256.916 309.918 252.692H310.206ZM385.408 248.18C385.408 258.26 378.016 266.228 364.768 266.228C357.856 266.228 351.136 264.308 346.624 260.084V251.06H346.912C351.52 256.532 357.952 259.412 364.576 259.412C372.832 259.412 377.824 255.284 377.824 248.756C377.824 231.86 346.912 237.908 346.912 214.964C346.912 205.94 352.672 197.3 366.4 197.3C372.64 197.3 378.784 199.22 383.104 203.444V212.468H382.816C378.4 206.9 372.448 204.116 366.496 204.116C358.624 204.116 354.592 208.436 354.592 214.388C354.592 231.092 385.408 224.852 385.408 248.18ZM432.738 252.692V261.14C429.186 264.404 423.81 266.228 418.05 266.228C405.762 266.228 395.778 257.204 395.778 240.308C395.778 223.796 405.282 214.292 418.146 214.292C423.714 214.292 428.802 215.924 432.45 219.284V227.828H432.162C429.378 223.796 424.386 220.724 418.626 220.724C409.218 220.724 403.266 228.404 403.266 240.308C403.266 252.212 409.41 259.796 419.01 259.796C424.962 259.796 429.57 256.916 432.45 252.692H432.738ZM480.62 240.308C480.62 228.02 473.9 220.724 464.492 220.724C454.988 220.724 448.172 227.828 448.172 240.308C448.172 252.596 454.892 259.796 464.3 259.796C473.804 259.796 480.62 252.788 480.62 240.308ZM488.204 240.308C488.204 256.82 477.74 266.228 464.3 266.228C451.052 266.228 440.684 256.916 440.684 240.308C440.684 223.604 451.052 214.292 464.492 214.292C477.74 214.292 488.204 223.604 488.204 240.308ZM507.905 264.5H500.801V216.02H507.521V220.244H507.617C511.265 216.788 515.297 214.292 520.289 214.292C522.113 214.292 523.841 214.58 525.377 215.156V222.932H525.089C523.265 221.684 521.249 221.108 519.137 221.108C514.817 221.108 511.169 223.508 507.905 226.868V264.5ZM570.933 260.852C566.709 264.404 560.565 266.228 554.036 266.228C540.213 266.228 529.653 257.012 529.653 240.308C529.653 223.796 539.061 214.292 551.925 214.292C563.829 214.292 573.141 223.22 573.141 236.66C573.141 237.908 573.045 239.732 573.045 241.076H537.141C537.237 253.268 544.629 259.796 554.997 259.796C561.909 259.796 567.285 257.012 570.549 252.884H570.933V260.852ZM551.925 220.724C543.765 220.724 538.293 226.1 537.333 234.932H565.749C565.557 226.676 559.893 220.724 551.925 220.724ZM614.516 252.308C614.516 260.372 608.948 266.228 598.196 266.228C592.436 266.228 587.54 264.5 584.084 261.332V253.172H584.372C587.828 257.588 593.012 260.084 598.196 260.084C603.956 260.084 607.604 257.204 607.604 252.788C607.604 240.692 584.276 245.492 584.276 227.828C584.276 220.244 589.364 214.292 599.54 214.292C604.628 214.292 609.62 215.732 612.788 218.996V227.156H612.596C609.524 223.316 604.724 220.532 599.732 220.532C594.164 220.532 591.38 223.412 591.38 227.444C591.38 239.348 614.516 234.26 614.516 252.308Z" fill="white"/>
<path d="M83.3359 306.258C81.4453 306.258 79.7422 306.586 78.2266 307.242C76.7266 307.883 75.4453 308.82 74.3828 310.055C73.3359 311.273 72.5312 312.75 71.9688 314.484C71.4062 316.219 71.125 318.172 71.125 320.344C71.125 323.219 71.5703 325.719 72.4609 327.844C73.3672 329.953 74.7109 331.586 76.4922 332.742C78.2891 333.898 80.5312 334.477 83.2188 334.477C84.75 334.477 86.1875 334.352 87.5312 334.102C88.8906 333.836 90.2109 333.508 91.4922 333.117V336.586C90.2422 337.055 88.9297 337.398 87.5547 337.617C86.1797 337.852 84.5469 337.969 82.6562 337.969C79.1719 337.969 76.2578 337.25 73.9141 335.812C71.5859 334.359 69.8359 332.312 68.6641 329.672C67.5078 327.031 66.9297 323.914 66.9297 320.32C66.9297 317.727 67.2891 315.359 68.0078 313.219C68.7422 311.062 69.8047 309.203 71.1953 307.641C72.6016 306.078 74.3203 304.875 76.3516 304.031C78.3984 303.172 80.7422 302.742 83.3828 302.742C85.1172 302.742 86.7891 302.914 88.3984 303.258C90.0078 303.602 91.4609 304.094 92.7578 304.734L91.1641 308.109C90.0703 307.609 88.8672 307.18 87.5547 306.82C86.2578 306.445 84.8516 306.258 83.3359 306.258ZM113.57 306.258C111.68 306.258 109.977 306.586 108.461 307.242C106.961 307.883 105.68 308.82 104.617 310.055C103.57 311.273 102.766 312.75 102.203 314.484C101.641 316.219 101.359 318.172 101.359 320.344C101.359 323.219 101.805 325.719 102.695 327.844C103.602 329.953 104.945 331.586 106.727 332.742C108.523 333.898 110.766 334.477 113.453 334.477C114.984 334.477 116.422 334.352 117.766 334.102C119.125 333.836 120.445 333.508 121.727 333.117V336.586C120.477 337.055 119.164 337.398 117.789 337.617C116.414 337.852 114.781 337.969 112.891 337.969C109.406 337.969 106.492 337.25 104.148 335.812C101.82 334.359 100.07 332.312 98.8984 329.672C97.7422 327.031 97.1641 323.914 97.1641 320.32C97.1641 317.727 97.5234 315.359 98.2422 313.219C98.9766 311.062 100.039 309.203 101.43 307.641C102.836 306.078 104.555 304.875 106.586 304.031C108.633 303.172 110.977 302.742 113.617 302.742C115.352 302.742 117.023 302.914 118.633 303.258C120.242 303.602 121.695 304.094 122.992 304.734L121.398 308.109C120.305 307.609 119.102 307.18 117.789 306.82C116.492 306.445 115.086 306.258 113.57 306.258ZM149.477 320.32C149.477 323.102 149.266 325.586 148.844 327.773C148.422 329.961 147.758 331.812 146.852 333.328C145.945 334.844 144.773 336 143.336 336.797C141.898 337.578 140.172 337.969 138.156 337.969C135.609 337.969 133.5 337.273 131.828 335.883C130.172 334.492 128.93 332.484 128.102 329.859C127.289 327.219 126.883 324.039 126.883 320.32C126.883 316.664 127.25 313.523 127.984 310.898C128.734 308.258 129.938 306.234 131.594 304.828C133.25 303.406 135.438 302.695 138.156 302.695C140.734 302.695 142.859 303.398 144.531 304.805C146.203 306.195 147.445 308.211 148.258 310.852C149.07 313.477 149.477 316.633 149.477 320.32ZM130.797 320.32C130.797 323.508 131.039 326.164 131.523 328.289C132.008 330.414 132.789 332.008 133.867 333.07C134.961 334.117 136.391 334.641 138.156 334.641C139.922 334.641 141.344 334.117 142.422 333.07C143.516 332.023 144.305 330.438 144.789 328.312C145.289 326.188 145.539 323.523 145.539 320.32C145.539 317.18 145.297 314.555 144.812 312.445C144.328 310.32 143.547 308.727 142.469 307.664C141.391 306.586 139.953 306.047 138.156 306.047C136.359 306.047 134.922 306.586 133.844 307.664C132.766 308.727 131.984 310.32 131.5 312.445C131.031 314.555 130.797 317.18 130.797 320.32ZM161.875 327.281V324.211H190V327.281H161.875ZM161.875 316.242V313.172H190V316.242H161.875ZM226.727 317.25C229.352 315.781 231.43 314.5 232.961 313.406H224.078V317.25H226.727ZM213.625 330.539H237.719V326.742H213.625V330.539ZM213.625 333.188V337.125H237.719V333.188H213.625ZM220.188 306.914H224.078V310.523H236.758C238.227 309.336 239.617 308.055 240.93 306.68L243.625 308.648C240.875 311.523 237.273 314.391 232.82 317.25H245.195V320.367H227.5C225.516 321.43 223.062 322.609 220.141 323.906H241.469V341.578H237.719V339.938H213.625V341.578H209.875V327.984C207.891 328.688 205.586 329.414 202.961 330.164L201.859 326.977C208.672 325.117 214.898 322.914 220.539 320.367H202.68V317.25H220.188V313.406H206.078V310.523H220.188V306.914ZM245.195 301.828V304.945H234.344V308.133H230.664V304.945H217.211V308.133H213.531V304.945H202.68V301.828H213.531V298.242H217.211V301.828H230.664V298.242H234.344V301.828H245.195ZM260.172 311.016V341.672H256.328V317.578C254.672 320.484 253.047 322.852 251.453 324.68L249.531 321.281C254.781 314.984 258.406 307.43 260.406 298.617L264.016 299.438C263.219 303.375 261.938 307.234 260.172 311.016ZM294.016 306.164H279.039V314.836H292.586V318.07H279.039V327.094H292.586V330.398H279.039V341.672H275.148V306.164H272.312C270.297 310.992 267.883 315.422 265.07 319.453L262.094 317.25C266.156 311.453 269.227 305.086 271.305 298.148L274.867 298.852C274.445 300.352 274.016 301.711 273.578 302.93H294.016V306.164ZM327.953 327.047H318.602V330.539H327.953V327.047ZM318.602 321.047V324.445H327.953V321.047H318.602ZM312.883 312.867V309.797H321.086C321.945 308.172 322.664 306.492 323.242 304.758H318.695C317.57 306.352 316.445 307.711 315.32 308.836L312.508 306.961C315.195 304.117 317.289 300.969 318.789 297.516L322.094 298.43C321.641 299.586 321.148 300.656 320.617 301.641H340.328V304.758H326.992C326.477 306.383 325.82 308.062 325.023 309.797H341.641V312.867H323.383C322.492 314.398 321.297 316.094 319.797 317.953H328.422C329.25 316.641 330.008 315.141 330.695 313.453L334 314.414C333.453 315.789 332.906 316.969 332.359 317.953H340.961V321.047H331.609V324.445H340.328V327.047H331.609V330.539H340.328V333.141H331.609V336.68H342.25V339.562H318.602V341.672H314.805V323.25C313.148 324.75 311.547 326.078 310 327.234L308.125 324.258C308.312 324.133 308.586 323.938 308.945 323.672C309.305 323.391 309.562 323.188 309.719 323.062C309.016 321.328 308.055 319.039 306.836 316.195V341.672H303.273V319.875C302.086 324.094 300.57 327.906 298.727 331.312L296.617 327.984C299.555 322.453 301.648 316.555 302.898 310.289H297.625V307.125H303.273V298.758H306.836V307.125H311.688V310.289H307.305C309.961 316.117 311.578 319.703 312.156 321.047C314.938 318.578 317.32 315.852 319.305 312.867H312.883ZM318.602 336.68H327.953V333.141H318.602V336.68ZM350.172 303.75H385.844V304.523C385.844 315.117 383.352 323.164 378.367 328.664C373.398 334.164 365.664 337.477 355.164 338.602L354.555 335.203C363.68 334.172 370.43 331.445 374.805 327.023C379.18 322.586 381.562 316 381.953 307.266H350.172V303.75ZM426.508 301.828H430.422V314.133C430.422 322.195 428.602 328.227 424.961 332.227C421.32 336.227 415.367 338.781 407.102 339.891L406.281 336.398C413.766 335.273 419.008 333.07 422.008 329.789C425.008 326.508 426.508 321.32 426.508 314.227V301.828ZM401.453 322.945V301.828H405.273V322.945H401.453ZM444.391 322.055V318.398H483.484V322.055H444.391ZM516.555 335.25C520.398 334.828 523.391 333.305 525.531 330.68C527.672 328.055 528.742 324.57 528.742 320.227C528.742 316.164 527.398 312.805 524.711 310.148C522.023 307.492 518.578 306.094 514.375 305.953C513.703 312.156 512.859 317.406 511.844 321.703C510.844 326 509.734 329.242 508.516 331.43C507.312 333.617 506.102 335.156 504.883 336.047C503.664 336.922 502.336 337.359 500.898 337.359C498.602 337.359 496.484 335.969 494.547 333.188C492.609 330.406 491.641 326.992 491.641 322.945C491.641 316.93 493.695 312.039 497.805 308.273C501.914 304.492 507.266 302.602 513.859 302.602C519.172 302.602 523.562 304.258 527.031 307.57C530.5 310.883 532.234 315.102 532.234 320.227C532.234 325.539 530.891 329.836 528.203 333.117C525.516 336.398 521.867 338.227 517.258 338.602L516.555 335.25ZM510.742 306.164C506.008 306.742 502.219 308.555 499.375 311.602C496.547 314.633 495.133 318.414 495.133 322.945C495.133 325.961 495.773 328.523 497.055 330.633C498.336 332.742 499.617 333.797 500.898 333.797C501.477 333.797 502.078 333.586 502.703 333.164C503.328 332.727 504.023 331.883 504.789 330.633C505.555 329.383 506.273 327.781 506.945 325.828C507.617 323.875 508.297 321.211 508.984 317.836C509.672 314.445 510.258 310.555 510.742 306.164ZM553.469 313.031V318.398H566.406V313.031H553.469ZM553.469 310.055H566.406V305.203H553.469V310.055ZM556.328 327.75H539.289V324.539H558.016V321.422H553.469H549.766V302.133H556.727C557.242 300.539 557.656 299.078 557.969 297.75L561.766 298.055C561.344 299.883 560.977 301.242 560.664 302.133H570.109V321.422H561.859V324.539H580.586V327.75H563.547C567.797 331.438 573.938 334.781 581.969 337.781L580.633 340.898C572.508 337.664 566.25 334.102 561.859 330.211V341.672H558.016V330.211C553.625 334.117 547.367 337.68 539.242 340.898L537.906 337.781C545.938 334.781 552.078 331.438 556.328 327.75ZM546.109 310.148C544 308.133 541.312 305.922 538.047 303.516L540.297 300.82C543.562 303.227 546.266 305.453 548.406 307.5L546.109 310.148ZM537.719 319.125C541.438 317.422 544.688 315.578 547.469 313.594L549.133 316.477C546.258 318.586 542.945 320.492 539.195 322.195L537.719 319.125ZM573.719 310.102L571.398 307.5C574.211 305.422 576.906 303.211 579.484 300.867L581.828 303.422C579.688 305.469 576.984 307.695 573.719 310.102ZM570.648 316.523L572.312 313.547C576.281 315.344 579.594 317.219 582.25 319.172L580.422 322.148C577.547 320.055 574.289 318.18 570.648 316.523ZM591.039 339.797V341.906H587.688V327.562H600.977V339.797H591.039ZM591.039 336.773H597.766V330.633H591.039V336.773ZM611.008 316.242V305.344H602.57V302.32H608.898C608.133 300.852 607.352 299.461 606.555 298.148L609.906 297.328C611 299.125 611.945 300.789 612.742 302.32H619.07C620.102 300.617 620.984 298.953 621.719 297.328L625.117 298.055C624.477 299.43 623.742 300.852 622.914 302.32H629.055V305.344H620.664V316.242H629.922V319.172H601.703V316.242H611.008ZM607.938 336.867H623.688V332.32H607.938V336.867ZM607.938 339.656V341.719H604.234V322.289H627.367V341.719H623.688V339.656H607.938ZM587.688 303.422V300.305H600.883V303.422H587.688ZM586.328 310.242V307.031H602.031V310.242H586.328ZM588.016 317.016V313.969H600.742V317.016H588.016ZM588.016 323.812V320.742H600.742V323.812H588.016ZM617.547 305.344H614.078V316.242H617.547V305.344ZM602.992 307.359L606.016 306.164C607.328 308.57 608.578 311.289 609.766 314.32L606.742 315.422C605.68 312.641 604.43 309.953 602.992 307.359ZM621.672 314.133C623.266 311.758 624.531 309.102 625.469 306.164L628.492 307.219C627.57 310.234 626.289 312.969 624.648 315.422L621.672 314.133ZM623.688 329.672V325.125H607.938V329.672H623.688ZM638.992 331.172V335.719H652.328V331.172H638.992ZM652.328 320.367V311.672H649.609V319.031C649.609 319.703 649.664 320.094 649.773 320.203C649.883 320.312 650.227 320.367 650.805 320.367H652.328ZM638.992 325.5V328.242H652.328V323.203H649.352C648.227 323.203 647.523 323.016 647.242 322.641C646.961 322.25 646.82 321.359 646.82 319.969V311.672H644.359C644.359 316.031 644.125 319.086 643.656 320.836C643.203 322.57 642.125 324.492 640.422 326.602L638.992 325.5ZM638.992 323.297C640.055 321.953 640.742 320.555 641.055 319.102C641.383 317.633 641.547 315.156 641.547 311.672H638.992V323.297ZM641.008 303.516H634.586V300.398H656.031V303.516H650.078V308.602H655.609V341.203H652.328V338.789H638.992V341.203H635.547V308.602H641.008V303.516ZM644.359 303.516V308.602H646.82V303.516H644.359ZM666.977 340.758C665.32 340.758 663.734 340.695 662.219 340.57C660.453 340.445 659.391 340.055 659.031 339.398C658.672 338.742 658.492 337.023 658.492 334.242V315.422H672.648V303.656H657.953V300.398H676.328V321.75H672.648V318.68H662.031V333.516C662.031 335.312 662.102 336.375 662.242 336.703C662.398 337.016 662.922 337.203 663.812 337.266C665.094 337.359 666.258 337.406 667.305 337.406C668.555 337.406 669.852 337.359 671.195 337.266C672.508 337.172 673.297 336.711 673.562 335.883C673.844 335.039 674.094 332.141 674.312 327.188L677.922 327.516C677.797 329.75 677.695 331.469 677.617 332.672C677.539 333.875 677.398 335.031 677.195 336.141C677.008 337.234 676.82 338 676.633 338.438C676.461 338.875 676.148 339.281 675.695 339.656C675.258 340.047 674.805 340.281 674.336 340.359C673.883 340.438 673.219 340.508 672.344 340.57C670.781 340.695 668.992 340.758 666.977 340.758ZM694.234 319.875V339.281H690.648V322.055C688.352 325.07 685.898 327.594 683.289 329.625L681.32 326.461C687.945 321.148 692.75 314.586 695.734 306.773H682.914V303.516H696.883C697.492 301.5 698 299.547 698.406 297.656L702.156 297.984C701.766 299.781 701.305 301.625 700.773 303.516H724.961V306.773H699.719C698.438 310.195 696.805 313.508 694.82 316.711H704.57V309.891H708.344V316.711H723.133V333.938C723.133 336.078 722.852 337.391 722.289 337.875C721.742 338.359 720.234 338.602 717.766 338.602C716.672 338.602 714.828 338.523 712.234 338.367L712.188 335.109C714.484 335.266 716.164 335.344 717.227 335.344C718.352 335.344 719 335.289 719.172 335.18C719.359 335.07 719.453 334.641 719.453 333.891V319.875H708.344V342.164H704.57V319.875H694.234ZM729.766 328.477C730.828 327.195 732.031 325.688 733.375 323.953C734.734 322.203 736.055 320.5 737.336 318.844C738.617 317.172 739.391 316.172 739.656 315.844C742.281 312.266 744.031 310.047 744.906 309.188C745.781 308.312 746.812 307.875 748 307.875C749.281 307.875 750.406 308.266 751.375 309.047C752.359 309.812 754.352 311.812 757.352 315.047C762.695 320.844 768.266 326.648 774.062 332.461L771.367 335.25C765.805 329.656 760.227 323.812 754.633 317.719C752.398 315.281 750.867 313.688 750.039 312.938C749.227 312.188 748.547 311.812 748 311.812C747.609 311.812 747.086 312.203 746.43 312.984C745.789 313.75 744.797 315.023 743.453 316.805C743.203 317.164 743.008 317.438 742.867 317.625C738.867 322.938 735.477 327.305 732.695 330.727L729.766 328.477ZM767.523 309.516C768.273 308.781 768.648 307.906 768.648 306.891C768.648 305.859 768.273 304.969 767.523 304.219C766.789 303.469 765.906 303.094 764.875 303.094C763.859 303.094 762.984 303.469 762.25 304.219C761.516 304.969 761.148 305.859 761.148 306.891C761.148 307.906 761.516 308.781 762.25 309.516C762.984 310.25 763.859 310.617 764.875 310.617C765.906 310.617 766.789 310.25 767.523 309.516ZM769.586 302.18C770.883 303.492 771.531 305.062 771.531 306.891C771.531 308.703 770.883 310.258 769.586 311.555C768.289 312.852 766.727 313.5 764.898 313.5C763.07 313.5 761.508 312.852 760.211 311.555C758.914 310.258 758.266 308.703 758.266 306.891C758.266 305.062 758.914 303.492 760.211 302.18C761.508 300.867 763.07 300.211 764.898 300.211C766.727 300.211 768.289 300.867 769.586 302.18ZM780.391 322.055V318.398H819.484V322.055H780.391ZM831.578 335.906C841.75 335.016 849.305 332.484 854.242 328.312C859.195 324.141 862.484 317.477 864.109 308.32L867.625 308.883C865.859 318.805 862.211 326.148 856.68 330.914C851.164 335.664 842.984 338.5 832.141 339.422L831.578 335.906ZM857.008 299.438L859.656 298.055C860.969 300.195 862.312 302.578 863.688 305.203L861.039 306.539C859.883 304.336 858.539 301.969 857.008 299.438ZM863.5 298.664L866.172 297.234C867.453 299.375 868.828 301.82 870.297 304.57L867.625 305.906C866.219 303.25 864.844 300.836 863.5 298.664ZM829.656 317.25L830.312 313.828C835.906 314.781 841.109 315.758 845.922 316.758L845.242 320.227C837.633 318.727 832.438 317.734 829.656 317.25ZM831.719 305.438L832.375 301.969C837.938 302.859 843.383 303.852 848.711 304.945L848.031 308.367C843.531 307.445 838.094 306.469 831.719 305.438Z" fill="white"/>
</g>
<defs>
<clipPath id="clip0_1272_5">
<rect width="1024" height="512" fill="white"/>
</clipPath>
</defs>
</svg>
