<?xml version="1.0" encoding="UTF-8" standalone="no"?>

<svg
  width="313.23315mm"
  height="216.02286mm"
  viewBox="0 0 313.23315 216.02286"
  version="1.1"
  id="svg5"
  xml:space="preserve"
  xmlns="http://www.w3.org/2000/svg"
  xmlns:svg="http://www.w3.org/2000/svg"
  fill="#1747e5">
  <defs id="defs2" />
     <g id="layer1" transform="translate(-54.079375,-5.2758072)">
     <path
       id="path1412"
       clip-path="none"
       style="stroke-width:0.0208149"
       d="M 210.53184 5.2758072 C 210.53184 5.2758072 112.62538 5.2758511 88.395627 11.864552 C 74.910305 15.428904 64.385012 25.798169 60.547714 39.191566 C 54.079132 62.954065 54.079375 113.07129 54.079375 113.07129 C 54.079375 113.07129 54.079132 163.51253 60.547714 187.49104 C 64.385012 200.56041 74.910305 211.14566 88.395627 214.81806 C 112.62538 221.29874 210.53184 221.2988 210.53184 221.2988 C 210.53184 221.2988 308.65693 221.29874 332.9962 214.81806 C 346.70068 211.14566 357.00717 200.56041 360.62449 187.49104 C 367.31255 163.51253 367.31245 113.07129 367.31245 113.07129 C 367.31245 113.07129 367.31255 62.954065 360.62449 39.191566 C 357.00717 25.798169 346.70068 15.428904 332.9962 11.864552 C 308.65693 5.2758511 210.53184 5.2758072 210.53184 5.2758072 z M 178.29247 67.382611 L 259.30096 113.2873 L 178.29247 159.19199 L 178.29247 67.382611 z " />
       </g>
</svg>