<svg width="1024" height="512" viewBox="0 0 1024 512" fill="#E63A69" xmlns="http://www.w3.org/2000/svg">
<path d="M81.28 264.5H73.792V199.028H81.28V264.5ZM119.488 264.5H110.08L83.008 231.572V231.284L109.024 199.028H118.336L92.224 231.188V231.38L119.488 264.5ZM183.959 231.764C183.959 254.228 169.655 266.228 153.047 266.228C136.919 266.228 122.423 254.324 122.423 231.764C122.423 209.3 136.727 197.3 153.239 197.3C169.463 197.3 183.959 209.204 183.959 231.764ZM175.991 231.764C175.991 213.908 165.719 204.404 153.239 204.404C140.855 204.404 130.391 213.716 130.391 231.764C130.391 249.62 140.663 259.124 153.047 259.124C165.527 259.124 175.991 249.812 175.991 231.764ZM234.002 248.18C234.002 258.26 226.61 266.228 213.362 266.228C206.45 266.228 199.73 264.308 195.218 260.084V251.06H195.506C200.114 256.532 206.546 259.412 213.17 259.412C221.426 259.412 226.418 255.284 226.418 248.756C226.418 231.86 195.506 237.908 195.506 214.964C195.506 205.94 201.266 197.3 214.994 197.3C221.234 197.3 227.378 199.22 231.698 203.444V212.468H231.41C226.994 206.9 221.042 204.116 215.09 204.116C207.218 204.116 203.186 208.436 203.186 214.388C203.186 231.092 234.002 224.852 234.002 248.18ZM285.651 264.5H250.323V199.028H283.155V206.132H257.811V227.252H282.195V234.356H257.811V257.396H285.651V264.5ZM355.061 264.5H349.301L309.845 213.812H309.749V264.5H302.261V202.868L299.765 199.508V199.028H308.405L347.381 249.812H347.477V199.028H355.061V264.5ZM424.806 266.228C408.486 266.228 395.142 254.324 395.142 231.764C395.142 209.588 409.062 197.3 426.534 197.3C435.174 197.3 442.47 199.892 447.654 204.404V213.812H447.27C442.086 207.668 434.982 204.5 426.822 204.5C413.286 204.5 403.109 214.196 403.109 231.956C403.109 250.292 412.71 259.22 424.806 259.22C435.654 259.22 444.677 253.364 444.966 237.332H422.31V236.948L426.054 230.132H452.742C452.838 230.804 452.838 233.972 452.838 234.548C452.838 257.588 439.59 266.228 424.806 266.228ZM473.499 264.5H466.395V216.02H473.115V220.244H473.211C476.859 216.788 480.891 214.292 485.883 214.292C487.707 214.292 489.435 214.58 490.971 215.156V222.932H490.683C488.859 221.684 486.843 221.108 484.731 221.108C480.411 221.108 476.763 223.508 473.499 226.868V264.5ZM534.057 264.5H527.145V260.564H526.953C523.209 264.02 518.313 266.228 512.265 266.228C502.953 266.228 495.945 260.468 495.945 251.156C495.945 241.652 502.473 235.508 513.897 235.508C518.889 235.508 523.305 236.66 526.953 238.58V233.492C526.953 224.372 521.001 220.724 513.705 220.724C507.657 220.724 502.377 223.796 499.209 227.54H498.921V219.956C503.145 216.308 508.905 214.292 514.953 214.292C525.801 214.292 534.057 220.148 534.057 233.012V264.5ZM526.953 254.228V244.724C523.881 242.804 519.465 241.46 515.145 241.46C507.561 241.46 503.145 244.724 503.145 250.676C503.145 255.86 506.889 259.988 514.473 259.988C519.273 259.988 523.689 257.876 526.953 254.228ZM590.322 264.5H583.314V260.468H583.218C579.186 264.02 574.194 266.228 567.954 266.228C555.378 266.228 545.778 256.82 545.778 240.308C545.778 223.796 555.762 214.292 569.202 214.292C574.866 214.292 579.666 216.02 583.122 218.42H583.218V192.5H590.322V264.5ZM583.218 253.556V225.716C580.146 222.74 575.634 220.916 570.738 220.916C560.178 220.916 553.458 227.924 553.458 240.308C553.458 252.404 559.986 259.7 569.97 259.7C575.346 259.7 579.954 257.396 583.218 253.556ZM643.87 260.852C639.646 264.404 633.502 266.228 626.974 266.228C613.15 266.228 602.59 257.012 602.59 240.308C602.59 223.796 611.998 214.292 624.862 214.292C636.766 214.292 646.078 223.22 646.078 236.66C646.078 237.908 645.982 239.732 645.982 241.076H610.078C610.174 253.268 617.566 259.796 627.934 259.796C634.846 259.796 640.222 257.012 643.486 252.884H643.87V260.852ZM624.862 220.724C616.702 220.724 611.23 226.1 610.27 234.932H638.686C638.494 226.676 632.83 220.724 624.862 220.724ZM730.037 249.716V259.316C725.237 263.636 717.941 266.228 710.741 266.228C694.613 266.228 681.173 254.132 681.173 231.764C681.173 209.78 693.845 197.3 710.645 197.3C717.749 197.3 724.853 199.7 729.653 204.212V213.812H729.269C725.045 207.86 718.133 204.5 711.029 204.5C697.781 204.5 689.141 214.964 689.141 231.764C689.141 248.564 697.973 259.028 711.413 259.028C718.997 259.028 725.621 255.284 729.653 249.716H730.037ZM776.589 264.5H769.677V260.564H769.485C765.741 264.02 760.845 266.228 754.797 266.228C745.484 266.228 738.477 260.468 738.477 251.156C738.477 241.652 745.005 235.508 756.429 235.508C761.421 235.508 765.837 236.66 769.485 238.58V233.492C769.485 224.372 763.533 220.724 756.237 220.724C750.189 220.724 744.909 223.796 741.741 227.54H741.453V219.956C745.677 216.308 751.437 214.292 757.484 214.292C768.333 214.292 776.589 220.148 776.589 233.012V264.5ZM769.485 254.228V244.724C766.413 242.804 761.997 241.46 757.677 241.46C750.093 241.46 745.677 244.724 745.677 250.676C745.677 255.86 749.421 259.988 757.005 259.988C761.805 259.988 766.221 257.876 769.485 254.228ZM800.021 264.5H792.917V192.5H800.021V264.5ZM849.269 252.692V261.14C845.717 264.404 840.341 266.228 834.581 266.228C822.293 266.228 812.309 257.204 812.309 240.308C812.309 223.796 821.813 214.292 834.677 214.292C840.245 214.292 845.333 215.924 848.981 219.284V227.828H848.693C845.909 223.796 840.917 220.724 835.157 220.724C825.749 220.724 819.797 228.404 819.797 240.308C819.797 252.212 825.941 259.796 835.541 259.796C841.493 259.796 846.101 256.916 848.981 252.692H849.269ZM870.175 264.5H862.303V255.476H870.175V264.5Z" fill="white"/>
<path d="M77.4766 317.344C81.5391 312.031 84.4688 305.695 86.2656 298.336L89.5938 298.945C89.2812 300.508 88.8594 302.094 88.3281 303.703H108.883V306.961C107.289 311.883 104.969 316.219 101.922 319.969L98.9453 318.258C101.695 314.961 103.82 311.195 105.32 306.961H87.1797C85.3828 311.602 83.0938 315.719 80.3125 319.312L77.4766 317.344ZM75.6719 337.734C80.2812 335.969 84 333.148 86.8281 329.273C89.6562 325.383 91.0703 321.211 91.0703 316.758V309.891H94.6797V316.758C94.6797 321.242 96.0938 325.422 98.9219 329.297C101.75 333.172 105.484 335.984 110.125 337.734L108.789 340.898C105.273 339.555 102.102 337.461 99.2734 334.617C96.4609 331.773 94.3516 328.609 92.9453 325.125C91.5078 328.641 89.3516 331.82 86.4766 334.664C83.6172 337.508 80.4453 339.586 76.9609 340.898L75.6719 337.734ZM76.1875 311.344C73.625 308.844 70.6172 306.234 67.1641 303.516L69.4609 301.078C73.0391 303.828 76.0703 306.414 78.5547 308.836L76.1875 311.344ZM65.8281 333.328C70.4375 329.75 74.1641 325.953 77.0078 321.938L79.7031 324.023C76.7969 328.148 72.9219 332.109 68.0781 335.906L65.8281 333.328ZM140.617 335.25C144.461 334.828 147.453 333.305 149.594 330.68C151.734 328.055 152.805 324.57 152.805 320.227C152.805 316.164 151.461 312.805 148.773 310.148C146.086 307.492 142.641 306.094 138.438 305.953C137.766 312.156 136.922 317.406 135.906 321.703C134.906 326 133.797 329.242 132.578 331.43C131.375 333.617 130.164 335.156 128.945 336.047C127.727 336.922 126.398 337.359 124.961 337.359C122.664 337.359 120.547 335.969 118.609 333.188C116.672 330.406 115.703 326.992 115.703 322.945C115.703 316.93 117.758 312.039 121.867 308.273C125.977 304.492 131.328 302.602 137.922 302.602C143.234 302.602 147.625 304.258 151.094 307.57C154.562 310.883 156.297 315.102 156.297 320.227C156.297 325.539 154.953 329.836 152.266 333.117C149.578 336.398 145.93 338.227 141.32 338.602L140.617 335.25ZM134.805 306.164C130.07 306.742 126.281 308.555 123.438 311.602C120.609 314.633 119.195 318.414 119.195 322.945C119.195 325.961 119.836 328.523 121.117 330.633C122.398 332.742 123.68 333.797 124.961 333.797C125.539 333.797 126.141 333.586 126.766 333.164C127.391 332.727 128.086 331.883 128.852 330.633C129.617 329.383 130.336 327.781 131.008 325.828C131.68 323.875 132.359 321.211 133.047 317.836C133.734 314.445 134.32 310.555 134.805 306.164ZM185.922 297.984V302.93H203.828V313.359H200.219V306.07H167.781V313.359H164.172V302.93H182.078V297.984H185.922ZM205.211 337.359L205.023 340.617H201.906C192.984 340.617 186.242 339.867 181.68 338.367C177.117 336.867 173.477 334.133 170.758 330.164C169.289 334.227 167.523 337.953 165.461 341.344L162.297 339.938C166.016 333.766 168.609 326.953 170.078 319.5L173.547 320.227C173.234 321.93 172.734 323.961 172.047 326.32C173.328 328.586 174.797 330.43 176.453 331.852C178.125 333.273 180.195 334.406 182.664 335.25V313.969H169.844V310.852H198.156V313.969H186.484V322.148H200.945V325.266H186.484V336.258C190.359 336.992 195.562 337.359 202.094 337.359H205.211ZM238.328 314.461V318.867C238.328 319.93 238.297 321.391 238.234 323.25H248.805V314.461H238.328ZM238.328 311.344H248.805V303.281H238.328V311.344ZM217.07 322.055V327.328H226.68V322.055H217.07ZM217.07 314.133V319.266H226.68V314.133H217.07ZM217.07 311.344H226.68V306.398H217.07V311.344ZM246.742 337.734C247.773 337.734 248.375 337.625 248.547 337.406C248.719 337.188 248.805 336.391 248.805 335.016V326.367H238.047C237.562 332.32 236.172 337.344 233.875 341.438L231.273 339.375L229.562 340.477C228.031 337.789 226.219 335.195 224.125 332.695L226.727 330.773C228.648 333.039 230.297 335.328 231.672 337.641C232.859 335.172 233.688 332.438 234.156 329.438C234.641 326.422 234.883 322.438 234.883 317.484V300.07H252.391V334.945C252.391 337.695 252.164 339.391 251.711 340.031C251.273 340.688 250.109 341.016 248.219 341.016C247.266 341.016 245.156 340.93 241.891 340.758L241.797 337.5C244.453 337.656 246.102 337.734 246.742 337.734ZM232.914 330.398H210.109V327.328H213.578V306.398H210.344V303.281H213.578V299.016H217.07V303.281H226.68V299.016H230.031V303.281H233.008V306.398H230.031V327.328H232.914V330.398ZM217.609 330.867L220.375 332.555C218.641 335.727 216.133 338.766 212.852 341.672L210.391 339.469C213.5 336.75 215.906 333.883 217.609 330.867ZM262.867 339.797V341.906H259.516V327.562H272.898V339.797H262.867ZM262.867 336.773H269.688V330.633H262.867V336.773ZM289.75 298.242H293.43C293.43 299.945 293.469 302.266 293.547 305.203H297.625C296.406 303.094 295.312 301.328 294.344 299.906L297.133 298.477C298.508 300.461 299.867 302.703 301.211 305.203H302.219V308.367H293.641C293.859 314.352 294.289 319.617 294.93 324.164C295.57 328.695 296.195 331.898 296.805 333.773C297.414 335.648 297.922 336.602 298.328 336.633C299.062 336.633 299.641 333.734 300.062 327.938L302.945 329.062C302.633 333.641 302.102 336.773 301.352 338.461C300.617 340.164 299.656 341.016 298.469 341.016C296.609 341.016 294.961 339.125 293.523 335.344C292.086 331.562 291.047 325.562 290.406 317.344H283.609V333.094C286.484 332.234 288.93 331.32 290.945 330.352L291.625 333.609C287.562 335.531 282.055 337.18 275.102 338.555L274.586 335.344C276.18 335.031 277.984 334.617 280 334.102V317.344H275.055V314.227H290.172C290.047 311.852 289.969 309.898 289.938 308.367H274.727V305.203H289.844C289.781 302.266 289.75 299.945 289.75 298.242ZM259.516 303.422V300.305H272.805V303.422H259.516ZM258.297 310.242V307.031H273.531V310.242H258.297ZM259.844 317.016V313.969H272.664V317.016H259.844ZM259.844 323.812V320.742H272.664V323.812H259.844ZM316.094 317.344H311.289V321.891H316.094V317.344ZM316.094 310.242H311.289V314.555H316.094V310.242ZM316.094 307.406V303.188H311.289V307.406H316.094ZM331.398 307.594H343.352C341.336 305.703 339.367 303.516 337.445 301.031C335.492 303.516 333.477 305.703 331.398 307.594ZM335.148 327.562H329.922H326.664V314.086H335.594V310.523H329.828V308.977C328.672 309.961 327.25 311.07 325.562 312.305L324.438 310.242H319.609V314.555H324.648V317.344H319.609V321.891H324.977V324.633C324.977 331.289 324.703 335.758 324.156 338.039C330.172 335.758 333.836 332.266 335.148 327.562ZM335.594 324.773V324.305V316.945H329.922V324.773H335.594ZM339.18 324.398V324.773H344.898V316.945H339.18V324.305V324.398ZM305.43 338.977C306.414 335.039 307.109 330.898 307.516 326.555L310.094 326.883C309.781 331.164 309.109 335.422 308.078 339.656L305.43 338.977ZM311.688 338.414C311.531 334.727 311.273 330.984 310.914 327.188L313.258 326.789C313.742 331.211 314.047 334.992 314.172 338.133L311.688 338.414ZM315.812 336.211C315.531 333.367 315.102 330.273 314.523 326.93L316.82 326.508C317.461 330.086 317.922 333.188 318.203 335.812L315.812 336.211ZM348.297 314.086V327.562H339.625C340.844 332.328 344.539 335.867 350.711 338.18L349.445 341.297C346.758 340.234 344.383 338.773 342.32 336.914C340.258 335.039 338.688 332.961 337.609 330.68C336.453 332.945 334.781 335.016 332.594 336.891C330.422 338.766 327.93 340.234 325.117 341.297L324.016 338.648C323.734 339.633 323.367 340.305 322.914 340.664C322.461 341.023 321.867 341.203 321.133 341.203C320.07 341.203 318.312 341.055 315.859 340.758L315.812 337.594C317.438 337.844 318.938 337.969 320.312 337.969C320.734 337.969 321.047 337.68 321.25 337.102C321.469 336.508 321.625 335.328 321.719 333.562L319.656 333.938C319.375 332.203 318.844 329.773 318.062 326.648L320.312 326.227C320.891 328.461 321.375 330.586 321.766 332.602C321.828 330.102 321.859 327.539 321.859 324.914H307.609V300.164H325.516V303.188H319.609V307.406H324.648V308.836C328.805 305.727 332.531 302.211 335.828 298.289H339.039C342.43 302.352 346.336 306 350.758 309.234L349.164 312.305C347.758 311.32 346.383 310.25 345.039 309.094V310.523H339.18V314.086H348.297ZM384.016 314.555L386.852 313.031C388.414 315.625 389.898 318.242 391.305 320.883L388.422 322.336C386.859 319.383 385.391 316.789 384.016 314.555ZM390.742 312.727L393.625 311.156C395.516 314.266 397.047 316.953 398.219 319.219L395.289 320.648C393.82 317.93 392.305 315.289 390.742 312.727ZM355.609 307.547V304.195C368.312 304.195 381.25 303.875 394.422 303.234L394.633 306.586C386.539 307.32 380.344 309.273 376.047 312.445C371.766 315.617 369.625 319.555 369.625 324.258C369.625 328.102 370.852 331.125 373.305 333.328C375.773 335.531 379.07 336.633 383.195 336.633C385.086 336.633 387.086 336.461 389.195 336.117L389.641 339.469C387.5 339.859 385.305 340.055 383.055 340.055C377.742 340.055 373.516 338.672 370.375 335.906C367.25 333.125 365.688 329.352 365.688 324.586C365.688 320.68 366.922 317.219 369.391 314.203C371.875 311.172 375.406 308.797 379.984 307.078L379.938 306.961C370.344 307.352 362.234 307.547 355.609 307.547ZM414.391 331.125V308.461H418.328V328.336C422.719 324.945 426.477 321.055 429.602 316.664C432.742 312.258 435.469 307.062 437.781 301.078L441.086 302.32C438.492 309.07 435.367 314.898 431.711 319.805C428.07 324.695 423.609 329.008 418.328 332.742V333.516C418.328 335.281 418.438 336.352 418.656 336.727C418.891 337.086 419.586 337.312 420.742 337.406C421.898 337.531 423.305 337.594 424.961 337.594C426.523 337.594 427.93 337.531 429.18 337.406C429.633 337.375 429.984 337.344 430.234 337.312C430.5 337.281 430.781 337.219 431.078 337.125C431.391 337.016 431.617 336.922 431.758 336.844C431.898 336.766 432.07 336.602 432.273 336.352C432.492 336.086 432.633 335.859 432.695 335.672C432.758 335.484 432.852 335.141 432.977 334.641C433.102 334.141 433.188 333.688 433.234 333.281C433.281 332.859 433.336 332.234 433.398 331.406C433.477 330.578 433.539 329.812 433.586 329.109C433.633 328.406 433.688 327.445 433.75 326.227L437.43 326.695C437.305 328.961 437.195 330.742 437.102 332.039C437.008 333.336 436.844 334.555 436.609 335.695C436.391 336.836 436.164 337.648 435.93 338.133C435.695 338.633 435.312 339.094 434.781 339.516C434.25 339.938 433.703 340.203 433.141 340.312C432.578 340.422 431.789 340.523 430.773 340.617C428.852 340.773 426.961 340.852 425.102 340.852C422.867 340.852 420.992 340.789 419.477 340.664C417.398 340.508 416.039 340.117 415.398 339.492C414.758 338.867 414.422 337.469 414.391 335.297C411.281 337.219 407.891 339.008 404.219 340.664L402.25 337.594C406.703 335.656 410.75 333.5 414.391 331.125ZM412.961 302.133L413.969 298.852C419.922 299.773 426 301.523 432.203 304.102L430.914 307.359C424.992 304.906 419.008 303.164 412.961 302.133ZM401.383 332.742C403.523 327.336 405.031 320.812 405.906 313.172L409.352 313.594C408.586 321.406 407.07 328.125 404.805 333.75L401.383 332.742ZM437.688 313.875L441.18 312.914C443.555 320.148 445.383 327.383 446.664 334.617L443.102 335.391C441.664 327.219 439.859 320.047 437.688 313.875ZM464.406 316.852V309.75H457.352V316.852H464.406ZM475.938 316.852V309.75H468.062V316.852H475.938ZM479.594 316.852H486.648V309.75H479.594V316.852ZM468.062 303.516V306.914H475.938V303.516H468.062ZM473.641 332.273C476.938 330.445 479.461 328.344 481.211 325.969H465.953C464.422 327.625 463.203 328.859 462.297 329.672C466.438 330.453 470.219 331.32 473.641 332.273ZM451.023 325.969V322.945H463.891C464.656 322.055 465.5 320.984 466.422 319.734H457.352H453.859V306.914H464.406V303.516H451.352V300.398H492.648V303.516H479.594V306.914H490.141V319.734H470.711C470.039 320.859 469.297 321.93 468.484 322.945H492.977V325.969H485.242C483.414 328.906 480.922 331.422 477.766 333.516C482.156 334.891 486.859 336.602 491.875 338.648L490.047 341.578C484.219 339.109 478.906 337.125 474.109 335.625C468.516 338.375 461.445 340.203 452.898 341.109L452.125 337.969C458.938 337.359 464.695 336.133 469.398 334.289C465.758 333.336 462.469 332.586 459.531 332.039C458.766 332.68 457.945 333.297 457.07 333.891L454.188 331.969C456.656 330.109 458.961 328.109 461.102 325.969H451.023ZM540.695 309.797C537.523 309.25 534.227 308.961 530.805 308.93V326.602C533.883 328.227 537.305 330.594 541.07 333.703L538.867 336.305C535.633 333.711 532.945 331.742 530.805 330.398C530.68 333.695 529.805 336.047 528.18 337.453C526.57 338.859 523.969 339.562 520.375 339.562C517.141 339.562 514.625 338.836 512.828 337.383C511.047 335.93 510.156 333.938 510.156 331.406C510.156 328.938 511.039 327.016 512.805 325.641C514.586 324.266 517.109 323.578 520.375 323.578C522.484 323.578 524.789 324.062 527.289 325.031V305.672C532.508 305.672 537.117 305.992 541.117 306.633L540.695 309.797ZM499.516 308.836V305.672H508.375C509.234 302.828 509.938 300.398 510.484 298.383L513.812 298.852C513.266 301.055 512.641 303.328 511.938 305.672H520.961V308.836H510.977C508.602 316.352 505.516 324.484 501.719 333.234L498.484 332.086C501.969 324.086 504.93 316.336 507.367 308.836H499.516ZM527.289 328.43C524.852 327.273 522.547 326.695 520.375 326.695C515.891 326.695 513.656 328.266 513.672 331.406C513.672 333 514.25 334.258 515.406 335.18C516.578 336.086 518.234 336.539 520.375 336.539C523 336.539 524.805 336.055 525.789 335.086C526.789 334.102 527.289 332.266 527.289 329.578V328.43ZM554.805 327.75H551.055V312.211H564.648V297.797H568.469V303.047H587.336V306.211H568.469V312.211H584.945V327.75H554.805ZM554.805 324.633H581.195V315.422H554.805V324.633ZM546.789 339.703C549.227 336.734 551.484 333.391 553.562 329.672L556.68 331.266C554.633 335.047 552.328 338.5 549.766 341.625L546.789 339.703ZM562.094 341.531C561.703 338.203 561.109 334.703 560.312 331.031L563.922 330.445C564.719 334.055 565.312 337.594 565.703 341.062L562.094 341.531ZM573.953 341.438C572.969 338.359 571.609 334.891 569.875 331.031L573.227 330.023C574.992 333.992 576.367 337.492 577.352 340.523L573.953 341.438ZM586.188 341.344C584.141 337.828 581.883 334.422 579.414 331.125L582.391 329.391C585.078 333.109 587.352 336.531 589.211 339.656L586.188 341.344ZM627.672 326.32C629.938 322.133 631.422 316.148 632.125 308.367H622.914C622.727 308.945 622.344 310.047 621.766 311.672L624.016 311.297C624.797 317.703 626.016 322.711 627.672 326.32ZM606.883 332.133C608.617 330.336 609.898 328.25 610.727 325.875H603.766C603.062 327.312 602.195 328.836 601.164 330.445C603.445 331.055 605.352 331.617 606.883 332.133ZM604.469 298.523H607.984V307.828H617.195V310.758H610.047C611.109 311.648 612.82 313.312 615.18 315.75L613.023 318.211C611.039 315.914 609.359 314.07 607.984 312.68V319.219H604.469V312.961C602.297 315.836 599.5 318.477 596.078 320.883L594.156 318.258C597.703 315.852 600.539 313.352 602.664 310.758H594.742V307.828H604.469V298.523ZM614.57 319.219C617.805 313.656 620.297 306.617 622.047 298.102L625.398 298.523C625.039 300.508 624.531 302.703 623.875 305.109H638.406V308.367H635.477C634.617 317.742 632.672 324.891 629.641 329.812C631.656 332.828 634.562 335.57 638.359 338.039L636.742 340.852C632.867 338.414 629.812 335.68 627.578 332.648C625.141 335.617 621.742 338.367 617.383 340.898L615.531 338.039C620.078 335.383 623.438 332.562 625.609 329.578C623.438 325.578 621.867 320.359 620.898 313.922C619.836 316.453 618.68 318.805 617.43 320.977L614.57 319.219ZM594.391 325.875V322.945H601.258C601.383 322.664 601.805 321.578 602.523 319.688L606.156 320.18C605.766 321.273 605.414 322.195 605.102 322.945H618.109V325.875H614.266C613.5 328.625 612.156 331.109 610.234 333.328C611.859 333.969 613.719 334.781 615.812 335.766L614.266 338.648C611.922 337.492 609.766 336.516 607.797 335.719C604.344 338.562 600.227 340.391 595.445 341.203L594.484 338.133C598.266 337.461 601.484 336.211 604.141 334.383C601.875 333.617 599.219 332.898 596.172 332.227C597.547 330.211 598.781 328.094 599.875 325.875H594.391ZM595.609 300.586L598.328 299.156C599.734 301.141 601.078 303.359 602.359 305.812L599.594 307.172C598.5 305.078 597.172 302.883 595.609 300.586ZM610.141 305.766C611.797 303.5 613.094 301.281 614.031 299.109L616.914 300.305C615.82 302.711 614.477 305 612.883 307.172L610.141 305.766ZM680.031 338.461C676.219 339.102 672.203 339.422 667.984 339.422C662.125 339.422 657.891 338.742 655.281 337.383C652.672 336.023 651.367 333.867 651.367 330.914C651.367 325.82 656.188 321.922 665.828 319.219C665.375 317.75 664.773 316.727 664.023 316.148C663.273 315.57 662.305 315.281 661.117 315.281C659.195 315.281 657.023 316.211 654.602 318.07C652.195 319.914 649.758 322.586 647.289 326.086L644.359 324.211C648.297 318.742 651.516 313.203 654.016 307.594H644.664V304.523H655.305C656.039 302.727 656.758 300.773 657.461 298.664L660.93 299.484C660.289 301.188 659.648 302.867 659.008 304.523H679.844V307.594H657.719C656.656 310 655.484 312.484 654.203 315.047L654.25 315.094C657.031 313.172 659.531 312.211 661.75 312.211C665.531 312.211 668.039 314.258 669.273 318.352C672.508 317.617 676.172 316.992 680.266 316.477L680.617 319.594C676.258 320.172 672.703 320.781 669.953 321.422C670.375 323.828 670.586 326.945 670.586 330.773H666.883C666.883 327.32 666.734 324.508 666.438 322.336C658.828 324.539 655.023 327.305 655.023 330.633C655.023 331.492 655.18 332.227 655.492 332.836C655.82 333.445 656.414 334.031 657.273 334.594C658.148 335.156 659.477 335.586 661.258 335.883C663.055 336.164 665.297 336.305 667.984 336.305C671.531 336.305 675.438 335.953 679.703 335.25L680.031 338.461ZM696.156 339.797V341.906H692.57V327.562H709.75V339.797H696.156ZM696.156 336.773H706.328V330.633H696.156V336.773ZM734.711 313.594V316.945H725.922V341.672H722.172V316.945H712.094V313.594H722.172V298.758H725.922V313.594H734.711ZM692.57 303.422V300.305H709.703V303.422H692.57ZM691.211 310.242V307.031H711.039V310.242H691.211ZM692.898 317.016V313.969H709.516V317.016H692.898ZM692.898 323.812V320.742H709.516V323.812H692.898ZM769.891 309.234C769.156 307.219 768.531 305.602 768.016 304.383H764.664C763.258 306.039 761.656 307.539 759.859 308.883L757.398 306.445C758.102 305.93 758.922 305.242 759.859 304.383H752.219C753.047 306.555 753.656 308.172 754.047 309.234H769.891ZM747.039 322.617V325.547H772.961V322.617H747.039ZM747.039 317.25V320.18H772.961V317.25H747.039ZM747.039 314.836H772.961V311.906H747.039V314.836ZM753.719 331.359H766.469V327.984H754.141C754.109 329.172 753.969 330.297 753.719 331.359ZM737.969 307.641C741.484 304.672 744.031 301.281 745.609 297.469L749.102 298.242C748.742 299.133 748.281 300.141 747.719 301.266H760.375V303.844C762.516 301.703 764.102 299.562 765.133 297.422L768.602 298.289C768.148 299.32 767.617 300.312 767.008 301.266H781.445V304.383H771.906C772.734 306.555 773.344 308.172 773.734 309.234H776.805V327.984H770.312V331.359H781.609V334.477H770.312V341.672H766.469V334.477H752.711C751.148 337.867 748.109 340.477 743.594 342.305L741.273 339.469C744.602 338.188 746.969 336.523 748.375 334.477H738.391V331.359H749.781C750.094 330.266 750.266 329.141 750.297 327.984H747.039H743.195V309.234H750.203C749.469 307.188 748.844 305.57 748.328 304.383H745.75C744.219 306.523 742.453 308.414 740.453 310.055L737.969 307.641Z" fill="white"/>
</svg>
