<?xml version="1.0" encoding="UTF-8" standalone="no"?>
<!-- Created with Inkscape (http://www.inkscape.org/) -->

<svg
   width="16"
   height="16"
   viewBox="0 0 16 16"
   version="1.1"
   id="svg1"
   sodipodi:docname="logo.svg"
   inkscape:version="1.3 (0e150ed, 2023-07-21)"
   xmlns:inkscape="http://www.inkscape.org/namespaces/inkscape"
   xmlns:sodipodi="http://sodipodi.sourceforge.net/DTD/sodipodi-0.dtd"
   xmlns:xlink="http://www.w3.org/1999/xlink"
   xmlns="http://www.w3.org/2000/svg"
   xmlns:svg="http://www.w3.org/2000/svg">
  <sodipodi:namedview
     id="namedview1"
     pagecolor="#ffffff"
     bordercolor="#111111"
     borderopacity="1"
     inkscape:showpageshadow="0"
     inkscape:pageopacity="0"
     inkscape:pagecheckerboard="1"
     inkscape:deskcolor="#d1d1d1"
     inkscape:zoom="14.75"
     inkscape:cx="8"
     inkscape:cy="7.9661017"
     inkscape:window-width="1512"
     inkscape:window-height="858"
     inkscape:window-x="0"
     inkscape:window-y="38"
     inkscape:window-maximized="1"
     inkscape:current-layer="svg1" />
  <defs
     id="defs1">
    <linearGradient
       id="linearGradient9">
      <stop
         style="stop-color:#ff55dd;stop-opacity:1"
         offset="0"
         id="stop8" />
      <stop
         style="stop-color:#ff5599;stop-opacity:1"
         offset="1"
         id="stop9" />
    </linearGradient>
    <linearGradient
       id="linearGradient4">
      <stop
         style="stop-color:#8de9f4;stop-opacity:1;"
         offset="0"
         id="stop4" />
      <stop
         style="stop-color:#0fedf5;stop-opacity:1;"
         offset="1"
         id="stop5" />
    </linearGradient>
    <linearGradient
       xlink:href="#linearGradient4"
       id="linearGradient5"
       x1="4"
       y1="12"
       x2="12"
       y2="4"
       gradientUnits="userSpaceOnUse" />
    <linearGradient
       xlink:href="#linearGradient9"
       id="linearGradient8"
       x1="8"
       y1="12"
       x2="8"
       y2="4"
       gradientUnits="userSpaceOnUse" />
  </defs>
  <path
     id="path7"
     style="fill:url(#linearGradient8);fill-opacity:1;stroke-width:32;stroke-linecap:round;paint-order:fill markers stroke"
     d="M 4.5,2 A 0.5,0.5 0 0 0 4,2.5 v 11 A 0.5,0.5 0 0 0 4.5,14 h 1 A 0.5,0.5 0 0 0 6,13.5 v -3 A 0.5,0.5 0 0 1 6.5,10 h 1 C 7.7761421,10 8.2247306,9.9957 8.4980469,9.957031 9.5103235,9.8137979 11.733976,9.1920044 11.978516,6.4980469 12.003439,6.2234841 12.003506,5.7749141 11.978516,5.5 11.73363,2.8060371 9.5099554,2.1860251 8.4980469,2.0429688 8.2250673,2.0043769 7.7761421,2 7.5,2 Z m 2,2 h 1 c 0.2761421,0 0.7261075,0.00406 0.9941406,0.068359 0.5126893,0.1229928 1.2658338,0.4683778 1.4589844,1.4355468 0.053965,0.2702189 0.054024,0.7218376 0,0.9921876 C 9.7598634,7.4632281 9.0067908,7.8087101 8.4941406,7.9316406 8.2262376,7.9958822 7.7761421,8 7.5,8 h -1 A 0.5,0.5 0 0 1 6,7.5 v -3 A 0.5,0.5 0 0 1 6.5,4 Z M 7,5 v 0.5 1 A 0.5,0.5 0 0 0 7.5,7 V 5.5 A 0.5,0.5 0 0 0 7,5 Z m 1.5,0 v 0.5 1 A 0.5,0.5 0 0 0 9,7 V 5.5 A 0.5,0.5 0 0 0 8.5,5 Z m 1,5 a 0.3903882,0.3903882 0 0 0 -0.3789062,0.484375 l 0.7578124,3.03125 A 0.6403882,0.6403882 0 0 0 10.5,14 h 1 a 0.3903882,0.3903882 0 0 0 0.378906,-0.484375 l -0.757812,-3.03125 A 0.6403882,0.6403882 0 0 0 10.5,10 Z" />
</svg>
