<svg width="129" height="19" viewBox="0 0 129 19" fill="none" xmlns="http://www.w3.org/2000/svg">
<path d="M13.264 18H9.16L3.832 10.32V10.2C7.336 9.648 8.392 8.592 8.392 7.032C8.392 5.592 7.312 4.68 5.392 4.68H3.544V18H0.184V1.632H5.92C9.376 1.632 11.8 3.336 11.8 6.648C11.8 9 10.888 10.56 8.704 11.568V11.616L13.264 18ZM25.423 17.256C24.247 18.024 22.591 18.432 20.815 18.432C16.951 18.432 14.167 16.032 14.167 11.88C14.167 7.848 16.495 5.304 20.191 5.304C23.407 5.304 25.999 7.56 25.999 11.184C25.999 11.568 25.975 12.168 25.927 12.576H17.479C17.719 14.712 19.279 15.696 21.367 15.696C23.047 15.696 24.439 15.048 25.327 14.04H25.423V17.256ZM20.191 7.92C18.655 7.92 17.695 8.736 17.479 10.08H22.711C22.639 8.832 21.655 7.92 20.191 7.92ZM40.3842 18H37.2162V10.752C37.2162 8.976 36.1842 8.184 34.7442 8.184C33.5922 8.184 32.7042 8.688 32.0562 9.456V18H28.8882V5.736H32.0322V6.696H32.0562C33.0402 5.832 34.2402 5.304 35.7762 5.304C38.2482 5.304 40.3842 6.696 40.3842 9.696V18ZM52.5477 11.88C52.5477 9.528 51.2997 8.088 49.4517 8.088C47.6037 8.088 46.2837 9.432 46.2837 11.88C46.2837 14.232 47.5317 15.648 49.3797 15.648C51.2517 15.648 52.5477 14.328 52.5477 11.88ZM55.8837 11.88C55.8837 15.936 53.2197 18.432 49.3797 18.432C45.6837 18.432 42.9717 15.96 42.9717 11.88C42.9717 7.8 45.6117 5.304 49.4517 5.304C53.1717 5.304 55.8837 7.776 55.8837 11.88ZM61.7526 18H58.5846V5.736H61.6086V6.768H61.6326C62.5446 5.904 63.5046 5.304 64.7046 5.304C65.1366 5.304 65.5926 5.352 65.9526 5.52V8.784H65.8806C65.4246 8.448 64.8966 8.256 64.2966 8.256C63.3366 8.256 62.5446 8.688 61.7526 9.432V18ZM77.899 18H74.803V17.112H74.779C73.891 17.904 72.763 18.432 71.251 18.432C68.995 18.432 67.123 16.992 67.123 14.496C67.123 12.096 68.755 10.488 71.683 10.488C72.859 10.488 73.891 10.752 74.731 11.136V10.416C74.731 8.736 73.411 8.04 71.683 8.04C70.219 8.04 68.827 8.76 67.939 9.672H67.867V6.576C69.067 5.784 70.651 5.304 72.331 5.304C75.451 5.304 77.899 6.792 77.899 10.44V18ZM74.731 14.736V13.536C74.083 13.152 73.171 12.96 72.331 12.96C70.963 12.96 70.243 13.392 70.243 14.352C70.243 15.144 70.939 15.84 72.283 15.84C73.243 15.84 74.107 15.456 74.731 14.736ZM84.7448 18H81.5768V5.736H84.6008V6.768H84.6248C85.5368 5.904 86.4968 5.304 87.6968 5.304C88.1288 5.304 88.5848 5.352 88.9448 5.52V8.784H88.8728C88.4168 8.448 87.8888 8.256 87.2888 8.256C86.3288 8.256 85.5368 8.688 84.7448 9.432V18ZM94.5874 18H91.4194V5.736H94.5874V18ZM94.6834 2.76H91.3234V-1.43051e-06H94.6834V2.76ZM100.12 18H97.6904V15.498H100.12V18ZM111.345 18H108.969V12.564C108.969 11.232 108.195 10.638 107.115 10.638C106.251 10.638 105.585 11.016 105.099 11.592V18H102.723V8.802H105.081V9.522H105.099C105.837 8.874 106.737 8.478 107.889 8.478C109.743 8.478 111.345 9.522 111.345 11.772V18ZM121.727 17.442C120.845 18.018 119.603 18.324 118.271 18.324C115.373 18.324 113.285 16.524 113.285 13.41C113.285 10.386 115.031 8.478 117.803 8.478C120.215 8.478 122.159 10.17 122.159 12.888C122.159 13.176 122.141 13.626 122.105 13.932H115.769C115.949 15.534 117.119 16.272 118.685 16.272C119.945 16.272 120.989 15.786 121.655 15.03H121.727V17.442ZM117.803 10.44C116.651 10.44 115.931 11.052 115.769 12.06H119.693C119.639 11.124 118.901 10.44 117.803 10.44ZM126.864 18H124.488V10.944H123.534V10.854L124.488 8.802V6.066H126.864V8.802H128.97V10.944H126.864V18Z" fill="black"/>
</svg>
