<?xml version="1.0" encoding="UTF-8" standalone="no"?>
<!-- Created with Inkscape (http://www.inkscape.org/) -->

<svg
   width="1200"
   height="628"
   viewBox="0 0 1200 628"
   version="1.1"
   id="svg1"
   xml:space="preserve"
   xmlns:xlink="http://www.w3.org/1999/xlink"
   xmlns="http://www.w3.org/2000/svg"
   xmlns:svg="http://www.w3.org/2000/svg"><defs
     id="defs1"><linearGradient
       id="linearGradient4"><stop
         style="stop-color:#0fedf5;stop-opacity:1;"
         offset="0"
         id="stop4" /><stop
         style="stop-color:#0ff5a5;stop-opacity:1;"
         offset="1"
         id="stop5" /></linearGradient><linearGradient
       xlink:href="#linearGradient4"
       id="linearGradient5"
       x1="0"
       y1="628"
       x2="0"
       y2="0"
       gradientUnits="userSpaceOnUse" /><linearGradient
       id="linearGradient9"><stop
         style="stop-color:#ff55dd;stop-opacity:1"
         offset="0"
         id="stop8" /><stop
         style="stop-color:#ff5599;stop-opacity:1"
         offset="1"
         id="stop9" /></linearGradient><linearGradient
       id="linearGradient4-2"><stop
         style="stop-color:#8de9f4;stop-opacity:1;"
         offset="0"
         id="stop4-0" /><stop
         style="stop-color:#0fedf5;stop-opacity:1;"
         offset="1"
         id="stop5-7" /></linearGradient><linearGradient
       xlink:href="#linearGradient4-2"
       id="linearGradient5-4"
       x1="4"
       y1="12"
       x2="12"
       y2="4"
       gradientUnits="userSpaceOnUse" /><linearGradient
       xlink:href="#linearGradient9"
       id="linearGradient8"
       x1="8"
       y1="12"
       x2="8"
       y2="4"
       gradientUnits="userSpaceOnUse" /></defs><g
     id="layer1"><rect
       style="fill:url(#linearGradient5);stroke-width:32;stroke-linecap:round;paint-order:fill markers stroke;fill-opacity:1"
       id="rect1"
       width="1200"
       height="628"
       x="0"
       y="0" /><g
       id="layer1-8"
       transform="matrix(20,0,0,20,80,137.125)"><path
         id="path7"
         style="fill:url(#linearGradient8);fill-opacity:1;stroke-width:32;stroke-linecap:round;paint-order:fill markers stroke"
         d="M 4.5,2 A 0.5,0.5 0 0 0 4,2.5 v 11 A 0.5,0.5 0 0 0 4.5,14 h 1 A 0.5,0.5 0 0 0 6,13.5 v -3 A 0.5,0.5 0 0 1 6.5,10 h 1 C 7.7761421,10 8.2247306,9.9957 8.4980469,9.957031 9.5103235,9.8137979 11.733976,9.1920044 11.978516,6.4980469 12.003439,6.2234841 12.003506,5.7749141 11.978516,5.5 11.73363,2.8060371 9.5099554,2.1860251 8.4980469,2.0429688 8.2250673,2.0043769 7.7761421,2 7.5,2 Z m 2,2 h 1 c 0.2761421,0 0.7261075,0.00406 0.9941406,0.068359 0.5126893,0.1229928 1.2658338,0.4683778 1.4589844,1.4355468 0.053965,0.2702189 0.054024,0.7218376 0,0.9921876 C 9.7598634,7.4632281 9.0067908,7.8087101 8.4941406,7.9316406 8.2262376,7.9958822 7.7761421,8 7.5,8 h -1 A 0.5,0.5 0 0 1 6,7.5 v -3 A 0.5,0.5 0 0 1 6.5,4 Z M 7,5 v 0.5 1 A 0.5,0.5 0 0 0 7.5,7 V 5.5 A 0.5,0.5 0 0 0 7,5 Z m 1.5,0 v 0.5 1 A 0.5,0.5 0 0 0 9,7 V 5.5 A 0.5,0.5 0 0 0 8.5,5 Z m 1,5 a 0.3903882,0.3903882 0 0 0 -0.3789062,0.484375 l 0.7578124,3.03125 A 0.6403882,0.6403882 0 0 0 10.5,14 h 1 a 0.3903882,0.3903882 0 0 0 0.378906,-0.484375 l -0.757812,-3.03125 A 0.6403882,0.6403882 0 0 0 10.5,10 Z" /></g><g
       id="text17"
       style="font-weight:900;font-size:158.583px;line-height:0;font-family:Roboto;-inkscape-font-specification:'Roboto Heavy';text-align:center;letter-spacing:0px;text-orientation:upright;text-anchor:middle;fill:#ffffff;stroke-width:31.7165;stroke-linecap:round;paint-order:fill markers stroke"
       transform="scale(0.99405011,1.0059855)"
       aria-label="Renorari&#10;net"><path
         style="line-height:1.5;text-align:end;text-anchor:end"
         d="m 478.52493,254.35631 h -2.71229 a 6,6 135 0 0 -6,6 v 27.80061 a 6,6 135 0 1 -6,6 h -15.17901 a 6,6 45 0 1 -6,-6 V 187.41433 a 6,6 135 0 1 6,-6 l 32.36916,0 c 3.31371,0 8.69085,-0.0303 11.99487,0.21305 7.97831,0.5876 14.7623,2.39067 20.35196,5.40921 2.91212,1.57261 7.19507,4.90767 9.3346,7.43082 3.51733,4.14799 5.70614,9.16043 6.56641,15.03734 0.47953,3.27588 0.47017,8.67858 0.0769,11.96691 -0.35122,2.93674 -0.97383,5.64587 -1.86784,8.12737 -1.1211,3.11185 -3.96496,7.74968 -6.25171,10.13898 -1.70742,1.78398 -3.69602,3.41532 -5.96582,4.89401 -2.77438,1.80741 -4.00638,5.29555 -2.48249,8.23807 l 18.02117,34.79743 a 14.898224,14.898224 66.965093 0 1 2.75925,6.4894 h -23.11485 a 9.708205,9.708205 31.717472 0 1 -8.68328,-5.36656 l -14.53375,-29.06749 a 9.708205,9.708205 31.717472 0 0 -8.68328,-5.36656 z m -2.71229,-20.98437 5.19015,0 c 3.31371,0 8.75742,0.16108 11.93476,-0.74205 0.20737,-0.0589 0.41137,-0.1214 0.61198,-0.18737 3.11622,-1.02466 7.07397,-5.09342 8.10407,-8.21342 0.0374,-0.11328 0.0737,-0.22748 0.10875,-0.3426 0.96293,-3.15809 0.96293,-8.68945 -2e-5,-11.84757 -0.0351,-0.11513 -0.0713,-0.22933 -0.10875,-0.3426 -1.03011,-3.11996 -4.95348,-7.22023 -8.05191,-8.30112 -0.21967,-0.0766 -0.44327,-0.14885 -0.6708,-0.21664 -3.16471,-0.94293 -8.61437,-0.77987 -11.92808,-0.77987 l -5.19015,0 a 6,6 135 0 0 -6,6 v 18.97324 a 6,6 45 0 0 6,6 z m 103.6174,62.03938 c -7.92113,-0.80355 -14.78586,-3.25287 -20.5942,-7.34794 -2.70568,-1.9076 -6.60227,-5.66061 -8.60524,-8.29644 -4.20581,-5.5347 -6.74088,-12.03496 -7.60521,-19.50078 -0.38088,-3.2899 -0.33536,-6.95798 -0.33536,-8.15541 0.64046,-9.94059 1.38472,-13.64945 2.50445,-17.11825 1.01717,-3.15106 3.35419,-8.02759 5.25608,-10.73695 1.73085,-2.46572 3.73071,-4.65282 5.99958,-6.5613 2.53281,-2.13049 7.20686,-4.86914 10.29421,-6.06222 3.1799,-1.22884 6.61346,-2.05412 10.30069,-2.47585 3.29046,-0.37635 8.68566,-0.37918 11.97446,0.0104 6.76765,0.80159 12.57961,3.01683 17.43586,6.6457 2.65086,1.98087 6.34402,5.95296 8.13927,8.73295 3.49312,5.40918 5.5859,12.00653 6.27833,19.79205 0.29347,3.2996 0.2568,8.67883 0.2568,11.99254 a 5.1560886,5.1560886 145.3702 0 1 -6,4.14373 h -39.88018 c -3.31371,0 -5.58797,2.72218 -4.10082,5.67201 0.13575,0.26927 0.27707,0.53349 0.42396,0.79266 1.62549,2.86809 5.8683,6.47684 8.98272,7.55013 0.36249,0.12492 0.73244,0.23905 1.10987,0.34239 3.18656,0.87247 8.656,0.83019 11.89953,0.17883 3.42415,-0.68762 6.45493,-2.00462 9.09234,-3.951 2.65882,-1.96219 6.03751,-2.10739 8.17797,0.42225 l 4.1734,4.93218 c 2.14046,2.52964 2.32275,6.81242 -0.12373,9.03875 -1.3794,1.25528 -2.90444,2.41437 -4.57513,3.47728 -2.79339,1.77718 -7.73786,3.95965 -10.916,4.88913 -2.4566,0.71847 -4.98559,1.23182 -7.58698,1.54005 -3.28878,0.38968 -8.68129,0.38744 -11.97667,0.0531 z m -2.76582,-65.20254 c -2.91684,1.44518 -5.06678,4.14295 -6.44983,8.09331 -1.09327,3.12266 1.32148,5.83305 4.63519,5.83305 h 14.32725 a 4.4751098,4.4751098 161.45117 0 0 6,-2.01326 c -1.67203,-8.21114 -5.14749,-11.79038 -8.30803,-12.63499 -2.35983,-0.63062 -7.26178,-0.73615 -10.20458,0.72189 z m 79.04101,-13.85685 c 0.18448,2.12986 1.92104,1.64798 4.40105,-0.54173 3.89445,-3.43857 8.52304,-5.60751 13.88578,-6.50681 3.26431,-0.54742 8.68405,-0.55658 11.94934,-0.0145 3.49168,0.57966 6.52015,1.70331 9.08543,3.37095 2.76729,1.79897 6.22977,6.06262 7.63527,9.05358 1.62614,3.46049 2.69557,7.62204 3.20827,12.48463 0.34735,3.29433 0.34553,8.6743 0.34553,11.98801 v 41.97087 a 6,6 135 0 1 -6,6 h -14.17239 a 6,6 45 0 1 -6,-6 l 0,-40.88681 c 0,-3.31371 0.21746,-8.77676 -0.76507,-11.92858 -0.62628,-2.00898 -3.83633,-5.43539 -7.02862,-6.04262 -2.2071,-0.41981 -6.88836,-0.53841 -9.90659,0.77199 -0.47058,0.20431 -0.92277,0.43675 -1.35655,0.69733 -2.81308,1.68985 -4.1731,6.91609 -4.1731,10.2298 v 47.15889 a 6,6 135 0 1 -6,6 h -14.09495 a 6,6 45 0 1 -6,-6 v -71.78261 a 6,6 135 0 1 6,-6 l 12.46886,0 a 6.5421465,6.5421465 42.524875 0 1 6.51774,5.97762 z m 61.95495,29.14909 c 0.38436,-3.8068 1.14566,-7.3982 2.28392,-10.7742 1.05785,-3.13752 3.45114,-7.98671 5.36699,-10.68628 1.74546,-2.45947 3.75494,-4.63571 6.02844,-6.52873 2.54341,-2.11774 7.24322,-4.8114 10.34112,-5.97732 3.11716,-1.17318 6.46408,-1.96528 10.04076,-2.37632 3.29025,-0.37812 8.68393,-0.37729 11.97606,-0.0146 7.51664,0.82808 13.92985,3.27379 19.23964,7.33714 2.6284,2.0114 6.31252,5.98274 8.14554,8.73883 3.84452,5.78054 6.13295,12.77261 6.86528,20.9762 0.29455,3.2995 0.25849,6.40846 0.25849,6.92165 -1.02287,13.95411 -3.32025,20.77538 -7.16489,26.45541 -1.8554,2.74114 -5.57382,6.68018 -8.22159,8.66603 -5.2645,3.94843 -11.58706,6.33091 -18.96771,7.14744 -3.29195,0.36419 -8.68505,0.36415 -11.9768,-0.002 -6.96943,-0.77446 -13.01465,-2.95046 -18.13567,-6.52801 -2.71326,-1.89549 -6.56133,-5.70782 -8.50049,-8.39034 -3.74542,-5.1812 -6.15367,-11.37822 -7.22475,-18.59108 -0.48653,-3.27637 -0.6055,-7.94628 -0.64826,-10.38391 z m 26.08349,13.60712 c 0.21064,2.05455 0.53909,3.90857 0.98536,5.56205 0.85962,3.18506 3.84711,7.97263 6.75661,9.48357 0.17633,0.0916 0.35551,0.17871 0.53755,0.26142 2.99387,1.36033 8.69865,1.36469 11.66934,-0.0411 4.37727,-2.07144 7.04906,-6.82708 8.01536,-14.26692 0.42657,-3.28432 0.40357,-7.16184 0.40357,-8.61587 -1.15861,-14.07484 -3.91619,-19.19632 -8.56792,-21.35437 -2.98218,-1.3835 -8.69926,-1.38473 -11.65502,0.0493 -3.90336,1.89381 -6.45404,5.97809 -7.65204,12.25285 -0.62098,3.25254 -0.7325,8.0696 -0.77526,10.67829 z m 110.65705,-25.54805 c -1.44183,-0.10392 -5.33604,-0.30771 -8.57428,0.3677 -2.43415,0.5077 -4.47182,1.36319 -6.11301,2.56648 -2.64213,1.93715 -3.71966,7.30727 -3.71966,10.62098 v 41.04167 a 6,6 135 0 1 -6,6 h -14.09496 a 6,6 45 0 1 -6,-6 v -71.78261 a 6,6 135 0 1 6,-6 l 12.46887,0 a 6.4935762,6.4935762 42.737626 0 1 6.47334,5.9813 c 0.209,2.64102 1.57621,2.3379 3.67307,-0.2212 2.60975,-3.18506 5.65816,-5.32912 9.14524,-6.43217 3.14697,-0.99547 8.64279,-1.00794 11.87113,-0.29018 0.73493,0.16339 1.26785,3.02858 1.20434,6.34168 l -0.2346,12.23876 a 5.6913924,5.6913924 137.61023 0 1 -6.09948,5.56759 z m 58.23198,54.96713 c -0.26474,-1.03436 -2.07663,0.31863 -4.70835,2.31802 -2.84484,2.16131 -6.14559,3.60179 -9.90224,4.32146 -3.24967,0.62254 -8.67723,0.60715 -11.93944,0.0483 -3.33158,-0.57074 -6.41416,-1.63947 -9.24775,-3.2062 -2.89488,-1.60062 -7.03608,-5.14769 -8.96555,-7.83253 -1.68367,-2.34282 -2.86496,-4.9063 -3.54387,-7.69046 -0.78316,-3.21168 -0.77406,-8.66376 -0.14605,-11.91229 0.79966,-4.13643 2.48411,-7.68754 5.05335,-10.65334 2.16397,-2.49798 6.68318,-5.54935 9.71576,-6.87208 4.90494,-2.13939 10.91451,-3.43628 18.02869,-3.89066 3.30641,-0.21118 8.68246,-0.18379 11.99617,-0.18379 a 3.4420657,3.4420657 114.94562 0 0 2.05304,-4.41369 c -1.60657,-7.78237 -2.71652,-9.19347 -4.23465,-10.13309 -2.78158,-1.7216 -8.73469,-1.76678 -11.52366,-0.055 -0.85829,0.52677 -1.55973,1.20777 -2.10433,2.04301 -1.7849,2.73747 -4.10449,5.74471 -7.4182,5.74471 h -14.09496 c -3.31371,0 -6.09429,-2.73325 -5.31973,-5.9472 0.87669,-3.63773 2.60076,-6.89956 5.17219,-9.7855 2.20048,-2.46961 6.60469,-5.64946 9.56671,-7.12626 4.47601,-2.23164 9.57378,-3.6286 15.2933,-4.19086 3.29647,-0.32407 8.68618,-0.32833 11.98081,0.0128 5.49604,0.56906 10.28736,1.95625 14.37395,4.16157 2.91107,1.57095 7.09558,5.05751 9.08442,7.69918 2.40891,3.19962 4.01224,6.91563 4.80999,11.14804 0.61305,3.25249 0.58655,8.65036 0.58655,11.96407 v 25.09045 c 0,3.31371 -0.0107,8.69416 0.33665,11.98845 0.23502,2.2291 0.59044,4.25752 1.06628,6.08525 0.83265,3.19832 2.15899,6.1704 2.15899,6.89741 h -20.09496 c -3.31371,0 -7.21346,-2.42719 -8.03311,-5.6297 z m -8.42035,-12.38697 c 1.25485,-0.48435 4.71974,-2.44223 6.46488,-5.22785 0.20481,-0.32691 0.34923,-3.29116 0.34923,-6.60487 v -1.39593 a 6,6 45 0 0 -6,-6 c -0.87731,0 -4.35417,-0.18429 -7.52,0.75547 -3.22997,0.9588 -5.44332,2.83024 -6.64007,5.61432 -1.2997,3.02359 -1.21884,8.99588 1.00623,11.33734 0.1809,0.19036 2.56682,2.31384 5.80944,2.48605 0.35608,0.0189 3.45629,0.22196 6.53029,-0.96453 z m 92.12327,-42.58016 c -1.44184,-0.10391 -5.33606,-0.30771 -8.5743,0.3677 -2.43415,0.5077 -4.47182,1.36319 -6.11301,2.56648 -2.64213,1.93715 -3.71966,7.30727 -3.71966,10.62098 l 0,41.04167 a 6,6 135 0 1 -6,6 h -14.09496 a 6,6 45 0 1 -6,-6 v -71.78261 a 6,6 135 0 1 6,-6 h 12.46886 a 6.4935762,6.4935762 42.737626 0 1 6.47334,5.9813 c 0.209,2.64102 1.57622,2.3379 3.67307,-0.2212 2.60976,-3.18506 5.65817,-5.32912 9.14525,-6.43217 3.14697,-0.99547 8.64278,-1.00793 11.87109,-0.29019 0.735,0.1634 1.2679,3.02859 1.2044,6.34169 l -0.2346,12.23876 a 5.6913933,5.6913933 137.61022 0 1 -6.09948,5.56759 z m 36.92008,60.59683 h -14.1724 a 6,6 45 0 1 -6,-6 l 0,-71.78261 a 6,6 135 0 1 6,-6 h 14.1724 a 6,6 45 0 1 6,6 v 71.78261 a 6,6 135 0 1 -6,6 z m -20.3697,-111.1704 c 1.1079,-2.09407 4.742,-5.28282 7.8945,-6.21284 2.7975,-0.82526 8.0192,-0.86669 11.1355,0.21387 2.7475,0.95267 6.8225,4.44961 7.8998,7.54418 0.7795,2.23905 0.8616,7.1231 -0.6725,10.0227 -1.108,2.09405 -4.742,5.2828 -7.8945,6.21282 -2.7975,0.82528 -8.0194,0.8667 -11.1356,-0.21388 -2.7474,-0.95268 -6.8224,-4.44956 -7.8998,-7.54411 -0.7795,-2.23907 -0.8616,-7.12316 0.6726,-10.02274 z"
         id="path36" /><path
         style="text-align:end;text-anchor:end"
         d="m 849.59772,335.28917 c 0.18448,2.12986 1.92104,1.64798 4.40106,-0.54173 3.89444,-3.43857 8.52303,-5.6075 13.88577,-6.50681 3.26431,-0.5474 8.68405,-0.55657 11.94934,-0.0145 3.49168,0.57966 6.52015,1.7033 9.08543,3.37094 2.76729,1.79897 6.22977,6.06262 7.63527,9.05358 1.62614,3.46049 2.69557,7.62204 3.20827,12.48463 0.34735,3.29433 0.34553,8.6743 0.34553,11.98801 v 41.97088 a 6,6 135 0 1 -6,6 l -14.17239,0 a 6,6 45 0 1 -6,-6 l 0,-40.88681 c 0,-3.31371 0.21746,-8.77676 -0.76507,-11.92858 -0.62628,-2.00898 -3.83632,-5.4354 -7.02862,-6.04262 -2.20709,-0.41982 -6.88836,-0.53842 -9.90659,0.77198 -0.47059,0.20431 -0.92277,0.43675 -1.35656,0.69734 -2.81307,1.68985 -4.17309,6.91609 -4.17309,10.2298 v 47.15889 a 6,6 135 0 1 -6,6 h -14.09495 a 6,6 45 0 1 -6,-6 v -71.78262 a 6,6 135 0 1 6,-6 h 12.46886 a 6.5421465,6.5421465 42.524875 0 1 6.51774,5.97762 z m 99.49795,79.0594 c -7.92113,-0.80355 -14.78586,-3.25287 -20.5942,-7.34794 -2.70568,-1.9076 -6.60227,-5.66061 -8.60524,-8.29644 -4.20581,-5.5347 -6.74088,-12.03496 -7.60521,-19.50078 -0.38088,-3.2899 -0.33536,-6.95799 -0.33536,-8.15542 0.64046,-9.94059 1.38473,-13.64945 2.50446,-17.11825 1.01716,-3.15106 3.35419,-8.02759 5.25608,-10.73696 1.73084,-2.46571 3.7307,-4.6528 5.99957,-6.56128 2.53281,-2.1305 7.20686,-4.86914 10.29421,-6.06222 3.1799,-1.22884 6.61346,-2.05413 10.30068,-2.47585 3.29047,-0.37635 8.68567,-0.37918 11.97447,0.0104 6.76765,0.80159 12.57961,3.01683 17.43586,6.6457 2.65086,1.98087 6.34402,5.95296 8.13927,8.73295 3.49312,5.40918 5.5859,12.00653 6.27833,19.79205 0.29347,3.29959 0.2568,8.67882 0.2568,11.99253 a 5.1560926,5.1560926 145.37014 0 1 -6,4.14374 l -39.88018,0 c -3.31371,0 -5.58797,2.72218 -4.10082,5.67201 0.13576,0.26927 0.27707,0.53349 0.42396,0.79266 1.6255,2.86808 5.86831,6.47683 8.98273,7.55012 0.36249,0.12492 0.73244,0.23905 1.10987,0.34239 3.18656,0.87247 8.656,0.83019 11.89953,0.17883 3.42414,-0.68762 6.45492,-2.00462 9.09233,-3.951 2.65882,-1.96219 6.03751,-2.10739 8.17797,0.42225 l 4.1734,4.93219 c 2.14046,2.52964 2.32275,6.81242 -0.12374,9.03875 -1.37939,1.25527 -2.90443,2.41436 -4.57512,3.47727 -2.79339,1.77718 -7.73786,3.95965 -10.91599,4.88914 -2.4566,0.71846 -4.9856,1.23182 -7.58699,1.54005 -3.28878,0.38968 -8.68129,0.38744 -11.97667,0.0531 z m -2.76582,-65.20255 c -2.91684,1.44518 -5.06678,4.14295 -6.44983,8.09331 -1.09327,3.12266 1.32148,5.83305 4.63519,5.83305 l 14.32726,0 a 4.4751098,4.4751098 161.45117 0 0 6,-2.01326 c -1.67204,-8.21114 -5.1475,-11.79038 -8.30804,-12.63499 -2.35983,-0.63062 -7.26178,-0.73615 -10.20458,0.72189 z m 84.95025,-34.66397 v 8.8295 a 6,6 45 0 0 6,6 h 1.783 a 6,6 45 0 1 6,6 v 6.11935 a 6,6 135 0 1 -6,6 h -1.783 a 6,6 135 0 0 -6,6 v 26.32938 c 0,3.31371 -0.5168,8.99873 1.147,11.82259 0.2639,0.44795 2.8906,2.43331 6.1234,2.59039 0.6455,0.0314 3.8794,0.14716 7.1523,-0.3517 0.2887,-0.044 0.5218,2.60062 0.5218,5.91433 v 6.66138 c 0,3.31371 -2.56,6.85626 -5.8174,7.45209 -0.9616,0.17587 -1.9312,0.32251 -2.9088,0.43991 -3.2881,0.39485 -8.6865,0.41594 -11.9714,-0.002 -3.4653,-0.44132 -6.4751,-1.29298 -9.0296,-2.55498 -2.9582,-1.46141 -6.8924,-5.33648 -8.3916,-8.27571 -1.2342,-2.41983 -2.0773,-5.24027 -2.5292,-8.46132 -0.46,-3.27892 -0.3915,-8.66865 -0.3915,-11.98236 l 0,-29.58157 a 6,6 45 0 0 -6,-6 5.3831422,5.3831422 52.011528 0 1 -4.68577,-6 l 0,-6.11935 a 6,6 135 0 1 5.99997,-6 5.3831422,5.3831422 127.98847 0 0 4.6858,-6 l 0,-8.8295 a 6,6 135 0 1 6,-6 h 14.095 a 6,6 45 0 1 6,6 z"
         id="path37" /></g></g></svg>
