<?xml version="1.0" encoding="UTF-8" standalone="no"?>
<svg
   version="1.1"
   width="330"
   height="330"
   id="svg1"
   xmlns="http://www.w3.org/2000/svg"
   xmlns:svg="http://www.w3.org/2000/svg"
   xmlns:rdf="http://www.w3.org/1999/02/22-rdf-syntax-ns#"
   xmlns:cc="http://creativecommons.org/ns#"
   xmlns:dc="http://purl.org/dc/elements/1.1/">
  <defs
     id="defs1" />
  <!-- Created with https://api.qrserver.com (QR Code API, see goQR.me/api for information) -->
  <title
     id="title1">QR Code</title>
  <rect
     style="fill:#ffffff;stroke-width:32;stroke-linecap:round;paint-order:fill markers stroke"
     id="rect843"
     width="330"
     height="330"
     x="0"
     y="0"
     ry="0" />
  <desc
     id="desc1">https://renorari.net/</desc>
  <path
     id="path1"
     style="fill:#323232"
     d="M 20,20 H 30 V 30 H 20 Z m 10,0 H 40 V 30 H 30 Z m 10,0 H 50 V 30 H 40 Z m 10,0 H 60 V 30 H 50 Z m 10,0 H 70 V 30 H 60 Z m 10,0 H 80 V 30 H 70 Z m 10,0 H 90 V 30 H 80 Z m 20,0 h 10 v 10 h -10 z m 20,0 h 10 v 10 h -10 z m 20,0 h 10 v 10 h -10 z m 40,0 h 10 v 10 h -10 z m 60,0 h 10 v 10 h -10 z m 10,0 h 10 v 10 h -10 z m 10,0 h 10 v 10 h -10 z m 10,0 h 10 v 10 h -10 z m 10,0 h 10 v 10 h -10 z m 10,0 h 10 v 10 h -10 z m 10,0 h 10 V 30 H 300 Z M 20,30 H 30 V 40 H 20 Z m 60,0 H 90 V 40 H 80 Z m 30,0 h 10 v 10 h -10 z m 50,-10 h 10 v 10 h -10 z m 40,0 h 10 v 10 h -10 z m 20,0 h 10 v 10 h -10 z m 20,10 h 10 v 10 h -10 z m 60,0 h 10 V 40 H 300 Z M 20,40 H 30 V 50 H 20 Z m 20,0 H 50 V 50 H 40 Z m 10,0 H 60 V 50 H 50 Z m 10,0 H 70 V 50 H 60 Z m 20,0 H 90 V 50 H 80 Z m 50,-10 h 10 v 10 h -10 z m 20,0 h 10 v 10 h -10 z m 20,0 h 10 v 10 h -10 z m 20,0 h 10 v 10 h -10 z m 20,0 h 10 v 10 h -10 z m 30,10 h 10 v 10 h -10 z m 20,0 h 10 v 10 h -10 z m 10,0 h 10 v 10 h -10 z m 10,0 h 10 v 10 h -10 z m 20,0 h 10 V 50 H 300 Z M 20,50 H 30 V 60 H 20 Z m 20,0 H 50 V 60 H 40 Z m 10,0 H 60 V 60 H 50 Z m 10,0 H 70 V 60 H 60 Z m 20,0 H 90 V 60 H 80 Z m 20,-10 h 10 v 10 h -10 z m 20,0 h 10 v 10 h -10 z m 20,0 h 10 v 10 h -10 z m 20,0 h 10 v 10 h -10 z m 20,0 h 10 v 10 h -10 z m 60,10 h 10 v 10 h -10 z m 20,0 h 10 v 10 h -10 z m 10,0 h 10 v 10 h -10 z m 10,0 h 10 v 10 h -10 z m 20,0 h 10 V 60 H 300 Z M 20,60 H 30 V 70 H 20 Z m 20,0 H 50 V 70 H 40 Z m 10,0 H 60 V 70 H 50 Z m 10,0 H 70 V 70 H 60 Z m 20,0 H 90 V 70 H 80 Z m 50,-10 h 10 v 10 h -10 z m 20,0 h 10 v 10 h -10 z m 50,-10 h 10 v 10 h -10 z m 20,0 h 10 v 10 h -10 z m -30,10 h 10 v 10 h -10 z m 20,0 h 10 v 10 h -10 z m -10,10 h 10 v 10 h -10 z m 20,0 h 10 v 10 h -10 z m 20,0 h 10 v 10 h -10 z m 20,0 h 10 v 10 h -10 z m 10,0 h 10 v 10 h -10 z m 10,0 h 10 v 10 h -10 z m 20,0 h 10 V 70 H 300 Z M 20,70 H 30 V 80 H 20 Z m 60,0 H 90 V 80 H 80 Z m 30,-20 h 10 v 10 h -10 z m 0,20 h 10 v 10 h -10 z m 10,-10 h 10 v 10 h -10 z m 50,-10 h 10 v 10 h -10 z m -20,20 h 10 v 10 h -10 z m 10,-10 h 10 v 10 h -10 z m 20,0 h 10 v 10 h -10 z m 10,10 h 10 v 10 h -10 z m 20,0 h 10 v 10 h -10 z m 30,0 h 10 v 10 h -10 z m 60,0 h 10 V 80 H 300 Z M 20,80 H 30 V 90 H 20 Z m 10,0 H 40 V 90 H 30 Z m 10,0 H 50 V 90 H 40 Z m 10,0 H 60 V 90 H 50 Z m 10,0 H 70 V 90 H 60 Z m 10,0 H 80 V 90 H 70 Z m 10,0 H 90 V 90 H 80 Z m 20,-20 h 10 v 10 h -10 z m 20,20 h 10 v 10 h -10 z m 20,-20 h 10 v 10 h -10 z m 20,20 h 10 v 10 h -10 z m 20,0 h 10 v 10 h -10 z m 20,0 h 10 v 10 h -10 z m 20,0 h 10 v 10 h -10 z m 20,0 h 10 v 10 h -10 z m 10,0 h 10 v 10 h -10 z m 10,0 h 10 v 10 h -10 z m 10,0 h 10 v 10 h -10 z m 10,0 h 10 v 10 h -10 z m 10,0 h 10 v 10 h -10 z m 10,0 h 10 v 10 h -10 z m -200,0 h 10 v 10 h -10 z m 10,10 h 10 v 10 h -10 z m 60,0 h 10 v 10 H 170 Z M 140,80 h 10 v 10 h -10 z m 50,10 h 10 v 10 h -10 z m 20,0 h 10 v 10 H 210 Z M 20,100 h 10 v 10 H 20 Z m 20,0 h 10 v 10 H 40 Z m 20,0 h 10 v 10 H 60 Z m 20,0 h 10 v 10 H 80 Z m 20,0 h 10 v 10 h -10 z m 20,0 h 10 v 10 h -10 z m 10,-30 h 10 v 10 h -10 z m 40,0 h 10 v 10 h -10 z m -10,90 h 10 v 10 h -10 z m 80,-60 h 10 v 10 h -10 z m -70,50 h 10 v 10 h -10 z m 10,-10 h 10 v 10 h -10 z m 10,-10 h 10 v 10 h -10 z m 20,-20 h 10 v 10 h -10 z m -180,0 h 10 v 10 H 30 Z m 20,0 h 10 v 10 H 50 Z m 90,-10 h 10 v 10 H 140 Z M 130,90 h 10 v 10 h -10 z m 20,0 h 10 v 10 h -10 z m 50,10 h 10 v 10 h -10 z m -20,0 h 10 v 10 h -10 z m 40,0 h 10 v 10 h -10 z m 0,20 h 10 v 10 h -10 z m 10,-10 h 10 v 10 h -10 z m 30,30 h 10 v 10 h -10 z m -10,-30 h 10 v 10 h -10 z m -60,40 h 10 v 10 h -10 z m 70,-50 h 10 v 10 h -10 z m 40,0 h 10 v 10 h -10 z m 0,20 h 10 v 10 h -10 z m -10,-10 h 10 v 10 h -10 z m -10,-10 h 10 v 10 h -10 z m -20,20 h 10 v 10 h -10 z m 20,0 h 10 v 10 h -10 z m -10,-10 h 10 v 10 H 270 Z M 20,120 h 10 v 10 H 20 Z m 50,-10 h 10 v 10 H 70 Z m -10,10 h 10 v 10 H 60 Z m 50,-10 h 10 v 10 h -10 z m -30,10 h 10 v 10 H 80 Z m 10,-10 h 10 v 10 H 90 Z m 40,0 h 10 v 10 h -10 z m -10,10 h 10 v 10 h -10 z m 30,-10 h 10 v 10 h -10 z m 10,-10 h 10 v 10 h -10 z m 0,20 h 10 v 10 h -10 z m 20,0 h 10 v 10 h -10 z m 0,40 h 10 v 10 h -10 z m 50,-30 h 10 v 10 h -10 z m 10,-10 h 10 v 10 h -10 z m 10,10 h 10 v 10 H 250 Z M 40,120 h 10 v 10 H 40 Z m -10,10 h 10 v 10 H 30 Z m 20,0 h 10 v 10 H 50 Z m 20,0 h 10 v 10 H 70 Z m 30,-10 h 10 v 10 h -10 z m 70,-10 h 10 v 10 h -10 z m 0,20 h 10 v 10 h -10 z m 30,-10 h 10 v 10 h -10 z m 10,10 h 10 v 10 h -10 z m -40,40 h 10 v 10 h -10 z m 50,-30 h 10 v 10 h -10 z m 30,10 h 10 v 10 h -10 z m -10,-10 h 10 v 10 h -10 z m 30,-10 h 10 v 10 h -10 z m 20,0 h 10 v 10 H 290 Z M 20,140 h 10 v 10 H 20 Z m 20,0 h 10 v 10 H 40 Z m 20,0 h 10 v 10 H 60 Z m 30,-10 h 10 v 10 H 90 Z m -10,10 h 10 v 10 H 80 Z m 20,0 h 10 v 10 h -10 z m 40,-20 h 10 v 10 h -10 z m -20,20 h 10 v 10 h -10 z m 10,-10 h 10 v 10 h -10 z m 20,0 h 10 v 10 h -10 z m 10,10 h 10 v 10 h -10 z m -20,40 h 10 v 10 h -10 z m 10,-10 h 10 v 10 h -10 z m 50,-30 h 10 v 10 h -10 z m -30,50 h 10 v 10 h -10 z m -10,-10 h 10 v 10 h -10 z m 20,0 h 10 v 10 h -10 z m 70,-10 h 10 v 10 h -10 z m 30,-30 h 10 v 10 h -10 z m 0,20 h 10 v 10 h -10 z m 20,-20 h 10 v 10 H 300 Z M 110,130 h 10 v 10 h -10 z m -80,20 h 10 v 10 H 30 Z m 20,0 h 10 v 10 H 50 Z m 20,0 h 10 v 10 H 70 Z m 70,-10 h 10 v 10 h -10 z m -10,10 h 10 v 10 h -10 z m 20,0 h 10 v 10 h -10 z m 40,-40 h 10 v 10 h -10 z m -40,80 h 10 v 10 h -10 z m 50,-30 h 10 v 10 h -10 z m 10,-10 h 10 v 10 h -10 z m 10,10 h 10 v 10 h -10 z m 10,-10 h 10 v 10 h -10 z m 10,10 h 10 v 10 h -10 z m 20,0 h 10 v 10 h -10 z m 10,-10 h 10 v 10 h -10 z m 20,0 h 10 v 10 h -10 z m 10,10 h 10 v 10 h -10 z m -280,0 h 10 v 10 H 20 Z m 20,0 h 10 v 10 H 40 Z m 20,0 h 10 v 10 H 60 Z m 20,0 h 10 v 10 H 80 Z m 20,0 h 10 v 10 h -10 z m 10,-10 h 10 v 10 h -10 z m 10,10 h 10 v 10 h -10 z m 20,0 h 10 v 10 h -10 z m 60,20 h 10 v 10 h -10 z m 30,-10 h 10 v 10 H 230 Z M 90,150 h 10 v 10 H 90 Z m -60,20 h 10 v 10 H 30 Z m 20,0 h 10 v 10 H 50 Z m 20,0 h 10 v 10 H 70 Z m 20,0 h 10 v 10 H 90 Z m 20,0 h 10 v 10 h -10 z m -10,30 h 10 v 10 h -10 z m 30,-10 h 10 v 10 h -10 z m 60,-20 h 10 v 10 h -10 z m 20,0 h 10 v 10 h -10 z m 20,20 h 10 v 10 h -10 z m 40,-20 h 10 v 10 h -10 z m 20,0 h 10 v 10 h -10 z m -30,10 h 10 v 10 h -10 z m -220,0 h 10 v 10 H 40 Z m 20,0 h 10 v 10 H 60 Z m 0,20 h 10 v 10 H 60 Z m 20,-20 h 10 v 10 H 80 Z m 20,0 h 10 v 10 h -10 z m 20,0 h 10 v 10 h -10 z m 10,30 h 10 v 10 h -10 z m 120,-20 h 10 v 10 h -10 z m 30,-10 h 10 v 10 h -10 z m 20,0 h 10 v 10 h -10 z m -280,0 h 10 v 10 H 20 Z m 10,10 h 10 v 10 H 30 Z m 30,30 h 10 v 10 H 60 Z M 50,190 h 10 v 10 H 50 Z m 40,0 h 10 v 10 H 90 Z m 20,0 h 10 v 10 h -10 z m 50,10 h 10 v 10 h -10 z m 80,0 h 10 v 10 h -10 z m 20,0 h 10 v 10 h -10 z m 10,10 h 10 v 10 h -10 z m 10,-10 h 10 v 10 h -10 z m 20,0 h 10 v 10 h -10 z m -280,0 h 10 v 10 H 20 Z m 20,0 h 10 v 10 H 40 Z m 40,0 h 10 v 10 H 80 Z M 70,190 h 10 v 10 H 70 Z m 50,10 h 10 v 10 h -10 z m 20,0 h 10 v 10 h -10 z m 40,0 h 10 v 10 h -10 z m 10,-10 h 10 v 10 h -10 z m 10,10 h 10 v 10 h -10 z m 20,0 h 10 v 10 h -10 z m 30,10 h 10 v 10 h -10 z m 50,10 h 10 v 10 H 300 Z M 30,210 h 10 v 10 H 30 Z m 20,0 h 10 v 10 H 50 Z m 40,0 h 10 v 10 H 90 Z m 40,-40 h 10 v 10 h -10 z m 20,40 h 10 v 10 h -10 z m 0,20 h 10 v 10 h -10 z m 10,-10 h 10 v 10 h -10 z m 10,-10 h 10 v 10 h -10 z m 120,-20 h 10 v 10 h -10 z m -60,20 h 10 v 10 h -10 z m 60,0 h 10 v 10 h -10 z m -10,10 h 10 v 10 h -10 z m 10,10 h 10 v 10 H 290 Z M 20,220 h 10 v 10 H 20 Z m 20,0 h 10 v 10 H 40 Z m 40,0 h 10 v 10 H 80 Z M 70,210 h 10 v 10 H 70 Z m 30,10 h 10 v 10 h -10 z m 40,0 h 10 v 10 h -10 z m 30,10 h 10 v 10 h -10 z m 10,-10 h 10 v 10 h -10 z m 20,0 h 10 v 10 h -10 z m 10,-10 h 10 v 10 h -10 z m 10,10 h 10 v 10 h -10 z m 10,0 h 10 v 10 h -10 z m 10,0 h 10 v 10 h -10 z m 10,0 h 10 v 10 h -10 z m 10,0 h 10 v 10 h -10 z m 10,10 h 10 v 10 H 270 Z M 110,210 h 10 v 10 h -10 z m 0,20 h 10 v 10 h -10 z m 10,-10 h 10 v 10 h -10 z m 10,10 h 10 v 10 h -10 z m 10,10 h 10 v 10 h -10 z m 20,0 h 10 v 10 h -10 z m 30,-10 h 10 v 10 h -10 z m 50,-50 h 10 v 10 h -10 z m -30,50 h 10 v 10 h -10 z m 10,0 h 10 v 10 h -10 z m 40,0 h 10 v 10 h -10 z m 20,10 h 10 v 10 h -10 z m 20,0 h 10 v 10 h -10 z m -280,0 h 10 v 10 H 20 Z m 10,0 h 10 v 10 H 30 Z m 10,0 h 10 v 10 H 40 Z m 10,0 h 10 v 10 H 50 Z m 10,0 h 10 v 10 H 60 Z m 10,0 h 10 v 10 H 70 Z m 10,0 h 10 v 10 H 80 Z m 50,10 h 10 v 10 h -10 z m 60,-40 h 10 v 10 h -10 z m -10,30 h 10 v 10 h -10 z m 20,0 h 10 v 10 h -10 z m 70,-50 h 10 v 10 h -10 z m -50,50 h 10 v 10 h -10 z m 20,0 h 10 v 10 h -10 z m 20,0 h 10 v 10 H 260 Z M 20,250 h 10 v 10 H 20 Z m 60,0 h 10 v 10 H 80 Z m 30,0 h 10 v 10 h -10 z m 10,-10 h 10 v 10 h -10 z m 10,30 h 10 v 10 h -10 z m 20,-20 h 10 v 10 h -10 z m 70,-70 h 10 v 10 h -10 z m -50,70 h 10 v 10 h -10 z m 20,0 h 10 v 10 h -10 z m 20,0 h 10 v 10 h -10 z m 10,0 h 10 v 10 h -10 z m 40,0 h 10 v 10 h -10 z m 10,0 h 10 v 10 h -10 z m 10,10 h 10 v 10 h -10 z m -260,0 h 10 v 10 H 20 Z m 20,0 h 10 v 10 H 40 Z m 10,0 h 10 v 10 H 50 Z m 10,0 h 10 v 10 H 60 Z m 20,0 h 10 v 10 H 80 Z m 20,-20 h 10 v 10 h -10 z m 0,60 h 10 v 10 h -10 z m 20,-40 h 10 v 10 h -10 z m 20,0 h 10 v 10 h -10 z m 20,0 h 10 v 10 h -10 z m 20,0 h 10 v 10 h -10 z m 20,0 h 10 v 10 h -10 z m 20,0 h 10 v 10 h -10 z m 10,0 h 10 v 10 h -10 z m 10,0 h 10 v 10 h -10 z m 10,0 h 10 v 10 h -10 z m 10,0 h 10 v 10 h -10 z m 30,-10 h 10 v 10 h -10 z m 10,30 h 10 v 10 h -10 z m 0,-20 h 10 v 10 H 300 Z M 20,270 h 10 v 10 H 20 Z m 20,0 h 10 v 10 H 40 Z m 10,0 h 10 v 10 H 50 Z m 10,0 h 10 v 10 H 60 Z m 20,0 h 10 v 10 H 80 Z m 20,-10 h 10 v 10 h -10 z m 10,10 h 10 v 10 h -10 z m 10,10 h 10 v 10 h -10 z m 20,0 h 10 v 10 h -10 z m 10,-10 h 10 v 10 h -10 z m 60,-80 h 10 v 10 h -10 z m -40,80 h 10 v 10 h -10 z m 20,0 h 10 v 10 h -10 z m 20,0 h 10 v 10 h -10 z m 20,0 h 10 v 10 h -10 z m 20,0 h 10 v 10 h -10 z m 20,0 h 10 v 10 h -10 z m 20,0 h 10 v 10 H 290 Z M 20,280 h 10 v 10 H 20 Z m 20,0 h 10 v 10 H 40 Z m 10,0 h 10 v 10 H 50 Z m 10,0 h 10 v 10 H 60 Z m 20,0 h 10 v 10 H 80 Z m 20,0 h 10 v 10 h -10 z m 30,10 h 10 v 10 h -10 z m 30,-10 h 10 v 10 h -10 z m 20,0 h 10 v 10 h -10 z m 20,0 h 10 v 10 h -10 z m 80,0 h 10 v 10 h -10 z m -60,0 h 10 v 10 h -10 z m 10,10 h 10 v 10 h -10 z m 10,-10 h 10 v 10 h -10 z m 10,10 h 10 v 10 h -10 z m 10,-10 h 10 v 10 h -10 z m 10,10 h 10 v 10 h -10 z m 30,10 h 10 v 10 H 300 Z M 20,290 h 10 v 10 H 20 Z m 60,0 h 10 v 10 H 80 Z m 30,0 h 10 v 10 h -10 z m 40,0 h 10 v 10 h -10 z m 20,0 h 10 v 10 h -10 z m 30,10 h 10 v 10 h -10 z m 10,-10 h 10 v 10 h -10 z m 70,10 h 10 v 10 h -10 z m 10,-10 h 10 v 10 H 290 Z M 20,300 h 10 v 10 H 20 Z m 10,0 h 10 v 10 H 30 Z m 10,0 h 10 v 10 H 40 Z m 10,0 h 10 v 10 H 50 Z m 10,0 h 10 v 10 H 60 Z m 10,0 h 10 v 10 H 70 Z m 10,0 h 10 v 10 H 80 Z m 40,0 h 10 v 10 h -10 z m 20,0 h 10 v 10 h -10 z m 20,0 h 10 v 10 h -10 z m 20,0 h 10 v 10 h -10 z m 10,-10 h 10 v 10 h -10 z m 30,10 h 10 v 10 h -10 z m 20,0 h 10 v 10 h -10 z m 20,0 h 10 v 10 h -10 z" />
  <metadata
     id="metadata1">
    <rdf:RDF>
      <cc:Work
         rdf:about="">
        <dc:title>QR Code</dc:title>
      </cc:Work>
    </rdf:RDF>
  </metadata>
</svg>
