<?xml version="1.0" encoding="UTF-8" standalone="no"?>
<svg
   width="48"
   height="48"
   viewBox="0 0 48 48"
   fill="#000000"
   version="1.1"
   id="svg1"
   xmlns="http://www.w3.org/2000/svg"
   xmlns:svg="http://www.w3.org/2000/svg">
  <defs
     id="defs1" />
  <path
     d="m 23.999956,0 c 13.2549,0 24,10.7452 24,24 0,13.2548 -10.7451,24 -24,24 C 10.745156,48 0,37.2548 0,24 0,10.7452 10.745156,0 23.999956,0 Z m -10.5,6 c -0.8284,0 -1.5,0.67157 -1.5,1.5 v 33 c 0,0.8284 0.6716,1.5 1.5,1.5 h 3 c 0.8285,0 1.5,-0.6716 1.5,-1.5 v -9 c 0,-0.8284 0.6716,-1.5 1.5,-1.5 h 3 c 0.8285,0 2.1742,-0.0129 2.9942,-0.1289 3.0368,-0.4297 9.7078,-2.2951 10.4414,-10.377 0.0748,-0.8236 0.075,-2.1694 0,-2.9941 -0.7347,-8.08189 -7.4057,-9.94192 -10.4414,-10.37109 C 24.675156,6.01313 23.328456,6 22.499956,6 Z m 6,6 h 3 c 0.8285,0 2.1784,0.0122 2.9825,0.2051 1.538,0.369 3.7975,1.4051 4.3769,4.3066 0.1619,0.8107 0.1621,2.1655 0,2.9766 -0.5798,2.9014 -2.839,3.9378 -4.3769,4.3066 -0.8037,0.1927 -2.154,0.2051 -2.9825,0.2051 h -3 c -0.8284,0 -1.5,-0.6716 -1.5,-1.5 v -9 c 0,-0.8284 0.6716,-1.5 1.5,-1.5 z m 1.5,3 v 4.5 c 0,0.8284 0.6716,1.5 1.5,1.5 v -4.5 c 0,-0.8284 -0.6715,-1.5 -1.5,-1.5 z m 4.5,0 v 4.5 c 0,0.8284 0.6716,1.5 1.5,1.5 v -4.5 c 0,-0.8284 -0.6715,-1.5 -1.5,-1.5 z m 3,15 c -0.6468,0 -1.1711,0.5243 -1.1711,1.1712 0,0.095 0.0115,0.1897 0.0344,0.2819 l 2.2735,9.0938 c 0.2145,0.8542 0.9825,1.4531 1.8632,1.4531 h 3 c 0.6469,0 1.1712,-0.5243 1.1712,-1.1712 0,-0.095 -0.0116,-0.1897 -0.0344,-0.2819 l -2.2735,-9.0938 C 33.148756,30.5989 32.380756,30 31.499956,30 Z"
     id="path1" />
</svg>
