<svg width="419" height="48" viewBox="0 0 419 48" fill="#000000" xmlns="http://www.w3.org/2000/svg">
<g clip-path="url(#clip0_321_2)">
<path d="M86.891 46.9471L75.1041 26.7588V26.32C82.7531 25.0658 85.3865 22.558 85.3865 19.0469C85.3865 15.6614 82.9411 13.7178 78.8032 13.7178H74.5397V46.9471H63.6932V4.18781H80.1198C89.8379 4.18781 96.2957 8.6395 96.2957 17.6051C96.2957 23.4357 94.1638 27.323 89.4618 30.0817V30.207L99.6812 46.9471H86.891Z" />
<path d="M121.058 48.0755C110.337 48.0755 102.876 41.6804 102.876 30.8341C102.876 20.5517 108.895 13.5924 119.303 13.5924C127.955 13.5924 135.165 19.2978 135.165 29.204C135.165 30.2697 135.102 31.7118 134.977 32.9033H113.472C114.35 37.6678 118.3 39.6117 123.19 39.6117C127.391 39.6117 131.09 38.1695 133.41 35.7244H133.598V45.129C130.463 47.0724 125.886 48.0755 121.058 48.0755ZM113.409 25.5676H124.883C124.695 22.7462 122.563 20.6773 119.366 20.6773C116.043 20.6773 113.974 22.4953 113.409 25.5676Z" />
<path d="M163.878 46.9471V28.5142C163.878 24.6899 161.621 22.8715 158.486 22.8715C155.915 22.8715 153.846 24.1254 152.529 25.8182V46.9471H142.247V14.721H152.467V17.1662H152.529C155.1 14.909 158.047 13.5924 162.059 13.5924C168.455 13.5924 174.16 17.2288 174.16 25.0658V46.9471H163.878Z" />
<path d="M197.795 48.0755C187.512 48.0755 180.302 41.4297 180.302 30.8341C180.302 20.3637 187.324 13.5924 197.983 13.5924C208.265 13.5924 215.538 20.2382 215.538 30.8341C215.538 41.3044 208.453 48.0755 197.795 48.0755ZM197.983 22.558C193.907 22.558 191.086 25.5049 191.086 30.8341C191.086 35.975 193.719 39.1099 197.795 39.1099C201.87 39.1099 204.754 36.2261 204.754 30.8341C204.754 25.7555 202.058 22.558 197.983 22.558Z" />
<path d="M222.056 46.9471V14.721H231.836V17.2915H231.899C234.219 15.0972 236.727 13.5924 239.736 13.5924C240.802 13.5924 242.056 13.7178 242.997 14.1566V24.439H242.809C241.554 23.5613 240.112 22.9969 238.545 22.9969C236.163 22.9969 234.282 24.0001 232.338 25.7555V46.9471H222.056Z" />
<path d="M267.384 46.9471V44.6899H267.322C265.064 46.6965 262.306 48.0755 258.356 48.0755C252.462 48.0755 247.447 44.3766 247.447 37.5425C247.447 31.2732 251.71 27.0721 259.485 27.0721C262.557 27.0721 265.064 27.6992 267.133 28.7027V27.135C267.133 23.5613 263.998 22.0565 259.61 22.0565C255.785 22.0565 252.023 23.6866 249.578 26.0064H249.39V16.7273C252.713 14.721 257.102 13.5924 261.679 13.5924C270.457 13.5924 277.416 17.4797 277.416 27.6365V46.9471H267.384ZM267.133 35.3484C265.754 34.5334 263.81 34.0943 261.93 34.0943C258.983 34.0943 257.478 35.0973 257.478 37.1665C257.478 38.9846 258.983 40.4267 261.804 40.4267C263.873 40.4267 265.817 39.6743 267.133 38.1069V35.3484Z" />
<path d="M286.317 46.9471V14.721H296.097V17.2915H296.16C298.48 15.0972 300.988 13.5924 303.997 13.5924C305.063 13.5924 306.317 13.7178 307.257 14.1566V24.439H307.069C305.815 23.5613 304.373 22.9969 302.806 22.9969C300.424 22.9969 298.542 24.0001 296.599 25.7555V46.9471H286.317Z" />
<path d="M313.15 8.38861V-0.0754395H323.933V8.38861H313.15ZM313.4 46.9471V14.721H323.683V46.9471H313.4Z" />
<path d="M332.937 46.9471V39.2362H340.648V46.9471H332.937Z" />
<path d="M363.592 46.9471V33.1243C363.592 30.2563 361.9 28.8926 359.549 28.8926C357.621 28.8926 356.07 29.833 355.082 31.1024V46.9471H347.372V22.7804H355.035V24.6141H355.082C357.01 22.9215 359.22 21.9341 362.229 21.9341C367.025 21.9341 371.303 24.6612 371.303 30.5385V46.9471H363.592Z" />
<path d="M389.548 47.7933C381.508 47.7933 375.913 42.9977 375.913 34.8634C375.913 27.153 380.426 21.9341 388.232 21.9341C394.72 21.9341 400.127 26.2126 400.127 33.6413C400.127 34.4406 400.079 35.5221 399.986 36.4156H383.859C384.517 39.9886 387.479 41.446 391.146 41.446C394.297 41.446 397.071 40.3645 398.81 38.5311H398.952V45.5834C396.6 47.0414 393.168 47.7933 389.548 47.7933ZM383.812 30.9144H392.416C392.275 28.7984 390.677 27.2469 388.278 27.2469C385.786 27.2469 384.235 28.6104 383.812 30.9144Z" />
<path d="M405.864 46.9471V29.5508H403.09V29.3159L405.864 22.7804V15.6339H413.575V22.7804H418.888V29.5508H413.575V46.9471H405.864Z" />
<path d="M24.1122 0C37.3671 0 48.1122 10.7452 48.1122 24C48.1122 37.2548 37.3671 48 24.1122 48C10.8574 48 0.112244 37.2548 0.112244 24C0.112244 10.7452 10.8574 0 24.1122 0ZM13.6122 6C12.7838 6 12.1122 6.67157 12.1122 7.5V40.5C12.1122 41.3284 12.7838 42 13.6122 42H16.6122C17.4407 42 18.1122 41.3284 18.1122 40.5V31.5C18.1122 30.6716 18.7838 30 19.6122 30H22.6122C23.4407 30 24.7864 29.9871 25.6064 29.8711C28.6432 29.4414 35.3142 27.576 36.0478 19.4941C36.1226 18.6705 36.1228 17.3247 36.0478 16.5C35.3131 8.41811 28.6421 6.55808 25.6064 6.12891C24.7874 6.01313 23.4407 6 22.6122 6H13.6122ZM19.6122 12H22.6122C23.4407 12 24.7906 12.0122 25.5947 12.2051C27.1327 12.5741 29.3922 13.6102 29.9716 16.5117C30.1335 17.3224 30.1337 18.6772 29.9716 19.4883C29.3918 22.3897 27.1326 23.4261 25.5947 23.7949C24.791 23.9876 23.4407 24 22.6122 24H19.6122C18.7838 24 18.1122 23.3284 18.1122 22.5V13.5C18.1122 12.6716 18.7838 12 19.6122 12ZM21.1122 15V19.5C21.1122 20.3284 21.7838 21 22.6122 21V16.5C22.6122 15.6716 21.9407 15 21.1122 15ZM25.6122 15V19.5C25.6122 20.3284 26.2838 21 27.1122 21V16.5C27.1122 15.6716 26.4407 15 25.6122 15ZM28.6122 30C27.9654 30 27.4411 30.5243 27.4411 31.1712C27.4411 31.2662 27.4526 31.3609 27.4755 31.4531L29.749 40.5469C29.9635 41.4011 30.7315 42 31.6122 42H34.6122C35.2591 42 35.7834 41.4757 35.7834 40.8288C35.7834 40.7338 35.7718 40.6391 35.749 40.5469L33.4755 31.4531C33.261 30.5989 32.493 30 31.6122 30H28.6122Z" />
</g>
<defs>
<clipPath id="clip0_321_2">
<rect width="418.776" height="48"  transform="translate(0.112244)"/>
</clipPath>
</defs>
</svg>
