<svg width="1024" height="512" viewBox="0 0 1024 512" fill="none" xmlns="http://www.w3.org/2000/svg">
<rect width="1024" height="512" fill="#1747E6"/>
<path d="M77.056 266.228C73.408 266.228 69.568 265.076 67.072 262.964V254.708H67.456C69.76 257.588 72.832 259.028 75.808 259.028C81.856 259.028 85.024 254.9 85.024 247.028V199.028H92.512V248.18C92.512 258.836 87.808 266.228 77.056 266.228ZM148.643 216.02V247.22C148.643 259.316 140.771 266.228 128.771 266.228C116.963 266.228 109.091 259.316 109.091 247.22V216.02H116.195V246.452C116.195 255.572 120.995 259.796 128.867 259.796C136.643 259.796 141.539 255.572 141.539 246.452V216.02H148.643ZM172.083 264.5H164.979V216.02H172.083V264.5ZM172.467 199.892H164.595V192.5H172.467V199.892ZM221.331 252.692V261.14C217.779 264.404 212.403 266.228 206.643 266.228C194.355 266.228 184.371 257.204 184.371 240.308C184.371 223.796 193.875 214.292 206.739 214.292C212.307 214.292 217.395 215.924 221.043 219.284V227.828H220.755C217.971 223.796 212.979 220.724 207.219 220.724C197.811 220.724 191.859 228.404 191.859 240.308C191.859 252.212 198.003 259.796 207.603 259.796C213.555 259.796 218.163 256.916 221.043 252.692H221.331ZM247.232 283.028H239.552L246.848 264.404L226.208 216.02H234.176L250.304 254.9H250.496L264.704 216.02H272.576L247.232 283.028ZM345.564 248.18C345.564 258.26 338.172 266.228 324.924 266.228C318.012 266.228 311.292 264.308 306.78 260.084V251.06H307.068C311.676 256.532 318.108 259.412 324.732 259.412C332.988 259.412 337.98 255.284 337.98 248.756C337.98 231.86 307.068 237.908 307.068 214.964C307.068 205.94 312.828 197.3 326.556 197.3C332.796 197.3 338.94 199.22 343.26 203.444V212.468H342.972C338.556 206.9 332.604 204.116 326.652 204.116C318.78 204.116 314.748 208.436 314.748 214.388C314.748 231.092 345.564 224.852 345.564 248.18ZM397.214 260.852C392.99 264.404 386.846 266.228 380.318 266.228C366.494 266.228 355.934 257.012 355.934 240.308C355.934 223.796 365.342 214.292 378.206 214.292C390.11 214.292 399.422 223.22 399.422 236.66C399.422 237.908 399.326 239.732 399.326 241.076H363.422C363.518 253.268 370.91 259.796 381.278 259.796C388.19 259.796 393.566 257.012 396.83 252.884H397.214V260.852ZM378.206 220.724C370.046 220.724 364.574 226.1 363.614 234.932H392.03C391.838 226.676 386.174 220.724 378.206 220.724ZM420.061 264.5H412.957V216.02H419.677V220.244H419.773C423.421 216.788 427.453 214.292 432.445 214.292C434.269 214.292 435.997 214.58 437.533 215.156V222.932H437.245C435.421 221.684 433.405 221.108 431.293 221.108C426.973 221.108 423.325 223.508 420.061 226.868V264.5ZM467.099 264.5H462.107L441.371 216.02H449.435L464.795 252.98H464.891L480.059 216.02H487.835L467.099 264.5ZM533.058 260.852C528.834 264.404 522.69 266.228 516.161 266.228C502.338 266.228 491.778 257.012 491.778 240.308C491.778 223.796 501.186 214.292 514.05 214.292C525.954 214.292 535.266 223.22 535.266 236.66C535.266 237.908 535.17 239.732 535.17 241.076H499.266C499.362 253.268 506.754 259.796 517.122 259.796C524.034 259.796 529.41 257.012 532.674 252.884H533.058V260.852ZM514.05 220.724C505.89 220.724 500.418 226.1 499.458 234.932H527.874C527.682 226.676 522.018 220.724 514.05 220.724ZM555.905 264.5H548.801V216.02H555.521V220.244H555.617C559.265 216.788 563.297 214.292 568.289 214.292C570.113 214.292 571.841 214.58 573.377 215.156V222.932H573.089C571.265 221.684 569.249 221.108 567.137 221.108C562.817 221.108 559.169 223.508 555.905 226.868V264.5Z" fill="white"/>
<path d="M75.1328 312.445V341.672H71.4297V318.539C69.9922 320.945 68.5547 322.992 67.1172 324.68L65.1953 321.281C70.4453 314.984 74.0781 307.43 76.0938 298.617L79.6562 299.438C78.625 304.328 77.1172 308.664 75.1328 312.445ZM82.8672 301.031H86.5703V309.891L93.2734 308.273V298.477H96.7891V307.406L108.156 304.664V306.633C108.156 312.805 108.016 317.336 107.734 320.227C107.469 323.102 107.094 324.914 106.609 325.664C106.141 326.414 105.375 326.789 104.312 326.789C103.547 326.789 102.016 326.727 99.7188 326.602L99.2266 323.297C101.211 323.422 102.539 323.484 103.211 323.484C103.461 323.484 103.656 323.359 103.797 323.109C103.953 322.844 104.086 322.227 104.195 321.258C104.305 320.273 104.383 318.828 104.43 316.922C104.492 315 104.539 312.375 104.57 309.047L96.7891 310.898V330.539H93.2734V311.766L86.5703 313.453V333.094C86.5703 335.047 86.6719 336.211 86.875 336.586C87.0781 336.945 87.7578 337.172 88.9141 337.266C90.9922 337.422 92.7969 337.5 94.3281 337.5C95.8281 337.5 97.7344 337.422 100.047 337.266C100.938 337.203 101.562 337.164 101.922 337.148C102.297 337.133 102.758 337.039 103.305 336.867C103.852 336.68 104.203 336.555 104.359 336.492C104.531 336.43 104.766 336.172 105.062 335.719C105.375 335.25 105.555 334.891 105.602 334.641C105.648 334.375 105.742 333.805 105.883 332.93C106.023 332.039 106.117 331.289 106.164 330.68C106.211 330.07 106.281 329.047 106.375 327.609L109.938 328.336C109.812 330.414 109.688 332 109.562 333.094C109.453 334.172 109.234 335.227 108.906 336.258C108.594 337.273 108.289 337.977 107.992 338.367C107.695 338.773 107.141 339.164 106.328 339.539C105.531 339.914 104.742 340.148 103.961 340.242C103.18 340.336 102 340.43 100.422 340.523C97.9219 340.68 95.6719 340.758 93.6719 340.758C91.9375 340.758 89.9062 340.68 87.5781 340.523C85.3438 340.367 84 339.938 83.5469 339.234C83.0938 338.531 82.8672 336.547 82.8672 333.281V314.367L77.9219 315.562L77.2891 312.164L82.8672 310.805V301.031ZM119.641 335.906C129.812 335.016 137.367 332.484 142.305 328.312C147.258 324.141 150.547 317.477 152.172 308.32L155.688 308.883C153.922 318.805 150.273 326.148 144.742 330.914C139.227 335.664 131.047 338.5 120.203 339.422L119.641 335.906ZM145.07 299.438L147.719 298.055C149.031 300.195 150.375 302.578 151.75 305.203L149.102 306.539C147.945 304.336 146.602 301.969 145.07 299.438ZM151.562 298.664L154.234 297.234C155.516 299.375 156.891 301.82 158.359 304.57L155.688 305.906C154.281 303.25 152.906 300.836 151.562 298.664ZM117.719 317.25L118.375 313.828C123.969 314.781 129.172 315.758 133.984 316.758L133.305 320.227C125.695 318.727 120.5 317.734 117.719 317.25ZM119.781 305.438L120.438 301.969C126 302.859 131.445 303.852 136.773 304.945L136.094 308.367C131.594 307.445 126.156 306.469 119.781 305.438ZM175.117 308.648L178.773 308.039L180.203 316.148L199.656 312.117L200.312 315.422C199.766 318.172 198.734 320.836 197.219 323.414C195.703 325.992 193.906 328.109 191.828 329.766L189.227 327.375C190.961 325.969 192.477 324.281 193.773 322.312C195.07 320.344 195.992 318.305 196.539 316.195L180.836 319.453L184.422 339.281L180.789 339.938L177.227 320.227L167.734 322.195L167.055 318.867L176.617 316.898L175.117 308.648ZM215.055 305.766L216.789 302.508C221.914 305.07 226.805 307.789 231.461 310.664L229.609 313.922C225.188 311.172 220.336 308.453 215.055 305.766ZM252.156 307.641C248.922 326.078 237.102 336.188 216.695 337.969L216.109 334.383C225.484 333.523 232.852 330.828 238.211 326.297C243.57 321.766 247.055 315.289 248.664 306.867L252.156 307.641ZM268.328 302.133H272.172V311.578C272.172 317.844 271.812 322.742 271.094 326.273C270.375 329.789 269.273 332.461 267.789 334.289C266.305 336.117 264.102 337.719 261.18 339.094L259.211 335.906C261.773 334.656 263.664 333.273 264.883 331.758C266.102 330.242 266.977 327.969 267.508 324.938C268.055 321.891 268.328 317.438 268.328 311.578V302.133ZM284.664 335.109C288.664 334.469 291.859 332.617 294.25 329.555C296.656 326.492 298.102 322.391 298.586 317.25L302.078 317.672C301.5 324.266 299.375 329.445 295.703 333.211C292.047 336.961 287.344 338.836 281.594 338.836H280.82V302.133H284.664V335.109ZM338.945 315.047V307.875H331.516V315.047H338.945ZM338.945 325.406V318.07H331.516V325.406H338.945ZM338.945 328.477H331.516V335.953H338.945V328.477ZM323.008 314.93C323.258 314.93 323.43 314.891 323.523 314.812C323.633 314.734 323.734 314.469 323.828 314.016C323.922 313.547 323.984 312.898 324.016 312.07C324.047 311.227 324.078 309.961 324.109 308.273L326.359 308.508C328.281 305.148 329.773 301.547 330.836 297.703L334.375 298.336C333.766 300.539 333.047 302.664 332.219 304.711H339.461C340.32 302.789 341.141 300.453 341.922 297.703L345.414 298.242C344.805 300.445 344.055 302.602 343.164 304.711H349.844V307.875H342.484V315.047H349.023V318.07H342.484V325.406H349.023V328.477H342.484V335.953H350.406V339.094H331.516V341.812H327.859V312.867L327.133 313.875C326.945 315.734 326.555 316.914 325.961 317.414C325.367 317.914 324.25 318.164 322.609 318.164C320.984 318.164 319.938 317.93 319.469 317.461C319.016 316.992 318.789 315.883 318.789 314.133V305.719H315.625C315.234 309.688 314.414 312.758 313.164 314.93C311.914 317.086 309.977 318.945 307.352 320.508L305.594 317.297C307.609 316.078 309.102 314.633 310.07 312.961C311.055 311.273 311.703 308.859 312.016 305.719H306.789V302.602H312.25C312.281 301.742 312.297 300.305 312.297 298.289H315.906C315.906 300.273 315.891 301.711 315.859 302.602H322.188V313.828C322.188 314.344 322.227 314.656 322.305 314.766C322.383 314.875 322.617 314.93 323.008 314.93ZM314.711 316.148H318.391V321.562H326.078V324.68H318.977C321.414 326.914 323.945 329.523 326.57 332.508L324.438 334.945C322.547 332.602 320.5 330.336 318.297 328.148V341.484H314.805V328.805C312.789 332.195 310.359 335.172 307.516 337.734L305.383 335.016C309.164 331.781 312 328.336 313.891 324.68H306.391V321.562H314.711V316.148ZM359.102 339.797V341.906H355.609V327.562H370.234V339.797H359.102ZM359.102 336.773H366.883V330.633H359.102V336.773ZM382.633 298.852H386.266V302.789C386.266 306.477 387.227 309.531 389.148 311.953C391.07 314.359 394.047 316.219 398.078 317.531L396.883 320.742C390.992 318.914 386.883 315.555 384.555 310.664C382.258 315.586 378.125 318.945 372.156 320.742L370.961 317.531C374.93 316.25 377.867 314.414 379.773 312.023C381.68 309.617 382.633 306.539 382.633 302.789V298.852ZM372.344 310.289C374.047 307.57 375.234 304.562 375.906 301.266L379.164 302.086C378.461 305.477 377.211 308.625 375.414 311.531L372.344 310.289ZM392.805 310.758L389.641 309.328C391.625 306.734 393.094 303.836 394.047 300.633L397.305 301.594C396.32 304.922 394.82 307.977 392.805 310.758ZM382.633 317.203H386.266V323.109C386.266 330.344 390.281 335.25 398.312 337.828L397.117 341.109C391.164 339.219 386.992 335.805 384.602 330.867C382.227 335.852 378.047 339.266 372.062 341.109L370.914 337.828C374.883 336.547 377.828 334.711 379.75 332.32C381.672 329.914 382.633 326.844 382.633 323.109V317.203ZM371.641 330.305C373.344 327.586 374.523 324.578 375.18 321.281L378.438 322.055C377.734 325.477 376.492 328.641 374.711 331.547L371.641 330.305ZM393.039 331.453L389.875 330.023C391.859 327.43 393.328 324.531 394.281 321.328L397.562 322.336C396.562 325.633 395.055 328.672 393.039 331.453ZM355.609 303.422V300.305H370.141V303.422H355.609ZM354.25 310.242V307.031H371.547V310.242H354.25ZM355.938 317.016V313.969H370V317.016H355.938ZM355.938 323.812V320.742H370V323.812H355.938ZM407.055 304.055H440.664V336.398H407.055V333.047H436.961V307.406H407.055V304.055ZM454.047 335.203L454.234 331.453C465.953 331.875 477.797 333.156 489.766 335.297L489.273 339.047C477.43 336.906 465.688 335.625 454.047 335.203ZM458.078 319.734L458.312 315.984C467.531 316.375 476.703 317.367 485.828 318.961L485.289 322.711C475.945 321.086 466.875 320.094 458.078 319.734ZM456.297 305.766L456.484 302.133C467.234 302.492 477.812 303.453 488.219 305.016L487.797 308.648C477.359 307.117 466.859 306.156 456.297 305.766ZM508 310.945H530.078L528.297 333.984H536.078V337.172H503.922V333.984H524.453L526.047 314.133H508V310.945ZM552.297 307.641V304.055H583.703V307.641H552.297ZM548.945 336.398V332.789H587.055V336.398H548.945ZM601.258 305.953V302.602H630.742V305.953H601.258ZM595.844 315.562H636.156V318.914H619.703C619.672 324.711 618.406 329.227 615.906 332.461C613.406 335.695 609.359 338.062 603.766 339.562L602.711 336.258C607.508 334.883 610.891 332.891 612.859 330.281C614.828 327.672 615.828 323.883 615.859 318.914H595.844V315.562ZM648.438 323.25C653.938 322.484 659.289 320.82 664.492 318.258C669.695 315.695 673.945 312.656 677.242 309.141L679.398 311.578C676.352 314.812 672.562 317.664 668.031 320.133V339.656H664.328V321.938C659.203 324.281 654.086 325.805 648.977 326.508L648.438 323.25Z" fill="white"/>
</svg>
