<svg width="1024" height="512" viewBox="0 0 1024 512" fill="none" xmlns="http://www.w3.org/2000/svg">
<rect width="1024" height="512" fill="#1747E6"/>
<path d="M170.671 32L163.486 54.1115H140.237L159.046 67.777L151.861 89.8884L170.671 76.2227L189.48 89.8884L182.295 67.777L201.104 54.1115H177.855L170.671 32ZM170.671 43.52L175.269 57.6712H190.148L178.11 66.4175L182.708 80.5687L170.671 71.8227L158.633 80.5687L163.231 66.4175L151.193 57.6712H166.073L170.671 43.52Z" fill="#002F6C" fill-opacity="0.5"/>
<path d="M119.298 147.783L135.223 163.776L150.24 148.901C173.083 173.337 197.042 196.892 219.708 221.422C223.114 224.842 228.655 224.862 232.085 221.465C235.515 218.067 235.534 212.541 232.128 209.12C207.798 186.226 183.395 163.145 159.058 140.167L179.29 120.127L151.143 116.24L119.298 147.783Z" fill="#002F6C" fill-opacity="0.5"/>
<path d="M170.67 96C183.77 103.359 193.716 113.919 199.583 124.959C205.53 136.149 208.143 147.83 208.197 157.17C208.307 176.32 192.632 191.846 173.431 191.846C163.185 191.846 153.975 187.426 147.612 180.393L144.093 183.349C143.493 183.12 142.857 183.002 142.215 183.002C140.67 183.002 139.204 183.68 138.206 184.855C135.696 185.183 133.595 186.914 132.799 189.311C130.152 194.606 125.509 198.759 119.89 200.66C119.836 200.678 119.788 200.702 119.741 200.726C117.143 201.675 114.539 203.39 112.321 205.611C107.938 210.021 105.797 215.662 107.002 219.621C106.883 219.965 106.822 220.326 106.821 220.69C106.821 222.518 108.307 224 110.139 224C110.598 223.998 111.052 223.902 111.471 223.717C115.434 224.608 120.816 222.415 125.025 218.194C127.41 215.794 129.198 212.954 130.076 210.169C132.032 204.592 136.236 200.049 141.576 197.494C141.704 197.433 141.807 197.37 141.899 197.306C143.689 196.452 144.999 194.839 145.466 192.916C153.656 202.552 165.94 208.706 179.672 209.028C204.858 209.619 223.684 191.129 224.554 164.539C224.993 151.157 219.802 133.902 207.973 119.751C198.933 108.936 185.678 99.9574 170.67 96Z" fill="#002F6C" fill-opacity="0.5"/>
<path d="M103 280.5H96.5625L75.5625 257.312V280.5H70.25V234.812H75.5625V256.938L96.0312 234.812H102.125L81.9062 257L103 280.5ZM121.344 245.688C125.427 245.688 128.458 246.604 130.438 248.438C132.417 250.271 133.406 253.198 133.406 257.219V280.5H129.625L128.625 275.438H128.375C127.417 276.688 126.417 277.74 125.375 278.594C124.333 279.427 123.125 280.062 121.75 280.5C120.396 280.917 118.729 281.125 116.75 281.125C114.667 281.125 112.812 280.76 111.188 280.031C109.583 279.302 108.312 278.198 107.375 276.719C106.458 275.24 106 273.365 106 271.094C106 267.677 107.354 265.052 110.062 263.219C112.771 261.385 116.896 260.385 122.438 260.219L128.344 259.969V257.875C128.344 254.917 127.708 252.844 126.438 251.656C125.167 250.469 123.375 249.875 121.062 249.875C119.271 249.875 117.562 250.135 115.938 250.656C114.312 251.177 112.771 251.792 111.312 252.5L109.719 248.562C111.26 247.771 113.031 247.094 115.031 246.531C117.031 245.969 119.135 245.688 121.344 245.688ZM128.281 263.625L123.062 263.844C118.792 264.01 115.781 264.708 114.031 265.938C112.281 267.167 111.406 268.906 111.406 271.156C111.406 273.115 112 274.562 113.188 275.5C114.375 276.438 115.948 276.906 117.906 276.906C120.948 276.906 123.438 276.062 125.375 274.375C127.312 272.688 128.281 270.156 128.281 266.781V263.625ZM167.438 250.656H156.156V280.5H151.031V250.656H139.906V246.25H167.438V250.656ZM218.25 263.312C218.25 267.042 217.646 270.24 216.438 272.906C215.25 275.573 213.542 277.615 211.312 279.031C209.083 280.427 206.417 281.125 203.312 281.125C200.417 281.125 197.885 280.5 195.719 279.25C193.573 278 191.875 276.177 190.625 273.781C189.396 271.385 188.688 268.469 188.5 265.031H179.406V280.5H174.219V246.25H179.406V260.625H188.562C188.854 257.458 189.625 254.76 190.875 252.531C192.125 250.302 193.812 248.594 195.938 247.406C198.062 246.219 200.562 245.625 203.438 245.625C206.438 245.625 209.042 246.333 211.25 247.75C213.479 249.146 215.198 251.167 216.406 253.812C217.635 256.438 218.25 259.604 218.25 263.312ZM193.812 263.312C193.812 266.188 194.135 268.635 194.781 270.656C195.448 272.656 196.479 274.188 197.875 275.25C199.292 276.292 201.125 276.812 203.375 276.812C205.604 276.812 207.417 276.292 208.812 275.25C210.229 274.208 211.26 272.688 211.906 270.688C212.573 268.667 212.906 266.208 212.906 263.312C212.906 260.458 212.573 258.042 211.906 256.062C211.24 254.083 210.208 252.583 208.812 251.562C207.417 250.521 205.604 250 203.375 250C201.146 250 199.323 250.521 197.906 251.562C196.51 252.583 195.479 254.083 194.812 256.062C194.146 258.042 193.812 260.458 193.812 263.312ZM273.219 246.25V280.5H227.281V246.25H232.469V276.094H247.625V246.25H252.844V276.094H268.031V246.25H273.219ZM297.031 245.688C301.115 245.688 304.146 246.604 306.125 248.438C308.104 250.271 309.094 253.198 309.094 257.219V280.5H305.312L304.312 275.438H304.062C303.104 276.688 302.104 277.74 301.062 278.594C300.021 279.427 298.812 280.062 297.438 280.5C296.083 280.917 294.417 281.125 292.438 281.125C290.354 281.125 288.5 280.76 286.875 280.031C285.271 279.302 284 278.198 283.062 276.719C282.146 275.24 281.688 273.365 281.688 271.094C281.688 267.677 283.042 265.052 285.75 263.219C288.458 261.385 292.583 260.385 298.125 260.219L304.031 259.969V257.875C304.031 254.917 303.396 252.844 302.125 251.656C300.854 250.469 299.062 249.875 296.75 249.875C294.958 249.875 293.25 250.135 291.625 250.656C290 251.177 288.458 251.792 287 252.5L285.406 248.562C286.948 247.771 288.719 247.094 290.719 246.531C292.719 245.969 294.823 245.688 297.031 245.688ZM303.969 263.625L298.75 263.844C294.479 264.01 291.469 264.708 289.719 265.938C287.969 267.167 287.094 268.906 287.094 271.156C287.094 273.115 287.688 274.562 288.875 275.5C290.062 276.438 291.635 276.906 293.594 276.906C296.635 276.906 299.125 276.062 301.062 274.375C303 272.688 303.969 270.156 303.969 266.781V263.625ZM354.312 247.875V255.031H371.562V247.875H354.312ZM354.312 243.906H371.562V237.438H354.312V243.906ZM358.125 267.5H335.406V263.219H360.375V259.062H354.312H349.375V233.344H358.656C359.344 231.219 359.896 229.271 360.312 227.5L365.375 227.906C364.812 230.344 364.323 232.156 363.906 233.344H376.5V259.062H365.5V263.219H390.469V267.5H367.75C373.417 272.417 381.604 276.875 392.312 280.875L390.531 285.031C379.698 280.719 371.354 275.969 365.5 270.781V286.062H360.375V270.781C354.521 275.99 346.177 280.74 335.344 285.031L333.562 280.875C344.271 276.875 352.458 272.417 358.125 267.5ZM344.5 244.031C341.688 241.344 338.104 238.396 333.75 235.188L336.75 231.594C341.104 234.802 344.708 237.771 347.562 240.5L344.5 244.031ZM333.312 256C338.271 253.729 342.604 251.271 346.312 248.625L348.531 252.469C344.698 255.281 340.281 257.823 335.281 260.094L333.312 256ZM381.312 243.969L378.219 240.5C381.969 237.729 385.562 234.781 389 231.656L392.125 235.062C389.271 237.792 385.667 240.76 381.312 243.969ZM377.219 252.531L379.438 248.562C384.729 250.958 389.146 253.458 392.688 256.062L390.25 260.031C386.417 257.24 382.073 254.74 377.219 252.531ZM404.406 283.562V286.375H399.938V267.25H417.656V283.562H404.406ZM404.406 279.531H413.375V271.344H404.406V279.531ZM431.031 252.156V237.625H419.781V233.594H428.219C427.198 231.635 426.156 229.781 425.094 228.031L429.562 226.938C431.021 229.333 432.281 231.552 433.344 233.594H441.781C443.156 231.323 444.333 229.104 445.312 226.938L449.844 227.906C448.99 229.74 448.01 231.635 446.906 233.594H455.094V237.625H443.906V252.156H456.25V256.062H418.625V252.156H431.031ZM426.938 279.656H447.938V273.594H426.938V279.656ZM426.938 283.375V286.125H422V260.219H452.844V286.125H447.938V283.375H426.938ZM399.938 235.062V230.906H417.531V235.062H399.938ZM398.125 244.156V239.875H419.062V244.156H398.125ZM400.375 253.188V249.125H417.344V253.188H400.375ZM400.375 262.25V258.156H417.344V262.25H400.375ZM439.75 237.625H435.125V252.156H439.75V237.625ZM420.344 240.312L424.375 238.719C426.125 241.927 427.792 245.552 429.375 249.594L425.344 251.062C423.927 247.354 422.26 243.771 420.344 240.312ZM445.25 249.344C447.375 246.177 449.062 242.635 450.312 238.719L454.344 240.125C453.115 244.146 451.406 247.792 449.219 251.062L445.25 249.344ZM447.938 270.062V264H426.938V270.062H447.938ZM477.125 234.812C483.021 234.812 487.323 235.969 490.031 238.281C492.76 240.573 494.125 243.865 494.125 248.156C494.125 250.094 493.802 251.938 493.156 253.688C492.531 255.417 491.51 256.948 490.094 258.281C488.677 259.594 486.812 260.635 484.5 261.406C482.208 262.156 479.396 262.531 476.062 262.531H470.5V280.5H465.188V234.812H477.125ZM476.625 239.344H470.5V257.969H475.469C478.385 257.969 480.812 257.656 482.75 257.031C484.708 256.406 486.177 255.396 487.156 254C488.135 252.583 488.625 250.708 488.625 248.375C488.625 245.333 487.656 243.073 485.719 241.594C483.781 240.094 480.75 239.344 476.625 239.344ZM539.969 257.219C539.969 262.365 539.031 266.667 537.156 270.125C535.281 273.562 532.562 276.156 529 277.906C525.458 279.635 521.156 280.5 516.094 280.5H503.688V234.812H517.469C522.115 234.812 526.115 235.667 529.469 237.375C532.823 239.062 535.406 241.573 537.219 244.906C539.052 248.219 539.969 252.323 539.969 257.219ZM534.375 257.406C534.375 253.302 533.688 249.917 532.312 247.25C530.958 244.583 528.958 242.604 526.312 241.312C523.688 240 520.469 239.344 516.656 239.344H509V275.938H515.469C521.76 275.938 526.479 274.385 529.625 271.281C532.792 268.177 534.375 263.552 534.375 257.406ZM555.438 280.5H550.125V234.812H575.562V239.5H555.438V256.25H574.344V260.906H555.438V280.5Z" fill="white"/>
</svg>
