<svg width="1024" height="512" viewBox="0 0 1024 512" fill="none" xmlns="http://www.w3.org/2000/svg">
<rect width="1024" height="512" fill="#1747E6"/>
<path d="M170.671 32L163.486 54.1115H140.237L159.046 67.777L151.861 89.8884L170.671 76.2227L189.48 89.8884L182.295 67.777L201.104 54.1115H177.855L170.671 32ZM170.671 43.52L175.269 57.6712H190.148L178.11 66.4175L182.708 80.5687L170.671 71.8227L158.633 80.5687L163.231 66.4175L151.193 57.6712H166.073L170.671 43.52Z" fill="#002F6C" fill-opacity="0.5"/>
<path d="M119.298 147.783L135.223 163.776L150.24 148.901C173.083 173.337 197.042 196.892 219.708 221.422C223.114 224.842 228.655 224.862 232.085 221.465C235.515 218.067 235.534 212.541 232.128 209.12C207.798 186.226 183.395 163.145 159.058 140.167L179.29 120.127L151.143 116.24L119.298 147.783Z" fill="#002F6C" fill-opacity="0.5"/>
<path d="M170.67 96C183.77 103.359 193.716 113.919 199.583 124.959C205.53 136.149 208.143 147.83 208.197 157.17C208.307 176.32 192.632 191.846 173.431 191.846C163.185 191.846 153.975 187.426 147.612 180.393L144.093 183.349C143.493 183.12 142.857 183.002 142.215 183.002C140.67 183.002 139.204 183.68 138.206 184.855C135.696 185.183 133.595 186.914 132.799 189.311C130.152 194.606 125.509 198.759 119.89 200.66C119.836 200.678 119.788 200.702 119.741 200.726C117.143 201.675 114.539 203.39 112.321 205.611C107.938 210.021 105.797 215.662 107.002 219.621C106.883 219.965 106.822 220.326 106.821 220.69C106.821 222.518 108.307 224 110.139 224C110.598 223.998 111.052 223.902 111.471 223.717C115.434 224.608 120.816 222.415 125.025 218.194C127.41 215.794 129.198 212.954 130.076 210.169C132.032 204.592 136.236 200.049 141.576 197.494C141.704 197.433 141.807 197.37 141.899 197.306C143.689 196.452 144.999 194.839 145.466 192.916C153.656 202.552 165.94 208.706 179.672 209.028C204.858 209.619 223.684 191.129 224.554 164.539C224.993 151.157 219.802 133.902 207.973 119.751C198.933 108.936 185.678 99.9574 170.67 96Z" fill="#002F6C" fill-opacity="0.5"/>
<path d="M103 280.5H96.5625L75.5625 257.312V280.5H70.25V234.812H75.5625V256.938L96.0312 234.812H102.125L81.9062 257L103 280.5ZM138.062 263.312C138.062 266.125 137.698 268.635 136.969 270.844C136.24 273.052 135.188 274.917 133.812 276.438C132.438 277.958 130.771 279.125 128.812 279.938C126.875 280.729 124.677 281.125 122.219 281.125C119.927 281.125 117.823 280.729 115.906 279.938C114.01 279.125 112.365 277.958 110.969 276.438C109.594 274.917 108.521 273.052 107.75 270.844C107 268.635 106.625 266.125 106.625 263.312C106.625 259.562 107.26 256.375 108.531 253.75C109.802 251.104 111.615 249.094 113.969 247.719C116.344 246.323 119.167 245.625 122.438 245.625C125.562 245.625 128.292 246.323 130.625 247.719C132.979 249.115 134.802 251.135 136.094 253.781C137.406 256.406 138.062 259.583 138.062 263.312ZM112 263.312C112 266.062 112.365 268.448 113.094 270.469C113.823 272.49 114.948 274.052 116.469 275.156C117.99 276.26 119.948 276.812 122.344 276.812C124.719 276.812 126.667 276.26 128.188 275.156C129.729 274.052 130.865 272.49 131.594 270.469C132.323 268.448 132.688 266.062 132.688 263.312C132.688 260.583 132.323 258.229 131.594 256.25C130.865 254.25 129.74 252.708 128.219 251.625C126.698 250.542 124.729 250 122.312 250C118.75 250 116.135 251.177 114.469 253.531C112.823 255.885 112 259.146 112 263.312ZM163.125 245.625C167.396 245.625 170.802 247.094 173.344 250.031C175.885 252.969 177.156 257.385 177.156 263.281C177.156 267.177 176.573 270.448 175.406 273.094C174.24 275.74 172.594 277.74 170.469 279.094C168.365 280.448 165.875 281.125 163 281.125C161.188 281.125 159.594 280.885 158.219 280.406C156.844 279.927 155.667 279.281 154.688 278.469C153.708 277.656 152.896 276.771 152.25 275.812H151.875C151.938 276.625 152.01 277.604 152.094 278.75C152.198 279.896 152.25 280.896 152.25 281.75V295.812H147.031V246.25H151.312L152 251.312H152.25C152.917 250.271 153.729 249.323 154.688 248.469C155.646 247.594 156.812 246.906 158.188 246.406C159.583 245.885 161.229 245.625 163.125 245.625ZM162.219 250C159.844 250 157.927 250.458 156.469 251.375C155.031 252.292 153.979 253.667 153.312 255.5C152.646 257.312 152.292 259.594 152.25 262.344V263.344C152.25 266.24 152.562 268.688 153.188 270.688C153.833 272.688 154.885 274.208 156.344 275.25C157.823 276.292 159.802 276.812 162.281 276.812C164.406 276.812 166.177 276.24 167.594 275.094C169.01 273.948 170.062 272.354 170.75 270.312C171.458 268.25 171.812 265.885 171.812 263.219C171.812 259.177 171.021 255.969 169.438 253.594C167.875 251.198 165.469 250 162.219 250ZM215.75 263.312C215.75 266.125 215.385 268.635 214.656 270.844C213.927 273.052 212.875 274.917 211.5 276.438C210.125 277.958 208.458 279.125 206.5 279.938C204.562 280.729 202.365 281.125 199.906 281.125C197.615 281.125 195.51 280.729 193.594 279.938C191.698 279.125 190.052 277.958 188.656 276.438C187.281 274.917 186.208 273.052 185.438 270.844C184.688 268.635 184.312 266.125 184.312 263.312C184.312 259.562 184.948 256.375 186.219 253.75C187.49 251.104 189.302 249.094 191.656 247.719C194.031 246.323 196.854 245.625 200.125 245.625C203.25 245.625 205.979 246.323 208.312 247.719C210.667 249.115 212.49 251.135 213.781 253.781C215.094 256.406 215.75 259.583 215.75 263.312ZM189.688 263.312C189.688 266.062 190.052 268.448 190.781 270.469C191.51 272.49 192.635 274.052 194.156 275.156C195.677 276.26 197.635 276.812 200.031 276.812C202.406 276.812 204.354 276.26 205.875 275.156C207.417 274.052 208.552 272.49 209.281 270.469C210.01 268.448 210.375 266.062 210.375 263.312C210.375 260.583 210.01 258.229 209.281 256.25C208.552 254.25 207.427 252.708 205.906 251.625C204.385 250.542 202.417 250 200 250C196.438 250 193.823 251.177 192.156 253.531C190.51 255.885 189.688 259.146 189.688 263.312ZM222.938 259.938C222.938 255.062 223.406 250.906 224.344 247.469C225.281 244.01 226.729 241.24 228.688 239.156C230.667 237.052 233.208 235.615 236.312 234.844C238.979 234.115 241.688 233.49 244.438 232.969C247.188 232.427 249.865 231.958 252.469 231.562L253.375 236.125C252.062 236.312 250.688 236.531 249.25 236.781C247.812 237.01 246.375 237.26 244.938 237.531C243.5 237.781 242.146 238.052 240.875 238.344C239.604 238.615 238.479 238.896 237.5 239.188C235.729 239.667 234.198 240.5 232.906 241.688C231.635 242.875 230.625 244.51 229.875 246.594C229.146 248.677 228.708 251.302 228.562 254.469H228.938C229.562 253.552 230.417 252.646 231.5 251.75C232.583 250.854 233.875 250.115 235.375 249.531C236.875 248.927 238.562 248.625 240.438 248.625C243.396 248.625 245.865 249.271 247.844 250.562C249.823 251.833 251.312 253.625 252.312 255.938C253.312 258.25 253.812 260.958 253.812 264.062C253.812 267.792 253.167 270.927 251.875 273.469C250.604 276.01 248.812 277.927 246.5 279.219C244.188 280.49 241.469 281.125 238.344 281.125C235.927 281.125 233.76 280.656 231.844 279.719C229.948 278.781 228.333 277.406 227 275.594C225.688 273.781 224.677 271.562 223.969 268.938C223.281 266.312 222.938 263.312 222.938 259.938ZM238.75 276.812C240.729 276.812 242.427 276.396 243.844 275.562C245.281 274.729 246.385 273.417 247.156 271.625C247.948 269.812 248.344 267.458 248.344 264.562C248.344 260.938 247.646 258.104 246.25 256.062C244.875 254 242.667 252.969 239.625 252.969C237.729 252.969 236.01 253.375 234.469 254.188C232.927 254.979 231.625 255.927 230.562 257.031C229.5 258.135 228.729 259.125 228.25 260C228.25 262.125 228.406 264.188 228.719 266.188C229.031 268.188 229.573 269.99 230.344 271.594C231.115 273.198 232.177 274.469 233.531 275.406C234.906 276.344 236.646 276.812 238.75 276.812ZM275.969 245.625C278.885 245.625 281.385 246.271 283.469 247.562C285.552 248.854 287.146 250.667 288.25 253C289.354 255.312 289.906 258.021 289.906 261.125V264.344H266.25C266.312 268.365 267.312 271.427 269.25 273.531C271.188 275.635 273.917 276.688 277.438 276.688C279.604 276.688 281.521 276.49 283.188 276.094C284.854 275.698 286.583 275.115 288.375 274.344V278.906C286.646 279.677 284.927 280.24 283.219 280.594C281.531 280.948 279.531 281.125 277.219 281.125C273.927 281.125 271.052 280.458 268.594 279.125C266.156 277.771 264.26 275.792 262.906 273.188C261.552 270.583 260.875 267.396 260.875 263.625C260.875 259.938 261.49 256.75 262.719 254.062C263.969 251.354 265.719 249.271 267.969 247.812C270.24 246.354 272.906 245.625 275.969 245.625ZM275.906 249.875C273.135 249.875 270.927 250.781 269.281 252.594C267.635 254.406 266.656 256.938 266.344 260.188H284.469C284.448 258.146 284.125 256.354 283.5 254.812C282.896 253.25 281.969 252.042 280.719 251.188C279.469 250.312 277.865 249.875 275.906 249.875ZM303.656 246.25V267.781C303.656 268.198 303.646 268.74 303.625 269.406C303.604 270.052 303.573 270.75 303.531 271.5C303.49 272.229 303.448 272.938 303.406 273.625C303.385 274.292 303.354 274.844 303.312 275.281L322 246.25H328.375V280.5H323.531V259.5C323.531 258.833 323.542 257.979 323.562 256.938C323.583 255.896 323.615 254.875 323.656 253.875C323.698 252.854 323.729 252.062 323.75 251.5L305.125 280.5H298.719V246.25H303.656ZM325.812 232.156C325.625 234.26 325.094 236.021 324.219 237.438C323.365 238.854 322.104 239.927 320.438 240.656C318.771 241.365 316.635 241.719 314.031 241.719C311.344 241.719 309.177 241.375 307.531 240.688C305.906 239.979 304.698 238.917 303.906 237.5C303.135 236.083 302.677 234.302 302.531 232.156H307.406C307.635 234.448 308.25 236.01 309.25 236.844C310.25 237.677 311.875 238.094 314.125 238.094C316.125 238.094 317.698 237.656 318.844 236.781C319.99 235.906 320.677 234.365 320.906 232.156H325.812ZM344.625 246.25V260.625H363.719V246.25H368.906V280.5H363.719V265.031H344.625V280.5H339.406V246.25H344.625ZM384.844 246.25V267.781C384.844 268.198 384.833 268.74 384.812 269.406C384.792 270.052 384.76 270.75 384.719 271.5C384.677 272.229 384.635 272.938 384.594 273.625C384.573 274.292 384.542 274.844 384.5 275.281L403.188 246.25H409.562V280.5H404.719V259.5C404.719 258.833 404.729 257.979 404.75 256.938C404.771 255.896 404.802 254.875 404.844 253.875C404.885 252.854 404.917 252.062 404.938 251.5L386.312 280.5H379.906V246.25H384.844ZM440.562 246.25H446.281L431.5 262.781L447.469 280.5H441.375L425.812 263.125V280.5H420.594V246.25H425.812V262.875L440.562 246.25ZM458.594 246.25V267.781C458.594 268.198 458.583 268.74 458.562 269.406C458.542 270.052 458.51 270.75 458.469 271.5C458.427 272.229 458.385 272.938 458.344 273.625C458.323 274.292 458.292 274.844 458.25 275.281L476.938 246.25H483.312V280.5H478.469V259.5C478.469 258.833 478.479 257.979 478.5 256.938C478.521 255.896 478.552 254.875 478.594 253.875C478.635 252.854 478.667 252.062 478.688 251.5L460.062 280.5H453.656V246.25H458.594ZM528.875 247.875V255.031H546.125V247.875H528.875ZM528.875 243.906H546.125V237.438H528.875V243.906ZM532.688 267.5H509.969V263.219H534.938V259.062H528.875H523.938V233.344H533.219C533.906 231.219 534.458 229.271 534.875 227.5L539.938 227.906C539.375 230.344 538.885 232.156 538.469 233.344H551.062V259.062H540.062V263.219H565.031V267.5H542.312C547.979 272.417 556.167 276.875 566.875 280.875L565.094 285.031C554.26 280.719 545.917 275.969 540.062 270.781V286.062H534.938V270.781C529.083 275.99 520.74 280.74 509.906 285.031L508.125 280.875C518.833 276.875 527.021 272.417 532.688 267.5ZM519.062 244.031C516.25 241.344 512.667 238.396 508.312 235.188L511.312 231.594C515.667 234.802 519.271 237.771 522.125 240.5L519.062 244.031ZM507.875 256C512.833 253.729 517.167 251.271 520.875 248.625L523.094 252.469C519.26 255.281 514.844 257.823 509.844 260.094L507.875 256ZM555.875 243.969L552.781 240.5C556.531 237.729 560.125 234.781 563.562 231.656L566.688 235.062C563.833 237.792 560.229 240.76 555.875 243.969ZM551.781 252.531L554 248.562C559.292 250.958 563.708 253.458 567.25 256.062L564.812 260.031C560.979 257.24 556.635 254.74 551.781 252.531ZM578.969 283.562V286.375H574.5V267.25H592.219V283.562H578.969ZM578.969 279.531H587.938V271.344H578.969V279.531ZM605.594 252.156V237.625H594.344V233.594H602.781C601.76 231.635 600.719 229.781 599.656 228.031L604.125 226.938C605.583 229.333 606.844 231.552 607.906 233.594H616.344C617.719 231.323 618.896 229.104 619.875 226.938L624.406 227.906C623.552 229.74 622.573 231.635 621.469 233.594H629.656V237.625H618.469V252.156H630.812V256.062H593.188V252.156H605.594ZM601.5 279.656H622.5V273.594H601.5V279.656ZM601.5 283.375V286.125H596.562V260.219H627.406V286.125H622.5V283.375H601.5ZM574.5 235.062V230.906H592.094V235.062H574.5ZM572.688 244.156V239.875H593.625V244.156H572.688ZM574.938 253.188V249.125H591.906V253.188H574.938ZM574.938 262.25V258.156H591.906V262.25H574.938ZM614.312 237.625H609.688V252.156H614.312V237.625ZM594.906 240.312L598.938 238.719C600.688 241.927 602.354 245.552 603.938 249.594L599.906 251.062C598.49 247.354 596.823 243.771 594.906 240.312ZM619.812 249.344C621.938 246.177 623.625 242.635 624.875 238.719L628.906 240.125C627.677 244.146 625.969 247.792 623.781 251.062L619.812 249.344ZM622.5 270.062V264H601.5V270.062H622.5ZM651.688 234.812C657.583 234.812 661.885 235.969 664.594 238.281C667.323 240.573 668.688 243.865 668.688 248.156C668.688 250.094 668.365 251.938 667.719 253.688C667.094 255.417 666.073 256.948 664.656 258.281C663.24 259.594 661.375 260.635 659.062 261.406C656.771 262.156 653.958 262.531 650.625 262.531H645.062V280.5H639.75V234.812H651.688ZM651.188 239.344H645.062V257.969H650.031C652.948 257.969 655.375 257.656 657.312 257.031C659.271 256.406 660.74 255.396 661.719 254C662.698 252.583 663.188 250.708 663.188 248.375C663.188 245.333 662.219 243.073 660.281 241.594C658.344 240.094 655.312 239.344 651.188 239.344ZM714.531 257.219C714.531 262.365 713.594 266.667 711.719 270.125C709.844 273.562 707.125 276.156 703.562 277.906C700.021 279.635 695.719 280.5 690.656 280.5H678.25V234.812H692.031C696.677 234.812 700.677 235.667 704.031 237.375C707.385 239.062 709.969 241.573 711.781 244.906C713.615 248.219 714.531 252.323 714.531 257.219ZM708.938 257.406C708.938 253.302 708.25 249.917 706.875 247.25C705.521 244.583 703.521 242.604 700.875 241.312C698.25 240 695.031 239.344 691.219 239.344H683.562V275.938H690.031C696.323 275.938 701.042 274.385 704.188 271.281C707.354 268.177 708.938 263.552 708.938 257.406ZM730 280.5H724.688V234.812H750.125V239.5H730V256.25H748.906V260.906H730V280.5Z" fill="white"/>
</svg>
