<svg width="1024" height="512" viewBox="0 0 1024 512" fill="none" xmlns="http://www.w3.org/2000/svg">
<g clip-path="url(#clip0_1273_15)">
<rect width="1024" height="512" fill="#1747E6"/>
<path d="M0 256H1024.36ZM369.909 -57V569Z" fill="black"/>
<path d="M0 256H1024.36M369.909 -57V569" stroke="#002F6C" stroke-opacity="0.5" stroke-width="170"/>
<path d="M94.272 222.12C94.272 228.84 89.344 234.152 80.512 234.152C75.904 234.152 71.424 232.872 68.416 230.056V224.04H68.608C71.68 227.688 75.968 229.608 80.384 229.608C85.888 229.608 89.216 226.856 89.216 222.504C89.216 211.24 68.608 215.272 68.608 199.976C68.608 193.96 72.448 188.2 81.6 188.2C85.76 188.2 89.856 189.48 92.736 192.296V198.312H92.544C89.6 194.6 85.632 192.744 81.664 192.744C76.416 192.744 73.728 195.624 73.728 199.592C73.728 210.728 94.272 206.568 94.272 222.12ZM126.872 233H122.264V230.376H122.136C119.64 232.68 116.376 234.152 112.344 234.152C106.135 234.152 101.464 230.312 101.464 224.104C101.464 217.768 105.816 213.672 113.432 213.672C116.76 213.672 119.704 214.44 122.136 215.72V212.328C122.136 206.248 118.168 203.816 113.304 203.816C109.272 203.816 105.752 205.864 103.64 208.36H103.448V203.304C106.264 200.872 110.104 199.528 114.135 199.528C121.368 199.528 126.872 203.432 126.872 212.008V233ZM122.136 226.152V219.816C120.088 218.536 117.144 217.64 114.264 217.64C109.208 217.64 106.264 219.816 106.264 223.784C106.264 227.24 108.76 229.992 113.816 229.992C117.016 229.992 119.96 228.584 122.136 226.152ZM110.36 189.928H105.496V185H110.36V189.928ZM123.416 189.928H118.424V185H123.416V189.928ZM142.493 233H137.757V185H142.493V233ZM162.717 233H156.829L143.325 216.744V216.488L156.317 200.68H161.949L148.893 216.296V216.424L162.717 233ZM174.181 233H169.445V185H174.181V233ZM194.405 233H188.517L175.013 216.744V216.488L188.005 200.68H193.637L180.581 216.296V216.424L194.405 233ZM205.868 233H201.132V200.68H205.868V233ZM206.124 189.928H200.876V185H206.124V189.928ZM222.124 189.928H216.876V185H222.124V189.928ZM221.868 243.688L217.324 245.352H217.132V200.68H221.868V243.688ZM256.684 233H252.076V230.376H251.948C249.452 232.68 246.188 234.152 242.156 234.152C235.948 234.152 231.276 230.312 231.276 224.104C231.276 217.768 235.628 213.672 243.244 213.672C246.572 213.672 249.516 214.44 251.948 215.72V212.328C251.948 206.248 247.98 203.816 243.116 203.816C239.084 203.816 235.564 205.864 233.452 208.36H233.26V203.304C236.076 200.872 239.916 199.528 243.948 199.528C251.18 199.528 256.684 203.432 256.684 212.008V233ZM251.948 226.152V219.816C249.9 218.536 246.956 217.64 244.076 217.64C239.02 217.64 236.076 219.816 236.076 223.784C236.076 227.24 238.572 229.992 243.628 229.992C246.828 229.992 249.772 228.584 251.948 226.152ZM240.172 189.928H235.308V185H240.172V189.928ZM253.228 189.928H248.236V185H253.228V189.928ZM272.562 233H267.826V200.68H272.306V203.496H272.37C274.802 201.192 277.49 199.528 280.818 199.528C282.034 199.528 283.186 199.72 284.21 200.104V205.288H284.018C282.802 204.456 281.458 204.072 280.05 204.072C277.17 204.072 274.738 205.672 272.562 207.912V233ZM303.92 233H300.592L286.768 200.68H292.144L302.384 225.32H302.448L312.56 200.68H317.744L303.92 233ZM347.893 230.568C345.077 232.936 340.981 234.152 336.628 234.152C327.413 234.152 320.373 228.008 320.373 216.872C320.373 205.864 326.645 199.528 335.221 199.528C343.157 199.528 349.365 205.48 349.365 214.44C349.365 215.272 349.301 216.488 349.301 217.384H325.365C325.429 225.512 330.357 229.864 337.269 229.864C341.877 229.864 345.461 228.008 347.637 225.256H347.893V230.568ZM335.221 203.816C329.781 203.816 326.133 207.4 325.493 213.288H344.437C344.309 207.784 340.533 203.816 335.221 203.816ZM385.268 233H380.532V212.776C380.532 206.632 376.756 203.944 371.828 203.944C368.116 203.944 365.172 205.352 362.868 207.976V233H358.132V200.68H362.804V203.432H362.868C365.556 201 368.948 199.528 373.044 199.528C379.764 199.528 385.268 203.304 385.268 211.24V233ZM441.225 202.536C441.225 210.728 435.785 217.192 419.145 218.536V233H414.153V189.352H425.737C434.249 189.352 441.225 193.64 441.225 202.536ZM436.041 202.92C436.041 197.16 431.689 194.088 425.609 194.088H419.145V213.8C431.945 213.032 436.041 208.168 436.041 202.92ZM471.184 216.872C471.184 208.68 466.704 203.816 460.432 203.816C454.096 203.816 449.552 208.552 449.552 216.872C449.552 225.064 454.032 229.864 460.304 229.864C466.64 229.864 471.184 225.192 471.184 216.872ZM476.24 216.872C476.24 227.88 469.264 234.152 460.304 234.152C451.472 234.152 444.56 227.944 444.56 216.872C444.56 205.736 451.472 199.528 460.432 199.528C469.264 199.528 476.24 205.736 476.24 216.872ZM489.118 233H484.382V185H489.118V233ZM505.118 233H500.382V185H505.118V233ZM525.342 233H519.454L505.95 216.744V216.488L518.942 200.68H524.574L511.518 216.296V216.424L525.342 233ZM536.806 233H532.07V185H536.806V233ZM557.03 233H551.142L537.638 216.744V216.488L550.63 200.68H556.262L543.206 216.296V216.424L557.03 233ZM585.934 233H581.326V230.376H581.198C578.702 232.68 575.438 234.152 571.406 234.152C565.198 234.152 560.526 230.312 560.526 224.104C560.526 217.768 564.878 213.672 572.494 213.672C575.822 213.672 578.766 214.44 581.198 215.72V212.328C581.198 206.248 577.23 203.816 572.366 203.816C568.334 203.816 564.814 205.864 562.702 208.36H562.51V203.304C565.326 200.872 569.166 199.528 573.198 199.528C580.43 199.528 585.934 203.432 585.934 212.008V233ZM581.198 226.152V219.816C579.15 218.536 576.206 217.64 573.326 217.64C568.27 217.64 565.326 219.816 565.326 223.784C565.326 227.24 567.822 229.992 572.878 229.992C576.078 229.992 579.022 228.584 581.198 226.152ZM87.375 295.375V302.531H104.625V295.375H87.375ZM87.375 291.406H104.625V284.938H87.375V291.406ZM91.1875 315H68.4688V310.719H93.4375V306.562H87.375H82.4375V280.844H91.7188C92.4062 278.719 92.9583 276.771 93.375 275L98.4375 275.406C97.875 277.844 97.3854 279.656 96.9688 280.844H109.562V306.562H98.5625V310.719H123.531V315H100.812C106.479 319.917 114.667 324.375 125.375 328.375L123.594 332.531C112.76 328.219 104.417 323.469 98.5625 318.281V333.562H93.4375V318.281C87.5833 323.49 79.2396 328.24 68.4062 332.531L66.625 328.375C77.3333 324.375 85.5208 319.917 91.1875 315ZM77.5625 291.531C74.75 288.844 71.1667 285.896 66.8125 282.688L69.8125 279.094C74.1667 282.302 77.7708 285.271 80.625 288L77.5625 291.531ZM66.375 303.5C71.3333 301.229 75.6667 298.771 79.375 296.125L81.5938 299.969C77.7604 302.781 73.3438 305.323 68.3438 307.594L66.375 303.5ZM114.375 291.469L111.281 288C115.031 285.229 118.625 282.281 122.062 279.156L125.188 282.562C122.333 285.292 118.729 288.26 114.375 291.469ZM110.281 300.031L112.5 296.062C117.792 298.458 122.208 300.958 125.75 303.562L123.312 307.531C119.479 304.74 115.135 302.24 110.281 300.031ZM137.469 331.062V333.875H133V314.75H150.719V331.062H137.469ZM137.469 327.031H146.438V318.844H137.469V327.031ZM164.094 299.656V285.125H152.844V281.094H161.281C160.26 279.135 159.219 277.281 158.156 275.531L162.625 274.438C164.083 276.833 165.344 279.052 166.406 281.094H174.844C176.219 278.823 177.396 276.604 178.375 274.438L182.906 275.406C182.052 277.24 181.073 279.135 179.969 281.094H188.156V285.125H176.969V299.656H189.312V303.562H151.688V299.656H164.094ZM160 327.156H181V321.094H160V327.156ZM160 330.875V333.625H155.062V307.719H185.906V333.625H181V330.875H160ZM133 282.562V278.406H150.594V282.562H133ZM131.188 291.656V287.375H152.125V291.656H131.188ZM133.438 300.688V296.625H150.406V300.688H133.438ZM133.438 309.75V305.656H150.406V309.75H133.438ZM172.812 285.125H168.188V299.656H172.812V285.125ZM153.406 287.812L157.438 286.219C159.188 289.427 160.854 293.052 162.438 297.094L158.406 298.562C156.99 294.854 155.323 291.271 153.406 287.812ZM178.312 296.844C180.438 293.677 182.125 290.135 183.375 286.219L187.406 287.625C186.177 291.646 184.469 295.292 182.281 298.562L178.312 296.844ZM181 317.562V311.5H160V317.562H181ZM210.188 282.312C216.083 282.312 220.385 283.469 223.094 285.781C225.823 288.073 227.188 291.365 227.188 295.656C227.188 297.594 226.865 299.438 226.219 301.188C225.594 302.917 224.573 304.448 223.156 305.781C221.74 307.094 219.875 308.135 217.562 308.906C215.271 309.656 212.458 310.031 209.125 310.031H203.562V328H198.25V282.312H210.188ZM209.688 286.844H203.562V305.469H208.531C211.448 305.469 213.875 305.156 215.812 304.531C217.771 303.906 219.24 302.896 220.219 301.5C221.198 300.083 221.688 298.208 221.688 295.875C221.688 292.833 220.719 290.573 218.781 289.094C216.844 287.594 213.812 286.844 209.688 286.844ZM273.031 304.719C273.031 309.865 272.094 314.167 270.219 317.625C268.344 321.062 265.625 323.656 262.062 325.406C258.521 327.135 254.219 328 249.156 328H236.75V282.312H250.531C255.177 282.312 259.177 283.167 262.531 284.875C265.885 286.562 268.469 289.073 270.281 292.406C272.115 295.719 273.031 299.823 273.031 304.719ZM267.438 304.906C267.438 300.802 266.75 297.417 265.375 294.75C264.021 292.083 262.021 290.104 259.375 288.812C256.75 287.5 253.531 286.844 249.719 286.844H242.062V323.438H248.531C254.823 323.438 259.542 321.885 262.688 318.781C265.854 315.677 267.438 311.052 267.438 304.906ZM288.5 328H283.188V282.312H308.625V287H288.5V303.75H307.406V308.406H288.5V328Z" fill="white"/>
</g>
<defs>
<clipPath id="clip0_1273_15">
<rect width="1024" height="512" fill="white"/>
</clipPath>
</defs>
</svg>
