<svg width="1024" height="512" viewBox="0 0 1024 512" fill="none" xmlns="http://www.w3.org/2000/svg">
<rect width="1024" height="512" fill="#F2C13D"/>
<path d="M127.264 231.764C127.264 253.844 111.904 264.5 93.856 264.5H73.792V199.028H93.856C111.808 199.028 127.264 209.684 127.264 231.764ZM119.488 231.764C119.488 214.772 108.352 206.132 93.856 206.132H81.28V257.396H93.856C108.352 257.396 119.488 248.852 119.488 231.764ZM178.026 260.852C173.802 264.404 167.658 266.228 161.13 266.228C147.306 266.228 136.746 257.012 136.746 240.308C136.746 223.796 146.154 214.292 159.018 214.292C170.922 214.292 180.234 223.22 180.234 236.66C180.234 237.908 180.138 239.732 180.138 241.076H144.234C144.33 253.268 151.722 259.796 162.09 259.796C169.002 259.796 174.378 257.012 177.642 252.884H178.026V260.852ZM159.018 220.724C150.858 220.724 145.386 226.1 144.426 234.932H172.842C172.65 226.676 166.986 220.724 159.018 220.724ZM200.49 264.5H193.386V192.5H200.49V264.5ZM224.49 264.5H217.386V216.02H224.49V264.5ZM224.874 199.892H217.002V192.5H224.874V199.892ZM280.938 264.5H273.834V234.164C273.834 224.948 268.362 220.916 261.354 220.916C256.17 220.916 251.85 223.028 248.49 226.964V264.5H241.386V192.5H248.49V220.052H248.586C252.522 216.5 257.514 214.292 263.274 214.292C272.874 214.292 280.938 219.956 280.938 231.86V264.5ZM333.933 260.852C329.709 264.404 323.565 266.228 317.036 266.228C303.213 266.228 292.653 257.012 292.653 240.308C292.653 223.796 302.061 214.292 314.925 214.292C326.829 214.292 336.141 223.22 336.141 236.66C336.141 237.908 336.045 239.732 336.045 241.076H300.141C300.237 253.268 307.629 259.796 317.997 259.796C324.909 259.796 330.285 257.012 333.549 252.884H333.933V260.852ZM314.925 220.724C306.765 220.724 301.293 226.1 300.333 234.932H328.749C328.557 226.676 322.893 220.724 314.925 220.724ZM383.214 264.5H376.302V260.564H376.11C372.366 264.02 367.47 266.228 361.422 266.228C352.109 266.228 345.102 260.468 345.102 251.156C345.102 241.652 351.63 235.508 363.054 235.508C368.046 235.508 372.462 236.66 376.11 238.58V233.492C376.11 224.372 370.158 220.724 362.862 220.724C356.814 220.724 351.534 223.796 348.366 227.54H348.078V219.956C352.302 216.308 358.062 214.292 364.109 214.292C374.958 214.292 383.214 220.148 383.214 233.012V264.5ZM376.11 254.228V244.724C373.038 242.804 368.622 241.46 364.302 241.46C356.718 241.46 352.302 244.724 352.302 250.676C352.302 255.86 356.046 259.988 363.63 259.988C368.43 259.988 372.846 257.876 376.11 254.228ZM407.03 264.5H399.926V216.02H406.646V220.244H406.742C410.39 216.788 414.422 214.292 419.414 214.292C421.238 214.292 422.966 214.58 424.502 215.156V222.932H424.214C422.39 221.684 420.374 221.108 418.262 221.108C413.942 221.108 410.294 223.508 407.03 226.868V264.5ZM443.316 264.5H436.212V222.644H432.276V222.26L436.212 216.02V201.428H443.316V216.02H455.22V222.644H443.316V264.5Z" fill="black"/>
<path d="M68.9453 307.031H93.5312V299.344H97.1172V307.031H108.016V310.289H97.1172V332.133C97.1172 334.758 96.75 336.43 96.0156 337.148C95.2812 337.867 93.6172 338.227 91.0234 338.227C88.5859 338.227 85.8828 338.062 82.9141 337.734L83.1484 334.383C85.8359 334.695 88.3672 334.852 90.7422 334.852C91.9609 334.852 92.7266 334.695 93.0391 334.383C93.3672 334.055 93.5312 333.289 93.5312 332.086V314.273C86.5938 321.664 78.9922 327.711 70.7266 332.414L69.0391 329.484C73.1953 327.109 77.3359 324.25 81.4609 320.906C85.6016 317.562 89.3359 314.023 92.6641 310.289H68.9453V307.031ZM116.453 322.055V318.398H155.547V322.055H116.453ZM194.031 299.297L196.68 297.891C197.992 300.031 199.336 302.422 200.711 305.062L199.352 305.719V306.445C199.352 317.164 196.828 325.164 191.781 330.445C186.75 335.727 178.734 338.828 167.734 339.75L167.148 336.398C173.164 335.852 178.125 334.703 182.031 332.953C185.938 331.188 188.961 328.688 191.102 325.453C185.727 322.703 180.461 320.203 175.305 317.953L176.992 314.742C182.727 317.242 188.008 319.742 192.836 322.242C194.43 318.523 195.305 313.898 195.461 308.367H176.266C174.438 314.07 171.32 318.984 166.914 323.109L164.406 320.789C167.156 318.195 169.398 315.125 171.133 311.578C172.867 308.031 173.953 304.242 174.391 300.211L177.906 300.398C177.75 301.961 177.508 303.5 177.18 305.016H197.336C196.117 302.797 195.016 300.891 194.031 299.297ZM200.523 298.477L203.195 297.094C204.633 299.469 206.008 301.898 207.32 304.383L204.648 305.719C203.242 303.062 201.867 300.648 200.523 298.477ZM212.453 322.055V318.398H251.547V322.055H212.453ZM300.484 306.914V310.289H288.297C288.266 318.992 286.711 325.617 283.633 330.164C280.57 334.695 275.695 337.617 269.008 338.93L268 335.672C273.859 334.484 278.078 331.938 280.656 328.031C283.234 324.109 284.539 318.195 284.57 310.289H269.008C267.414 314.742 265.031 318.742 261.859 322.289L258.977 320.32C263.836 314.695 266.734 307.828 267.672 299.719L271.258 299.906C271.008 302.438 270.609 304.773 270.062 306.914H300.484ZM308.453 322.055V318.398H347.547V322.055H308.453ZM372.484 300.023L376.328 299.719L376.961 307.922L393.531 307.359L393.672 310.711L377.242 311.297L378.203 323.719L395.43 323.203L395.594 326.555L378.438 327.094L379.516 340.43L375.672 340.711L374.617 327.234L356.57 327.797L356.406 324.445L374.359 323.859L373.352 311.438L358.469 311.953L358.328 308.602L373.117 308.086L372.484 300.023ZM445.398 298.945L448 297.562C449.531 300.062 450.891 302.445 452.078 304.711L449.383 306.07C448.039 303.461 446.711 301.086 445.398 298.945ZM451.867 298.195L454.562 296.742C455.844 298.883 457.219 301.336 458.688 304.102L455.945 305.438C454.352 302.406 452.992 299.992 451.867 298.195ZM432.484 300.492L436.328 300.211L437.008 308.883L453.508 308.32L453.648 311.672L437.242 312.258L438.203 324.211L455.43 323.672L455.57 327.047L438.438 327.562L439.492 340.898L435.648 341.203L434.594 327.703L416.547 328.289L416.406 324.914L434.359 324.352L433.398 312.398L418.469 312.914L418.328 309.562L433.164 309.047L432.484 300.492ZM466.703 303.75H502.375V304.523C502.375 315.117 499.883 323.164 494.898 328.664C489.93 334.164 482.195 337.477 471.695 338.602L471.086 335.203C480.211 334.172 486.961 331.445 491.336 327.023C495.711 322.586 498.094 316 498.484 307.266H466.703V303.75ZM524.453 300.68V314.695C533.281 316.805 542.227 319.555 551.289 322.945L550.141 326.461C541.047 323.07 532.484 320.398 524.453 318.445V339.75H520.609V300.68H524.453ZM559.68 308.836H568.141V300.211H571.727V308.836H589.023V300.211H592.797V308.836H601.258V312.211H592.797V315.281C592.797 323.281 591.117 329.047 587.758 332.578C584.398 336.109 578.562 338.281 570.25 339.094L569.617 335.719C577.102 334.953 582.203 333.133 584.922 330.258C587.656 327.367 589.023 322.375 589.023 315.281V312.211H571.727V323.109H568.141V312.211H559.68V308.836ZM608.922 322.055V318.398H648.016V322.055H608.922ZM683.805 300.492L686.688 298.945C688.125 301.32 689.617 303.961 691.164 306.867L688.281 308.273C686.891 305.68 685.398 303.086 683.805 300.492ZM690.531 298.664L693.461 297.141C695.477 300.469 697.016 303.141 698.078 305.156L695.102 306.586C693.617 303.867 692.094 301.227 690.531 298.664ZM663.367 302.133V316.711C672.836 315.18 682.375 312.734 691.984 309.375L693.039 312.68C683.273 316.133 673.383 318.664 663.367 320.273V327.328C663.367 330.531 663.867 332.648 664.867 333.68C665.883 334.695 668.008 335.203 671.242 335.203C678.695 335.203 685.828 334.961 692.641 334.477L692.781 337.875C685.203 338.359 677.945 338.602 671.008 338.602C666.586 338.602 663.578 337.82 661.984 336.258C660.406 334.68 659.617 331.688 659.617 327.281V302.133H663.367ZM709.586 306.539V303.094H739.352V306.539C737.117 312.039 733.664 317.273 728.992 322.242C733.633 326.523 738.398 331.227 743.289 336.352L740.688 338.836C736.016 333.914 731.281 329.211 726.484 324.727C721.078 329.945 714.617 334.461 707.102 338.273L705.461 335.203C712.633 331.484 718.773 327.164 723.883 322.242C729.008 317.305 732.82 312.07 735.32 306.539H709.586Z" fill="black"/>
</svg>
