<svg width="1024" height="512" viewBox="0 0 1024 512" fill="none" xmlns="http://www.w3.org/2000/svg">
<rect width="1024" height="512" fill="#1747E6"/>
<path d="M109.12 229H73.792V163.528H106.624V170.632H81.28V191.752H105.664V198.856H81.28V221.896H109.12V229ZM139.443 229H134.451L113.715 180.52H121.779L137.139 217.48H137.234L152.403 180.52H160.179L139.443 229ZM205.401 225.352C201.177 228.904 195.033 230.728 188.505 230.728C174.681 230.728 164.121 221.512 164.121 204.808C164.121 188.296 173.529 178.792 186.393 178.792C198.297 178.792 207.609 187.72 207.609 201.16C207.609 202.408 207.513 204.232 207.513 205.576H171.609C171.705 217.768 179.097 224.296 189.465 224.296C196.377 224.296 201.753 221.512 205.017 217.384H205.401V225.352ZM186.393 185.224C178.233 185.224 172.761 190.6 171.801 199.432H200.217C200.025 191.176 194.361 185.224 186.393 185.224ZM261.465 229H254.361V198.664C254.361 189.448 248.697 185.416 241.305 185.416C235.737 185.416 231.321 187.528 227.865 191.464V229H220.761V180.52H227.769V184.648H227.865C231.897 181 236.984 178.792 243.129 178.792C253.209 178.792 261.465 184.456 261.465 196.36V229ZM285.441 229H278.337V187.144H274.401V186.76L278.337 180.52V165.928H285.441V180.52H297.345V187.144H285.441V229ZM341.026 229H334.114V225.064H333.922C330.178 228.52 325.282 230.728 319.234 230.728C309.922 230.728 302.914 224.968 302.914 215.656C302.914 206.152 309.442 200.008 320.866 200.008C325.858 200.008 330.274 201.16 333.922 203.08V197.992C333.922 188.872 327.97 185.224 320.674 185.224C314.626 185.224 309.346 188.296 306.178 192.04H305.89V184.456C310.114 180.808 315.874 178.792 321.922 178.792C332.77 178.792 341.026 184.648 341.026 197.512V229ZM333.922 218.728V209.224C330.85 207.304 326.434 205.96 322.114 205.96C314.53 205.96 310.114 209.224 310.114 215.176C310.114 220.36 313.858 224.488 321.442 224.488C326.242 224.488 330.658 222.376 333.922 218.728ZM401.802 204.808C401.802 221.32 391.914 230.728 378.474 230.728C372.714 230.728 367.914 229 364.554 226.6H364.458V247.528H357.354V180.52H364.362V184.648H364.458C368.49 181 373.482 178.792 379.626 178.792C392.202 178.792 401.802 188.296 401.802 204.808ZM394.218 204.808C394.218 192.712 387.594 185.416 377.706 185.416C372.234 185.416 367.722 187.72 364.458 191.464V219.4C367.53 222.28 371.946 224.2 376.938 224.2C387.498 224.2 394.218 217.096 394.218 204.808ZM450.057 204.808C450.057 192.52 443.337 185.224 433.929 185.224C424.425 185.224 417.609 192.328 417.609 204.808C417.609 217.096 424.329 224.296 433.737 224.296C443.241 224.296 450.057 217.288 450.057 204.808ZM457.641 204.808C457.641 221.32 447.177 230.728 433.737 230.728C420.489 230.728 410.121 221.416 410.121 204.808C410.121 188.104 420.489 178.792 433.929 178.792C447.177 178.792 457.641 188.104 457.641 204.808Z" fill="white"/>
<path d="M67.8438 285.828V282.453H87.9062V281.703V272.328C83.5469 272.812 78.5078 273.055 72.7891 273.055V269.703C79.1328 269.703 84.5547 269.383 89.0547 268.742C93.5703 268.102 98.1484 267.031 102.789 265.531L103.844 268.789C99.4531 270.195 95.4062 271.203 91.7031 271.812V281.703V282.453H108.156V285.828H91.5156C91.0625 291.328 89.5938 295.5 87.1094 298.344C84.625 301.172 80.8438 303.078 75.7656 304.062L74.7578 300.805C79.0391 299.945 82.1719 298.375 84.1562 296.094C86.1406 293.797 87.3438 290.375 87.7656 285.828H67.8438ZM156.484 271.414V274.789H144.297C144.266 283.492 142.711 290.117 139.633 294.664C136.57 299.195 131.695 302.117 125.008 303.43L124 300.172C129.859 298.984 134.078 296.438 136.656 292.531C139.234 288.609 140.539 282.695 140.57 274.789H125.008C123.414 279.242 121.031 283.242 117.859 286.789L114.977 284.82C119.836 279.195 122.734 272.328 123.672 264.219L127.258 264.406C127.008 266.938 126.609 269.273 126.062 271.414H156.484ZM199.258 274.742C199.07 281.18 198.141 286.359 196.469 290.281C194.812 294.188 192.281 297.188 188.875 299.281C185.469 301.375 180.867 302.828 175.07 303.641L174.344 300.406C182.188 299.25 187.648 296.828 190.727 293.141C193.82 289.453 195.5 283.258 195.766 274.555L199.258 274.742ZM168.742 276.57L172.094 275.797C173.078 279.156 174.234 283.414 175.562 288.57L172.141 289.32C171.062 284.883 169.93 280.633 168.742 276.57ZM179.242 275.164L182.711 274.391C183.992 278.844 185.141 283.281 186.156 287.703L182.711 288.453C181.617 283.844 180.461 279.414 179.242 275.164ZM223.984 265.18V279.195C232.812 281.305 241.758 284.055 250.82 287.445L249.672 290.961C240.578 287.57 232.016 284.898 223.984 282.945V304.25H220.141V265.18H223.984ZM269.148 273.594L271.211 270.852C274.383 272.648 277.453 274.539 280.422 276.523C284.578 273.836 288.227 271.016 291.367 268.062H264.648V264.898H295.984V268.062C291.984 272.094 287.742 275.562 283.258 278.469C283.539 278.656 284.078 279.023 284.875 279.57C285.688 280.117 286.305 280.555 286.727 280.883H301.609V284.234C298.672 287.984 295.148 291.43 291.039 294.57L288.695 291.922C292.023 289.453 294.852 286.891 297.18 284.234H282.789V299.211C282.789 301.93 282.477 303.617 281.852 304.273C281.227 304.93 279.602 305.258 276.977 305.258C275.508 305.258 273.008 305.18 269.477 305.023L269.383 301.766C272.805 301.922 275.109 302 276.297 302C277.578 302 278.336 301.875 278.57 301.625C278.82 301.359 278.945 300.555 278.945 299.211V284.234H258.391V280.883H280.867C276.352 277.852 272.445 275.422 269.148 273.594ZM330.156 279.781L333.273 278.141C335.898 282.109 338.188 286.383 340.141 290.961L337.023 292.391C335.07 287.953 332.781 283.75 330.156 279.781ZM319.703 277.039L322.773 276.266C323.352 278.062 323.703 279.203 323.828 279.688C327 274.766 329.242 269.086 330.555 262.648L334.094 263.117C333.734 264.648 333.273 266.375 332.711 268.297H349.445C349.32 274.188 349.195 279.109 349.07 283.062C348.945 287.016 348.766 290.398 348.531 293.211C348.312 296.023 348.078 298.203 347.828 299.75C347.594 301.281 347.266 302.469 346.844 303.312C346.438 304.172 346.023 304.703 345.602 304.906C345.195 305.109 344.641 305.211 343.938 305.211C341.312 305.211 338.016 305.07 334.047 304.789L333.953 301.414C337.766 301.695 340.578 301.844 342.391 301.859C343.031 301.859 343.531 301.234 343.891 299.984C344.266 298.734 344.609 295.883 344.922 291.43C345.25 286.961 345.531 280.359 345.766 271.625H331.609C330.016 276.016 328.188 279.695 326.125 282.664L324.203 281.023C324.844 283.32 325.406 285.656 325.891 288.031L322.82 288.617C322.602 287.555 322.438 286.844 322.328 286.484L317.875 286.742V306.172H314.172V286.977L306.25 287.445L306.109 284.328L310.469 284.094C310.922 283.484 311.562 282.57 312.391 281.352C309.984 277.32 307.953 274.047 306.297 271.531L308.359 268.555C308.578 268.914 308.906 269.438 309.344 270.125C309.781 270.797 310.094 271.297 310.281 271.625C311.75 269.062 313.242 266.148 314.758 262.883L317.781 264.219C316.156 267.641 314.281 271.133 312.156 274.695C313.375 276.711 314.125 277.953 314.406 278.422C316.672 275 318.82 271.453 320.852 267.781L323.688 269.258C321.062 274.117 318.008 278.984 314.523 283.859L321.625 283.461C321.203 281.836 320.562 279.695 319.703 277.039ZM306.016 303.008C307.141 298.758 307.875 294.281 308.219 289.578L311.383 289.859C311.023 294.531 310.273 299.125 309.133 303.641L306.016 303.008ZM325.164 301.719L321.953 302.047C321.703 297.531 321.227 293.406 320.523 289.672L323.688 289.227C324.422 292.914 324.914 297.078 325.164 301.719ZM400.352 268.391H387.203V265.039H404.195V269.516C404.195 276.781 405.859 283.477 409.188 289.602C412.516 295.727 416.852 300.164 422.195 302.914L420.227 305.797C416.102 303.812 412.438 300.609 409.234 296.188C406.047 291.75 403.711 286.742 402.227 281.164C400.461 286.508 397.734 291.406 394.047 295.859C390.359 300.312 386.227 303.625 381.648 305.797L379.68 302.914C385.602 299.977 390.523 295.438 394.445 289.297C398.383 283.141 400.352 276.977 400.352 270.805V268.391ZM446.055 275.211V280.062H463.492V275.211H446.055ZM446.055 272.469H463.492V267.688H446.055V272.469ZM438.859 273.055L436.352 275.258C433.242 271.742 430.586 268.914 428.383 266.773L430.938 264.57C433.562 267.211 436.203 270.039 438.859 273.055ZM427.492 281.258H437.57V296.141C438.43 297.672 439.477 298.844 440.711 299.656C441.945 300.453 443.711 301.031 446.008 301.391C448.32 301.734 451.539 301.906 455.664 301.906H470.148L469.961 305.117H455.523C449.789 305.117 445.477 304.719 442.586 303.922C439.711 303.125 437.539 301.703 436.07 299.656C434.148 301.766 431.703 303.859 428.734 305.938L427 302.867C429.688 301.039 432.008 299.102 433.961 297.055V284.469H427.492V281.258ZM466.258 283.414L468.859 285.477C466.688 287.742 464.258 289.812 461.57 291.688C463.867 293.578 466.648 295.125 469.914 296.328L468.32 299.352C464.414 298.008 460.945 295.883 457.914 292.977C454.898 290.07 452.703 286.758 451.328 283.039H446.055V294.945C449.602 294.273 453.156 293.422 456.719 292.391L457.328 295.414C451.891 297.008 446.242 298.211 440.383 299.023L439.82 295.906C440.883 295.781 441.727 295.672 442.352 295.578V264.664H467.266V283.039H454.938C456 285.445 457.422 287.586 459.203 289.461C461.891 287.57 464.242 285.555 466.258 283.414ZM494.875 273.688V277.273H512.453V273.688H494.875ZM494.875 270.898H512.453V267.43H494.875V270.898ZM491.266 264.453H516.227V279.969H494.875H491.266V264.453ZM512.055 305.609C510.555 305.609 508.57 305.523 506.102 305.352L505.961 302.234C507.977 302.391 509.641 302.469 510.953 302.469C511.906 302.469 512.609 301.625 513.062 299.938C513.516 298.234 513.758 295.211 513.789 290.867V290.727H511.422C510.078 293.602 508.141 296.516 505.609 299.469C503.094 302.406 500.492 304.734 497.805 306.453L495.602 304.062C497.898 302.625 500.195 300.656 502.492 298.156C504.805 295.656 506.633 293.18 507.977 290.727H502.75C501.047 293.164 498.82 295.602 496.07 298.039C493.32 300.461 490.57 302.391 487.82 303.828L485.852 301.367C488.086 300.211 490.383 298.664 492.742 296.727C495.117 294.773 497.141 292.773 498.812 290.727H493.586C491.961 292.008 490.617 292.953 489.555 293.562L490.023 295.812C485.227 298.078 480.281 299.914 475.188 301.32L474.672 298.156C476.234 297.766 478.008 297.258 479.992 296.633V278.586H474.859V275.516H479.992V264.172H483.648V275.516H489.109V278.586H483.648V295.367C484.633 295.008 486.117 294.422 488.102 293.609L486.672 291.594C489.484 290.219 492.281 288.102 495.062 285.242H488.547V282.266H518.688V285.242H499.141C498.344 286.195 497.562 287.062 496.797 287.844H517.422V290.141C517.422 294.172 517.219 297.328 516.812 299.609C516.422 301.875 515.852 303.438 515.102 304.297C514.352 305.172 513.336 305.609 512.055 305.609ZM534.484 287.844H555.25V283.766H534.484V287.844ZM534.484 304.062V306.172H530.688V280.789H559V290.727H534.484V293.445H561.742V306.172H557.992V304.062H534.484ZM534.484 301.18H557.992V296.375H534.484V301.18ZM522.906 272.047C526.391 269.109 528.938 265.703 530.547 261.828L534.039 262.648C533.758 263.414 533.297 264.406 532.656 265.625H545.406V268.742H537.344C537.953 270.242 538.578 271.859 539.219 273.594L535.773 274.648C534.883 272.211 534.117 270.242 533.477 268.742H530.688C529.094 270.945 527.328 272.844 525.391 274.438L522.906 272.047ZM544.023 270.453C547.711 267.828 550.32 264.953 551.852 261.828L555.297 262.648C554.812 263.742 554.273 264.734 553.68 265.625H566.383V268.742H557.852C558.461 270.242 559.086 271.859 559.727 273.594L556.211 274.648C554.992 271.414 554.242 269.445 553.961 268.742H551.219C549.875 270.242 548.453 271.539 546.953 272.633V275.445H565.727V284.867H562.07V278.375H527.805V284.867H524.148V275.445H543.109V272.328H545.852L544.023 270.453ZM589.961 273.781H597.977V267.43H589.961V273.781ZM601.727 286.156V291.922H614.148V294.898H601.727V301.414H614.922V304.555H583.234V301.414H597.977V294.898H586.305V291.922H597.977V286.156H589.961H586.352V264.406H613.328V286.156H601.727ZM597.977 283.18V276.57H589.961V283.18H597.977ZM601.727 283.18H609.742V276.57H601.727V283.18ZM601.727 273.781H609.742V267.43H601.727V273.781ZM584.641 269.117H579.391V280.062H584.195V283.367H579.391V295.578C580.922 295 582.625 294.328 584.5 293.562L584.781 296.68C580.469 298.57 575.891 300.234 571.047 301.672L570.578 298.391C572.594 297.812 574.32 297.289 575.758 296.82V283.367H571.234V280.062H575.758V269.117H570.766V265.766H584.641V269.117ZM646.539 284C653.414 283.047 660.125 280.953 666.672 277.719C673.219 274.484 678.523 270.641 682.586 266.188L684.93 268.789C681.211 272.852 676.43 276.453 670.586 279.594V304.156H666.695V281.562C660.32 284.531 653.789 286.492 647.102 287.445L646.539 284ZM718.867 268.016L721.984 266.375C723.75 269.25 725.383 272.117 726.883 274.977L723.766 276.523C722.609 274.336 720.977 271.5 718.867 268.016ZM725.969 265.953L729.086 264.312C730.883 267.219 732.562 270.133 734.125 273.055L730.961 274.602C729.617 272.102 727.953 269.219 725.969 265.953ZM694.633 295.227L691.703 292.977C692.766 291.695 693.969 290.188 695.312 288.453C696.672 286.703 697.992 285 699.273 283.344C700.555 281.672 701.328 280.672 701.594 280.344C704.219 276.766 705.969 274.547 706.844 273.688C707.719 272.812 708.75 272.375 709.938 272.375C711.219 272.375 712.344 272.766 713.312 273.547C714.297 274.312 716.289 276.312 719.289 279.547C724.633 285.344 730.203 291.148 736 296.961L733.305 299.75C727.742 294.156 722.164 288.312 716.57 282.219C714.336 279.781 712.805 278.188 711.977 277.438C711.164 276.688 710.484 276.312 709.938 276.312C709.547 276.312 709.023 276.703 708.367 277.484C707.727 278.25 706.734 279.523 705.391 281.305C705.141 281.664 704.945 281.938 704.805 282.125C700.805 287.438 697.414 291.805 694.633 295.227ZM744.93 270.266L746.664 267.008C751.789 269.57 756.68 272.289 761.336 275.164L759.484 278.422C755.062 275.672 750.211 272.953 744.93 270.266ZM782.031 272.141C778.797 290.578 766.977 300.688 746.57 302.469L745.984 298.883C755.359 298.023 762.727 295.328 768.086 290.797C773.445 286.266 776.93 279.789 778.539 271.367L782.031 272.141ZM801.859 265.18V279.195C810.688 281.305 819.633 284.055 828.695 287.445L827.547 290.961C818.453 287.57 809.891 284.898 801.859 282.945V304.25H798.016V265.18H801.859ZM850.586 274.062V286.555H865.164V274.062H850.586ZM877.211 270.898V274.062H868.914V286.555H879.484V289.859H836.266V286.555H846.836V274.062H838.539V270.898H846.836V263.445H850.586V270.898H865.164V263.445H868.914V270.898H877.211ZM837.719 303.242C843.734 300.07 848.531 296.438 852.109 292.344L854.711 294.664C852.914 296.742 850.695 298.797 848.055 300.828C845.414 302.859 842.688 304.594 839.875 306.031L837.719 303.242ZM861.273 294.992L863.641 292.438C869.141 295.859 873.953 299.641 878.078 303.781L875.594 306.312C871.641 302.344 866.867 298.57 861.273 294.992ZM896.758 284.375H919.797V278.633H896.758V284.375ZM896.758 287.258V293.211H919.797V287.258H896.758ZM884.898 289.461L883.258 286.156C886.555 283.812 889.328 281.352 891.578 278.773C893.844 276.18 895.742 273.25 897.273 269.984H884.617V266.867H898.633C899.242 265.305 899.766 263.734 900.203 262.156L904.047 262.484C903.531 264.281 903.07 265.742 902.664 266.867H927.133V269.984H901.352C900.523 271.875 899.539 273.75 898.398 275.609H923.641V300.078C923.641 302.453 923.312 303.922 922.656 304.484C922 305.062 920.375 305.352 917.781 305.352C916.375 305.352 914.055 305.273 910.82 305.117L910.773 302C913.648 302.156 915.805 302.234 917.242 302.234C918.523 302.234 919.266 302.172 919.469 302.047C919.688 301.922 919.797 301.508 919.797 300.805V296.094H896.758V305.516H892.914V282.617C890.742 284.914 888.07 287.195 884.898 289.461ZM94.8672 337.422L97.75 335.898C99.3125 338.492 100.797 341.117 102.203 343.773L99.3203 345.156C98.0859 342.781 96.6016 340.203 94.8672 337.422ZM101.594 335.617L104.523 334.023C106.414 337.133 107.945 339.82 109.117 342.086L106.141 343.539C104.672 340.82 103.156 338.18 101.594 335.617ZM68.6641 347.406V344.195H78.0156C78.9062 340.258 79.5938 336.883 80.0781 334.07L83.5469 334.445C83.0938 337.258 82.4531 340.508 81.625 344.195H85.75C87.2188 344.195 88.3359 344.195 89.1016 344.195C89.8672 344.195 90.6953 344.289 91.5859 344.477C92.4922 344.648 93.125 344.797 93.4844 344.922C93.8594 345.047 94.2656 345.375 94.7031 345.906C95.1562 346.438 95.4375 346.922 95.5469 347.359C95.6719 347.781 95.8047 348.523 95.9453 349.586C96.0859 350.633 96.1562 351.617 96.1562 352.539C96.1562 353.445 96.1562 354.781 96.1562 356.547C96.1562 362.469 95.4453 366.961 94.0234 370.023C92.6016 373.07 90.8047 374.594 88.6328 374.594C85.9141 374.594 82.6641 373.727 78.8828 371.992L80.0781 368.781C83.6562 370.312 86.2969 371.078 88 371.078C88.5156 371.078 89.0234 370.781 89.5234 370.188C90.0391 369.594 90.5234 368.719 90.9766 367.562C91.4297 366.391 91.7891 364.805 92.0547 362.805C92.3203 360.805 92.4531 358.555 92.4531 356.055C92.4531 354.961 92.4531 354.18 92.4531 353.711C92.4531 353.227 92.4297 352.609 92.3828 351.859C92.3359 351.109 92.3125 350.609 92.3125 350.359C92.3125 350.094 92.2344 349.742 92.0781 349.305C91.9219 348.852 91.8047 348.578 91.7266 348.484C91.6484 348.375 91.4531 348.211 91.1406 347.992C90.8438 347.773 90.6016 347.656 90.4141 347.641C90.2422 347.625 89.8906 347.586 89.3594 347.523C88.8438 347.445 88.4141 347.406 88.0703 347.406C87.7422 347.406 87.1875 347.406 86.4062 347.406H80.8516C78.4766 357 75.3047 366.172 71.3359 374.922L68.0781 373.633C71.8281 365.352 74.8828 356.609 77.2422 347.406H68.6641ZM106.727 365.992C104.68 360.461 102.023 354.508 98.7578 348.133L101.969 346.75C105.234 353.047 107.922 359.094 110.031 364.891L106.727 365.992ZM144.016 350.055L146.852 348.531C148.414 351.125 149.898 353.742 151.305 356.383L148.422 357.836C146.859 354.883 145.391 352.289 144.016 350.055ZM150.742 348.227L153.625 346.656C155.516 349.766 157.047 352.453 158.219 354.719L155.289 356.148C153.82 353.43 152.305 350.789 150.742 348.227ZM115.609 343.047V339.695C128.312 339.695 141.25 339.375 154.422 338.734L154.633 342.086C146.539 342.82 140.344 344.773 136.047 347.945C131.766 351.117 129.625 355.055 129.625 359.758C129.625 363.602 130.852 366.625 133.305 368.828C135.773 371.031 139.07 372.133 143.195 372.133C145.086 372.133 147.086 371.961 149.195 371.617L149.641 374.969C147.5 375.359 145.305 375.555 143.055 375.555C137.742 375.555 133.516 374.172 130.375 371.406C127.25 368.625 125.688 364.852 125.688 360.086C125.688 356.18 126.922 352.719 129.391 349.703C131.875 346.672 135.406 344.297 139.984 342.578L139.938 342.461C130.344 342.852 122.234 343.047 115.609 343.047ZM185.594 340.258C185.312 338.43 185.117 336.547 185.008 334.609L188.523 334.398C188.648 336.227 188.867 338.148 189.18 340.164C193.273 340.039 197.5 339.852 201.859 339.602L202 342.672C196.406 342.922 192.312 343.094 189.719 343.188C190.141 345.203 190.711 347.219 191.43 349.234C196.617 349.047 200.477 348.891 203.008 348.766L203.102 351.789C200.805 351.914 197.32 352.07 192.648 352.258C193.805 354.883 195.398 357.734 197.43 360.812L194.219 363.062C189.766 360.984 185.578 359.945 181.656 359.945C175.156 359.945 171.906 361.734 171.906 365.312C171.906 367.609 172.984 369.32 175.141 370.445C177.297 371.57 180.797 372.133 185.641 372.133C189.094 372.133 192.82 371.812 196.82 371.172L197.242 374.289C193.305 374.93 189.438 375.25 185.641 375.25C173.922 375.25 168.062 371.938 168.062 365.312C168.062 362.875 169.148 360.867 171.32 359.289C173.508 357.711 176.953 356.922 181.656 356.922C185.047 356.922 188.516 357.609 192.062 358.984L192.109 358.891C191.047 356.969 189.992 354.789 188.945 352.352C180.305 352.602 172.305 352.734 164.945 352.75V349.727C172.977 349.727 180.594 349.609 187.797 349.375C187.156 347.547 186.594 345.516 186.109 343.281C178.391 343.5 171.914 343.617 166.68 343.633V340.562C172.852 340.547 179.156 340.445 185.594 340.258ZM237.953 371.312C243.422 370.031 246.156 366.805 246.156 361.633C246.156 358.977 245.242 356.992 243.414 355.68C241.602 354.367 238.758 353.711 234.883 353.711C228.383 353.711 221.617 355.695 214.586 359.664L213.18 357.062L239.102 340.703V340.609H216.648V337.469H245.594L245.781 340.656L226.961 352.023L227.008 352.07C230.211 351.211 233.203 350.781 235.984 350.781C245.391 350.781 250.094 354.266 250.094 361.234C250.094 365.688 248.516 369.109 245.359 371.5C242.219 373.875 237.688 375.062 231.766 375.062C222.703 375.062 218.172 372.5 218.172 367.375C218.172 365.516 219.086 363.938 220.914 362.641C222.742 361.328 225.352 360.672 228.742 360.672C235.461 360.672 238.82 362.977 238.82 367.586C238.82 368.695 238.531 369.938 237.953 371.312ZM234.297 371.852C235.094 370.352 235.5 369.023 235.516 367.867C235.516 365.117 233.195 363.742 228.555 363.742C226.414 363.742 224.758 364.102 223.586 364.82C222.414 365.539 221.828 366.391 221.828 367.375C221.828 368.781 222.648 369.898 224.289 370.727C225.945 371.539 228.438 371.945 231.766 371.945C232.359 371.945 233.203 371.914 234.297 371.852ZM260.664 355C267.539 354.047 274.25 351.953 280.797 348.719C287.344 345.484 292.648 341.641 296.711 337.188L299.055 339.789C295.336 343.852 290.555 347.453 284.711 350.594V375.156H280.82V352.562C274.445 355.531 267.914 357.492 261.227 358.445L260.664 355ZM332.992 339.016L336.109 337.375C337.875 340.25 339.508 343.117 341.008 345.977L337.891 347.523C336.734 345.336 335.102 342.5 332.992 339.016ZM340.094 336.953L343.211 335.312C345.008 338.219 346.688 341.133 348.25 344.055L345.086 345.602C343.742 343.102 342.078 340.219 340.094 336.953ZM308.758 366.227L305.828 363.977C306.891 362.695 308.094 361.188 309.438 359.453C310.797 357.703 312.117 356 313.398 354.344C314.68 352.672 315.453 351.672 315.719 351.344C318.344 347.766 320.094 345.547 320.969 344.688C321.844 343.812 322.875 343.375 324.062 343.375C325.344 343.375 326.469 343.766 327.438 344.547C328.422 345.312 330.414 347.312 333.414 350.547C338.758 356.344 344.328 362.148 350.125 367.961L347.43 370.75C341.867 365.156 336.289 359.312 330.695 353.219C328.461 350.781 326.93 349.188 326.102 348.438C325.289 347.688 324.609 347.312 324.062 347.312C323.672 347.312 323.148 347.703 322.492 348.484C321.852 349.25 320.859 350.523 319.516 352.305C319.266 352.664 319.07 352.938 318.93 353.125C314.93 358.438 311.539 362.805 308.758 366.227ZM359.055 341.266L360.789 338.008C365.914 340.57 370.805 343.289 375.461 346.164L373.609 349.422C369.188 346.672 364.336 343.953 359.055 341.266ZM396.156 343.141C392.922 361.578 381.102 371.688 360.695 373.469L360.109 369.883C369.484 369.023 376.852 366.328 382.211 361.797C387.57 357.266 391.055 350.789 392.664 342.367L396.156 343.141ZM415.984 336.18V350.195C424.812 352.305 433.758 355.055 442.82 358.445L441.672 361.961C432.578 358.57 424.016 355.898 415.984 353.945V375.25H412.141V336.18H415.984ZM461.547 358.844H482.312V354.766H461.547V358.844ZM461.547 375.062V377.172H457.75V351.789H486.062V361.727H461.547V364.445H488.805V377.172H485.055V375.062H461.547ZM461.547 372.18H485.055V367.375H461.547V372.18ZM449.969 343.047C453.453 340.109 456 336.703 457.609 332.828L461.102 333.648C460.82 334.414 460.359 335.406 459.719 336.625H472.469V339.742H464.406C465.016 341.242 465.641 342.859 466.281 344.594L462.836 345.648C461.945 343.211 461.18 341.242 460.539 339.742H457.75C456.156 341.945 454.391 343.844 452.453 345.438L449.969 343.047ZM471.086 341.453C474.773 338.828 477.383 335.953 478.914 332.828L482.359 333.648C481.875 334.742 481.336 335.734 480.742 336.625H493.445V339.742H484.914C485.523 341.242 486.148 342.859 486.789 344.594L483.273 345.648C482.055 342.414 481.305 340.445 481.023 339.742H478.281C476.938 341.242 475.516 342.539 474.016 343.633V346.445H492.789V355.867H489.133V349.375H454.867V355.867H451.211V346.445H470.172V343.328H472.914L471.086 341.453ZM517.023 344.781H525.039V338.43H517.023V344.781ZM528.789 357.156V362.922H541.211V365.898H528.789V372.414H541.984V375.555H510.297V372.414H525.039V365.898H513.367V362.922H525.039V357.156H517.023H513.414V335.406H540.391V357.156H528.789ZM525.039 354.18V347.57H517.023V354.18H525.039ZM528.789 354.18H536.805V347.57H528.789V354.18ZM528.789 344.781H536.805V338.43H528.789V344.781ZM511.703 340.117H506.453V351.062H511.258V354.367H506.453V366.578C507.984 366 509.688 365.328 511.562 364.562L511.844 367.68C507.531 369.57 502.953 371.234 498.109 372.672L497.641 369.391C499.656 368.812 501.383 368.289 502.82 367.82V354.367H498.297V351.062H502.82V340.117H497.828V336.766H511.703V340.117ZM547.211 344.336H555.672V335.711H559.258V344.336H576.555V335.711H580.328V344.336H588.789V347.711H580.328V350.781C580.328 358.781 578.648 364.547 575.289 368.078C571.93 371.609 566.094 373.781 557.781 374.594L557.148 371.219C564.633 370.453 569.734 368.633 572.453 365.758C575.188 362.867 576.555 357.875 576.555 350.781V347.711H559.258V358.609H555.672V347.711H547.211V344.336ZM596.453 357.555V353.898H635.547V357.555H596.453ZM671.336 335.992L674.219 334.445C675.656 336.82 677.148 339.461 678.695 342.367L675.812 343.773C674.422 341.18 672.93 338.586 671.336 335.992ZM678.062 334.164L680.992 332.641C683.008 335.969 684.547 338.641 685.609 340.656L682.633 342.086C681.148 339.367 679.625 336.727 678.062 334.164ZM650.898 337.633V352.211C660.367 350.68 669.906 348.234 679.516 344.875L680.57 348.18C670.805 351.633 660.914 354.164 650.898 355.773V362.828C650.898 366.031 651.398 368.148 652.398 369.18C653.414 370.195 655.539 370.703 658.773 370.703C666.227 370.703 673.359 370.461 680.172 369.977L680.312 373.375C672.734 373.859 665.477 374.102 658.539 374.102C654.117 374.102 651.109 373.32 649.516 371.758C647.938 370.18 647.148 367.188 647.148 362.781V337.633H650.898ZM697.117 342.039V338.594H726.883V342.039C724.648 347.539 721.195 352.773 716.523 357.742C721.164 362.023 725.93 366.727 730.82 371.852L728.219 374.336C723.547 369.414 718.812 364.711 714.016 360.227C708.609 365.445 702.148 369.961 694.633 373.773L692.992 370.703C700.164 366.984 706.305 362.664 711.414 357.742C716.539 352.805 720.352 347.57 722.852 342.039H697.117Z" fill="white"/>
</svg>
