<svg width="1024" height="512" viewBox="0 0 1024 512" fill="none" xmlns="http://www.w3.org/2000/svg">
<rect width="1024" height="512" fill="#5CE66D"/>
<path d="M81.28 264.5H73.792V199.028H81.28V264.5ZM119.488 264.5H110.08L83.008 231.572V231.284L109.024 199.028H118.336L92.224 231.188V231.38L119.488 264.5ZM163.464 264.5H156.552V260.564H156.36C152.616 264.02 147.72 266.228 141.672 266.228C132.359 266.228 125.352 260.468 125.352 251.156C125.352 241.652 131.88 235.508 143.304 235.508C148.296 235.508 152.712 236.66 156.36 238.58V233.492C156.36 224.372 150.408 220.724 143.112 220.724C137.064 220.724 131.784 223.796 128.616 227.54H128.328V219.956C132.552 216.308 138.312 214.292 144.359 214.292C155.208 214.292 163.464 220.148 163.464 233.012V264.5ZM156.36 254.228V244.724C153.288 242.804 148.872 241.46 144.552 241.46C136.968 241.46 132.552 244.724 132.552 250.676C132.552 255.86 136.296 259.988 143.88 259.988C148.68 259.988 153.096 257.876 156.36 254.228ZM220.496 264.5H213.392V234.164C213.392 224.948 207.728 220.916 200.336 220.916C194.768 220.916 190.352 223.028 186.896 226.964V264.5H179.792V216.02H186.8V220.148H186.896C190.928 216.5 196.016 214.292 202.16 214.292C212.24 214.292 220.496 219.956 220.496 231.86V264.5ZM272.12 264.5H265.208V260.564H265.016C261.272 264.02 256.376 266.228 250.328 266.228C241.016 266.228 234.008 260.468 234.008 251.156C234.008 241.652 240.536 235.508 251.96 235.508C256.952 235.508 261.368 236.66 265.016 238.58V233.492C265.016 224.372 259.064 220.724 251.768 220.724C245.72 220.724 240.44 223.796 237.272 227.54H236.984V219.956C241.208 216.308 246.968 214.292 253.016 214.292C263.864 214.292 272.12 220.148 272.12 233.012V264.5ZM265.016 254.228V244.724C261.944 242.804 257.528 241.46 253.208 241.46C245.624 241.46 241.208 244.724 241.208 250.676C241.208 255.86 244.952 259.988 252.536 259.988C257.336 259.988 261.752 257.876 265.016 254.228ZM296.128 264.5H289.024V222.644H285.088V222.26L289.024 216.02V201.428H296.128V216.02H308.032V222.644H296.128V264.5ZM326.302 264.5H319.198V216.02H326.302V264.5ZM326.686 199.892H318.814V192.5H326.686V199.892ZM378.526 240.308C378.526 228.02 371.806 220.724 362.398 220.724C352.894 220.724 346.078 227.828 346.078 240.308C346.078 252.596 352.798 259.796 362.206 259.796C371.71 259.796 378.526 252.788 378.526 240.308ZM386.11 240.308C386.11 256.82 375.646 266.228 362.206 266.228C348.958 266.228 338.59 256.916 338.59 240.308C338.59 223.604 348.958 214.292 362.398 214.292C375.646 214.292 386.11 223.604 386.11 240.308ZM439.027 264.5H431.923V234.164C431.923 224.948 426.259 220.916 418.867 220.916C413.299 220.916 408.883 223.028 405.427 226.964V264.5H398.323V216.02H405.331V220.148H405.427C409.459 216.5 414.547 214.292 420.691 214.292C430.771 214.292 439.027 219.956 439.027 231.86V264.5ZM490.651 264.5H483.739V260.564H483.547C479.803 264.02 474.907 266.228 468.859 266.228C459.547 266.228 452.539 260.468 452.539 251.156C452.539 241.652 459.067 235.508 470.491 235.508C475.483 235.508 479.899 236.66 483.547 238.58V233.492C483.547 224.372 477.595 220.724 470.299 220.724C464.251 220.724 458.971 223.796 455.803 227.54H455.515V219.956C459.739 216.308 465.499 214.292 471.547 214.292C482.395 214.292 490.651 220.148 490.651 233.012V264.5ZM483.547 254.228V244.724C480.475 242.804 476.059 241.46 471.739 241.46C464.155 241.46 459.739 244.724 459.739 250.676C459.739 255.86 463.483 259.988 471.067 259.988C475.867 259.988 480.283 257.876 483.547 254.228ZM514.467 264.5H507.363V216.02H514.083V220.244H514.179C517.827 216.788 521.859 214.292 526.851 214.292C528.675 214.292 530.403 214.58 531.939 215.156V222.932H531.651C529.827 221.684 527.811 221.108 525.699 221.108C521.379 221.108 517.731 223.508 514.467 226.868V264.5ZM556.513 283.028H548.833L556.129 264.404L535.489 216.02H543.457L559.585 254.9H559.777L573.985 216.02H581.857L556.513 283.028Z" fill="black"/>
<path d="M73.7031 324.773H102.297V317.25H73.7031V324.773ZM73.7031 335.484H102.297V327.797H73.7031V335.484ZM73.7031 338.602V341.203H69.9062V303.75H83.9219C84.8125 301.797 85.5938 299.625 86.2656 297.234L90.0625 297.75C89.3906 300.016 88.6875 302.016 87.9531 303.75H106.094V341.203H102.297V338.602H73.7031ZM102.297 314.227V306.914H73.7031V314.227H102.297ZM137.828 309.891V320.602H151.258V309.891H137.828ZM120.742 320.602H134.172V309.891H120.742V320.602ZM134.172 306.68V297.891H137.828V306.68H155.055V341.438H151.258V338.367H120.742V341.438H116.945V306.68H134.172ZM134.172 335.25V323.719H120.742V335.25H134.172ZM137.828 335.25H151.258V323.719H137.828V335.25ZM192.016 314.555L194.852 313.031C196.414 315.625 197.898 318.242 199.305 320.883L196.422 322.336C194.859 319.383 193.391 316.789 192.016 314.555ZM198.742 312.727L201.625 311.156C203.516 314.266 205.047 316.953 206.219 319.219L203.289 320.648C201.82 317.93 200.305 315.289 198.742 312.727ZM163.609 307.547V304.195C176.312 304.195 189.25 303.875 202.422 303.234L202.633 306.586C194.539 307.32 188.344 309.273 184.047 312.445C179.766 315.617 177.625 319.555 177.625 324.258C177.625 328.102 178.852 331.125 181.305 333.328C183.773 335.531 187.07 336.633 191.195 336.633C193.086 336.633 195.086 336.461 197.195 336.117L197.641 339.469C195.5 339.859 193.305 340.055 191.055 340.055C185.742 340.055 181.516 338.672 178.375 335.906C175.25 333.125 173.688 329.352 173.688 324.586C173.688 320.68 174.922 317.219 177.391 314.203C179.875 311.172 183.406 308.797 187.984 307.078L187.938 306.961C178.344 307.352 170.234 307.547 163.609 307.547ZM215.289 309.938V314.508H226.586V309.938H215.289ZM215.289 307.312H226.586V302.93H215.289V307.312ZM248.711 309.938H236.945V314.508H248.711V309.938ZM248.711 307.312V302.93H236.945V307.312H248.711ZM225.133 330.305H218.945V327.562H225.461C225.461 327.469 225.469 327.312 225.484 327.094C225.516 326.859 225.531 326.68 225.531 326.555V323.016H219.906V320.133H243.625V323.016H238.375V327.562H244.375V330.305H238.375V339.797H234.883V330.305H228.648C227.914 334.43 225.625 337.758 221.781 340.289L218.992 338.086C222.383 335.914 224.43 333.32 225.133 330.305ZM211.609 341.203V299.906H230.172V317.25H215.289V341.203H211.609ZM233.336 299.906H252.391V334.758C252.391 337.477 252.062 339.172 251.406 339.844C250.75 340.516 249.078 340.852 246.391 340.852C245.078 340.852 243.32 340.773 241.117 340.617L240.977 337.406C243.633 337.562 245.25 337.641 245.828 337.641C247.203 337.641 248.023 337.516 248.289 337.266C248.57 337 248.711 336.195 248.711 334.852V317.25H233.336V299.906ZM234.883 323.016H228.977V326.227C228.977 326.383 228.969 326.617 228.953 326.93C228.938 327.227 228.93 327.438 228.93 327.562H234.883V323.016ZM290.758 326.836C293.477 322.711 295.156 316.555 295.797 308.367H284.852C284.602 309.133 284.188 310.25 283.609 311.719L286.281 311.391C287.156 317.938 288.648 323.086 290.758 326.836ZM269.828 304.383H278.312V307.641H265.609C265.609 310.484 265.594 312.547 265.562 313.828H276.555V318.164C279.789 312.758 282.281 306.07 284.031 298.102L287.547 298.523C287.062 300.898 286.516 303.094 285.906 305.109H302.617V308.367H299.336C298.664 317.836 296.508 325.031 292.867 329.953C295.211 332.969 298.43 335.664 302.523 338.039L300.742 340.898C296.492 338.43 293.102 335.68 290.57 332.648C287.695 335.617 283.5 338.367 277.984 340.898L276.062 338.039C281.531 335.602 285.672 332.844 288.484 329.766C285.797 325.578 283.93 320.109 282.883 313.359C281.539 316.438 280.18 319.094 278.805 321.328L276.555 319.641C276.492 325.812 276.273 330.406 275.898 333.422C275.523 336.422 275.023 338.367 274.398 339.258C273.773 340.164 272.812 340.617 271.516 340.617C269.984 340.617 267.898 340.461 265.258 340.148L265.211 336.68C267.555 336.992 269.172 337.156 270.062 337.172C270.797 337.172 271.352 336.766 271.727 335.953C272.117 335.125 272.43 333.242 272.664 330.305C272.914 327.352 273.039 322.953 273.039 317.109H265.398C265.148 323.062 264.594 327.883 263.734 331.57C262.891 335.242 261.625 338.531 259.938 341.438L257.102 339.047C258.836 335.812 260.07 331.852 260.805 327.164C261.539 322.477 261.906 315.969 261.906 307.641H257.594V304.383H266.172V297.984H269.828V304.383ZM331.445 305.859C331.086 303.812 330.852 301.672 330.742 299.438L334.234 299.25C334.359 301.594 334.602 303.766 334.961 305.766C337.773 305.672 341.789 305.5 347.008 305.25L347.148 308.461C344.586 308.586 340.719 308.742 335.547 308.93C336.609 313.758 338.609 318.367 341.547 322.758L338.312 324.68C334.531 322.023 330.242 320.695 325.445 320.695C322.273 320.695 319.797 321.32 318.016 322.57C316.25 323.82 315.367 325.547 315.367 327.75C315.367 333.375 320.055 336.195 329.43 336.211C333.039 336.211 336.82 335.844 340.773 335.109L341.336 338.32C337.586 339.055 333.617 339.422 329.43 339.422C326.164 339.422 323.336 339.094 320.945 338.438C318.57 337.781 316.727 336.891 315.414 335.766C314.102 334.625 313.148 333.375 312.555 332.016C311.977 330.641 311.688 329.156 311.688 327.562C311.688 324.453 312.883 322 315.273 320.203C317.68 318.391 321.008 317.484 325.258 317.484C328.977 317.484 332.578 318.312 336.062 319.969L336.109 319.922C334.312 316.688 332.969 313.062 332.078 309.047C323.797 309.297 316.086 309.422 308.945 309.422V306.211C316.867 306.195 324.367 306.078 331.445 305.859ZM355.023 307.594H366.25V299.438H369.766V314.555C373.453 311.195 376.445 308.797 378.742 307.359C381.039 305.922 382.953 305.203 384.484 305.203C386.344 305.203 387.672 305.891 388.469 307.266C389.281 308.641 389.688 311.039 389.688 314.461C389.688 315.992 389.492 318.328 389.102 321.469C388.742 324.031 388.57 326.336 388.586 328.383C388.586 330.039 388.703 331.328 388.938 332.25C389.172 333.156 389.438 333.727 389.734 333.961C390.047 334.18 390.43 334.289 390.883 334.289C392.383 334.289 394.492 332.828 397.211 329.906L399.133 332.414C397.664 334.07 396.086 335.414 394.398 336.445C392.727 337.461 391.266 337.969 390.016 337.969C388.188 337.969 386.875 337.266 386.078 335.859C385.281 334.453 384.883 332.07 384.883 328.711C384.883 326.82 385.07 324.484 385.445 321.703C385.805 318.828 385.984 316.523 385.984 314.789C385.984 313.133 385.859 311.852 385.609 310.945C385.375 310.023 385.109 309.445 384.812 309.211C384.531 308.961 384.156 308.836 383.688 308.836C381.828 308.836 377.188 312.281 369.766 319.172V340.523H366.25V322.523C363.172 325.461 359.992 328.609 356.711 331.969L354.344 329.578C358.922 324.906 362.891 320.984 366.25 317.812V310.758H355.023V307.594ZM442.234 317.203C435.641 317.203 429.289 317.617 423.18 318.445L422.898 315.281C429.336 314.422 435.781 313.984 442.234 313.969V317.203ZM442.82 334.758L443.242 337.969C439.602 338.609 436.227 338.93 433.117 338.93C428.992 338.93 425.664 338.195 423.133 336.727C420.602 335.258 419.336 333.359 419.336 331.031C419.336 328.656 421.133 326.188 424.727 323.625L426.977 325.781C425.477 326.875 424.422 327.789 423.812 328.523C423.203 329.258 422.898 329.977 422.898 330.68C422.898 332.148 423.836 333.359 425.711 334.312C427.586 335.25 430.055 335.719 433.117 335.719C436.008 335.719 439.242 335.398 442.82 334.758ZM405.273 308.227V305.016H413.242C413.695 302.781 414.078 300.68 414.391 298.711L417.906 299.062C417.422 301.938 417.07 303.922 416.852 305.016H434.219V308.227H416.172C413.797 319.555 410.852 330.125 407.336 339.938L403.844 339.094C407.391 329.391 410.305 319.102 412.586 308.227H405.273ZM461.336 338.602C459.039 338.602 456.797 337.383 454.609 334.945C452.438 332.492 451.352 329.82 451.352 326.93C451.352 324.211 452.844 321.836 455.828 319.805C458.828 317.773 462.859 316.648 467.922 316.43C468.5 312.148 468.945 308.406 469.258 305.203H454.82V301.969H472.867V305.203C472.445 309.266 472.016 313.008 471.578 316.43C475.125 316.555 478.672 317.164 482.219 318.258C482.344 315.289 482.406 311.141 482.406 305.812H485.922C485.922 311.797 485.844 316.328 485.688 319.406C488.438 320.438 491.141 321.797 493.797 323.484L492.156 326.414C490.047 325.102 487.805 323.945 485.43 322.945C485.211 325.758 484.867 328.086 484.398 329.93C483.945 331.773 483.258 333.336 482.336 334.617C481.43 335.898 480.445 336.93 479.383 337.711C478.336 338.492 476.883 339.367 475.023 340.336L473.195 337.359C474.508 336.688 475.547 336.102 476.312 335.602C477.078 335.102 477.836 334.469 478.586 333.703C479.352 332.938 479.93 332.039 480.32 331.008C480.727 329.961 481.07 328.688 481.352 327.188C481.648 325.672 481.875 323.844 482.031 321.703C478.25 320.484 474.602 319.812 471.086 319.688C470.477 323.656 469.828 326.906 469.141 329.438C468.453 331.969 467.703 333.898 466.891 335.227C466.078 336.555 465.242 337.445 464.383 337.898C463.539 338.367 462.523 338.602 461.336 338.602ZM467.43 319.734C463.586 319.953 460.562 320.766 458.359 322.172C456.156 323.562 455.055 325.148 455.055 326.93C455.055 328.789 455.773 330.617 457.211 332.414C458.648 334.211 460.023 335.109 461.336 335.109C462.102 335.109 462.797 334.703 463.422 333.891C464.047 333.062 464.711 331.484 465.414 329.156C466.117 326.812 466.789 323.672 467.43 319.734ZM518.453 301.172C516.156 306.641 513.469 313.266 510.391 321.047H510.484C512.656 318.359 515.031 317.016 517.609 317.016C519.531 317.016 521.062 317.867 522.203 319.57C523.359 321.258 524.227 323.828 524.805 327.281C525.352 330.484 525.945 332.758 526.586 334.102C527.227 335.445 528.117 336.117 529.258 336.117C530.727 336.117 532.164 335.07 533.57 332.977C534.992 330.867 536.273 327.625 537.414 323.25L540.648 324.164C539.18 329.727 537.492 333.641 535.586 335.906C533.68 338.156 531.555 339.281 529.211 339.281C527.133 339.281 525.5 338.422 524.312 336.703C523.141 334.969 522.219 332.195 521.547 328.383C521 325.445 520.406 323.336 519.766 322.055C519.125 320.773 518.273 320.133 517.211 320.133C515.008 320.133 512.805 321.602 510.602 324.539C508.414 327.477 505.898 332.531 503.055 339.703L499.844 338.508C503.906 328.164 509.039 315.367 515.242 300.117L518.453 301.172ZM588.695 309.797C585.523 309.25 582.227 308.961 578.805 308.93V326.602C581.883 328.227 585.305 330.594 589.07 333.703L586.867 336.305C583.633 333.711 580.945 331.742 578.805 330.398C578.68 333.695 577.805 336.047 576.18 337.453C574.57 338.859 571.969 339.562 568.375 339.562C565.141 339.562 562.625 338.836 560.828 337.383C559.047 335.93 558.156 333.938 558.156 331.406C558.156 328.938 559.039 327.016 560.805 325.641C562.586 324.266 565.109 323.578 568.375 323.578C570.484 323.578 572.789 324.062 575.289 325.031V305.672C580.508 305.672 585.117 305.992 589.117 306.633L588.695 309.797ZM547.516 308.836V305.672H556.375C557.234 302.828 557.938 300.398 558.484 298.383L561.812 298.852C561.266 301.055 560.641 303.328 559.938 305.672H568.961V308.836H558.977C556.602 316.352 553.516 324.484 549.719 333.234L546.484 332.086C549.969 324.086 552.93 316.336 555.367 308.836H547.516ZM575.289 328.43C572.852 327.273 570.547 326.695 568.375 326.695C563.891 326.695 561.656 328.266 561.672 331.406C561.672 333 562.25 334.258 563.406 335.18C564.578 336.086 566.234 336.539 568.375 336.539C571 336.539 572.805 336.055 573.789 335.086C574.789 334.102 575.289 332.266 575.289 329.578V328.43ZM620.617 335.25C624.461 334.828 627.453 333.305 629.594 330.68C631.734 328.055 632.805 324.57 632.805 320.227C632.805 316.164 631.461 312.805 628.773 310.148C626.086 307.492 622.641 306.094 618.438 305.953C617.766 312.156 616.922 317.406 615.906 321.703C614.906 326 613.797 329.242 612.578 331.43C611.375 333.617 610.164 335.156 608.945 336.047C607.727 336.922 606.398 337.359 604.961 337.359C602.664 337.359 600.547 335.969 598.609 333.188C596.672 330.406 595.703 326.992 595.703 322.945C595.703 316.93 597.758 312.039 601.867 308.273C605.977 304.492 611.328 302.602 617.922 302.602C623.234 302.602 627.625 304.258 631.094 307.57C634.562 310.883 636.297 315.102 636.297 320.227C636.297 325.539 634.953 329.836 632.266 333.117C629.578 336.398 625.93 338.227 621.32 338.602L620.617 335.25ZM614.805 306.164C610.07 306.742 606.281 308.555 603.438 311.602C600.609 314.633 599.195 318.414 599.195 322.945C599.195 325.961 599.836 328.523 601.117 330.633C602.398 332.742 603.68 333.797 604.961 333.797C605.539 333.797 606.141 333.586 606.766 333.164C607.391 332.727 608.086 331.883 608.852 330.633C609.617 329.383 610.336 327.781 611.008 325.828C611.68 323.875 612.359 321.211 613.047 317.836C613.734 314.445 614.32 310.555 614.805 306.164ZM647.383 335.25H657.461V324.539H647.383V335.25ZM676.82 316.852C678.039 313.305 679.031 309.516 679.797 305.484H668.711C669.633 309.844 670.336 313.633 670.82 316.852H676.82ZM672.156 320.086H661.023V316.852H667.398C666.82 313.273 666.102 309.484 665.242 305.484H661.609V302.648C659.344 303.477 656.812 304.164 654.016 304.711V311.578H661.938V314.789H654.016V321.562H660.883V340.477H657.461V338.227H647.383V341.25H643.844V321.562H650.312V314.789H642.391V311.578H650.312V305.391C648.688 305.641 646.453 305.914 643.609 306.211L643.258 303.047C650.43 302.312 656.273 301.078 660.789 299.344L661.938 302.367H672.156V298.055H675.906V302.367H685.844V305.484H683.289C682.523 309.484 681.531 313.273 680.312 316.852H686.312V320.086H675.906V327.891H685.844V331.125H675.906V341.906H672.156V331.125H662.078V327.891H672.156V320.086ZM713.922 309.188V311.531H725.195V309.188H713.922ZM713.922 303.844V306.164H725.195V303.844H713.922ZM698.945 331.266H725.055V328.383H698.945V331.266ZM698.945 336.867H725.055V333.797H698.945V336.867ZM698.945 339.562V341.672H695.195V325.547H728.805V341.672H725.055V339.562H698.945ZM713.922 320.789H733.445V323.578H690.555V320.789H710.078V318.633H693.367V316.102H710.078V313.969H694.82V311.531H710.078V309.188H690.016V306.164H710.078V303.844H694.82V301.031H710.078V297.516H713.922V301.031H728.898V306.164H733.984V309.188H728.898V313.969H713.922V316.102H730.633V318.633H713.922V320.789Z" fill="black"/>
</svg>
