<svg width="1024" height="512" viewBox="0 0 1024 512" fill="none" xmlns="http://www.w3.org/2000/svg">
<rect width="1024" height="512" fill="#E63A69"/>
<path d="M81.28 264.5H73.792V199.028H81.28V264.5ZM119.488 264.5H110.08L83.008 231.572V231.284L109.024 199.028H118.336L92.224 231.188V231.38L119.488 264.5ZM163.464 264.5H156.552V260.564H156.36C152.616 264.02 147.72 266.228 141.672 266.228C132.359 266.228 125.352 260.468 125.352 251.156C125.352 241.652 131.88 235.508 143.304 235.508C148.296 235.508 152.712 236.66 156.36 238.58V233.492C156.36 224.372 150.408 220.724 143.112 220.724C137.064 220.724 131.784 223.796 128.616 227.54H128.328V219.956C132.552 216.308 138.312 214.292 144.359 214.292C155.208 214.292 163.464 220.148 163.464 233.012V264.5ZM156.36 254.228V244.724C153.288 242.804 148.872 241.46 144.552 241.46C136.968 241.46 132.552 244.724 132.552 250.676C132.552 255.86 136.296 259.988 143.88 259.988C148.68 259.988 153.096 257.876 156.36 254.228ZM220.496 264.5H213.392V234.164C213.392 224.948 207.728 220.916 200.336 220.916C194.768 220.916 190.352 223.028 186.896 226.964V264.5H179.792V216.02H186.8V220.148H186.896C190.928 216.5 196.016 214.292 202.16 214.292C212.24 214.292 220.496 219.956 220.496 231.86V264.5ZM272.12 264.5H265.208V260.564H265.016C261.272 264.02 256.376 266.228 250.328 266.228C241.016 266.228 234.008 260.468 234.008 251.156C234.008 241.652 240.536 235.508 251.96 235.508C256.952 235.508 261.368 236.66 265.016 238.58V233.492C265.016 224.372 259.064 220.724 251.768 220.724C245.72 220.724 240.44 223.796 237.272 227.54H236.984V219.956C241.208 216.308 246.968 214.292 253.016 214.292C263.864 214.292 272.12 220.148 272.12 233.012V264.5ZM265.016 254.228V244.724C261.944 242.804 257.528 241.46 253.208 241.46C245.624 241.46 241.208 244.724 241.208 250.676C241.208 255.86 244.952 259.988 252.536 259.988C257.336 259.988 261.752 257.876 265.016 254.228Z" fill="white"/>
<path d="M74.9453 320.367V334.945H101.055V320.367H74.9453ZM74.9453 317.203H101.055V303.656H74.9453V317.203ZM71.1953 300.398H104.805V341.203H101.055V338.133H74.9453V341.203H71.1953V300.398ZM131.922 309.516H114.742V306.211H134.125V298.289H137.875V306.211H157.258V309.516H140.078C144.234 317.516 150.539 325.211 158.992 332.602L156.977 335.766C148.977 328.719 142.609 320.883 137.875 312.258V330.398H148.727V333.562H137.875V342.164H134.125V333.562H123.273V330.398H134.125V312.258C129.391 320.898 123.023 328.734 115.023 335.766L113.008 332.602C121.461 325.211 127.766 317.516 131.922 309.516ZM188.219 308.555L189.273 303.516H181.703V300.398H204.789V303.516H193.07L191.969 308.555H202.586V317.438H206.078V320.555H180.742V317.438H186.297L187.562 311.484H182.805V308.555H188.219ZM186.25 338.93V341.016H182.664V323.953H203.828V341.016H200.172V338.93H186.25ZM167.594 339.797V341.906H164.078V327.562H179.336V339.797H167.594ZM167.594 336.773H175.984V330.633H167.594V336.773ZM190.094 317.438H198.883V311.484H191.336L190.094 317.438ZM200.172 335.953V327.047H186.25V335.953H200.172ZM164.078 303.422V300.305H179.289V303.422H164.078ZM162.742 310.242V307.031H180.648V310.242H162.742ZM164.406 317.016V313.969H179.102V317.016H164.406ZM164.406 323.812V320.742H179.102V323.812H164.406ZM211.844 321.328V317.953H231.906V317.203V307.828C227.547 308.312 222.508 308.555 216.789 308.555V305.203C223.133 305.203 228.555 304.883 233.055 304.242C237.57 303.602 242.148 302.531 246.789 301.031L247.844 304.289C243.453 305.695 239.406 306.703 235.703 307.312V317.203V317.953H252.156V321.328H235.516C235.062 326.828 233.594 331 231.109 333.844C228.625 336.672 224.844 338.578 219.766 339.562L218.758 336.305C223.039 335.445 226.172 333.875 228.156 331.594C230.141 329.297 231.344 325.875 231.766 321.328H211.844ZM271.117 308.648L274.773 308.039L276.203 316.148L295.656 312.117L296.312 315.422C295.766 318.172 294.734 320.836 293.219 323.414C291.703 325.992 289.906 328.109 287.828 329.766L285.227 327.375C286.961 325.969 288.477 324.281 289.773 322.312C291.07 320.344 291.992 318.305 292.539 316.195L276.836 319.453L280.422 339.281L276.789 339.938L273.227 320.227L263.734 322.195L263.055 318.867L272.617 316.898L271.117 308.648ZM343.258 310.242C343.07 316.68 342.141 321.859 340.469 325.781C338.812 329.688 336.281 332.688 332.875 334.781C329.469 336.875 324.867 338.328 319.07 339.141L318.344 335.906C326.188 334.75 331.648 332.328 334.727 328.641C337.82 324.953 339.5 318.758 339.766 310.055L343.258 310.242ZM312.742 312.07L316.094 311.297C317.078 314.656 318.234 318.914 319.562 324.07L316.141 324.82C315.062 320.383 313.93 316.133 312.742 312.07ZM323.242 310.664L326.711 309.891C327.992 314.344 329.141 318.781 330.156 323.203L326.711 323.953C325.617 319.344 324.461 314.914 323.242 310.664ZM367.984 300.68V314.695C376.812 316.805 385.758 319.555 394.82 322.945L393.672 326.461C384.578 323.07 376.016 320.398 367.984 318.445V339.75H364.141V300.68H367.984ZM403.984 307.406H422.078V299.719H425.922V307.406H443.055V310.758H425.922V333.797C425.922 336.266 425.602 337.844 424.961 338.531C424.32 339.219 422.828 339.562 420.484 339.562C418.156 339.562 415.633 339.352 412.914 338.93L413.289 335.625C415.398 335.984 417.562 336.164 419.781 336.164C420.875 336.164 421.531 336.031 421.75 335.766C421.969 335.484 422.078 334.688 422.078 333.375V310.758H403.984V307.406ZM434.031 298.945L436.68 297.562C437.992 299.703 439.336 302.086 440.711 304.711L438.062 306.07C436.906 303.852 435.562 301.477 434.031 298.945ZM440.523 298.195L443.195 296.742C444.477 298.883 445.852 301.336 447.32 304.102L444.648 305.438C443.242 302.781 441.867 300.367 440.523 298.195ZM402.789 332.836C405.805 327.398 408.492 321.977 410.852 316.57L414.297 317.812C411.797 323.469 409.062 328.992 406.094 334.383L402.789 332.836ZM432.789 317.812L436.094 316.383C439.031 321.945 441.766 327.578 444.297 333.281L440.852 334.664C438.102 328.461 435.414 322.844 432.789 317.812ZM487.258 310.242C487.07 316.68 486.141 321.859 484.469 325.781C482.812 329.688 480.281 332.688 476.875 334.781C473.469 336.875 468.867 338.328 463.07 339.141L462.344 335.906C470.188 334.75 475.648 332.328 478.727 328.641C481.82 324.953 483.5 318.758 483.766 310.055L487.258 310.242ZM456.742 312.07L460.094 311.297C461.078 314.656 462.234 318.914 463.562 324.07L460.141 324.82C459.062 320.383 457.93 316.133 456.742 312.07ZM467.242 310.664L470.711 309.891C471.992 314.344 473.141 318.781 474.156 323.203L470.711 323.953C469.617 319.344 468.461 314.914 467.242 310.664ZM511.984 300.68V314.695C520.812 316.805 529.758 319.555 538.82 322.945L537.672 326.461C528.578 323.07 520.016 320.398 511.984 318.445V339.75H508.141V300.68H511.984ZM547.211 308.836H555.672V300.211H559.258V308.836H576.555V300.211H580.328V308.836H588.789V312.211H580.328V315.281C580.328 323.281 578.648 329.047 575.289 332.578C571.93 336.109 566.094 338.281 557.781 339.094L557.148 335.719C564.633 334.953 569.734 333.133 572.453 330.258C575.188 327.367 576.555 322.375 576.555 315.281V312.211H559.258V323.109H555.672V312.211H547.211V308.836ZM596.453 322.055V318.398H635.547V322.055H596.453ZM671.336 300.492L674.219 298.945C675.656 301.32 677.148 303.961 678.695 306.867L675.812 308.273C674.422 305.68 672.93 303.086 671.336 300.492ZM678.062 298.664L680.992 297.141C683.008 300.469 684.547 303.141 685.609 305.156L682.633 306.586C681.148 303.867 679.625 301.227 678.062 298.664ZM650.898 302.133V316.711C660.367 315.18 669.906 312.734 679.516 309.375L680.57 312.68C670.805 316.133 660.914 318.664 650.898 320.273V327.328C650.898 330.531 651.398 332.648 652.398 333.68C653.414 334.695 655.539 335.203 658.773 335.203C666.227 335.203 673.359 334.961 680.172 334.477L680.312 337.875C672.734 338.359 665.477 338.602 658.539 338.602C654.117 338.602 651.109 337.82 649.516 336.258C647.938 334.68 647.148 331.688 647.148 327.281V302.133H650.898ZM697.117 306.539V303.094H726.883V306.539C724.648 312.039 721.195 317.273 716.523 322.242C721.164 326.523 725.93 331.227 730.82 336.352L728.219 338.836C723.547 333.914 718.812 329.211 714.016 324.727C708.609 329.945 702.148 334.461 694.633 338.273L692.992 335.203C700.164 331.484 706.305 327.164 711.414 322.242C716.539 317.305 720.352 312.07 722.852 306.539H697.117Z" fill="white"/>
</svg>
