<svg width="1024" height="512" viewBox="0 0 1024 512" fill="none" xmlns="http://www.w3.org/2000/svg">
<rect width="1024" height="512" fill="#5CE66D"/>
<path d="M95.296 266.228C81.76 266.228 72.832 258.932 72.832 245.012V199.028H80.32V243.956C80.32 254.228 85.984 259.124 95.104 259.124C104.128 259.124 109.888 254.228 109.888 243.956V199.028H117.568V245.012C117.568 258.932 108.64 266.228 95.296 266.228ZM175.59 264.5H168.486V234.164C168.486 224.948 162.822 220.916 155.43 220.916C149.862 220.916 145.446 223.028 141.99 226.964V264.5H134.886V216.02H141.894V220.148H141.99C146.022 216.5 151.109 214.292 157.254 214.292C167.334 214.292 175.59 219.956 175.59 231.86V264.5ZM198.99 264.5H191.886V216.02H198.99V264.5ZM199.374 199.892H191.502V192.5H199.374V199.892ZM251.214 240.308C251.214 228.02 244.494 220.724 235.086 220.724C225.582 220.724 218.766 227.828 218.766 240.308C218.766 252.596 225.486 259.796 234.894 259.796C244.398 259.796 251.214 252.788 251.214 240.308ZM258.798 240.308C258.798 256.82 248.334 266.228 234.894 266.228C221.646 266.228 211.278 256.916 211.278 240.308C211.278 223.604 221.646 214.292 235.086 214.292C248.334 214.292 258.798 223.604 258.798 240.308ZM311.715 264.5H304.611V234.164C304.611 224.948 298.947 220.916 291.555 220.916C285.987 220.916 281.571 223.028 278.115 226.964V264.5H271.011V216.02H278.019V220.148H278.115C282.147 216.5 287.234 214.292 293.379 214.292C303.459 214.292 311.715 219.956 311.715 231.86V264.5ZM379.618 266.228C363.298 266.228 349.954 254.324 349.954 231.764C349.954 209.588 363.874 197.3 381.346 197.3C389.986 197.3 397.282 199.892 402.466 204.404V213.812H402.082C396.898 207.668 389.794 204.5 381.634 204.5C368.098 204.5 357.922 214.196 357.922 231.956C357.922 250.292 367.522 259.22 379.618 259.22C390.466 259.22 399.49 253.364 399.778 237.332H377.122V236.948L380.866 230.132H407.554C407.65 230.804 407.65 233.972 407.65 234.548C407.65 257.588 394.402 266.228 379.618 266.228ZM427.927 264.5H420.823V192.5H427.927V264.5ZM480.151 240.308C480.151 228.02 473.431 220.724 464.023 220.724C454.519 220.724 447.703 227.828 447.703 240.308C447.703 252.596 454.423 259.796 463.831 259.796C473.335 259.796 480.151 252.788 480.151 240.308ZM487.735 240.308C487.735 256.82 477.271 266.228 463.831 266.228C450.583 266.228 440.215 256.916 440.215 240.308C440.215 223.604 450.583 214.292 464.023 214.292C477.271 214.292 487.735 223.604 487.735 240.308ZM544.396 240.308C544.396 256.82 534.508 266.228 521.068 266.228C514.924 266.228 510.124 264.308 506.572 261.62H506.476L500.236 264.884H499.948V192.5H507.052V220.052H507.148C511.084 216.5 516.076 214.292 522.22 214.292C534.796 214.292 544.396 223.796 544.396 240.308ZM536.812 240.308C536.812 228.212 530.188 220.916 520.3 220.916C514.828 220.916 510.316 223.22 507.052 226.964V254.9C510.124 257.78 514.54 259.7 519.532 259.7C530.092 259.7 536.812 252.596 536.812 240.308ZM592.089 264.5H585.177V260.564H584.985C581.241 264.02 576.345 266.228 570.297 266.228C560.984 266.228 553.977 260.468 553.977 251.156C553.977 241.652 560.505 235.508 571.929 235.508C576.921 235.508 581.337 236.66 584.985 238.58V233.492C584.985 224.372 579.033 220.724 571.737 220.724C565.689 220.724 560.409 223.796 557.241 227.54H556.953V219.956C561.177 216.308 566.937 214.292 572.984 214.292C583.833 214.292 592.089 220.148 592.089 233.012V264.5ZM584.985 254.228V244.724C581.913 242.804 577.497 241.46 573.177 241.46C565.593 241.46 561.177 244.724 561.177 250.676C561.177 255.86 564.921 259.988 572.505 259.988C577.305 259.988 581.721 257.876 584.985 254.228ZM615.521 264.5H608.417V192.5H615.521V264.5ZM703.224 249.716V259.316C698.424 263.636 691.128 266.228 683.928 266.228C667.8 266.228 654.36 254.132 654.36 231.764C654.36 209.78 667.032 197.3 683.832 197.3C690.936 197.3 698.04 199.7 702.84 204.212V213.812H702.456C698.232 207.86 691.32 204.5 684.216 204.5C670.968 204.5 662.328 214.964 662.328 231.764C662.328 248.564 671.16 259.028 684.6 259.028C692.184 259.028 698.808 255.284 702.84 249.716H703.224ZM756.625 264.5H749.521V234.164C749.521 224.948 744.049 220.916 737.041 220.916C731.857 220.916 727.537 223.028 724.177 226.964V264.5H717.073V192.5H724.177V220.052H724.273C728.209 216.5 733.201 214.292 738.961 214.292C748.561 214.292 756.625 219.956 756.625 231.86V264.5ZM808.276 264.5H801.364V260.564H801.172C797.428 264.02 792.532 266.228 786.484 266.228C777.172 266.228 770.164 260.468 770.164 251.156C770.164 241.652 776.692 235.508 788.116 235.508C793.108 235.508 797.524 236.66 801.172 238.58V233.492C801.172 224.372 795.22 220.724 787.924 220.724C781.876 220.724 776.596 223.796 773.428 227.54H773.14V219.956C777.364 216.308 783.124 214.292 789.172 214.292C800.02 214.292 808.276 220.148 808.276 233.012V264.5ZM801.172 254.228V244.724C798.1 242.804 793.684 241.46 789.364 241.46C781.78 241.46 777.364 244.724 777.364 250.676C777.364 255.86 781.108 259.988 788.692 259.988C793.492 259.988 797.908 257.876 801.172 254.228ZM832.284 264.5H825.18V222.644H821.244V222.26L825.18 216.02V201.428H832.284V216.02H844.188V222.644H832.284V264.5Z" fill="black"/>
<path d="M95.8984 320.039C95.8984 323.898 95.1953 327.125 93.7891 329.719C92.3828 332.297 90.3438 334.242 87.6719 335.555C85.0156 336.852 81.7891 337.5 77.9922 337.5H68.6875V303.234H79.0234C82.5078 303.234 85.5078 303.875 88.0234 305.156C90.5391 306.422 92.4766 308.305 93.8359 310.805C95.2109 313.289 95.8984 316.367 95.8984 320.039ZM91.7031 320.18C91.7031 317.102 91.1875 314.562 90.1562 312.562C89.1406 310.562 87.6406 309.078 85.6562 308.109C83.6875 307.125 81.2734 306.633 78.4141 306.633H72.6719V334.078H77.5234C82.2422 334.078 85.7812 332.914 88.1406 330.586C90.5156 328.258 91.7031 324.789 91.7031 320.18ZM106.82 311.812V337.5H102.93V311.812H106.82ZM104.922 302.203C105.562 302.203 106.109 302.414 106.562 302.836C107.031 303.242 107.266 303.883 107.266 304.758C107.266 305.617 107.031 306.258 106.562 306.68C106.109 307.102 105.562 307.312 104.922 307.312C104.25 307.312 103.688 307.102 103.234 306.68C102.797 306.258 102.578 305.617 102.578 304.758C102.578 303.883 102.797 303.242 103.234 302.836C103.688 302.414 104.25 302.203 104.922 302.203ZM131.688 330.469C131.688 332.109 131.273 333.492 130.445 334.617C129.633 335.727 128.461 336.562 126.93 337.125C125.414 337.688 123.602 337.969 121.492 337.969C119.695 337.969 118.141 337.828 116.828 337.547C115.516 337.266 114.367 336.867 113.383 336.352V332.766C114.43 333.281 115.68 333.75 117.133 334.172C118.586 334.594 120.07 334.805 121.586 334.805C123.805 334.805 125.414 334.445 126.414 333.727C127.414 333.008 127.914 332.031 127.914 330.797C127.914 330.094 127.711 329.477 127.305 328.945C126.914 328.398 126.25 327.875 125.312 327.375C124.375 326.859 123.078 326.297 121.422 325.688C119.781 325.062 118.359 324.445 117.156 323.836C115.969 323.211 115.047 322.453 114.391 321.562C113.75 320.672 113.43 319.516 113.43 318.094C113.43 315.922 114.305 314.258 116.055 313.102C117.82 311.93 120.133 311.344 122.992 311.344C124.539 311.344 125.984 311.5 127.328 311.812C128.688 312.109 129.953 312.516 131.125 313.031L129.812 316.148C128.75 315.695 127.617 315.312 126.414 315C125.211 314.688 123.984 314.531 122.734 314.531C120.938 314.531 119.555 314.828 118.586 315.422C117.633 316.016 117.156 316.828 117.156 317.859C117.156 318.656 117.375 319.312 117.812 319.828C118.266 320.344 118.984 320.828 119.969 321.281C120.953 321.734 122.25 322.266 123.859 322.875C125.469 323.469 126.859 324.086 128.031 324.727C129.203 325.352 130.102 326.117 130.727 327.023C131.367 327.914 131.688 329.062 131.688 330.469ZM148.234 337.969C145.922 337.969 143.883 337.492 142.117 336.539C140.352 335.586 138.977 334.133 137.992 332.18C137.008 330.227 136.516 327.766 136.516 324.797C136.516 321.688 137.031 319.148 138.062 317.18C139.109 315.195 140.547 313.727 142.375 312.773C144.203 311.82 146.281 311.344 148.609 311.344C149.891 311.344 151.125 311.477 152.312 311.742C153.516 311.992 154.5 312.312 155.266 312.703L154.094 315.961C153.312 315.648 152.406 315.367 151.375 315.117C150.359 314.867 149.406 314.742 148.516 314.742C146.734 314.742 145.25 315.125 144.062 315.891C142.891 316.656 142.008 317.781 141.414 319.266C140.836 320.75 140.547 322.578 140.547 324.75C140.547 326.828 140.828 328.602 141.391 330.07C141.969 331.539 142.82 332.664 143.945 333.445C145.086 334.211 146.508 334.594 148.211 334.594C149.57 334.594 150.797 334.453 151.891 334.172C152.984 333.875 153.977 333.531 154.867 333.141V336.609C154.008 337.047 153.047 337.383 151.984 337.617C150.938 337.852 149.688 337.969 148.234 337.969ZM183.109 324.609C183.109 326.719 182.836 328.602 182.289 330.258C181.742 331.914 180.953 333.312 179.922 334.453C178.891 335.594 177.641 336.469 176.172 337.078C174.719 337.672 173.07 337.969 171.227 337.969C169.508 337.969 167.93 337.672 166.492 337.078C165.07 336.469 163.836 335.594 162.789 334.453C161.758 333.312 160.953 331.914 160.375 330.258C159.812 328.602 159.531 326.719 159.531 324.609C159.531 321.797 160.008 319.406 160.961 317.438C161.914 315.453 163.273 313.945 165.039 312.914C166.82 311.867 168.938 311.344 171.391 311.344C173.734 311.344 175.781 311.867 177.531 312.914C179.297 313.961 180.664 315.477 181.633 317.461C182.617 319.43 183.109 321.812 183.109 324.609ZM163.562 324.609C163.562 326.672 163.836 328.461 164.383 329.977C164.93 331.492 165.773 332.664 166.914 333.492C168.055 334.32 169.523 334.734 171.32 334.734C173.102 334.734 174.562 334.32 175.703 333.492C176.859 332.664 177.711 331.492 178.258 329.977C178.805 328.461 179.078 326.672 179.078 324.609C179.078 322.562 178.805 320.797 178.258 319.312C177.711 317.812 176.867 316.656 175.727 315.844C174.586 315.031 173.109 314.625 171.297 314.625C168.625 314.625 166.664 315.508 165.414 317.273C164.18 319.039 163.562 321.484 163.562 324.609ZM201.508 311.344C202.023 311.344 202.562 311.375 203.125 311.438C203.688 311.484 204.188 311.555 204.625 311.648L204.133 315.258C203.711 315.148 203.242 315.062 202.727 315C202.211 314.938 201.727 314.906 201.273 314.906C200.242 314.906 199.266 315.117 198.344 315.539C197.438 315.945 196.641 316.539 195.953 317.32C195.266 318.086 194.727 319.016 194.336 320.109C193.945 321.188 193.75 322.391 193.75 323.719V337.5H189.836V311.812H193.07L193.492 316.547H193.656C194.188 315.594 194.828 314.727 195.578 313.945C196.328 313.148 197.195 312.516 198.18 312.047C199.18 311.578 200.289 311.344 201.508 311.344ZM218.617 337.969C215.367 337.969 212.789 336.859 210.883 334.641C208.992 332.422 208.047 329.125 208.047 324.75C208.047 320.328 209.016 316.992 210.953 314.742C212.891 312.477 215.469 311.344 218.688 311.344C220.047 311.344 221.234 311.523 222.25 311.883C223.266 312.242 224.141 312.727 224.875 313.336C225.609 313.93 226.227 314.609 226.727 315.375H227.008C226.945 314.891 226.883 314.227 226.82 313.383C226.758 312.539 226.727 311.852 226.727 311.32V301.031H230.617V337.5H227.477L226.891 333.844H226.727C226.242 334.609 225.625 335.305 224.875 335.93C224.141 336.555 223.258 337.055 222.227 337.43C221.211 337.789 220.008 337.969 218.617 337.969ZM219.227 334.734C221.977 334.734 223.922 333.953 225.062 332.391C226.203 330.828 226.773 328.508 226.773 325.43V324.727C226.773 321.461 226.227 318.953 225.133 317.203C224.055 315.453 222.086 314.578 219.227 314.578C216.836 314.578 215.047 315.5 213.859 317.344C212.672 319.172 212.078 321.672 212.078 324.844C212.078 328 212.664 330.438 213.836 332.156C215.023 333.875 216.82 334.734 219.227 334.734ZM268.984 299.859L271.633 298.477C272.945 300.617 274.289 303 275.664 305.625L273.977 306.445C273.945 317.008 271.398 324.891 266.336 330.094C261.289 335.281 253.281 338.344 242.312 339.281L241.773 335.906C251.477 335.016 258.516 332.516 262.891 328.406C267.281 324.297 269.664 317.891 270.039 309.188H251.336C249.508 314.438 246.367 319.125 241.914 323.25L239.383 320.93C245.305 315.367 248.727 308.508 249.648 300.352L253.234 300.586C253.047 302.477 252.75 304.219 252.344 305.812H272.406C271.25 303.672 270.109 301.688 268.984 299.859ZM275.477 299.062L278.148 297.656C279.586 300.031 280.969 302.461 282.297 304.945L279.602 306.305C278.195 303.648 276.82 301.234 275.477 299.062ZM292.516 337.172H288.672V303.281H324.859V337.172H292.516ZM292.516 333.75H321.016V306.68H292.516V333.75ZM335.219 322.055V318.398H374.312V322.055H335.219ZM406.75 302.133L409.633 300.586C411.195 303.18 412.68 305.805 414.086 308.461L411.203 309.844C409.969 307.484 408.484 304.914 406.75 302.133ZM413.477 300.305L416.406 298.711C418.297 301.82 419.828 304.508 421 306.773L418.023 308.227C416.555 305.508 415.039 302.867 413.477 300.305ZM410.969 313.875L414.578 312.727C417.453 320.117 420.078 328.5 422.453 337.875L418.562 338.695C416.219 329.289 413.688 321.016 410.969 313.875ZM395.898 304.102C394.555 316.383 390.891 327.836 384.906 338.461L381.367 336.773C387.133 326.508 390.695 315.531 392.055 303.844L395.898 304.102ZM439.094 302.133H442.938V311.578C442.938 317.844 442.578 322.742 441.859 326.273C441.141 329.789 440.039 332.461 438.555 334.289C437.07 336.117 434.867 337.719 431.945 339.094L429.977 335.906C432.539 334.656 434.43 333.273 435.648 331.758C436.867 330.242 437.742 327.969 438.273 324.938C438.82 321.891 439.094 317.438 439.094 311.578V302.133ZM455.43 335.109C459.43 334.469 462.625 332.617 465.016 329.555C467.422 326.492 468.867 322.391 469.352 317.25L472.844 317.672C472.266 324.266 470.141 329.445 466.469 333.211C462.812 336.961 458.109 338.836 452.359 338.836H451.586V302.133H455.43V335.109ZM478.609 321.328V317.953H498.672V317.203V307.828C494.312 308.312 489.273 308.555 483.555 308.555V305.203C489.898 305.203 495.32 304.883 499.82 304.242C504.336 303.602 508.914 302.531 513.555 301.031L514.609 304.289C510.219 305.695 506.172 306.703 502.469 307.312V317.203V317.953H518.922V321.328H502.281C501.828 326.828 500.359 331 497.875 333.844C495.391 336.672 491.609 338.578 486.531 339.562L485.523 336.305C489.805 335.445 492.938 333.875 494.922 331.594C496.906 329.297 498.109 325.875 498.531 321.328H478.609ZM537.883 308.648L541.539 308.039L542.969 316.148L562.422 312.117L563.078 315.422C562.531 318.172 561.5 320.836 559.984 323.414C558.469 325.992 556.672 328.109 554.594 329.766L551.992 327.375C553.727 325.969 555.242 324.281 556.539 322.312C557.836 320.344 558.758 318.305 559.305 316.195L543.602 319.453L547.188 339.281L543.555 339.938L539.992 320.227L530.5 322.195L529.82 318.867L539.383 316.898L537.883 308.648ZM610.023 310.242C609.836 316.68 608.906 321.859 607.234 325.781C605.578 329.688 603.047 332.688 599.641 334.781C596.234 336.875 591.633 338.328 585.836 339.141L585.109 335.906C592.953 334.75 598.414 332.328 601.492 328.641C604.586 324.953 606.266 318.758 606.531 310.055L610.023 310.242ZM579.508 312.07L582.859 311.297C583.844 314.656 585 318.914 586.328 324.07L582.906 324.82C581.828 320.383 580.695 316.133 579.508 312.07ZM590.008 310.664L593.477 309.891C594.758 314.344 595.906 318.781 596.922 323.203L593.477 323.953C592.383 319.344 591.227 314.914 590.008 310.664ZM634.75 300.68V314.695C643.578 316.805 652.523 319.555 661.586 322.945L660.438 326.461C651.344 323.07 642.781 320.398 634.75 318.445V339.75H630.906V300.68H634.75ZM686.547 317.531V322.148H694.703V317.531H686.547ZM694.703 310.711H686.547V314.93H694.703V310.711ZM706.375 314.93V310.711H698.453V314.93H706.375ZM706.375 317.531H698.453V322.148H706.375V317.531ZM680.453 308.555L677.945 310.758C674.836 307.242 672.18 304.414 669.977 302.273L672.531 300.07C675.188 302.711 677.828 305.539 680.453 308.555ZM669.32 316.758H679.398V331.594C680.258 333.125 681.305 334.297 682.539 335.109C683.773 335.906 685.539 336.484 687.836 336.844C690.148 337.188 693.367 337.359 697.492 337.359H711.977L711.789 340.617H697.352C691.617 340.617 687.305 340.219 684.414 339.422C681.539 338.625 679.367 337.203 677.898 335.156C675.977 337.266 673.531 339.359 670.562 341.438L668.828 338.367C671.516 336.539 673.836 334.602 675.789 332.555V319.969H669.32V316.758ZM698.453 328.383H711.789V331.359H698.453V336.07H694.703V331.359H681.016V328.383H694.703V324.914H686.547H682.984V307.875H694.703V304.617H680.594V301.594H694.703V298.289H698.453V301.594H711.789V304.617H698.453V307.875H709.867V324.914H698.453V328.383ZM747.156 310.711H737.898V313.734H747.156V310.711ZM737.898 305.203V308.18H747.156V305.203H737.898ZM722.359 325.453C720.219 326.031 718.359 326.492 716.781 326.836L716.453 323.531C717.984 323.219 719.953 322.727 722.359 322.055V310.383H716.547V307.172H722.359V298.758H726.039V307.172H730.375V309.938C732.938 306.547 734.969 302.469 736.469 297.703L740.055 298.195C739.742 299.258 739.25 300.57 738.578 302.133H747.836C748.508 300.633 749.07 299.141 749.523 297.656L752.969 298.195C752.453 299.789 751.992 301.102 751.586 302.133H759.883V305.203H750.766V308.18H759.062V310.711H750.766V313.734H759.062V316.242H750.766V319.266H760.703V322.148H734.195V310.148C733.461 311.68 732.375 313.289 730.938 314.977L728.5 312.211C729.047 311.602 729.555 310.992 730.023 310.383H726.039V320.883C727.352 320.43 729.031 319.789 731.078 318.961L731.617 322.195C729.727 322.992 727.867 323.695 726.039 324.305V334.945C726.039 337.695 725.805 339.391 725.336 340.031C724.883 340.688 723.633 341.016 721.586 341.016C720.273 341.016 718.734 340.93 716.969 340.758L716.875 337.641C719.109 337.797 720.531 337.875 721.141 337.875C721.75 337.875 722.102 337.758 722.195 337.523C722.305 337.289 722.359 336.484 722.359 335.109V325.453ZM737.898 319.266H747.156V316.242H737.898V319.266ZM753.367 328.852H760.703C760.422 332.18 760.008 334.727 759.461 336.492C758.914 338.258 758.219 339.453 757.375 340.078C756.547 340.703 755.398 341.016 753.93 341.016C752.102 341.016 749.609 340.883 746.453 340.617L746.195 337.406C749.492 337.688 751.703 337.828 752.828 337.828C753.984 337.828 754.859 337.406 755.453 336.562C756.047 335.719 756.484 334.141 756.766 331.828H748.938L750.391 327.516H743.383C742.711 331 741.281 333.891 739.094 336.188C736.922 338.469 733.914 340.266 730.07 341.578L728.148 338.695C731.539 337.633 734.164 336.219 736.023 334.453C737.883 332.672 739.148 330.359 739.82 327.516H730.984V324.398H754.797L753.367 328.852ZM765.977 308.836H774.438V300.211H778.023V308.836H795.32V300.211H799.094V308.836H807.555V312.211H799.094V315.281C799.094 323.281 797.414 329.047 794.055 332.578C790.695 336.109 784.859 338.281 776.547 339.094L775.914 335.719C783.398 334.953 788.5 333.133 791.219 330.258C793.953 327.367 795.32 322.375 795.32 315.281V312.211H778.023V323.109H774.438V312.211H765.977V308.836ZM815.219 322.055V318.398H854.312V322.055H815.219ZM890.102 300.492L892.984 298.945C894.422 301.32 895.914 303.961 897.461 306.867L894.578 308.273C893.188 305.68 891.695 303.086 890.102 300.492ZM896.828 298.664L899.758 297.141C901.773 300.469 903.312 303.141 904.375 305.156L901.398 306.586C899.914 303.867 898.391 301.227 896.828 298.664ZM869.664 302.133V316.711C879.133 315.18 888.672 312.734 898.281 309.375L899.336 312.68C889.57 316.133 879.68 318.664 869.664 320.273V327.328C869.664 330.531 870.164 332.648 871.164 333.68C872.18 334.695 874.305 335.203 877.539 335.203C884.992 335.203 892.125 334.961 898.938 334.477L899.078 337.875C891.5 338.359 884.242 338.602 877.305 338.602C872.883 338.602 869.875 337.82 868.281 336.258C866.703 334.68 865.914 331.688 865.914 327.281V302.133H869.664ZM915.883 306.539V303.094H945.648V306.539C943.414 312.039 939.961 317.273 935.289 322.242C939.93 326.523 944.695 331.227 949.586 336.352L946.984 338.836C942.312 333.914 937.578 329.211 932.781 324.727C927.375 329.945 920.914 334.461 913.398 338.273L911.758 335.203C918.93 331.484 925.07 327.164 930.18 322.242C935.305 317.305 939.117 312.07 941.617 306.539H915.883Z" fill="black"/>
</svg>
