<svg width="1024" height="512" viewBox="0 0 1024 512" fill="none" xmlns="http://www.w3.org/2000/svg">
<rect width="1024" height="512" fill="#1747E6"/>
<path d="M97.312 264.5H91.552L65.152 199.028H73.6L94.528 252.5H94.624L115.456 199.028H123.616L97.312 264.5ZM163.089 240.308C163.089 228.02 156.369 220.724 146.961 220.724C137.457 220.724 130.641 227.828 130.641 240.308C130.641 252.596 137.361 259.796 146.769 259.796C156.273 259.796 163.089 252.788 163.089 240.308ZM170.673 240.308C170.673 256.82 160.209 266.228 146.769 266.228C133.521 266.228 123.153 256.916 123.153 240.308C123.153 223.604 133.521 214.292 146.961 214.292C160.209 214.292 170.673 223.604 170.673 240.308ZM189.99 264.5H182.886V216.02H189.99V264.5ZM190.374 199.892H182.502V192.5H190.374V199.892ZM239.238 252.692V261.14C235.686 264.404 230.31 266.228 224.55 266.228C212.262 266.228 202.278 257.204 202.278 240.308C202.278 223.796 211.782 214.292 224.646 214.292C230.214 214.292 235.302 215.924 238.95 219.284V227.828H238.662C235.878 223.796 230.886 220.724 225.126 220.724C215.718 220.724 209.766 228.404 209.766 240.308C209.766 252.212 215.91 259.796 225.51 259.796C231.462 259.796 236.07 256.916 238.95 252.692H239.238ZM288.464 260.852C284.24 264.404 278.096 266.228 271.568 266.228C257.744 266.228 247.184 257.012 247.184 240.308C247.184 223.796 256.592 214.292 269.456 214.292C281.36 214.292 290.672 223.22 290.672 236.66C290.672 237.908 290.576 239.732 290.576 241.076H254.672C254.768 253.268 262.16 259.796 272.528 259.796C279.44 259.796 284.816 257.012 288.08 252.884H288.464V260.852ZM269.456 220.724C261.296 220.724 255.824 226.1 254.864 234.932H283.28C283.088 226.676 277.424 220.724 269.456 220.724ZM306.556 266.228C302.908 266.228 299.068 265.076 296.572 262.964V254.708H296.956C299.26 257.588 302.332 259.028 305.308 259.028C311.356 259.028 314.524 254.9 314.524 247.028V199.028H322.012V248.18C322.012 258.836 317.308 266.228 306.556 266.228ZM381.119 218.804C381.119 231.092 372.959 240.788 347.999 242.804V264.5H340.511V199.028H357.887C370.655 199.028 381.119 205.46 381.119 218.804ZM373.343 219.38C373.343 210.74 366.815 206.132 357.695 206.132H347.999V235.7C367.199 234.548 373.343 227.252 373.343 219.38Z" fill="white"/>
<path d="M74.9453 320.367V334.945H101.055V320.367H74.9453ZM74.9453 317.203H101.055V303.656H74.9453V317.203ZM71.1953 300.398H104.805V341.203H101.055V338.133H74.9453V341.203H71.1953V300.398ZM131.922 309.516H114.742V306.211H134.125V298.289H137.875V306.211H157.258V309.516H140.078C144.234 317.516 150.539 325.211 158.992 332.602L156.977 335.766C148.977 328.719 142.609 320.883 137.875 312.258V330.398H148.727V333.562H137.875V342.164H134.125V333.562H123.273V330.398H134.125V312.258C129.391 320.898 123.023 328.734 115.023 335.766L113.008 332.602C121.461 325.211 127.766 317.516 131.922 309.516ZM188.219 308.555L189.273 303.516H181.703V300.398H204.789V303.516H193.07L191.969 308.555H202.586V317.438H206.078V320.555H180.742V317.438H186.297L187.562 311.484H182.805V308.555H188.219ZM186.25 338.93V341.016H182.664V323.953H203.828V341.016H200.172V338.93H186.25ZM167.594 339.797V341.906H164.078V327.562H179.336V339.797H167.594ZM167.594 336.773H175.984V330.633H167.594V336.773ZM190.094 317.438H198.883V311.484H191.336L190.094 317.438ZM200.172 335.953V327.047H186.25V335.953H200.172ZM164.078 303.422V300.305H179.289V303.422H164.078ZM162.742 310.242V307.031H180.648V310.242H162.742ZM164.406 317.016V313.969H179.102V317.016H164.406ZM164.406 323.812V320.742H179.102V323.812H164.406ZM236.172 318.211H227.922V323.016H236.172V318.211ZM239.594 318.211V323.016H248.078V318.211H239.594ZM236.172 315.469V310.945H227.922V315.469H236.172ZM239.594 315.469H248.078V310.945H239.594V315.469ZM237.953 307.219C240.703 305.969 243.406 304.539 246.062 302.93H230.992C234.164 304.836 236.484 306.266 237.953 307.219ZM221.922 308.555L219.414 310.758C216.305 307.242 213.648 304.414 211.445 302.273L214 300.07C216.625 302.711 219.266 305.539 221.922 308.555ZM210.555 316.758H220.633V331.641C221.492 333.172 222.539 334.344 223.773 335.156C225.008 335.953 226.773 336.531 229.07 336.891C231.383 337.234 234.602 337.406 238.727 337.406H253.211L253.023 340.617H238.586C232.852 340.617 228.539 340.219 225.648 339.422C222.773 338.625 220.602 337.203 219.133 335.156C217.211 337.266 214.766 339.359 211.797 341.438L210.062 338.367C212.75 336.539 215.07 334.602 217.023 332.555V319.969H210.555V316.758ZM223.516 302.93V299.906H251.688V302.93C249.578 304.492 246.555 306.211 242.617 308.086H251.688V329.344C251.688 331.609 251.453 333 250.984 333.516C250.516 334.031 249.258 334.289 247.211 334.289C245.992 334.289 244.43 334.242 242.523 334.148L242.406 331.172C244.609 331.297 246.055 331.359 246.742 331.359C247.383 331.359 247.766 331.266 247.891 331.078C248.016 330.875 248.078 330.281 248.078 329.297V325.734H239.594V334.148H236.172V325.734H227.922V334.477H224.406V308.086H233.734C231.875 306.93 230.047 305.82 228.25 304.758L230.031 302.93H223.516ZM263.594 339.797V341.906H260.078V327.562H275.336V339.797H263.594ZM263.594 336.773H271.984V330.633H263.594V336.773ZM299.688 299.344L300.391 302.508C297.344 303.43 294.258 304.164 291.133 304.711V312.164H301.609V315.328H291.133V321.891H300.156V341.25H296.453V338.695H281.922V341.25H278.406V321.891H287.43V315.328H276.789V312.164H287.43V305.297C284.68 305.719 281.516 306.023 277.938 306.211L277.75 303.047C285.781 302.562 293.094 301.328 299.688 299.344ZM296.453 335.719V324.867H281.922V335.719H296.453ZM260.078 303.422V300.305H275.289V303.422H260.078ZM258.742 310.242V307.031H276.484V310.242H258.742ZM260.406 317.016V313.969H275.102V317.016H260.406ZM260.406 323.812V320.742H275.102V323.812H260.406ZM314.219 323.578H310.633V307.594H326.078V304.852H306.555V301.828H326.078V298.055H329.922V301.828H349.445V304.852H329.922V307.594H345.367V323.578H340.469V326.133H349.445V329.203H340.469V335.672C340.469 338.234 340.141 339.805 339.484 340.383C338.844 340.961 337.062 341.25 334.141 341.25C333.078 341.25 330.312 341.172 325.844 341.016L325.703 337.828C329.953 337.984 332.594 338.07 333.625 338.086C335.125 338.086 336 337.969 336.25 337.734C336.516 337.516 336.648 336.797 336.648 335.578V329.203H306.555V326.133H336.648V323.578H314.219ZM326.078 316.711H314.219V320.789H326.078V316.711ZM329.922 316.711V320.789H341.781V316.711H329.922ZM326.078 314.133V310.336H314.219V314.133H326.078ZM329.922 314.133H341.781V310.336H329.922V314.133ZM325.117 335.906L323.148 338.836C320.242 336.664 316.977 334.617 313.352 332.695L315.227 329.812C318.852 331.703 322.148 333.734 325.117 335.906ZM374.711 314.367H362.57V319.031C362.57 321.078 362.531 322.562 362.453 323.484H374.711V314.367ZM378.297 314.367V323.484H391.609V314.367H378.297ZM374.711 311.438V303.047H362.57V311.438H374.711ZM378.297 311.438H391.609V303.047H378.297V311.438ZM358.867 299.906H395.289V335.109C395.289 337.859 394.969 339.562 394.328 340.219C393.688 340.875 392.023 341.203 389.336 341.203C388.695 341.203 386.461 341.117 382.633 340.945L382.469 337.828C386.156 337.984 388.273 338.07 388.82 338.086C390.164 338.086 390.961 337.945 391.211 337.664C391.477 337.398 391.609 336.594 391.609 335.25V326.461H378.297V340.383H374.711V326.461H362.219C361.609 332.508 359.789 337.562 356.758 341.625L353.688 339.234C355.609 336.578 356.953 333.664 357.719 330.492C358.484 327.32 358.867 323.047 358.867 317.672V299.906ZM431.898 320.039C431.898 323.898 431.195 327.125 429.789 329.719C428.383 332.297 426.344 334.242 423.672 335.555C421.016 336.852 417.789 337.5 413.992 337.5H404.688V303.234H415.023C418.508 303.234 421.508 303.875 424.023 305.156C426.539 306.422 428.477 308.305 429.836 310.805C431.211 313.289 431.898 316.367 431.898 320.039ZM427.703 320.18C427.703 317.102 427.188 314.562 426.156 312.562C425.141 310.562 423.641 309.078 421.656 308.109C419.688 307.125 417.273 306.633 414.414 306.633H408.672V334.078H413.523C418.242 334.078 421.781 332.914 424.141 330.586C426.516 328.258 427.703 324.789 427.703 320.18ZM442.82 311.812V337.5H438.93V311.812H442.82ZM440.922 302.203C441.562 302.203 442.109 302.414 442.562 302.836C443.031 303.242 443.266 303.883 443.266 304.758C443.266 305.617 443.031 306.258 442.562 306.68C442.109 307.102 441.562 307.312 440.922 307.312C440.25 307.312 439.688 307.102 439.234 306.68C438.797 306.258 438.578 305.617 438.578 304.758C438.578 303.883 438.797 303.242 439.234 302.836C439.688 302.414 440.25 302.203 440.922 302.203ZM467.688 330.469C467.688 332.109 467.273 333.492 466.445 334.617C465.633 335.727 464.461 336.562 462.93 337.125C461.414 337.688 459.602 337.969 457.492 337.969C455.695 337.969 454.141 337.828 452.828 337.547C451.516 337.266 450.367 336.867 449.383 336.352V332.766C450.43 333.281 451.68 333.75 453.133 334.172C454.586 334.594 456.07 334.805 457.586 334.805C459.805 334.805 461.414 334.445 462.414 333.727C463.414 333.008 463.914 332.031 463.914 330.797C463.914 330.094 463.711 329.477 463.305 328.945C462.914 328.398 462.25 327.875 461.312 327.375C460.375 326.859 459.078 326.297 457.422 325.688C455.781 325.062 454.359 324.445 453.156 323.836C451.969 323.211 451.047 322.453 450.391 321.562C449.75 320.672 449.43 319.516 449.43 318.094C449.43 315.922 450.305 314.258 452.055 313.102C453.82 311.93 456.133 311.344 458.992 311.344C460.539 311.344 461.984 311.5 463.328 311.812C464.688 312.109 465.953 312.516 467.125 313.031L465.812 316.148C464.75 315.695 463.617 315.312 462.414 315C461.211 314.688 459.984 314.531 458.734 314.531C456.938 314.531 455.555 314.828 454.586 315.422C453.633 316.016 453.156 316.828 453.156 317.859C453.156 318.656 453.375 319.312 453.812 319.828C454.266 320.344 454.984 320.828 455.969 321.281C456.953 321.734 458.25 322.266 459.859 322.875C461.469 323.469 462.859 324.086 464.031 324.727C465.203 325.352 466.102 326.117 466.727 327.023C467.367 327.914 467.688 329.062 467.688 330.469ZM484.234 337.969C481.922 337.969 479.883 337.492 478.117 336.539C476.352 335.586 474.977 334.133 473.992 332.18C473.008 330.227 472.516 327.766 472.516 324.797C472.516 321.688 473.031 319.148 474.062 317.18C475.109 315.195 476.547 313.727 478.375 312.773C480.203 311.82 482.281 311.344 484.609 311.344C485.891 311.344 487.125 311.477 488.312 311.742C489.516 311.992 490.5 312.312 491.266 312.703L490.094 315.961C489.312 315.648 488.406 315.367 487.375 315.117C486.359 314.867 485.406 314.742 484.516 314.742C482.734 314.742 481.25 315.125 480.062 315.891C478.891 316.656 478.008 317.781 477.414 319.266C476.836 320.75 476.547 322.578 476.547 324.75C476.547 326.828 476.828 328.602 477.391 330.07C477.969 331.539 478.82 332.664 479.945 333.445C481.086 334.211 482.508 334.594 484.211 334.594C485.57 334.594 486.797 334.453 487.891 334.172C488.984 333.875 489.977 333.531 490.867 333.141V336.609C490.008 337.047 489.047 337.383 487.984 337.617C486.938 337.852 485.688 337.969 484.234 337.969ZM519.109 324.609C519.109 326.719 518.836 328.602 518.289 330.258C517.742 331.914 516.953 333.312 515.922 334.453C514.891 335.594 513.641 336.469 512.172 337.078C510.719 337.672 509.07 337.969 507.227 337.969C505.508 337.969 503.93 337.672 502.492 337.078C501.07 336.469 499.836 335.594 498.789 334.453C497.758 333.312 496.953 331.914 496.375 330.258C495.812 328.602 495.531 326.719 495.531 324.609C495.531 321.797 496.008 319.406 496.961 317.438C497.914 315.453 499.273 313.945 501.039 312.914C502.82 311.867 504.938 311.344 507.391 311.344C509.734 311.344 511.781 311.867 513.531 312.914C515.297 313.961 516.664 315.477 517.633 317.461C518.617 319.43 519.109 321.812 519.109 324.609ZM499.562 324.609C499.562 326.672 499.836 328.461 500.383 329.977C500.93 331.492 501.773 332.664 502.914 333.492C504.055 334.32 505.523 334.734 507.32 334.734C509.102 334.734 510.562 334.32 511.703 333.492C512.859 332.664 513.711 331.492 514.258 329.977C514.805 328.461 515.078 326.672 515.078 324.609C515.078 322.562 514.805 320.797 514.258 319.312C513.711 317.812 512.867 316.656 511.727 315.844C510.586 315.031 509.109 314.625 507.297 314.625C504.625 314.625 502.664 315.508 501.414 317.273C500.18 319.039 499.562 321.484 499.562 324.609ZM537.508 311.344C538.023 311.344 538.562 311.375 539.125 311.438C539.688 311.484 540.188 311.555 540.625 311.648L540.133 315.258C539.711 315.148 539.242 315.062 538.727 315C538.211 314.938 537.727 314.906 537.273 314.906C536.242 314.906 535.266 315.117 534.344 315.539C533.438 315.945 532.641 316.539 531.953 317.32C531.266 318.086 530.727 319.016 530.336 320.109C529.945 321.188 529.75 322.391 529.75 323.719V337.5H525.836V311.812H529.07L529.492 316.547H529.656C530.188 315.594 530.828 314.727 531.578 313.945C532.328 313.148 533.195 312.516 534.18 312.047C535.18 311.578 536.289 311.344 537.508 311.344ZM554.617 337.969C551.367 337.969 548.789 336.859 546.883 334.641C544.992 332.422 544.047 329.125 544.047 324.75C544.047 320.328 545.016 316.992 546.953 314.742C548.891 312.477 551.469 311.344 554.688 311.344C556.047 311.344 557.234 311.523 558.25 311.883C559.266 312.242 560.141 312.727 560.875 313.336C561.609 313.93 562.227 314.609 562.727 315.375H563.008C562.945 314.891 562.883 314.227 562.82 313.383C562.758 312.539 562.727 311.852 562.727 311.32V301.031H566.617V337.5H563.477L562.891 333.844H562.727C562.242 334.609 561.625 335.305 560.875 335.93C560.141 336.555 559.258 337.055 558.227 337.43C557.211 337.789 556.008 337.969 554.617 337.969ZM555.227 334.734C557.977 334.734 559.922 333.953 561.062 332.391C562.203 330.828 562.773 328.508 562.773 325.43V324.727C562.773 321.461 562.227 318.953 561.133 317.203C560.055 315.453 558.086 314.578 555.227 314.578C552.836 314.578 551.047 315.5 549.859 317.344C548.672 319.172 548.078 321.672 548.078 324.844C548.078 328 548.664 330.438 549.836 332.156C551.023 333.875 552.82 334.734 555.227 334.734ZM576.625 306.539V303.281H614.547V306.539C613.594 309.961 611.953 313.047 609.625 315.797C607.297 318.547 604.484 320.727 601.188 322.336L599.289 319.359C605.148 316.453 608.922 312.18 610.609 306.539H576.625ZM590.781 311.109H594.438C594.438 319.297 593.43 325.484 591.414 329.672C589.398 333.859 585.953 337 581.078 339.094L579.367 336.023C583.555 334.258 586.5 331.523 588.203 327.82C589.922 324.102 590.781 318.531 590.781 311.109ZM653.898 302.93C653.898 301.227 654.5 299.781 655.703 298.594C656.906 297.391 658.352 296.789 660.039 296.789C661.742 296.789 663.188 297.391 664.375 298.594C665.578 299.797 666.18 301.25 666.18 302.953C666.18 304.641 665.578 306.086 664.375 307.289C663.188 308.492 661.742 309.094 660.039 309.094C659.586 309.094 659.266 309.078 659.078 309.047C658.469 318.297 655.688 325.352 650.734 330.211C645.781 335.07 638.391 338.031 628.562 339.094L627.93 335.672C637.055 334.641 643.805 331.914 648.18 327.492C652.57 323.055 654.961 316.469 655.352 307.734H623.57V304.242H653.992C653.93 303.945 653.898 303.508 653.898 302.93ZM662.5 305.391C663.172 304.719 663.508 303.906 663.508 302.953C663.508 301.984 663.172 301.164 662.5 300.492C661.828 299.82 661.008 299.484 660.039 299.484C659.086 299.484 658.273 299.82 657.602 300.492C656.93 301.164 656.594 301.984 656.594 302.953C656.594 303.906 656.93 304.719 657.602 305.391C658.273 306.062 659.086 306.398 660.039 306.398C661.008 306.398 661.828 306.062 662.5 305.391ZM701.336 301.828H705.25V314.133C705.25 322.195 703.43 328.227 699.789 332.227C696.148 336.227 690.195 338.781 681.93 339.891L681.109 336.398C688.594 335.273 693.836 333.07 696.836 329.789C699.836 326.508 701.336 321.32 701.336 314.227V301.828ZM676.281 322.945V301.828H680.102V322.945H676.281Z" fill="white"/>
</svg>
