<?xml version="1.0" encoding="UTF-8" standalone="no"?>

<svg
   viewBox="0 0 64 12"
   version="1.1"
   id="svg1"
   xmlns="http://www.w3.org/2000/svg"
   xmlns:svg="http://www.w3.org/2000/svg">
   <rect
      style="fill:#1747e5"
      id="rect1"
      width="64"
      height="12"
      x="0"
      y="0" />
   <rect
      style="fill:#ffffff"
      id="rect47"
      width="1"
      height="1"
      x="15"
      y="6" />
   <g
      id="g64"
      transform="translate(3)">
      <g
         id="g61"
         transform="translate(2,2)">
         <path
            id="rect21"
            style="fill:#ffffff"
            d="M 1,1 V 7 H 2 V 5 H 4 V 4 H 2 V 2 H 4 V 1 H 2 Z M 4,2 V 4 H 5 V 2 Z M 4,5 V 7 H 5 V 5 Z" />
         <path
            id="rect21-7"
            style="fill:#ffffff"
            d="m 20,1 v 6 h 1 V 5 h 2 V 4 H 21 V 2 h 2 V 1 h -2 z m 3,1 v 2 h 1 V 2 Z m 0,3 v 2 h 1 V 5 Z" />
         <path
            id="rect21-7-1"
            style="fill:#ffffff"
            d="m 30,1 v 6 h 1 V 5 h 2 V 4 H 31 V 2 h 2 V 1 h -2 z m 3,1 v 2 h 1 V 2 Z m 0,3 v 2 h 1 V 5 Z" />
         <path
            id="rect27"
            style="fill:#ffffff"
            d="M 6,1 V 7 H 6.6894531 7 9 V 6 H 7 V 4 H 8 V 3 H 7 V 2 H 9 V 1 H 7 Z" />
         <path
            id="rect38"
            style="fill:#ffffff"
            d="m 10,1 v 6 h 1 V 3 h 1 V 2 H 11 V 1 Z m 2,2 v 2 h 1 v 2 h 1 V 1 h -1 v 2 z" />
         <path
            id="rect43"
            style="fill:#ffffff"
            d="m 16,1 v 1 h 2 V 1 Z m 2,1 v 4 h 1 V 2 Z m 0,4 h -2 v 1 h 2 z M 16,6 V 2 h -1 v 4 z" />
         <path
            id="rect48"
            style="fill:#ffffff"
            d="m 26,1 v 1 h 2 V 1 Z m 2,1 V 4 H 26 V 2 h -1 v 5 h 1 V 5 h 2 v 2 h 1 V 2 Z" />
         <path
            id="rect59"
            style="fill:#ffffff"
            d="m 35,1 v 1 h 1 v 4 h -1 v 1 h 3 V 6 H 37 V 2 h 1 V 1 h -1 -1 z" />
      </g>
      <g
         id="g63">
         <path
            id="rect27-2"
            style="fill:#ffffff"
            d="M 48,3 V 9 H 48.689453 49 51 V 8 H 49 V 6 h 1 V 5 H 49 V 4 h 2 V 3 h -2 z" />
         <path
            id="rect38-0"
            style="fill:#ffffff"
            d="m 43,3 v 6 h 1 V 5 h 1 V 4 H 44 V 3 Z m 2,2 v 2 h 1 v 2 h 1 V 3 h -1 v 2 z" />
         <rect
            style="fill:#ffffff"
            id="rect61"
            width="1"
            height="1"
            x="41"
            y="8" />
         <path
            id="rect62"
            style="fill:#ffffff"
            d="m 52,3 v 1 h 1 v 5 h 1 V 4 h 1 V 3 Z" />
      </g>
   </g>
   <path
      id="rect64"
      style="fill:#e63a69"
      d="M 60 0 L 60 1 L 61 1 L 61 0 L 60 0 z M 61 1 L 61 2 L 62 2 L 62 1 L 61 1 z M 62 2 L 62 3 L 63 3 L 63 2 L 62 2 z M 63 3 L 63 4 L 64 4 L 64 3 L 63 3 z M 0 8 L 0 9 L 1 9 L 1 8 L 0 8 z M 1 9 L 1 10 L 2 10 L 2 9 L 1 9 z M 2 10 L 2 11 L 3 11 L 3 10 L 2 10 z M 3 11 L 3 12 L 4 12 L 4 11 L 3 11 z " />
</svg>