<?xml version="1.0" encoding="UTF-8" standalone="no"?>
<svg
   width="98"
   height="96"
   version="1.1"
   id="svg1"
   xmlns="http://www.w3.org/2000/svg"
   xmlns:svg="http://www.w3.org/2000/svg">
  <defs
     id="defs1" />
  <path
     id="path4"
     style="fill:#ffffff;stroke-width:32;stroke-linecap:round;paint-order:fill markers stroke"
     d="M 24.003906 20.267578 C 23.47188 20.290446 23.214844 20.371094 23.214844 20.371094 C 20.544848 27.13408 22.243516 32.186205 22.728516 33.408203 C 19.654522 36.830197 17.714844 41.231385 17.714844 46.609375 C 17.714844 65.514337 29.118053 69.75158 39.957031 70.892578 C 38.582035 72.114576 37.286812 74.314194 36.882812 77.492188 C 34.051818 78.796184 27.015428 80.913953 22.648438 73.417969 C 22.648437 73.417969 20.05899 68.691234 15.125 68.365234 C 15.125 68.365234 10.352791 68.365865 14.800781 71.380859 C 14.800781 71.380859 18.036707 72.846793 20.220703 78.550781 C 20.220703 78.550781 23.050653 87.351963 36.640625 84.417969 C 36.640625 88.492961 36.720703 92.403924 36.720703 93.544922 C 36.720703 94.685045 36.040197 96.013959 34.244141 96 L 63.382812 96 C 61.587234 96.01327 60.90625 94.68592 60.90625 93.544922 C 60.90625 91.915926 60.986328 86.617566 60.986328 80.017578 C 60.986328 75.372588 59.449918 72.440576 57.669922 70.892578 C 68.5899 69.66958 79.994141 65.514337 79.994141 46.609375 C 79.994141 41.231385 78.133508 36.830197 74.978516 33.408203 C 75.463514 32.186205 77.164135 27.13408 74.494141 20.371094 C 74.494141 20.371094 70.368388 19.06784 61.066406 25.423828 C 57.183414 24.36483 52.978507 23.792969 48.853516 23.792969 A 46.97 46.97 0 0 0 36.640625 25.423828 C 29.664889 20.656837 25.599986 20.198974 24.003906 20.267578 z " />
</svg>
