<svg width="1024" height="512" viewBox="0 0 1024 512" fill="none" xmlns="http://www.w3.org/2000/svg">
<rect width="1024" height="512" fill="#E63A69"/>
<path d="M125.824 264.5H117.568L108.928 242.9H82.144L73.6 264.5H65.536L92.608 199.028H98.752L125.824 264.5ZM95.488 209.588L84.928 236.084H106.24L95.68 209.588H95.488ZM151.068 264.5H146.076L125.34 216.02H133.404L148.764 252.98H148.859L164.028 216.02H171.804L151.068 264.5ZM188.677 264.5H181.573V216.02H188.677V264.5ZM189.061 199.892H181.189V192.5H189.061V199.892ZM228.421 266.228C214.885 266.228 205.957 258.932 205.957 245.012V199.028H213.445V243.956C213.445 254.228 219.109 259.124 228.229 259.124C237.253 259.124 243.013 254.228 243.013 243.956V199.028H250.693V245.012C250.693 258.932 241.765 266.228 228.421 266.228ZM275.691 264.5H268.587V222.644H264.651V222.26L268.587 216.02V201.428H275.691V216.02H287.595V222.644H275.691V264.5ZM305.865 264.5H298.761V192.5H305.865V264.5ZM401.824 264.5H393.568L384.928 242.9H358.144L349.6 264.5H341.536L368.608 199.028H374.752L401.824 264.5ZM371.488 209.588L360.928 236.084H382.24L371.68 209.588H371.488ZM440.141 252.308C440.141 260.372 434.573 266.228 423.821 266.228C418.061 266.228 413.165 264.5 409.709 261.332V253.172H409.997C413.453 257.588 418.637 260.084 423.821 260.084C429.581 260.084 433.229 257.204 433.229 252.788C433.229 240.692 409.901 245.492 409.901 227.828C409.901 220.244 414.989 214.292 425.165 214.292C430.253 214.292 435.245 215.732 438.413 218.996V227.156H438.221C435.149 223.316 430.349 220.532 425.357 220.532C419.789 220.532 417.005 223.412 417.005 227.444C417.005 239.348 440.141 234.26 440.141 252.308ZM499.115 240.308C499.115 256.82 489.227 266.228 475.787 266.228C470.027 266.228 465.227 264.5 461.867 262.1H461.771V283.028H454.667V216.02H461.675V220.148H461.771C465.803 216.5 470.795 214.292 476.939 214.292C489.515 214.292 499.115 223.796 499.115 240.308ZM491.531 240.308C491.531 228.212 484.907 220.916 475.019 220.916C469.547 220.916 465.035 223.22 461.771 226.964V254.9C464.843 257.78 469.259 259.7 474.251 259.7C484.811 259.7 491.531 252.596 491.531 240.308ZM548.714 260.852C544.49 264.404 538.346 266.228 531.818 266.228C517.994 266.228 507.434 257.012 507.434 240.308C507.434 223.796 516.842 214.292 529.706 214.292C541.61 214.292 550.922 223.22 550.922 236.66C550.922 237.908 550.826 239.732 550.826 241.076H514.922C515.018 253.268 522.41 259.796 532.778 259.796C539.69 259.796 545.066 257.012 548.33 252.884H548.714V260.852ZM529.706 220.724C521.546 220.724 516.074 226.1 515.114 234.932H543.53C543.338 226.676 537.674 220.724 529.706 220.724ZM596.425 252.692V261.14C592.873 264.404 587.497 266.228 581.737 266.228C569.449 266.228 559.465 257.204 559.465 240.308C559.465 223.796 568.969 214.292 581.833 214.292C587.401 214.292 592.489 215.924 596.137 219.284V227.828H595.849C593.065 223.796 588.073 220.724 582.313 220.724C572.905 220.724 566.953 228.404 566.953 240.308C566.953 252.212 573.097 259.796 582.697 259.796C588.649 259.796 593.257 256.916 596.137 252.692H596.425ZM616.659 264.5H609.555V222.644H605.619V222.26L609.555 216.02V201.428H616.659V216.02H628.563V222.644H616.659V264.5ZM713.801 264.5H704.009L675.977 234.74V234.356C694.217 231.668 698.825 226.292 698.825 218.42C698.825 210.74 693.065 206.132 683.177 206.132H674.249V264.5H666.761V199.028H684.041C697.385 199.028 706.697 205.364 706.697 217.652C706.697 227.636 701.897 234.164 688.265 237.908V238.1L713.801 264.5ZM758.401 264.5H751.489V260.564H751.297C747.553 264.02 742.657 266.228 736.609 266.228C727.297 266.228 720.289 260.468 720.289 251.156C720.289 241.652 726.817 235.508 738.241 235.508C743.233 235.508 747.649 236.66 751.297 238.58V233.492C751.297 224.372 745.345 220.724 738.049 220.724C732.001 220.724 726.721 223.796 723.553 227.54H723.265V219.956C727.489 216.308 733.249 214.292 739.297 214.292C750.145 214.292 758.401 220.148 758.401 233.012V264.5ZM751.297 254.228V244.724C748.225 242.804 743.809 241.46 739.489 241.46C731.905 241.46 727.489 244.724 727.489 250.676C727.489 255.86 731.233 259.988 738.817 259.988C743.617 259.988 748.033 257.876 751.297 254.228ZM782.409 264.5H775.305V222.644H771.369V222.26L775.305 216.02V201.428H782.409V216.02H794.313V222.644H782.409V264.5ZM812.583 264.5H805.479V216.02H812.583V264.5ZM812.967 199.892H805.095V192.5H812.967V199.892ZM864.807 240.308C864.807 228.02 858.087 220.724 848.679 220.724C839.175 220.724 832.359 227.828 832.359 240.308C832.359 252.596 839.079 259.796 848.487 259.796C857.991 259.796 864.807 252.788 864.807 240.308ZM872.391 240.308C872.391 256.82 861.927 266.228 848.487 266.228C835.239 266.228 824.871 256.916 824.871 240.308C824.871 223.604 835.239 214.292 848.679 214.292C861.927 214.292 872.391 223.604 872.391 240.308Z" fill="white"/>
<path d="M90.1797 337.5L85.9609 326.625H72.2266L68.0312 337.5H64L77.4062 303.094H80.9922L94.3047 337.5H90.1797ZM84.7656 323.086L80.7578 312.281C80.6641 312 80.5078 311.539 80.2891 310.898C80.0859 310.258 79.875 309.594 79.6562 308.906C79.4375 308.219 79.2578 307.664 79.1172 307.242C78.9609 307.883 78.7891 308.523 78.6016 309.164C78.4297 309.789 78.2578 310.375 78.0859 310.922C77.9141 311.453 77.7656 311.906 77.6406 312.281L73.5625 323.086H84.7656ZM104.125 337.5L94.375 311.812H98.5469L104.195 327.352C104.586 328.414 104.984 329.586 105.391 330.867C105.797 332.148 106.078 333.18 106.234 333.961H106.398C106.586 333.18 106.898 332.148 107.336 330.867C107.773 329.57 108.172 328.398 108.531 327.352L114.18 311.812H118.352L108.578 337.5H104.125ZM126.367 311.812V337.5H122.477V311.812H126.367ZM124.469 302.203C125.109 302.203 125.656 302.414 126.109 302.836C126.578 303.242 126.812 303.883 126.812 304.758C126.812 305.617 126.578 306.258 126.109 306.68C125.656 307.102 125.109 307.312 124.469 307.312C123.797 307.312 123.234 307.102 122.781 306.68C122.344 306.258 122.125 305.617 122.125 304.758C122.125 303.883 122.344 303.242 122.781 302.836C123.234 302.414 123.797 302.203 124.469 302.203ZM161.125 303.234V325.406C161.125 327.828 160.633 329.984 159.648 331.875C158.68 333.766 157.211 335.258 155.242 336.352C153.273 337.43 150.805 337.969 147.836 337.969C143.602 337.969 140.375 336.82 138.156 334.523C135.953 332.227 134.852 329.156 134.852 325.312V303.234H138.859V325.43C138.859 328.336 139.625 330.578 141.156 332.156C142.703 333.734 145.008 334.523 148.07 334.523C150.164 334.523 151.875 334.148 153.203 333.398C154.547 332.633 155.539 331.57 156.18 330.211C156.836 328.836 157.164 327.25 157.164 325.453V303.234H161.125ZM177.93 334.781C178.57 334.781 179.227 334.727 179.898 334.617C180.57 334.508 181.117 334.375 181.539 334.219V337.242C181.086 337.445 180.453 337.617 179.641 337.758C178.844 337.898 178.062 337.969 177.297 337.969C175.938 337.969 174.703 337.734 173.594 337.266C172.484 336.781 171.594 335.969 170.922 334.828C170.266 333.688 169.938 332.109 169.938 330.094V314.859H166.281V312.961L169.961 311.438L171.508 305.859H173.852V311.812H181.375V314.859H173.852V329.977C173.852 331.586 174.219 332.789 174.953 333.586C175.703 334.383 176.695 334.781 177.93 334.781ZM190.656 337.5H186.742V301.031H190.656V337.5ZM202.375 339.516V341.672H198.719V299.906H238.844V341.672H235.188V339.516H202.375ZM235.188 336.445V303.047H202.375V336.445H235.188ZM207.156 308.695L209.992 307.031C212.289 310.484 214.242 313.758 215.852 316.852L212.922 318.445C211.25 315.148 209.328 311.898 207.156 308.695ZM215.852 305.672L218.688 304.055C220.578 306.961 222.43 310.172 224.242 313.688L221.43 315.188C219.945 312.203 218.086 309.031 215.852 305.672ZM204.039 320.367L205.445 317.531C210.508 319.391 214.984 321.359 218.875 323.438C223.859 318.703 227.859 313.266 230.875 307.125L233.805 308.602C230.93 314.648 226.961 320.156 221.898 325.125C225.445 327.172 229.141 329.617 232.984 332.461L230.922 335.062C227.141 332.219 223.305 329.672 219.414 327.422C215.727 330.688 211.609 333.531 207.062 335.953L205.094 333.375C209.219 331.141 212.969 328.594 216.344 325.734C212.391 323.688 208.289 321.898 204.039 320.367ZM251.125 316.477C251.219 314.18 251.266 311.586 251.266 308.695V303.562H245.805V300.398H272.055V303.562H266.312V316.477H272.055V319.641H266.312V340.852H262.609V319.641H254.594C254.234 325.562 253.531 330.078 252.484 333.188C251.453 336.281 249.883 338.969 247.773 341.25L244.938 338.461C246.797 336.477 248.188 334.172 249.109 331.547C250.047 328.922 250.672 324.953 250.984 319.641H245.336V316.477H251.125ZM254.734 316.477H262.609V303.562H254.875V308.695C254.875 311.508 254.828 314.102 254.734 316.477ZM270.344 308.414C276.547 306.07 281.516 303.078 285.25 299.438L287.711 301.734C283.742 305.672 278.508 308.891 272.008 311.391L270.344 308.414ZM270.344 322.57C276.875 320.039 282.117 316.555 286.07 312.117L288.531 314.367C284.375 319.07 278.898 322.797 272.102 325.547L270.344 322.57ZM268.703 337.688C272.516 336.312 275.852 334.68 278.711 332.789C281.57 330.898 284.266 328.562 286.797 325.781L289.234 328.102C286.609 331.039 283.812 333.5 280.844 335.484C277.875 337.469 274.422 339.195 270.484 340.664L268.703 337.688ZM319.398 335.25C323.242 334.828 326.234 333.305 328.375 330.68C330.516 328.055 331.586 324.57 331.586 320.227C331.586 316.164 330.242 312.805 327.555 310.148C324.867 307.492 321.422 306.094 317.219 305.953C316.547 312.156 315.703 317.406 314.688 321.703C313.688 326 312.578 329.242 311.359 331.43C310.156 333.617 308.945 335.156 307.727 336.047C306.508 336.922 305.18 337.359 303.742 337.359C301.445 337.359 299.328 335.969 297.391 333.188C295.453 330.406 294.484 326.992 294.484 322.945C294.484 316.93 296.539 312.039 300.648 308.273C304.758 304.492 310.109 302.602 316.703 302.602C322.016 302.602 326.406 304.258 329.875 307.57C333.344 310.883 335.078 315.102 335.078 320.227C335.078 325.539 333.734 329.836 331.047 333.117C328.359 336.398 324.711 338.227 320.102 338.602L319.398 335.25ZM313.586 306.164C308.852 306.742 305.062 308.555 302.219 311.602C299.391 314.633 297.977 318.414 297.977 322.945C297.977 325.961 298.617 328.523 299.898 330.633C301.18 332.742 302.461 333.797 303.742 333.797C304.32 333.797 304.922 333.586 305.547 333.164C306.172 332.727 306.867 331.883 307.633 330.633C308.398 329.383 309.117 327.781 309.789 325.828C310.461 323.875 311.141 321.211 311.828 317.836C312.516 314.445 313.102 310.555 313.586 306.164ZM352.258 318.867C351.773 316.758 351.234 314.758 350.641 312.867C349.359 315.102 348.047 317.234 346.703 319.266L352.258 318.867ZM361.094 315.984V339.328C363.141 332.859 364.586 324.906 365.43 315.469L368.641 315.938C368.219 320.516 367.789 324.195 367.352 326.977C368.055 329.148 368.852 330.914 369.742 332.273C370.633 333.617 371.75 334.656 373.094 335.391V310.289H363.883C363.148 312.133 362.219 314.031 361.094 315.984ZM340.07 338.508C341.102 334.055 341.758 329.578 342.039 325.078L344.922 325.359C344.641 329.844 343.969 334.438 342.906 339.141L340.07 338.508ZM355.141 336.445L352.328 336.727C352.141 333.008 351.766 329.156 351.203 325.172L353.758 324.727L352.562 321.891L349.773 322.102V341.672H346.328V322.336L340.328 322.758L340.164 319.641L342.766 319.5C342.953 319.219 343.211 318.828 343.539 318.328C343.883 317.828 344.188 317.375 344.453 316.969C344.734 316.547 344.984 316.141 345.203 315.75C342.906 311.719 341.211 308.812 340.117 307.031L342.18 304.102C342.492 304.617 342.977 305.414 343.633 306.492C345.07 303.648 346.32 300.961 347.383 298.43L350.406 299.625C349.156 302.531 347.508 305.891 345.461 309.703C345.617 309.984 345.883 310.477 346.258 311.18C346.648 311.867 346.938 312.367 347.125 312.68C348.438 310.508 350.133 307.375 352.211 303.281L355.047 304.758C354.188 306.492 352.828 308.992 350.969 312.258L353.336 311.625C353.977 313.609 354.609 315.977 355.234 318.727C357.312 316.102 359.203 312.852 360.906 308.977L363.367 309.984V307.125H369.25C368.547 304.984 367.625 302.516 366.484 299.719L369.648 298.711C370.711 301.211 371.703 304.016 372.625 307.125H376.07C377.57 304.375 378.82 301.508 379.82 298.523L382.984 299.297C382 302.266 380.914 304.875 379.727 307.125H385.352V310.289H376.703V320.461H383.992V323.672H376.703V336.727C378.594 337.148 381.023 337.359 383.992 337.359H385.68L385.586 340.617H383.898C378.977 340.617 375.219 339.969 372.625 338.672C370.031 337.375 367.984 335.047 366.484 331.688C365.781 335.203 364.945 338.406 363.977 341.297L361.094 340.102V341.672H357.742V320.695C356.523 322.555 355.289 324.109 354.039 325.359C354.492 328.469 354.859 332.164 355.141 336.445ZM356.828 311.062L354.578 308.648C357.328 305.742 359.648 302.305 361.539 298.336L364.422 299.812C362.438 304.109 359.906 307.859 356.828 311.062ZM412.797 304.852V308.695H421.914V304.852H412.797ZM419.523 322.102H427.68V317.25H419.523V322.102ZM419.523 324.773V329.766H427.68V324.773H419.523ZM415.68 317.25H407.383V322.102H415.68V317.25ZM407.383 329.766H415.68V324.773H407.383V329.766ZM394.328 310.289H388.703V307.125H394.469V298.758H397.961V307.125H402.859V308.695H409.188V304.852H403.188V301.969H409.188V298.477H412.797V301.969H421.914V298.477H425.523V301.969H431.523V304.852H425.523V308.695H432.812V311.719H419.523V314.461H431.266V332.555H422.055C426.18 334.539 429.797 336.781 432.906 339.281L431.078 341.906C427.781 339.375 424.008 337.055 419.758 334.945L421.305 332.555H413.383L414.953 334.617C412.109 337.305 408.188 339.609 403.188 341.531L401.57 338.695C406.023 336.961 409.641 334.914 412.422 332.555H407.383H403.773V324.586L401.383 326.227C400.195 322.961 399.055 319.922 397.961 317.109V341.672H394.469V320.508C393.344 324.383 391.836 328.031 389.945 331.453L387.695 328.148C390.805 322.586 393.016 316.633 394.328 310.289ZM415.68 311.719H402.578V310.289H398.312C398.828 311.508 400.648 316.031 403.773 323.859V314.461H415.68V311.719ZM459.109 335.016C451.656 337.797 444.312 339.797 437.078 341.016L436.422 337.828C438.156 337.516 440.008 337.133 441.977 336.68V299.578H445.727V313.875H457.914V317.203H445.727V335.766C450.008 334.641 454.219 333.328 458.359 331.828L459.109 335.016ZM470.055 337.266C471.336 337.266 472.477 337.203 473.477 337.078C474.977 336.922 475.867 336.312 476.148 335.25C476.445 334.188 476.703 330.586 476.922 324.445L480.391 324.773C480.328 326.789 480.258 328.391 480.18 329.578C480.117 330.766 480.031 331.969 479.922 333.188C479.812 334.406 479.711 335.32 479.617 335.93C479.523 336.523 479.352 337.125 479.102 337.734C478.867 338.344 478.641 338.766 478.422 339C478.219 339.25 477.883 339.484 477.414 339.703C476.961 339.938 476.531 340.086 476.125 340.148C475.734 340.211 475.172 340.289 474.438 340.383C472.844 340.539 471.352 340.617 469.961 340.617C468.195 340.617 466.727 340.555 465.555 340.43C463.539 340.273 462.289 339.836 461.805 339.117C461.32 338.398 461.078 336.609 461.078 333.75V299.578H464.875V315.141C469 312.766 473.352 309.258 477.93 304.617L480.297 307.172C475.047 312.422 469.906 316.391 464.875 319.078V333.281C464.875 335.078 464.945 336.133 465.086 336.445C465.242 336.758 465.766 336.969 466.656 337.078C467.578 337.203 468.711 337.266 470.055 337.266ZM490.938 339.797V341.906H487.352V327.562H504.531V339.797H490.938ZM490.938 336.773H501.109V330.633H490.938V336.773ZM529.492 313.594V316.945H520.703V341.672H516.953V316.945H506.875V313.594H516.953V298.758H520.703V313.594H529.492ZM487.352 303.422V300.305H504.484V303.422H487.352ZM485.992 310.242V307.031H505.82V310.242H485.992ZM487.68 317.016V313.969H504.297V317.016H487.68ZM487.68 323.812V320.742H504.297V323.812H487.68ZM564.672 309.234C563.938 307.219 563.312 305.602 562.797 304.383H559.445C558.039 306.039 556.438 307.539 554.641 308.883L552.18 306.445C552.883 305.93 553.703 305.242 554.641 304.383H547C547.828 306.555 548.438 308.172 548.828 309.234H564.672ZM541.82 322.617V325.547H567.742V322.617H541.82ZM541.82 317.25V320.18H567.742V317.25H541.82ZM541.82 314.836H567.742V311.906H541.82V314.836ZM548.5 331.359H561.25V327.984H548.922C548.891 329.172 548.75 330.297 548.5 331.359ZM532.75 307.641C536.266 304.672 538.812 301.281 540.391 297.469L543.883 298.242C543.523 299.133 543.062 300.141 542.5 301.266H555.156V303.844C557.297 301.703 558.883 299.562 559.914 297.422L563.383 298.289C562.93 299.32 562.398 300.312 561.789 301.266H576.227V304.383H566.688C567.516 306.555 568.125 308.172 568.516 309.234H571.586V327.984H565.094V331.359H576.391V334.477H565.094V341.672H561.25V334.477H547.492C545.93 337.867 542.891 340.477 538.375 342.305L536.055 339.469C539.383 338.188 541.75 336.523 543.156 334.477H533.172V331.359H544.562C544.875 330.266 545.047 329.141 545.078 327.984H541.82H537.977V309.234H544.984C544.25 307.188 543.625 305.57 543.109 304.383H540.531C539 306.523 537.234 308.414 535.234 310.055L532.75 307.641ZM603.508 316.758C602.805 314.195 602.273 312.359 601.914 311.25C600.633 313.328 599.32 315.312 597.977 317.203L603.508 316.758ZM610.844 316.664L612.133 316.57C613.023 315.32 614.047 313.836 615.203 312.117C614.531 311.289 612.727 309.062 609.789 305.438C609.945 309.375 610.297 313.117 610.844 316.664ZM621.109 315.891C620.594 313.875 620.102 312.086 619.633 310.523C618.133 312.867 616.852 314.789 615.789 316.289L621.109 315.891ZM608.594 322.711C607.344 317.211 606.609 310.797 606.391 303.469C604.984 306.125 603.625 308.523 602.312 310.664L604.609 309.938C605.891 314.188 606.867 317.852 607.539 320.93L604.75 321.75L604.164 319.453L594.18 320.367C594.242 320.523 594.344 320.766 594.484 321.094C594.641 321.406 594.75 321.641 594.812 321.797L593.523 322.711H608.594ZM611.992 322.711H617.219C616.125 321.117 615.297 319.953 614.734 319.219L611.336 319.5C611.492 320.359 611.711 321.43 611.992 322.711ZM589.633 310.289C591.102 313.492 592.203 315.922 592.938 317.578L594.344 317.484C595.406 316.047 596.508 314.43 597.648 312.633C595.992 310.555 594.727 309 593.852 307.969V310.289H589.633ZM580.656 307.125H585.93V298.758H589.398V307.125H593.125C593.031 307 592.75 306.664 592.281 306.117C591.828 305.57 591.469 305.164 591.203 304.898L593.617 303.047C593.773 303.234 594 303.5 594.297 303.844C594.609 304.172 594.844 304.43 595 304.617C596.281 302.477 597.406 300.398 598.375 298.383L601.234 299.344C599.953 301.938 598.531 304.461 596.969 306.914C598.062 308.258 598.867 309.234 599.383 309.844C600.977 307.219 602.445 304.594 603.789 301.969L606.344 302.836C606.312 301.977 606.297 300.617 606.297 298.758H609.648C609.648 300.07 609.68 301.852 609.742 304.102L611.523 302.742C611.648 302.898 611.852 303.148 612.133 303.492C612.43 303.82 612.656 304.086 612.812 304.289C614.125 302.023 615.164 300.055 615.93 298.383L618.812 299.344C617.562 301.906 616.219 304.336 614.781 306.633C615.484 307.461 616.219 308.375 616.984 309.375C618.391 307.109 619.836 304.516 621.32 301.594L624.133 302.555C622.727 305.305 621.305 307.836 619.867 310.148L622.375 309.469C623.297 312.578 624.203 316.133 625.094 320.133L622.328 320.836C622.234 320.352 622.055 319.602 621.789 318.586L617.898 318.914C618.883 320.227 619.781 321.492 620.594 322.711H624.953V325.734H612.859C613.406 327.531 614.062 329.211 614.828 330.773C616.203 329.367 617.453 327.836 618.578 326.18L621.109 327.844C619.734 329.984 618.188 331.906 616.469 333.609C617.078 334.5 617.703 335.25 618.344 335.859C618.984 336.469 619.484 336.875 619.844 337.078C620.219 337.266 620.484 337.359 620.641 337.359C621.438 337.359 622.125 335.148 622.703 330.727L625.68 332.086C624.945 338.164 623.438 341.203 621.156 341.203C620.062 341.203 618.867 340.766 617.57 339.891C616.289 339.031 615.039 337.703 613.82 335.906C611.039 338.047 607.789 339.828 604.07 341.25L602.734 338.273C606.281 337.023 609.43 335.312 612.18 333.141C610.992 330.766 610.055 328.297 609.367 325.734H599.758C599.727 326.312 599.648 327.062 599.523 327.984C601.664 330.391 604.289 332.281 607.398 333.656L606.086 336.492C603.336 335.273 600.891 333.578 598.75 331.406C597.531 335.594 595.656 338.906 593.125 341.344L590.5 339.094C592.156 337.5 593.492 335.539 594.508 333.211C595.539 330.883 596.156 328.391 596.359 325.734H591.836V322.758C591.289 321.383 590.477 319.383 589.398 316.758V341.672H585.93V320.695C584.805 324.57 583.414 328.109 581.758 331.312L579.742 327.984C582.617 322.359 584.648 316.461 585.836 310.289H580.656V307.125Z" fill="white"/>
</svg>
