<svg width="1024" height="512" viewBox="0 0 1024 512" fill="none" xmlns="http://www.w3.org/2000/svg">
<rect width="1024" height="512" fill="#5CE66D"/>
<path d="M80.128 245.108H73.984L73.12 192.5H81.088L80.128 245.108ZM80.8 264.5H73.312V256.052H80.8V264.5ZM141.9 246.356C141.9 258.356 132.972 264.5 117.996 264.5H99.9483V199.028H117.516C129.804 199.028 138.156 204.98 138.156 215.732C138.156 222.836 134.508 227.732 128.748 230.516C136.62 232.34 141.9 238.004 141.9 246.356ZM134.124 245.876C134.124 238.772 128.172 234.836 119.34 234.836H107.436V257.78H118.188C128.364 257.78 134.124 254.036 134.124 245.876ZM130.284 216.788C130.284 210.068 125.1 205.748 116.652 205.748H107.436V228.404H120.684C127.788 226.1 130.284 222.26 130.284 216.788ZM194.245 260.852C190.021 264.404 183.877 266.228 177.349 266.228C163.525 266.228 152.965 257.012 152.965 240.308C152.965 223.796 162.373 214.292 175.237 214.292C187.141 214.292 196.453 223.22 196.453 236.66C196.453 237.908 196.357 239.732 196.357 241.076H160.453C160.549 253.268 167.941 259.796 178.309 259.796C185.221 259.796 190.597 257.012 193.861 252.884H194.245V260.852ZM175.237 220.724C167.077 220.724 161.605 226.1 160.645 234.932H189.061C188.869 226.676 183.205 220.724 175.237 220.724ZM246.276 260.852C242.052 264.404 235.908 266.228 229.38 266.228C215.556 266.228 204.996 257.012 204.996 240.308C204.996 223.796 214.404 214.292 227.268 214.292C239.172 214.292 248.484 223.22 248.484 236.66C248.484 237.908 248.388 239.732 248.388 241.076H212.484C212.58 253.268 219.972 259.796 230.34 259.796C237.252 259.796 242.628 257.012 245.892 252.884H246.276V260.852ZM227.268 220.724C219.108 220.724 213.636 226.1 212.676 234.932H241.092C240.9 226.676 235.236 220.724 227.268 220.724ZM306.083 240.308C306.083 256.82 296.196 266.228 282.756 266.228C276.996 266.228 272.196 264.5 268.836 262.1H268.74V283.028H261.636V216.02H268.644V220.148H268.74C272.772 216.5 277.764 214.292 283.908 214.292C296.484 214.292 306.083 223.796 306.083 240.308ZM298.5 240.308C298.5 228.212 291.876 220.916 281.988 220.916C276.516 220.916 272.004 223.22 268.74 226.964V254.9C271.812 257.78 276.228 259.7 281.22 259.7C291.78 259.7 298.5 252.596 298.5 240.308Z" fill="black"/>
<path d="M98.7578 326.836C101.477 322.711 103.156 316.555 103.797 308.367H92.8516C92.6016 309.133 92.1875 310.25 91.6094 311.719L94.2812 311.391C95.1562 317.938 96.6484 323.086 98.7578 326.836ZM77.8281 304.383H86.3125V307.641H73.6094C73.6094 310.484 73.5938 312.547 73.5625 313.828H84.5547V318.164C87.7891 312.758 90.2812 306.07 92.0312 298.102L95.5469 298.523C95.0625 300.898 94.5156 303.094 93.9062 305.109H110.617V308.367H107.336C106.664 317.836 104.508 325.031 100.867 329.953C103.211 332.969 106.43 335.664 110.523 338.039L108.742 340.898C104.492 338.43 101.102 335.68 98.5703 332.648C95.6953 335.617 91.5 338.367 85.9844 340.898L84.0625 338.039C89.5312 335.602 93.6719 332.844 96.4844 329.766C93.7969 325.578 91.9297 320.109 90.8828 313.359C89.5391 316.438 88.1797 319.094 86.8047 321.328L84.5547 319.641C84.4922 325.812 84.2734 330.406 83.8984 333.422C83.5234 336.422 83.0234 338.367 82.3984 339.258C81.7734 340.164 80.8125 340.617 79.5156 340.617C77.9844 340.617 75.8984 340.461 73.2578 340.148L73.2109 336.68C75.5547 336.992 77.1719 337.156 78.0625 337.172C78.7969 337.172 79.3516 336.766 79.7266 335.953C80.1172 335.125 80.4297 333.242 80.6641 330.305C80.9141 327.352 81.0391 322.953 81.0391 317.109H73.3984C73.1484 323.062 72.5938 327.883 71.7344 331.57C70.8906 335.242 69.625 338.531 67.9375 341.438L65.1016 339.047C66.8359 335.812 68.0703 331.852 68.8047 327.164C69.5391 322.477 69.9062 315.969 69.9062 307.641H65.5938V304.383H74.1719V297.984H77.8281V304.383ZM125.922 308.555L123.414 310.758C120.305 307.242 117.648 304.414 115.445 302.273L118 300.07C120.625 302.711 123.266 305.539 125.922 308.555ZM114.555 316.758H124.633V331.641C125.492 333.172 126.539 334.344 127.773 335.156C129.008 335.953 130.773 336.531 133.07 336.891C135.383 337.234 138.602 337.406 142.727 337.406H157.211L157.023 340.617H142.586C136.852 340.617 132.539 340.219 129.648 339.422C126.773 338.625 124.602 337.203 123.133 335.156C121.211 337.266 118.766 339.359 115.797 341.438L114.062 338.367C116.75 336.539 119.07 334.602 121.023 332.555V319.969H114.555V316.758ZM155.289 333.094L152.453 335.109C149.484 330.656 146.336 326.672 143.008 323.156C140.836 328.281 136.562 332.148 130.188 334.758L128.125 331.922C135.297 329.172 139.406 324.906 140.453 319.125H127.516V315.984H140.711V309.281H128.453V306.164H136.375C135.219 303.82 134.023 301.594 132.789 299.484L135.953 298.43C137.391 300.836 138.766 303.414 140.078 306.164H145.07C146.695 303.414 148.055 300.805 149.148 298.336L152.453 299.25C151.625 301.203 150.445 303.508 148.914 306.164H155.336V309.281H144.391V315.984H156.25V319.125H144.156C144.156 319.188 144.141 319.266 144.109 319.359C144.078 319.453 144.062 319.531 144.062 319.594C148.281 323.891 152.023 328.391 155.289 333.094ZM162.883 302.555H171.039V298.289H174.742V302.555H182.078V305.672H176.078C178.25 307.688 180.398 309.867 182.523 312.211L180.297 314.508C178.594 312.461 176.742 310.414 174.742 308.367V317.344H171.039V308.602C169.023 311.961 166.43 315.078 163.258 317.953L161.336 315.234C164.789 312.188 167.516 309 169.516 305.672H162.883V302.555ZM205.117 302.555V305.672H197.289C199.555 308.938 202.68 312.125 206.664 315.234L204.695 317.953C201.117 315.109 198.141 312.055 195.766 308.789V317.344H192.062V308.461C189.688 311.539 186.711 314.484 183.133 317.297L181.164 314.695C185.039 311.758 188.125 308.75 190.422 305.672H183.859V302.555H192.062V298.289H195.766V302.555H205.117ZM167.195 321.984V318.914H200.805V321.984H167.195ZM204.648 325.5V328.617H186.555V336.68C186.555 338.57 186.242 339.75 185.617 340.219C184.992 340.703 183.445 340.945 180.977 340.945C179.18 340.945 177 340.867 174.438 340.711L174.344 337.641C176.75 337.797 178.719 337.875 180.25 337.875C181.5 337.875 182.219 337.812 182.406 337.688C182.609 337.562 182.711 337.133 182.711 336.398V328.617H163.352V325.5H204.648ZM163.211 337.312C167.148 335.266 170.609 332.625 173.594 329.391L176.031 331.594C173.062 334.984 169.367 337.82 164.945 340.102L163.211 337.312ZM191.242 331.734L193.352 329.156C197.414 331.688 201.258 334.469 204.883 337.5L202.914 340.195C199.289 337.18 195.398 334.359 191.242 331.734ZM231.461 299.672H235.258V311.438H251.336V314.695H235.258V336.305H253.117V339.656H210.883V336.305H217.516V306.539H221.195V336.305H231.461V299.672ZM268.328 330.773V336.211H291.672V330.773H268.328ZM268.328 327.797H291.672V322.617H268.328V327.797ZM284.453 313.172C286.109 310.766 287.508 308.156 288.648 305.344H271.398C272.68 307.609 273.992 310.219 275.336 313.172H284.453ZM264.484 319.5H295.516V341.344H291.672V339.281H268.328V341.344H264.484V319.5ZM258.391 316.242V313.172H271.305C270.023 310.422 268.664 307.812 267.227 305.344H259.844V302.227H278.078V297.516H281.922V302.227H300.156V305.344H292.539C291.508 308.156 290.227 310.766 288.695 313.172H301.609V316.242H258.391ZM326.781 318.961V325.5H338.172V318.961H326.781ZM338.172 310.523H326.781V316.148H338.172V310.523ZM341.758 307.594H357.836V325.5H362.734V328.617H357.836V335.719C357.836 338.281 357.523 339.859 356.898 340.453C356.289 341.047 354.633 341.344 351.93 341.344C351.258 341.344 349.008 341.266 345.18 341.109L345.086 337.875C348.773 338.031 350.867 338.117 351.367 338.133C352.711 338.133 353.508 338.016 353.758 337.781C354.023 337.562 354.156 336.859 354.156 335.672V328.617H326.781V341.672H323.102V328.617H318.203V325.5H323.102V307.594H338.172V303.422H319.82V300.398H361.117V303.422H341.758V307.594ZM341.758 310.523V316.148H354.156V310.523H341.758ZM354.156 318.961H341.758V325.5H354.156V318.961ZM387.273 298.617H391.117V306.445H407.336V309.75H391.117V320.227H404.922V323.438H391.117V336.633H409.117V339.891H367.82V336.633H387.273V323.438H373.914V320.227H387.273V309.75H375.227C373.883 313.625 372.25 317.289 370.328 320.742L367.07 319.031C370.273 313.203 372.688 306.719 374.312 299.578L377.898 300.211C377.508 302.039 376.969 304.117 376.281 306.445H387.273V298.617ZM447.602 302.93C447.602 301.227 448.203 299.781 449.406 298.594C450.609 297.391 452.055 296.789 453.742 296.789C455.445 296.789 456.891 297.391 458.078 298.594C459.281 299.797 459.883 301.25 459.883 302.953C459.883 304.641 459.281 306.086 458.078 307.289C456.891 308.492 455.445 309.094 453.742 309.094C453.289 309.094 452.969 309.078 452.781 309.047C452.172 318.297 449.391 325.352 444.438 330.211C439.484 335.07 432.094 338.031 422.266 339.094L421.633 335.672C430.758 334.641 437.508 331.914 441.883 327.492C446.273 323.055 448.664 316.469 449.055 307.734H417.273V304.242H447.695C447.633 303.945 447.602 303.508 447.602 302.93ZM456.203 305.391C456.875 304.719 457.211 303.906 457.211 302.953C457.211 301.984 456.875 301.164 456.203 300.492C455.531 299.82 454.711 299.484 453.742 299.484C452.789 299.484 451.977 299.82 451.305 300.492C450.633 301.164 450.297 301.984 450.297 302.953C450.297 303.906 450.633 304.719 451.305 305.391C451.977 306.062 452.789 306.398 453.742 306.398C454.711 306.398 455.531 306.062 456.203 305.391ZM470.219 337.172H466.375V303.281H502.562V337.172H470.219ZM470.219 333.75H498.719V306.68H470.219V333.75ZM542.688 299.859L545.336 298.477C546.648 300.617 547.992 303 549.367 305.625L547.68 306.445C547.648 317.008 545.102 324.891 540.039 330.094C534.992 335.281 526.984 338.344 516.016 339.281L515.477 335.906C525.18 335.016 532.219 332.516 536.594 328.406C540.984 324.297 543.367 317.891 543.742 309.188H525.039C523.211 314.438 520.07 319.125 515.617 323.25L513.086 320.93C519.008 315.367 522.43 308.508 523.352 300.352L526.938 300.586C526.75 302.477 526.453 304.219 526.047 305.812H546.109C544.953 303.672 543.812 301.688 542.688 299.859ZM549.18 299.062L551.852 297.656C553.289 300.031 554.672 302.461 556 304.945L553.305 306.305C551.898 303.648 550.523 301.234 549.18 299.062ZM561.742 314.836H598.797V315.656C598.797 330.156 588.945 338.078 569.242 339.422L568.656 336.07C585.016 334.945 593.766 328.992 594.906 318.211H561.742V314.836ZM565.445 305.953V302.602H595.492V305.953H565.445ZM635.945 318.539L639.32 316.945C643.07 324.18 646.398 330.953 649.305 337.266L645.836 338.742C645.617 338.227 645.25 337.438 644.734 336.375C644.234 335.297 643.867 334.5 643.633 333.984C630.836 335.938 618.984 337.109 608.078 337.5L607.984 334.148C609.047 334.117 610.742 334.031 613.07 333.891C617.07 323.547 620.398 312.672 623.055 301.266L626.781 301.969C624.25 312.984 621.07 323.531 617.242 333.609C625.273 333.031 633.562 332.102 642.109 330.82C639.562 325.648 637.508 321.555 635.945 318.539Z" fill="black"/>
</svg>
