<svg width="1024" height="512" viewBox="0 0 1024 512" fill="none" xmlns="http://www.w3.org/2000/svg">
<rect width="1024" height="512" fill="#5CE66D"/>
<path d="M115.744 246.356C115.744 258.356 106.816 264.5 91.84 264.5H73.792V199.028H91.36C103.648 199.028 112 204.98 112 215.732C112 222.836 108.352 227.732 102.592 230.516C110.464 232.34 115.744 238.004 115.744 246.356ZM107.968 245.876C107.968 238.772 102.016 234.836 93.184 234.836H81.28V257.78H92.032C102.208 257.78 107.968 254.036 107.968 245.876ZM104.128 216.788C104.128 210.068 98.944 205.748 90.496 205.748H81.28V228.404H94.528C101.632 226.1 104.128 222.26 104.128 216.788ZM138.521 264.5H131.417V192.5H138.521V264.5ZM190.745 240.308C190.745 228.02 184.025 220.724 174.617 220.724C165.113 220.724 158.297 227.828 158.297 240.308C158.297 252.596 165.017 259.796 174.425 259.796C183.929 259.796 190.745 252.788 190.745 240.308ZM198.329 240.308C198.329 256.82 187.865 266.228 174.425 266.228C161.177 266.228 150.809 256.916 150.809 240.308C150.809 223.604 161.177 214.292 174.617 214.292C187.865 214.292 198.329 223.604 198.329 240.308ZM243.456 252.692V261.14C239.904 264.404 234.528 266.228 228.768 266.228C216.48 266.228 206.496 257.204 206.496 240.308C206.496 223.796 216 214.292 228.864 214.292C234.432 214.292 239.52 215.924 243.168 219.284V227.828H242.88C240.096 223.796 235.104 220.724 229.344 220.724C219.936 220.724 213.984 228.404 213.984 240.308C213.984 252.212 220.128 259.796 229.728 259.796C235.68 259.796 240.288 256.916 243.168 252.692H243.456ZM263.115 264.5H256.011V192.5H263.115V264.5ZM293.451 264.5H284.619L264.363 240.116V239.732L283.851 216.02H292.299L272.715 239.444V239.636L293.451 264.5ZM374.349 249.716V259.316C369.549 263.636 362.253 266.228 355.053 266.228C338.925 266.228 325.485 254.132 325.485 231.764C325.485 209.78 338.157 197.3 354.957 197.3C362.061 197.3 369.165 199.7 373.965 204.212V213.812H373.581C369.357 207.86 362.445 204.5 355.341 204.5C342.093 204.5 333.453 214.964 333.453 231.764C333.453 248.564 342.285 259.028 355.725 259.028C363.309 259.028 369.933 255.284 373.965 249.716H374.349ZM427.75 264.5H420.646V234.164C420.646 224.948 415.174 220.916 408.166 220.916C402.982 220.916 398.662 223.028 395.302 226.964V264.5H388.198V192.5H395.302V220.052H395.398C399.334 216.5 404.326 214.292 410.086 214.292C419.686 214.292 427.75 219.956 427.75 231.86V264.5ZM480.745 260.852C476.521 264.404 470.377 266.228 463.849 266.228C450.025 266.228 439.465 257.012 439.465 240.308C439.465 223.796 448.873 214.292 461.737 214.292C473.641 214.292 482.953 223.22 482.953 236.66C482.953 237.908 482.857 239.732 482.857 241.076H446.953C447.049 253.268 454.441 259.796 464.809 259.796C471.721 259.796 477.097 257.012 480.361 252.884H480.745V260.852ZM461.737 220.724C453.577 220.724 448.105 226.1 447.145 234.932H475.561C475.369 226.676 469.705 220.724 461.737 220.724ZM528.456 252.692V261.14C524.904 264.404 519.528 266.228 513.768 266.228C501.48 266.228 491.496 257.204 491.496 240.308C491.496 223.796 501 214.292 513.864 214.292C519.432 214.292 524.52 215.924 528.168 219.284V227.828H527.88C525.096 223.796 520.104 220.724 514.344 220.724C504.936 220.724 498.984 228.404 498.984 240.308C498.984 252.212 505.128 259.796 514.728 259.796C520.68 259.796 525.288 256.916 528.168 252.692H528.456ZM548.115 264.5H541.011V192.5H548.115V264.5ZM578.451 264.5H569.619L549.363 240.116V239.732L568.851 216.02H577.299L557.715 239.444V239.636L578.451 264.5ZM623.714 260.852C619.49 264.404 613.346 266.228 606.818 266.228C592.994 266.228 582.434 257.012 582.434 240.308C582.434 223.796 591.842 214.292 604.706 214.292C616.61 214.292 625.922 223.22 625.922 236.66C625.922 237.908 625.826 239.732 625.826 241.076H589.922C590.018 253.268 597.41 259.796 607.778 259.796C614.69 259.796 620.066 257.012 623.33 252.884H623.714V260.852ZM604.706 220.724C596.546 220.724 591.074 226.1 590.114 234.932H618.53C618.338 226.676 612.674 220.724 604.706 220.724ZM646.561 264.5H639.457V216.02H646.177V220.244H646.273C649.921 216.788 653.953 214.292 658.945 214.292C660.769 214.292 662.497 214.58 664.033 215.156V222.932H663.745C661.921 221.684 659.905 221.108 657.793 221.108C653.473 221.108 649.825 223.508 646.561 226.868V264.5Z" fill="black"/>
<path d="M93.3906 337.5H88.6797L76.3281 320.836L72.6719 324.117V337.5H68.6875V303.234H72.6719V320.32C73.5625 319.305 74.4766 318.297 75.4141 317.297C76.3516 316.281 77.2812 315.258 78.2031 314.227L88.2109 303.234H92.875L79.2344 318.094L93.3906 337.5ZM107.102 311.391C110.164 311.391 112.438 312.078 113.922 313.453C115.406 314.828 116.148 317.023 116.148 320.039V337.5H113.312L112.562 333.703H112.375C111.656 334.641 110.906 335.43 110.125 336.07C109.344 336.695 108.438 337.172 107.406 337.5C106.391 337.812 105.141 337.969 103.656 337.969C102.094 337.969 100.703 337.695 99.4844 337.148C98.2812 336.602 97.3281 335.773 96.625 334.664C95.9375 333.555 95.5938 332.148 95.5938 330.445C95.5938 327.883 96.6094 325.914 98.6406 324.539C100.672 323.164 103.766 322.414 107.922 322.289L112.352 322.102V320.531C112.352 318.312 111.875 316.758 110.922 315.867C109.969 314.977 108.625 314.531 106.891 314.531C105.547 314.531 104.266 314.727 103.047 315.117C101.828 315.508 100.672 315.969 99.5781 316.5L98.3828 313.547C99.5391 312.953 100.867 312.445 102.367 312.023C103.867 311.602 105.445 311.391 107.102 311.391ZM112.305 324.844L108.391 325.008C105.188 325.133 102.93 325.656 101.617 326.578C100.305 327.5 99.6484 328.805 99.6484 330.492C99.6484 331.961 100.094 333.047 100.984 333.75C101.875 334.453 103.055 334.805 104.523 334.805C106.805 334.805 108.672 334.172 110.125 332.906C111.578 331.641 112.305 329.742 112.305 327.211V324.844ZM136.328 311.344C139.375 311.344 141.68 312.094 143.242 313.594C144.805 315.078 145.586 317.469 145.586 320.766V337.5H141.742V321.023C141.742 318.883 141.25 317.281 140.266 316.219C139.297 315.156 137.805 314.625 135.789 314.625C132.945 314.625 130.945 315.43 129.789 317.039C128.633 318.648 128.055 320.984 128.055 324.047V337.5H124.164V311.812H127.305L127.891 315.516H128.102C128.648 314.609 129.344 313.852 130.188 313.242C131.031 312.617 131.977 312.148 133.023 311.836C134.07 311.508 135.172 311.344 136.328 311.344ZM163.211 311.391C166.273 311.391 168.547 312.078 170.031 313.453C171.516 314.828 172.258 317.023 172.258 320.039V337.5H169.422L168.672 333.703H168.484C167.766 334.641 167.016 335.43 166.234 336.07C165.453 336.695 164.547 337.172 163.516 337.5C162.5 337.812 161.25 337.969 159.766 337.969C158.203 337.969 156.812 337.695 155.594 337.148C154.391 336.602 153.438 335.773 152.734 334.664C152.047 333.555 151.703 332.148 151.703 330.445C151.703 327.883 152.719 325.914 154.75 324.539C156.781 323.164 159.875 322.414 164.031 322.289L168.461 322.102V320.531C168.461 318.312 167.984 316.758 167.031 315.867C166.078 314.977 164.734 314.531 163 314.531C161.656 314.531 160.375 314.727 159.156 315.117C157.938 315.508 156.781 315.969 155.688 316.5L154.492 313.547C155.648 312.953 156.977 312.445 158.477 312.023C159.977 311.602 161.555 311.391 163.211 311.391ZM168.414 324.844L164.5 325.008C161.297 325.133 159.039 325.656 157.727 326.578C156.414 327.5 155.758 328.805 155.758 330.492C155.758 331.961 156.203 333.047 157.094 333.75C157.984 334.453 159.164 334.805 160.633 334.805C162.914 334.805 164.781 334.172 166.234 332.906C167.688 331.641 168.414 329.742 168.414 327.211V324.844ZM199.797 300.445L203.289 299.484C203.508 300.25 203.734 301.086 203.969 301.992C204.219 302.883 204.484 303.883 204.766 304.992C205.062 306.086 205.289 306.938 205.445 307.547C207.586 307.031 209.461 306.773 211.07 306.773C214.148 306.773 216.594 307.688 218.406 309.516C220.234 311.344 221.148 313.789 221.148 316.852C221.148 320.086 220.164 322.641 218.195 324.516C216.227 326.391 213.578 327.328 210.25 327.328C208.203 327.328 206.016 327.055 203.688 326.508L204.109 323.25C206.062 323.734 208 323.969 209.922 323.953C212.219 323.953 214.047 323.336 215.406 322.102C216.766 320.852 217.445 319.156 217.445 317.016C217.445 314.844 216.844 313.156 215.641 311.953C214.453 310.75 212.766 310.148 210.578 310.148C209.359 310.148 207.938 310.352 206.312 310.758C206.469 311.398 207.031 313.656 208 317.531L204.695 318.445C204.445 317.32 203.852 315.078 202.914 311.719C200.289 312.547 197.234 313.602 193.75 314.883C195.922 321.992 198.242 330.25 200.711 339.656L197.148 340.523C194.914 332.039 192.625 323.93 190.281 316.195C189.125 316.617 187.281 317.32 184.75 318.305C182.234 319.289 180.609 319.93 179.875 320.227L178.609 317.062C184.344 314.828 187.914 313.445 189.32 312.914C188.07 308.945 187 305.57 186.109 302.789L189.602 301.734C191.008 306.156 192.055 309.469 192.742 311.672C196.742 310.203 199.844 309.133 202.047 308.461C201.312 305.68 200.562 303.008 199.797 300.445ZM239.383 337.5H235.375V306.75H224.594V303.234H250.117V306.75H239.383V337.5ZM264.32 311.391C267.383 311.391 269.656 312.078 271.141 313.453C272.625 314.828 273.367 317.023 273.367 320.039V337.5H270.531L269.781 333.703H269.594C268.875 334.641 268.125 335.43 267.344 336.07C266.562 336.695 265.656 337.172 264.625 337.5C263.609 337.812 262.359 337.969 260.875 337.969C259.312 337.969 257.922 337.695 256.703 337.148C255.5 336.602 254.547 335.773 253.844 334.664C253.156 333.555 252.812 332.148 252.812 330.445C252.812 327.883 253.828 325.914 255.859 324.539C257.891 323.164 260.984 322.414 265.141 322.289L269.57 322.102V320.531C269.57 318.312 269.094 316.758 268.141 315.867C267.188 314.977 265.844 314.531 264.109 314.531C262.766 314.531 261.484 314.727 260.266 315.117C259.047 315.508 257.891 315.969 256.797 316.5L255.602 313.547C256.758 312.953 258.086 312.445 259.586 312.023C261.086 311.602 262.664 311.391 264.32 311.391ZM269.523 324.844L265.609 325.008C262.406 325.133 260.148 325.656 258.836 326.578C257.523 327.5 256.867 328.805 256.867 330.492C256.867 331.961 257.312 333.047 258.203 333.75C259.094 334.453 260.273 334.805 261.742 334.805C264.023 334.805 265.891 334.172 267.344 332.906C268.797 331.641 269.523 329.742 269.523 327.211V324.844ZM285.25 301.031V319.969C285.25 320.594 285.227 321.359 285.18 322.266C285.133 323.156 285.094 323.945 285.062 324.633H285.227C285.555 324.227 286.031 323.625 286.656 322.828C287.297 322.031 287.836 321.391 288.273 320.906L296.805 311.812H301.375L291.039 322.781L302.125 337.5H297.438L288.367 325.336L285.25 328.195V337.5H281.383V301.031H285.25ZM316.211 311.391C319.273 311.391 321.547 312.078 323.031 313.453C324.516 314.828 325.258 317.023 325.258 320.039V337.5H322.422L321.672 333.703H321.484C320.766 334.641 320.016 335.43 319.234 336.07C318.453 336.695 317.547 337.172 316.516 337.5C315.5 337.812 314.25 337.969 312.766 337.969C311.203 337.969 309.812 337.695 308.594 337.148C307.391 336.602 306.438 335.773 305.734 334.664C305.047 333.555 304.703 332.148 304.703 330.445C304.703 327.883 305.719 325.914 307.75 324.539C309.781 323.164 312.875 322.414 317.031 322.289L321.461 322.102V320.531C321.461 318.312 320.984 316.758 320.031 315.867C319.078 314.977 317.734 314.531 316 314.531C314.656 314.531 313.375 314.727 312.156 315.117C310.938 315.508 309.781 315.969 308.688 316.5L307.492 313.547C308.648 312.953 309.977 312.445 311.477 312.023C312.977 311.602 314.555 311.391 316.211 311.391ZM321.414 324.844L317.5 325.008C314.297 325.133 312.039 325.656 310.727 326.578C309.414 327.5 308.758 328.805 308.758 330.492C308.758 331.961 309.203 333.047 310.094 333.75C310.984 334.453 312.164 334.805 313.633 334.805C315.914 334.805 317.781 334.172 319.234 332.906C320.688 331.641 321.414 329.742 321.414 327.211V324.844ZM349.891 330.469C349.891 332.109 349.477 333.492 348.648 334.617C347.836 335.727 346.664 336.562 345.133 337.125C343.617 337.688 341.805 337.969 339.695 337.969C337.898 337.969 336.344 337.828 335.031 337.547C333.719 337.266 332.57 336.867 331.586 336.352V332.766C332.633 333.281 333.883 333.75 335.336 334.172C336.789 334.594 338.273 334.805 339.789 334.805C342.008 334.805 343.617 334.445 344.617 333.727C345.617 333.008 346.117 332.031 346.117 330.797C346.117 330.094 345.914 329.477 345.508 328.945C345.117 328.398 344.453 327.875 343.516 327.375C342.578 326.859 341.281 326.297 339.625 325.688C337.984 325.062 336.562 324.445 335.359 323.836C334.172 323.211 333.25 322.453 332.594 321.562C331.953 320.672 331.633 319.516 331.633 318.094C331.633 315.922 332.508 314.258 334.258 313.102C336.023 311.93 338.336 311.344 341.195 311.344C342.742 311.344 344.188 311.5 345.531 311.812C346.891 312.109 348.156 312.516 349.328 313.031L348.016 316.148C346.953 315.695 345.82 315.312 344.617 315C343.414 314.688 342.188 314.531 340.938 314.531C339.141 314.531 337.758 314.828 336.789 315.422C335.836 316.016 335.359 316.828 335.359 317.859C335.359 318.656 335.578 319.312 336.016 319.828C336.469 320.344 337.188 320.828 338.172 321.281C339.156 321.734 340.453 322.266 342.062 322.875C343.672 323.469 345.062 324.086 346.234 324.727C347.406 325.352 348.305 326.117 348.93 327.023C349.57 327.914 349.891 329.062 349.891 330.469ZM377.359 311.812V337.5H374.172L373.609 333.891H373.398C372.867 334.781 372.18 335.531 371.336 336.141C370.492 336.75 369.539 337.203 368.477 337.5C367.43 337.812 366.312 337.969 365.125 337.969C363.094 337.969 361.391 337.641 360.016 336.984C358.641 336.328 357.602 335.312 356.898 333.938C356.211 332.562 355.867 330.797 355.867 328.641V311.812H359.805V328.359C359.805 330.5 360.289 332.102 361.258 333.164C362.227 334.211 363.703 334.734 365.688 334.734C367.594 334.734 369.109 334.375 370.234 333.656C371.375 332.938 372.195 331.883 372.695 330.492C373.195 329.086 373.445 327.367 373.445 325.336V311.812H377.359ZM413.477 311.344C416.305 311.344 418.438 312.086 419.875 313.57C421.312 315.039 422.031 317.406 422.031 320.672V337.5H418.188V320.859C418.188 318.781 417.734 317.227 416.828 316.195C415.938 315.148 414.609 314.625 412.844 314.625C410.359 314.625 408.555 315.344 407.43 316.781C406.305 318.219 405.742 320.336 405.742 323.133V337.5H401.875V320.859C401.875 319.469 401.672 318.312 401.266 317.391C400.875 316.469 400.281 315.781 399.484 315.328C398.703 314.859 397.711 314.625 396.508 314.625C394.805 314.625 393.438 314.977 392.406 315.68C391.375 316.383 390.625 317.43 390.156 318.82C389.703 320.195 389.477 321.891 389.477 323.906V337.5H385.586V311.812H388.727L389.312 315.445H389.523C390.039 314.555 390.688 313.805 391.469 313.195C392.25 312.586 393.125 312.125 394.094 311.812C395.062 311.5 396.094 311.344 397.188 311.344C399.141 311.344 400.773 311.711 402.086 312.445C403.414 313.164 404.375 314.266 404.969 315.75H405.18C406.023 314.266 407.18 313.164 408.648 312.445C410.117 311.711 411.727 311.344 413.477 311.344ZM433.914 311.812V337.5H430.023V311.812H433.914ZM432.016 302.203C432.656 302.203 433.203 302.414 433.656 302.836C434.125 303.242 434.359 303.883 434.359 304.758C434.359 305.617 434.125 306.258 433.656 306.68C433.203 307.102 432.656 307.312 432.016 307.312C431.344 307.312 430.781 307.102 430.328 306.68C429.891 306.258 429.672 305.617 429.672 304.758C429.672 303.883 429.891 303.242 430.328 302.836C430.781 302.414 431.344 302.203 432.016 302.203ZM442.75 303.234H452.453C456.734 303.234 459.953 303.875 462.109 305.156C464.266 306.438 465.344 308.617 465.344 311.695C465.344 313.023 465.086 314.219 464.57 315.281C464.07 316.328 463.336 317.195 462.367 317.883C461.398 318.57 460.203 319.047 458.781 319.312V319.547C460.281 319.781 461.609 320.211 462.766 320.836C463.922 321.461 464.828 322.336 465.484 323.461C466.141 324.586 466.469 326.016 466.469 327.75C466.469 329.859 465.977 331.641 464.992 333.094C464.023 334.547 462.648 335.648 460.867 336.398C459.086 337.133 456.977 337.5 454.539 337.5H442.75V303.234ZM446.734 317.93H453.297C456.281 317.93 458.344 317.438 459.484 316.453C460.641 315.469 461.219 314.031 461.219 312.141C461.219 310.188 460.531 308.781 459.156 307.922C457.797 307.062 455.625 306.633 452.641 306.633H446.734V317.93ZM446.734 321.281V334.102H453.859C456.906 334.102 459.062 333.508 460.328 332.32C461.594 331.117 462.227 329.5 462.227 327.469C462.227 326.172 461.938 325.062 461.359 324.141C460.797 323.219 459.875 322.516 458.594 322.031C457.328 321.531 455.633 321.281 453.508 321.281H446.734ZM503.5 320.32C503.5 322.961 503.164 325.367 502.492 327.539C501.82 329.695 500.82 331.555 499.492 333.117C498.18 334.664 496.547 335.859 494.594 336.703C492.641 337.547 490.375 337.969 487.797 337.969C485.141 337.969 482.82 337.547 480.836 336.703C478.867 335.859 477.227 334.656 475.914 333.094C474.617 331.531 473.641 329.664 472.984 327.492C472.344 325.32 472.023 322.914 472.023 320.273C472.023 316.773 472.602 313.703 473.758 311.062C474.914 308.422 476.664 306.367 479.008 304.898C481.367 303.43 484.32 302.695 487.867 302.695C491.258 302.695 494.109 303.422 496.422 304.875C498.75 306.328 500.508 308.375 501.695 311.016C502.898 313.641 503.5 316.742 503.5 320.32ZM476.219 320.32C476.219 323.227 476.633 325.742 477.461 327.867C478.289 329.992 479.555 331.633 481.258 332.789C482.977 333.945 485.156 334.523 487.797 334.523C490.453 334.523 492.625 333.945 494.312 332.789C496.016 331.633 497.273 329.992 498.086 327.867C498.898 325.742 499.305 323.227 499.305 320.32C499.305 315.898 498.375 312.445 496.516 309.961C494.672 307.461 491.789 306.211 487.867 306.211C485.211 306.211 483.023 306.781 481.305 307.922C479.586 309.062 478.305 310.688 477.461 312.797C476.633 314.891 476.219 317.398 476.219 320.32ZM521.664 337.5H517.656V306.75H506.875V303.234H532.398V306.75H521.664V337.5ZM561.508 335.25C565.352 334.828 568.344 333.305 570.484 330.68C572.625 328.055 573.695 324.57 573.695 320.227C573.695 316.164 572.352 312.805 569.664 310.148C566.977 307.492 563.531 306.094 559.328 305.953C558.656 312.156 557.812 317.406 556.797 321.703C555.797 326 554.688 329.242 553.469 331.43C552.266 333.617 551.055 335.156 549.836 336.047C548.617 336.922 547.289 337.359 545.852 337.359C543.555 337.359 541.438 335.969 539.5 333.188C537.562 330.406 536.594 326.992 536.594 322.945C536.594 316.93 538.648 312.039 542.758 308.273C546.867 304.492 552.219 302.602 558.812 302.602C564.125 302.602 568.516 304.258 571.984 307.57C575.453 310.883 577.188 315.102 577.188 320.227C577.188 325.539 575.844 329.836 573.156 333.117C570.469 336.398 566.82 338.227 562.211 338.602L561.508 335.25ZM555.695 306.164C550.961 306.742 547.172 308.555 544.328 311.602C541.5 314.633 540.086 318.414 540.086 322.945C540.086 325.961 540.727 328.523 542.008 330.633C543.289 332.742 544.57 333.797 545.852 333.797C546.43 333.797 547.031 333.586 547.656 333.164C548.281 332.727 548.977 331.883 549.742 330.633C550.508 329.383 551.227 327.781 551.898 325.828C552.57 323.875 553.25 321.211 553.938 317.836C554.625 314.445 555.211 310.555 555.695 306.164ZM621.344 298.102L624.039 296.695C625.477 299.07 626.852 301.5 628.164 303.984L625.492 305.344C624.07 302.688 622.688 300.273 621.344 298.102ZM617.617 307.734H585.836V304.242H617.945C616.289 301.336 615.266 299.555 614.875 298.898L617.523 297.516C618.836 299.656 620.18 302.039 621.555 304.664V305.016C621.555 315.609 619.055 323.656 614.055 329.156C609.07 334.656 601.328 337.969 590.828 339.094L590.195 335.672C599.32 334.641 606.07 331.914 610.445 327.492C614.836 323.055 617.227 316.469 617.617 307.734ZM638.641 337.172H634.797V303.281H670.984V337.172H638.641ZM638.641 333.75H667.141V306.68H638.641V333.75ZM716.148 310.242C715.961 316.68 715.031 321.859 713.359 325.781C711.703 329.688 709.172 332.688 705.766 334.781C702.359 336.875 697.758 338.328 691.961 339.141L691.234 335.906C699.078 334.75 704.539 332.328 707.617 328.641C710.711 324.953 712.391 318.758 712.656 310.055L716.148 310.242ZM685.633 312.07L688.984 311.297C689.969 314.656 691.125 318.914 692.453 324.07L689.031 324.82C687.953 320.383 686.82 316.133 685.633 312.07ZM696.133 310.664L699.602 309.891C700.883 314.344 702.031 318.781 703.047 323.203L699.602 323.953C698.508 319.344 697.352 314.914 696.133 310.664ZM761.312 308.227H742.422C740.531 313.758 737.344 318.602 732.859 322.758L730.258 320.461C736.211 314.867 739.656 308 740.594 299.859L744.18 300.117C744.023 301.586 743.75 303.164 743.359 304.852H765.203V305.672C765.203 316.328 762.68 324.281 757.633 329.531C752.602 334.781 744.586 337.867 733.586 338.789L733 335.438C742.766 334.516 749.844 331.969 754.234 327.797C758.641 323.609 761 317.086 761.312 308.227ZM812.922 338.461C809.109 339.102 805.094 339.422 800.875 339.422C795.016 339.422 790.781 338.742 788.172 337.383C785.562 336.023 784.258 333.867 784.258 330.914C784.258 325.82 789.078 321.922 798.719 319.219C798.266 317.75 797.664 316.727 796.914 316.148C796.164 315.57 795.195 315.281 794.008 315.281C792.086 315.281 789.914 316.211 787.492 318.07C785.086 319.914 782.648 322.586 780.18 326.086L777.25 324.211C781.188 318.742 784.406 313.203 786.906 307.594H777.555V304.523H788.195C788.93 302.727 789.648 300.773 790.352 298.664L793.82 299.484C793.18 301.188 792.539 302.867 791.898 304.523H812.734V307.594H790.609C789.547 310 788.375 312.484 787.094 315.047L787.141 315.094C789.922 313.172 792.422 312.211 794.641 312.211C798.422 312.211 800.93 314.258 802.164 318.352C805.398 317.617 809.062 316.992 813.156 316.477L813.508 319.594C809.148 320.172 805.594 320.781 802.844 321.422C803.266 323.828 803.477 326.945 803.477 330.773H799.773C799.773 327.32 799.625 324.508 799.328 322.336C791.719 324.539 787.914 327.305 787.914 330.633C787.914 331.492 788.07 332.227 788.383 332.836C788.711 333.445 789.305 334.031 790.164 334.594C791.039 335.156 792.367 335.586 794.148 335.883C795.945 336.164 798.188 336.305 800.875 336.305C804.422 336.305 808.328 335.953 812.594 335.25L812.922 338.461ZM829.773 333.281H835.867V318.398H829.773V333.281ZM853.961 320.086V315.094H846.039V320.086H853.961ZM853.961 327.984V322.852H846.039V327.984H853.961ZM853.961 330.773H846.039V336.07H853.961V330.773ZM842.102 305.016V310.758H838.656V303.562H832.352C831.805 307.812 830.945 311.688 829.773 315.188H839.031V318.539C842.328 314.539 845 310.031 847.047 305.016H842.102ZM846.039 341.344H842.406V319.969C841.922 320.578 841.164 321.461 840.133 322.617L839.031 321.328V336.398H829.773V340.383H826.422V322.242C825.438 324.164 824.297 325.922 823 327.516L821.758 323.438C825.508 318.547 827.906 311.922 828.953 303.562H823.445V300.398H839.523V301.875H848.195C848.773 300.172 849.242 298.734 849.602 297.562L853.094 297.984C852.484 300.125 852.102 301.422 851.945 301.875H866.453V310.148H862.938V305.016H850.844C849.891 307.547 848.789 309.945 847.539 312.211H854.688C855.453 310.32 856.078 308.492 856.562 306.727L859.961 307.219C859.539 308.75 858.977 310.414 858.273 312.211H865.586V315.094H857.57V320.086H864.859V322.852H857.57V327.984H864.859V330.773H857.57V336.07H866.195V339.094H846.039V341.344ZM876.18 339.797V341.906H872.828V327.562H886.797V336.68C888.203 333.352 889.32 329.367 890.148 324.727L893.359 325.5C892.5 330.812 891.195 335.344 889.445 339.094L886.797 337.875V339.797H876.18ZM876.18 336.773H883.633V330.633H876.18V336.773ZM890.242 307.5L891.695 304.852C893.492 305.555 895.477 306.469 897.648 307.594C898.164 306.219 898.531 304.875 898.75 303.562H889.281V300.398H913.773C913.773 305.492 913.562 309.492 913.141 312.398C912.734 315.305 912.148 317.312 911.383 318.422C910.633 319.531 909.641 320.086 908.406 320.086C907.219 320.086 905.391 319.922 902.922 319.594L902.875 316.289C904.703 316.602 906.141 316.758 907.188 316.758C909.109 316.758 910.102 312.359 910.164 303.562H902.453C902.141 305.578 901.578 307.516 900.766 309.375C902.531 310.438 904.398 311.672 906.367 313.078L904.422 315.703C902.469 314.297 900.766 313.148 899.312 312.258C896.75 316.773 893.172 320.102 888.578 322.242L886.984 319.125C891.047 317.234 894.164 314.336 896.336 310.43C894.539 309.43 892.508 308.453 890.242 307.5ZM909.789 331.594C909.633 334.469 909.414 336.5 909.133 337.688C908.867 338.875 908.484 339.664 907.984 340.055C907.484 340.461 906.633 340.711 905.43 340.805C904.445 340.898 903.227 340.945 901.773 340.945C901.352 340.945 900.133 340.898 898.117 340.805C896.773 340.711 895.906 340.43 895.516 339.961C895.141 339.508 894.953 338.477 894.953 336.867V323.484H898.75V335.578C898.75 336.609 898.797 337.219 898.891 337.406C898.984 337.594 899.336 337.703 899.945 337.734C900.711 337.797 901.414 337.828 902.055 337.828C902.633 337.828 903.336 337.797 904.164 337.734C905.008 337.672 905.547 337.312 905.781 336.656C906.016 336 906.234 334.203 906.438 331.266L909.789 331.594ZM896.641 320.555L898.609 318.117C902 320.523 904.812 322.922 907.047 325.312L904.891 327.609C902.406 325.016 899.656 322.664 896.641 320.555ZM908.055 325.547L911.266 324.398C912.922 328.336 914.445 332.703 915.836 337.5L912.578 338.555C911.219 333.758 909.711 329.422 908.055 325.547ZM872.828 303.422V300.305H886.75V303.422H872.828ZM871.445 310.242V307.031H887.852V310.242H871.445ZM873.109 317.016V313.969H886.562V317.016H873.109ZM873.109 323.812V320.742H886.562V323.812H873.109Z" fill="black"/>
</svg>
