<svg width="1024" height="512" viewBox="0 0 1024 512" fill="none" xmlns="http://www.w3.org/2000/svg">
<rect width="1024" height="512" fill="#1747E6"/>
<path d="M127.264 231.764C127.264 253.844 111.904 264.5 93.856 264.5H73.792V199.028H93.856C111.808 199.028 127.264 209.684 127.264 231.764ZM119.488 231.764C119.488 214.772 108.352 206.132 93.856 206.132H81.28V257.396H93.856C108.352 257.396 119.488 248.852 119.488 231.764ZM147.521 264.5H140.417V216.02H147.521V264.5ZM147.905 199.892H140.033V192.5H147.905V199.892ZM192.641 252.308C192.641 260.372 187.073 266.228 176.321 266.228C170.561 266.228 165.665 264.5 162.209 261.332V253.172H162.497C165.953 257.588 171.137 260.084 176.321 260.084C182.081 260.084 185.729 257.204 185.729 252.788C185.729 240.692 162.401 245.492 162.401 227.828C162.401 220.244 167.489 214.292 177.665 214.292C182.753 214.292 187.745 215.732 190.913 218.996V227.156H190.721C187.649 223.316 182.849 220.532 177.857 220.532C172.289 220.532 169.505 223.412 169.505 227.444C169.505 239.348 192.641 234.26 192.641 252.308ZM239.519 252.692V261.14C235.967 264.404 230.591 266.228 224.831 266.228C212.543 266.228 202.559 257.204 202.559 240.308C202.559 223.796 212.063 214.292 224.927 214.292C230.495 214.292 235.583 215.924 239.231 219.284V227.828H238.943C236.159 223.796 231.167 220.724 225.407 220.724C215.999 220.724 210.047 228.404 210.047 240.308C210.047 252.212 216.191 259.796 225.791 259.796C231.743 259.796 236.351 256.916 239.231 252.692H239.519ZM287.401 240.308C287.401 228.02 280.681 220.724 271.273 220.724C261.769 220.724 254.953 227.828 254.953 240.308C254.953 252.596 261.673 259.796 271.081 259.796C280.585 259.796 287.401 252.788 287.401 240.308ZM294.985 240.308C294.985 256.82 284.521 266.228 271.081 266.228C257.833 266.228 247.465 256.916 247.465 240.308C247.465 223.604 257.833 214.292 271.273 214.292C284.521 214.292 294.985 223.604 294.985 240.308ZM314.686 264.5H307.582V216.02H314.302V220.244H314.398C318.046 216.788 322.078 214.292 327.07 214.292C328.894 214.292 330.622 214.58 332.158 215.156V222.932H331.87C330.046 221.684 328.03 221.108 325.918 221.108C321.598 221.108 317.95 223.508 314.686 226.868V264.5ZM380.978 264.5H373.97V260.468H373.874C369.842 264.02 364.85 266.228 358.61 266.228C346.034 266.228 336.434 256.82 336.434 240.308C336.434 223.796 346.418 214.292 359.858 214.292C365.522 214.292 370.322 216.02 373.778 218.42H373.874V192.5H380.978V264.5ZM373.874 253.556V225.716C370.802 222.74 366.29 220.916 361.394 220.916C350.834 220.916 344.114 227.924 344.114 240.308C344.114 252.404 350.642 259.7 360.626 259.7C366.002 259.7 370.61 257.396 373.874 253.556ZM468.662 249.716V259.316C463.862 263.636 456.566 266.228 449.366 266.228C433.238 266.228 419.798 254.132 419.798 231.764C419.798 209.78 432.47 197.3 449.27 197.3C456.374 197.3 463.478 199.7 468.278 204.212V213.812H467.894C463.67 207.86 456.758 204.5 449.654 204.5C436.406 204.5 427.766 214.964 427.766 231.764C427.766 248.564 436.598 259.028 450.038 259.028C457.622 259.028 464.246 255.284 468.278 249.716H468.662ZM522.062 264.5H514.959V234.164C514.959 224.948 509.487 220.916 502.479 220.916C497.295 220.916 492.975 223.028 489.615 226.964V264.5H482.511V192.5H489.615V220.052H489.711C493.647 216.5 498.639 214.292 504.399 214.292C513.999 214.292 522.062 219.956 522.062 231.86V264.5ZM546.738 264.5H538.866V255.476H546.738V264.5ZM638.186 264.5H632.426L592.97 213.812H592.874V264.5H585.386V202.868L582.89 199.508V199.028H591.53L630.506 249.812H630.602V199.028H638.186V264.5ZM691.651 264.5H684.739V260.564H684.547C680.803 264.02 675.907 266.228 669.859 266.228C660.547 266.228 653.539 260.468 653.539 251.156C653.539 241.652 660.067 235.508 671.491 235.508C676.483 235.508 680.899 236.66 684.547 238.58V233.492C684.547 224.372 678.595 220.724 671.299 220.724C665.251 220.724 659.971 223.796 656.803 227.54H656.515V219.956C660.739 216.308 666.499 214.292 672.547 214.292C683.395 214.292 691.651 220.148 691.651 233.012V264.5ZM684.547 254.228V244.724C681.475 242.804 677.059 241.46 672.739 241.46C665.155 241.46 660.739 244.724 660.739 250.676C660.739 255.86 664.483 259.988 672.067 259.988C676.867 259.988 681.283 257.876 684.547 254.228ZM779.883 264.5H772.779V234.164C772.779 224.948 767.403 220.916 760.299 220.916C755.595 220.916 751.083 222.74 747.051 227.444C747.339 228.788 747.531 230.324 747.531 231.86V264.5H740.427V234.164C740.427 224.948 734.955 220.916 727.947 220.916C722.763 220.916 718.443 223.028 715.083 226.964V264.5H707.979V216.02H714.987V220.148H715.083C719.115 216.5 724.107 214.292 729.867 214.292C736.299 214.292 742.059 216.884 745.131 222.164H745.227C750.603 216.5 756.171 214.292 762.315 214.292C771.915 214.292 779.883 219.956 779.883 231.86V264.5ZM832.964 260.852C828.74 264.404 822.596 266.228 816.068 266.228C802.244 266.228 791.684 257.012 791.684 240.308C791.684 223.796 801.092 214.292 813.956 214.292C825.86 214.292 835.172 223.22 835.172 236.66C835.172 237.908 835.076 239.732 835.076 241.076H799.172C799.268 253.268 806.66 259.796 817.028 259.796C823.94 259.796 829.316 257.012 832.58 252.884H832.964V260.852ZM813.956 220.724C805.796 220.724 800.324 226.1 799.364 234.932H827.78C827.588 226.676 821.924 220.724 813.956 220.724ZM855.811 264.5H848.707V216.02H855.427V220.244H855.523C859.171 216.788 863.203 214.292 868.195 214.292C870.019 214.292 871.747 214.58 873.283 215.156V222.932H872.995C871.171 221.684 869.155 221.108 867.043 221.108C862.723 221.108 859.075 223.508 855.811 226.868V264.5Z" fill="white"/>
<path d="M95.8984 320.039C95.8984 323.898 95.1953 327.125 93.7891 329.719C92.3828 332.297 90.3438 334.242 87.6719 335.555C85.0156 336.852 81.7891 337.5 77.9922 337.5H68.6875V303.234H79.0234C82.5078 303.234 85.5078 303.875 88.0234 305.156C90.5391 306.422 92.4766 308.305 93.8359 310.805C95.2109 313.289 95.8984 316.367 95.8984 320.039ZM91.7031 320.18C91.7031 317.102 91.1875 314.562 90.1562 312.562C89.1406 310.562 87.6406 309.078 85.6562 308.109C83.6875 307.125 81.2734 306.633 78.4141 306.633H72.6719V334.078H77.5234C82.2422 334.078 85.7812 332.914 88.1406 330.586C90.5156 328.258 91.7031 324.789 91.7031 320.18ZM106.82 311.812V337.5H102.93V311.812H106.82ZM104.922 302.203C105.562 302.203 106.109 302.414 106.562 302.836C107.031 303.242 107.266 303.883 107.266 304.758C107.266 305.617 107.031 306.258 106.562 306.68C106.109 307.102 105.562 307.312 104.922 307.312C104.25 307.312 103.688 307.102 103.234 306.68C102.797 306.258 102.578 305.617 102.578 304.758C102.578 303.883 102.797 303.242 103.234 302.836C103.688 302.414 104.25 302.203 104.922 302.203ZM131.688 330.469C131.688 332.109 131.273 333.492 130.445 334.617C129.633 335.727 128.461 336.562 126.93 337.125C125.414 337.688 123.602 337.969 121.492 337.969C119.695 337.969 118.141 337.828 116.828 337.547C115.516 337.266 114.367 336.867 113.383 336.352V332.766C114.43 333.281 115.68 333.75 117.133 334.172C118.586 334.594 120.07 334.805 121.586 334.805C123.805 334.805 125.414 334.445 126.414 333.727C127.414 333.008 127.914 332.031 127.914 330.797C127.914 330.094 127.711 329.477 127.305 328.945C126.914 328.398 126.25 327.875 125.312 327.375C124.375 326.859 123.078 326.297 121.422 325.688C119.781 325.062 118.359 324.445 117.156 323.836C115.969 323.211 115.047 322.453 114.391 321.562C113.75 320.672 113.43 319.516 113.43 318.094C113.43 315.922 114.305 314.258 116.055 313.102C117.82 311.93 120.133 311.344 122.992 311.344C124.539 311.344 125.984 311.5 127.328 311.812C128.688 312.109 129.953 312.516 131.125 313.031L129.812 316.148C128.75 315.695 127.617 315.312 126.414 315C125.211 314.688 123.984 314.531 122.734 314.531C120.938 314.531 119.555 314.828 118.586 315.422C117.633 316.016 117.156 316.828 117.156 317.859C117.156 318.656 117.375 319.312 117.812 319.828C118.266 320.344 118.984 320.828 119.969 321.281C120.953 321.734 122.25 322.266 123.859 322.875C125.469 323.469 126.859 324.086 128.031 324.727C129.203 325.352 130.102 326.117 130.727 327.023C131.367 327.914 131.688 329.062 131.688 330.469ZM148.234 337.969C145.922 337.969 143.883 337.492 142.117 336.539C140.352 335.586 138.977 334.133 137.992 332.18C137.008 330.227 136.516 327.766 136.516 324.797C136.516 321.688 137.031 319.148 138.062 317.18C139.109 315.195 140.547 313.727 142.375 312.773C144.203 311.82 146.281 311.344 148.609 311.344C149.891 311.344 151.125 311.477 152.312 311.742C153.516 311.992 154.5 312.312 155.266 312.703L154.094 315.961C153.312 315.648 152.406 315.367 151.375 315.117C150.359 314.867 149.406 314.742 148.516 314.742C146.734 314.742 145.25 315.125 144.062 315.891C142.891 316.656 142.008 317.781 141.414 319.266C140.836 320.75 140.547 322.578 140.547 324.75C140.547 326.828 140.828 328.602 141.391 330.07C141.969 331.539 142.82 332.664 143.945 333.445C145.086 334.211 146.508 334.594 148.211 334.594C149.57 334.594 150.797 334.453 151.891 334.172C152.984 333.875 153.977 333.531 154.867 333.141V336.609C154.008 337.047 153.047 337.383 151.984 337.617C150.938 337.852 149.688 337.969 148.234 337.969ZM183.109 324.609C183.109 326.719 182.836 328.602 182.289 330.258C181.742 331.914 180.953 333.312 179.922 334.453C178.891 335.594 177.641 336.469 176.172 337.078C174.719 337.672 173.07 337.969 171.227 337.969C169.508 337.969 167.93 337.672 166.492 337.078C165.07 336.469 163.836 335.594 162.789 334.453C161.758 333.312 160.953 331.914 160.375 330.258C159.812 328.602 159.531 326.719 159.531 324.609C159.531 321.797 160.008 319.406 160.961 317.438C161.914 315.453 163.273 313.945 165.039 312.914C166.82 311.867 168.938 311.344 171.391 311.344C173.734 311.344 175.781 311.867 177.531 312.914C179.297 313.961 180.664 315.477 181.633 317.461C182.617 319.43 183.109 321.812 183.109 324.609ZM163.562 324.609C163.562 326.672 163.836 328.461 164.383 329.977C164.93 331.492 165.773 332.664 166.914 333.492C168.055 334.32 169.523 334.734 171.32 334.734C173.102 334.734 174.562 334.32 175.703 333.492C176.859 332.664 177.711 331.492 178.258 329.977C178.805 328.461 179.078 326.672 179.078 324.609C179.078 322.562 178.805 320.797 178.258 319.312C177.711 317.812 176.867 316.656 175.727 315.844C174.586 315.031 173.109 314.625 171.297 314.625C168.625 314.625 166.664 315.508 165.414 317.273C164.18 319.039 163.562 321.484 163.562 324.609ZM201.508 311.344C202.023 311.344 202.562 311.375 203.125 311.438C203.688 311.484 204.188 311.555 204.625 311.648L204.133 315.258C203.711 315.148 203.242 315.062 202.727 315C202.211 314.938 201.727 314.906 201.273 314.906C200.242 314.906 199.266 315.117 198.344 315.539C197.438 315.945 196.641 316.539 195.953 317.32C195.266 318.086 194.727 319.016 194.336 320.109C193.945 321.188 193.75 322.391 193.75 323.719V337.5H189.836V311.812H193.07L193.492 316.547H193.656C194.188 315.594 194.828 314.727 195.578 313.945C196.328 313.148 197.195 312.516 198.18 312.047C199.18 311.578 200.289 311.344 201.508 311.344ZM218.617 337.969C215.367 337.969 212.789 336.859 210.883 334.641C208.992 332.422 208.047 329.125 208.047 324.75C208.047 320.328 209.016 316.992 210.953 314.742C212.891 312.477 215.469 311.344 218.688 311.344C220.047 311.344 221.234 311.523 222.25 311.883C223.266 312.242 224.141 312.727 224.875 313.336C225.609 313.93 226.227 314.609 226.727 315.375H227.008C226.945 314.891 226.883 314.227 226.82 313.383C226.758 312.539 226.727 311.852 226.727 311.32V301.031H230.617V337.5H227.477L226.891 333.844H226.727C226.242 334.609 225.625 335.305 224.875 335.93C224.141 336.555 223.258 337.055 222.227 337.43C221.211 337.789 220.008 337.969 218.617 337.969ZM219.227 334.734C221.977 334.734 223.922 333.953 225.062 332.391C226.203 330.828 226.773 328.508 226.773 325.43V324.727C226.773 321.461 226.227 318.953 225.133 317.203C224.055 315.453 222.086 314.578 219.227 314.578C216.836 314.578 215.047 315.5 213.859 317.344C212.672 319.172 212.078 321.672 212.078 324.844C212.078 328 212.664 330.438 213.836 332.156C215.023 333.875 216.82 334.734 219.227 334.734ZM238.609 321.328V317.953H258.672V317.203V307.828C254.312 308.312 249.273 308.555 243.555 308.555V305.203C249.898 305.203 255.32 304.883 259.82 304.242C264.336 303.602 268.914 302.531 273.555 301.031L274.609 304.289C270.219 305.695 266.172 306.703 262.469 307.312V317.203V317.953H278.922V321.328H262.281C261.828 326.828 260.359 331 257.875 333.844C255.391 336.672 251.609 338.578 246.531 339.562L245.523 336.305C249.805 335.445 252.938 333.875 254.922 331.594C256.906 329.297 258.109 325.875 258.531 321.328H238.609ZM297.883 308.648L301.539 308.039L302.969 316.148L322.422 312.117L323.078 315.422C322.531 318.172 321.5 320.836 319.984 323.414C318.469 325.992 316.672 328.109 314.594 329.766L311.992 327.375C313.727 325.969 315.242 324.281 316.539 322.312C317.836 320.344 318.758 318.305 319.305 316.195L303.602 319.453L307.188 339.281L303.555 339.938L299.992 320.227L290.5 322.195L289.82 318.867L299.383 316.898L297.883 308.648ZM337.82 305.766L339.555 302.508C344.68 305.07 349.57 307.789 354.227 310.664L352.375 313.922C347.953 311.172 343.102 308.453 337.82 305.766ZM374.922 307.641C371.688 326.078 359.867 336.188 339.461 337.969L338.875 334.383C348.25 333.523 355.617 330.828 360.977 326.297C366.336 321.766 369.82 315.289 371.43 306.867L374.922 307.641ZM385.492 306.445H400.75V299.25H404.594V306.445H420.531V309.797C417.781 314.188 413.922 318.078 408.953 321.469C414.609 325.25 419.219 328.414 422.781 330.961L420.531 333.75C415.922 330.453 410.961 327.062 405.648 323.578C405.523 323.641 405.336 323.742 405.086 323.883C404.852 324.008 404.688 324.102 404.594 324.164V340.242H400.75V326.133C395.953 328.398 390.227 330.312 383.57 331.875L382.703 328.477C398.188 324.836 409.32 318.609 416.102 309.797H385.492V306.445ZM439.094 302.133H442.938V311.578C442.938 317.844 442.578 322.742 441.859 326.273C441.141 329.789 440.039 332.461 438.555 334.289C437.07 336.117 434.867 337.719 431.945 339.094L429.977 335.906C432.539 334.656 434.43 333.273 435.648 331.758C436.867 330.242 437.742 327.969 438.273 324.938C438.82 321.891 439.094 317.438 439.094 311.578V302.133ZM455.43 335.109C459.43 334.469 462.625 332.617 465.016 329.555C467.422 326.492 468.867 322.391 469.352 317.25L472.844 317.672C472.266 324.266 470.141 329.445 466.469 333.211C462.812 336.961 458.109 338.836 452.359 338.836H451.586V302.133H455.43V335.109ZM493.961 324.398V335.578H514.844V324.398H493.961ZM518.594 321.281V341.203H514.844V338.602H493.961V341.203H490.281V325.219C486.312 326.875 482.164 328.25 477.836 329.344L476.781 326.32C484.141 324.555 490.75 321.883 496.609 318.305C494.5 315.898 492.164 313.445 489.602 310.945L492.227 308.695C495.008 311.383 497.477 313.93 499.633 316.336C504.82 312.695 508.273 308.922 509.992 305.016H492.531C489.141 308.312 484.961 311.352 479.992 314.133L478.422 311.297C485.562 307.234 490.922 302.656 494.5 297.562L497.523 299.109C497.102 299.719 496.414 300.625 495.461 301.828H513.789V305.016C511.227 311.156 506.008 316.578 498.133 321.281H518.594ZM545.477 314.367H533.336V319.031C533.336 321.078 533.297 322.562 533.219 323.484H545.477V314.367ZM549.062 314.367V323.484H562.375V314.367H549.062ZM545.477 311.438V303.047H533.336V311.438H545.477ZM549.062 311.438H562.375V303.047H549.062V311.438ZM529.633 299.906H566.055V335.109C566.055 337.859 565.734 339.562 565.094 340.219C564.453 340.875 562.789 341.203 560.102 341.203C559.461 341.203 557.227 341.117 553.398 340.945L553.234 337.828C556.922 337.984 559.039 338.07 559.586 338.086C560.93 338.086 561.727 337.945 561.977 337.664C562.242 337.398 562.375 336.594 562.375 335.25V326.461H549.062V340.383H545.477V326.461H532.984C532.375 332.508 530.555 337.562 527.523 341.625L524.453 339.234C526.375 336.578 527.719 333.664 528.484 330.492C529.25 327.32 529.633 323.047 529.633 317.672V299.906ZM613.633 303.047C613.383 310.984 612.219 317.375 610.141 322.219C608.078 327.062 604.938 330.797 600.719 333.422C596.5 336.047 590.805 337.883 583.633 338.93L582.953 335.484C587.984 334.719 592.117 333.633 595.352 332.227C598.602 330.82 601.312 328.82 603.484 326.227C605.672 323.633 607.25 320.484 608.219 316.781C609.203 313.062 609.789 308.414 609.977 302.836L613.633 303.047ZM575.992 305.297L579.555 304.43C580.992 309.164 582.43 314.477 583.867 320.367L580.211 321.188C578.773 315.234 577.367 309.938 575.992 305.297ZM589.188 303.516L592.844 302.695C594.281 307.758 595.719 313.312 597.156 319.359L593.523 320.133C592.039 314.039 590.594 308.5 589.188 303.516ZM623.219 322.055V318.398H662.312V322.055H623.219ZM679.094 302.133H682.938V311.578C682.938 317.844 682.578 322.742 681.859 326.273C681.141 329.789 680.039 332.461 678.555 334.289C677.07 336.117 674.867 337.719 671.945 339.094L669.977 335.906C672.539 334.656 674.43 333.273 675.648 331.758C676.867 330.242 677.742 327.969 678.273 324.938C678.82 321.891 679.094 317.438 679.094 311.578V302.133ZM695.43 335.109C699.43 334.469 702.625 332.617 705.016 329.555C707.422 326.492 708.867 322.391 709.352 317.25L712.844 317.672C712.266 324.266 710.141 329.445 706.469 333.211C702.812 336.961 698.109 338.836 692.359 338.836H691.586V302.133H695.43V335.109Z" fill="white"/>
</svg>
