<svg width="1024" height="512" viewBox="0 0 1024 512" fill="none" xmlns="http://www.w3.org/2000/svg">
<rect width="1024" height="512" fill="#1747E6"/>
<path d="M120.832 264.5H111.04L83.008 234.74V234.356C101.248 231.668 105.856 226.292 105.856 218.42C105.856 210.74 100.096 206.132 90.208 206.132H81.28V264.5H73.792V199.028H91.072C104.416 199.028 113.728 205.364 113.728 217.652C113.728 227.636 108.928 234.164 95.296 237.908V238.1L120.832 264.5ZM166.776 260.852C162.552 264.404 156.408 266.228 149.88 266.228C136.056 266.228 125.496 257.012 125.496 240.308C125.496 223.796 134.904 214.292 147.768 214.292C159.672 214.292 168.984 223.22 168.984 236.66C168.984 237.908 168.888 239.732 168.888 241.076H132.984C133.08 253.268 140.472 259.796 150.84 259.796C157.752 259.796 163.128 257.012 166.392 252.884H166.776V260.852ZM147.768 220.724C139.608 220.724 134.136 226.1 133.176 234.932H161.592C161.4 226.676 155.736 220.724 147.768 220.724ZM222.84 264.5H215.736V234.164C215.736 224.948 210.072 220.916 202.68 220.916C197.112 220.916 192.696 223.028 189.24 226.964V264.5H182.136V216.02H189.144V220.148H189.24C193.272 216.5 198.359 214.292 204.504 214.292C214.584 214.292 222.84 219.956 222.84 231.86V264.5ZM274.464 240.308C274.464 228.02 267.744 220.724 258.336 220.724C248.832 220.724 242.016 227.828 242.016 240.308C242.016 252.596 248.736 259.796 258.144 259.796C267.648 259.796 274.464 252.788 274.464 240.308ZM282.048 240.308C282.048 256.82 271.584 266.228 258.144 266.228C244.896 266.228 234.528 256.916 234.528 240.308C234.528 223.604 244.896 214.292 258.336 214.292C271.584 214.292 282.048 223.604 282.048 240.308ZM301.749 264.5H294.645V216.02H301.365V220.244H301.461C305.109 216.788 309.141 214.292 314.133 214.292C315.957 214.292 317.685 214.58 319.221 215.156V222.932H318.933C317.109 221.684 315.093 221.108 312.981 221.108C308.661 221.108 305.013 223.508 301.749 226.868V264.5ZM362.307 264.5H355.395V260.564H355.203C351.459 264.02 346.563 266.228 340.515 266.228C331.203 266.228 324.195 260.468 324.195 251.156C324.195 241.652 330.723 235.508 342.147 235.508C347.139 235.508 351.555 236.66 355.203 238.58V233.492C355.203 224.372 349.251 220.724 341.955 220.724C335.907 220.724 330.627 223.796 327.459 227.54H327.171V219.956C331.395 216.308 337.155 214.292 343.203 214.292C354.051 214.292 362.307 220.148 362.307 233.012V264.5ZM355.203 254.228V244.724C352.131 242.804 347.715 241.46 343.395 241.46C335.811 241.46 331.395 244.724 331.395 250.676C331.395 255.86 335.139 259.988 342.723 259.988C347.523 259.988 351.939 257.876 355.203 254.228ZM386.124 264.5H379.02V216.02H385.74V220.244H385.836C389.484 216.788 393.516 214.292 398.508 214.292C400.332 214.292 402.06 214.58 403.596 215.156V222.932H403.308C401.484 221.684 399.468 221.108 397.356 221.108C393.036 221.108 389.388 223.508 386.124 226.868V264.5ZM421.833 264.5H414.729V216.02H421.833V264.5ZM422.217 199.892H414.345V192.5H422.217V199.892ZM490.337 266.228C474.017 266.228 460.673 254.324 460.673 231.764C460.673 209.588 474.593 197.3 492.065 197.3C500.705 197.3 508.001 199.892 513.185 204.404V213.812H512.801C507.617 207.668 500.513 204.5 492.353 204.5C478.817 204.5 468.641 214.196 468.641 231.956C468.641 250.292 478.241 259.22 490.337 259.22C501.185 259.22 510.209 253.364 510.497 237.332H487.841V236.948L491.585 230.132H518.273C518.369 230.804 518.369 233.972 518.369 234.548C518.369 257.588 505.121 266.228 490.337 266.228ZM568.214 260.852C563.99 264.404 557.846 266.228 551.318 266.228C537.494 266.228 526.934 257.012 526.934 240.308C526.934 223.796 536.342 214.292 549.206 214.292C561.11 214.292 570.422 223.22 570.422 236.66C570.422 237.908 570.326 239.732 570.326 241.076H534.422C534.518 253.268 541.91 259.796 552.278 259.796C559.19 259.796 564.566 257.012 567.83 252.884H568.214V260.852ZM549.206 220.724C541.046 220.724 535.574 226.1 534.614 234.932H563.03C562.838 226.676 557.174 220.724 549.206 220.724ZM624.277 264.5H617.173V234.164C617.173 224.948 611.509 220.916 604.117 220.916C598.549 220.916 594.133 223.028 590.677 226.964V264.5H583.573V216.02H590.581V220.148H590.677C594.709 216.5 599.797 214.292 605.941 214.292C616.021 214.292 624.277 219.956 624.277 231.86V264.5ZM677.245 260.852C673.021 264.404 666.877 266.228 660.349 266.228C646.525 266.228 635.965 257.012 635.965 240.308C635.965 223.796 645.373 214.292 658.237 214.292C670.141 214.292 679.453 223.22 679.453 236.66C679.453 237.908 679.357 239.732 679.357 241.076H643.453C643.549 253.268 650.941 259.796 661.309 259.796C668.221 259.796 673.597 257.012 676.861 252.884H677.245V260.852ZM658.237 220.724C650.077 220.724 644.605 226.1 643.645 234.932H672.061C671.869 226.676 666.205 220.724 658.237 220.724ZM700.092 264.5H692.988V216.02H699.708V220.244H699.804C703.452 216.788 707.484 214.292 712.476 214.292C714.3 214.292 716.028 214.58 717.564 215.156V222.932H717.276C715.452 221.684 713.436 221.108 711.324 221.108C707.004 221.108 703.356 223.508 700.092 226.868V264.5ZM760.651 264.5H753.739V260.564H753.547C749.803 264.02 744.907 266.228 738.859 266.228C729.547 266.228 722.539 260.468 722.539 251.156C722.539 241.652 729.067 235.508 740.491 235.508C745.483 235.508 749.899 236.66 753.547 238.58V233.492C753.547 224.372 747.595 220.724 740.299 220.724C734.251 220.724 728.971 223.796 725.803 227.54H725.515V219.956C729.739 216.308 735.499 214.292 741.547 214.292C752.395 214.292 760.651 220.148 760.651 233.012V264.5ZM753.547 254.228V244.724C750.475 242.804 746.059 241.46 741.739 241.46C734.155 241.46 729.739 244.724 729.739 250.676C729.739 255.86 733.483 259.988 741.067 259.988C745.867 259.988 750.283 257.876 753.547 254.228ZM784.659 264.5H777.555V222.644H773.619V222.26L777.555 216.02V201.428H784.659V216.02H796.563V222.644H784.659V264.5ZM841.276 240.308C841.276 228.02 834.556 220.724 825.148 220.724C815.644 220.724 808.828 227.828 808.828 240.308C808.828 252.596 815.548 259.796 824.956 259.796C834.46 259.796 841.276 252.788 841.276 240.308ZM848.86 240.308C848.86 256.82 838.396 266.228 824.956 266.228C811.708 266.228 801.34 256.916 801.34 240.308C801.34 223.604 811.708 214.292 825.148 214.292C838.396 214.292 848.86 223.604 848.86 240.308ZM868.561 264.5H861.457V216.02H868.177V220.244H868.273C871.921 216.788 875.953 214.292 880.945 214.292C882.769 214.292 884.497 214.58 886.033 215.156V222.932H885.745C883.921 221.684 881.905 221.108 879.793 221.108C875.473 221.108 871.825 223.508 868.561 226.868V264.5Z" fill="white"/>
<path d="M83.1953 324.398V335.578H104.078V324.398H83.1953ZM107.828 321.281V341.203H104.078V338.602H83.1953V341.203H79.5156V325.219C75.5469 326.875 71.3984 328.25 67.0703 329.344L66.0156 326.32C73.375 324.555 79.9844 321.883 85.8438 318.305C83.7344 315.898 81.3984 313.445 78.8359 310.945L81.4609 308.695C84.2422 311.383 86.7109 313.93 88.8672 316.336C94.0547 312.695 97.5078 308.922 99.2266 305.016H81.7656C78.375 308.312 74.1953 311.352 69.2266 314.133L67.6562 311.297C74.7969 307.234 80.1562 302.656 83.7344 297.562L86.7578 299.109C86.3359 299.719 85.6484 300.625 84.6953 301.828H103.023V305.016C100.461 311.156 95.2422 316.578 87.3672 321.281H107.828ZM120.789 321.562V327.516H132.016V321.562H120.789ZM120.789 318.633H132.016V312.914H120.789V318.633ZM114.555 306.539V303.422H127.352C126.367 301.531 125.43 299.852 124.539 298.383L128.031 297.469C129.188 299.328 130.289 301.312 131.336 303.422H140.852C141.945 301.625 142.984 299.656 143.969 297.516L147.578 298.289C146.719 300.117 145.82 301.828 144.883 303.422H157.445V306.539H114.555ZM117.133 309.797H135.578V335.016C135.578 337.734 135.336 339.383 134.852 339.961C134.367 340.555 132.945 340.852 130.586 340.852C130.07 340.852 128.453 340.773 125.734 340.617L125.688 337.359C127.734 337.516 129.203 337.594 130.094 337.594C131.047 337.594 131.602 337.484 131.758 337.266C131.93 337.031 132.016 336.211 132.016 334.805V330.445H120.789V341.016H117.133V309.797ZM140.359 332.555V310.617H143.969V332.555H140.359ZM151.562 309.188H155.195V334.945C155.195 337.633 154.891 339.312 154.281 339.984C153.672 340.672 152.172 341.016 149.781 341.016C148.375 341.016 146.312 340.93 143.594 340.758L143.477 337.359C146.008 337.516 147.945 337.594 149.289 337.594C150.32 337.594 150.953 337.453 151.188 337.172C151.438 336.875 151.562 336.07 151.562 334.758V309.188ZM191.875 319.266V319.406H199.703V307.969H191.875V319.266ZM163.75 301.922L165.906 299.344C168.812 301.547 171.438 303.734 173.781 305.906L171.578 308.508C169.328 306.383 166.719 304.188 163.75 301.922ZM170.125 319.734C167.656 317.359 164.773 314.945 161.477 312.492L163.656 309.891C167.047 312.422 169.938 314.828 172.328 317.109L170.125 319.734ZM173.781 325.547C171.891 331.312 169.312 336.484 166.047 341.062L163.023 339.094C166.195 334.609 168.727 329.664 170.617 324.258L173.781 325.547ZM188.078 298.383H191.875V304.711H203.383V319.406H206.523V322.617H192.156C192.797 325.852 194.352 328.797 196.82 331.453C199.289 334.109 202.555 336.32 206.617 338.086L204.789 341.156C201.461 339.75 198.516 337.805 195.953 335.32C193.391 332.836 191.453 330.094 190.141 327.094C188.766 330.141 186.727 332.906 184.023 335.391C181.32 337.859 178.18 339.781 174.602 341.156L172.727 338.086C181.492 334.664 186.516 329.508 187.797 322.617H173.781V319.406H188.078V319.266V307.969H176.523V304.711H188.078V298.383ZM217.938 301.266L221.289 300.539C222.086 304.18 222.695 306.773 223.117 308.32C226.086 306.977 229.367 306.305 232.961 306.305C234.664 306.305 236.281 306.445 237.812 306.727C238.453 304.742 239.234 302.055 240.156 298.664L243.531 299.438C242.828 302.125 242.023 304.844 241.117 307.594C244.602 308.812 247.336 310.75 249.32 313.406C251.305 316.062 252.297 319.18 252.297 322.758C252.297 327.461 250.938 331.305 248.219 334.289C245.5 337.258 241.805 339.016 237.133 339.562L236.359 336.305C240.203 335.883 243.234 334.477 245.453 332.086C247.688 329.68 248.805 326.57 248.805 322.758C248.805 319.977 248.023 317.555 246.461 315.492C244.914 313.43 242.766 311.914 240.016 310.945C236.844 319.898 233.438 326.586 229.797 331.008C226.172 335.43 222.797 337.641 219.672 337.641C217.469 337.641 215.586 336.594 214.023 334.5C212.477 332.406 211.703 329.516 211.703 325.828C211.703 322.5 212.438 319.469 213.906 316.734C215.375 314 217.422 311.75 220.047 309.984C219.531 308.078 218.828 305.172 217.938 301.266ZM236.664 310.102C235.508 309.914 234.273 309.812 232.961 309.797C229.758 309.797 226.781 310.438 224.031 311.719C225.438 316.812 227.008 321.836 228.742 326.789C231.648 322.383 234.289 316.82 236.664 310.102ZM221.008 313.547C217.039 316.562 215.055 320.656 215.055 325.828C215.055 328.453 215.547 330.516 216.531 332.016C217.531 333.5 218.688 334.242 220 334.242C221.828 334.242 223.938 332.836 226.328 330.023C224.25 324.227 222.477 318.734 221.008 313.547ZM291.133 302.93C291.133 301.227 291.734 299.781 292.938 298.594C294.141 297.391 295.586 296.789 297.273 296.789C298.977 296.789 300.422 297.391 301.609 298.594C302.812 299.797 303.414 301.25 303.414 302.953C303.414 304.641 302.812 306.086 301.609 307.289C300.422 308.492 298.977 309.094 297.273 309.094C296.82 309.094 296.5 309.078 296.312 309.047C295.703 318.297 292.922 325.352 287.969 330.211C283.016 335.07 275.625 338.031 265.797 339.094L265.164 335.672C274.289 334.641 281.039 331.914 285.414 327.492C289.805 323.055 292.195 316.469 292.586 307.734H260.805V304.242H291.227C291.164 303.945 291.133 303.508 291.133 302.93ZM299.734 305.391C300.406 304.719 300.742 303.906 300.742 302.953C300.742 301.984 300.406 301.164 299.734 300.492C299.062 299.82 298.242 299.484 297.273 299.484C296.32 299.484 295.508 299.82 294.836 300.492C294.164 301.164 293.828 301.984 293.828 302.953C293.828 303.906 294.164 304.719 294.836 305.391C295.508 306.062 296.32 306.398 297.273 306.398C298.242 306.398 299.062 306.062 299.734 305.391ZM313.75 337.172H309.906V303.281H346.094V337.172H313.75ZM313.75 333.75H342.25V306.68H313.75V333.75ZM386.219 299.859L388.867 298.477C390.18 300.617 391.523 303 392.898 305.625L391.211 306.445C391.18 317.008 388.633 324.891 383.57 330.094C378.523 335.281 370.516 338.344 359.547 339.281L359.008 335.906C368.711 335.016 375.75 332.516 380.125 328.406C384.516 324.297 386.898 317.891 387.273 309.188H368.57C366.742 314.438 363.602 319.125 359.148 323.25L356.617 320.93C362.539 315.367 365.961 308.508 366.883 300.352L370.469 300.586C370.281 302.477 369.984 304.219 369.578 305.812H389.641C388.484 303.672 387.344 301.688 386.219 299.859ZM392.711 299.062L395.383 297.656C396.82 300.031 398.203 302.461 399.531 304.945L396.836 306.305C395.43 303.648 394.055 301.234 392.711 299.062ZM405.273 314.836H442.328V315.656C442.328 330.156 432.477 338.078 412.773 339.422L412.188 336.07C428.547 334.945 437.297 328.992 438.438 318.211H405.273V314.836ZM408.977 305.953V302.602H439.023V305.953H408.977ZM479.477 318.539L482.852 316.945C486.602 324.18 489.93 330.953 492.836 337.266L489.367 338.742C489.148 338.227 488.781 337.438 488.266 336.375C487.766 335.297 487.398 334.5 487.164 333.984C474.367 335.938 462.516 337.109 451.609 337.5L451.516 334.148C452.578 334.117 454.273 334.031 456.602 333.891C460.602 323.547 463.93 312.672 466.586 301.266L470.312 301.969C467.781 312.984 464.602 323.531 460.773 333.609C468.805 333.031 477.094 332.102 485.641 330.82C483.094 325.648 481.039 321.555 479.477 318.539Z" fill="white"/>
</svg>
