<svg width="1024" height="512" viewBox="0 0 1024 512" fill="none" xmlns="http://www.w3.org/2000/svg">
<rect width="1024" height="512" fill="#F2C13D"/>
<path d="M130.24 231.764C130.24 251.636 119.104 263.252 105.088 265.652L121.024 283.028H111.808L96.928 266.132C81.76 264.98 68.704 253.268 68.704 231.764C68.704 209.3 83.008 197.3 99.52 197.3C115.744 197.3 130.24 209.204 130.24 231.764ZM122.272 231.764C122.272 213.908 112 204.404 99.52 204.404C87.136 204.404 76.672 213.716 76.672 231.764C76.672 249.62 86.944 259.124 99.328 259.124C111.808 259.124 122.272 249.812 122.272 231.764ZM191.707 264.5H181.915L153.883 234.74V234.356C172.123 231.668 176.731 226.292 176.731 218.42C176.731 210.74 170.971 206.132 161.083 206.132H152.155V264.5H144.667V199.028H161.947C175.291 199.028 184.603 205.364 184.603 217.652C184.603 227.636 179.803 234.164 166.171 237.908V238.1L191.707 264.5ZM273.662 249.716V259.316C268.862 263.636 261.566 266.228 254.366 266.228C238.238 266.228 224.798 254.132 224.798 231.764C224.798 209.78 237.47 197.3 254.27 197.3C261.374 197.3 268.478 199.7 273.278 204.212V213.812H272.894C268.67 207.86 261.758 204.5 254.654 204.5C241.406 204.5 232.766 214.964 232.766 231.764C232.766 248.564 241.598 259.028 255.038 259.028C262.622 259.028 269.246 255.284 273.278 249.716H273.662ZM322.839 240.308C322.839 228.02 316.119 220.724 306.711 220.724C297.207 220.724 290.391 227.828 290.391 240.308C290.391 252.596 297.111 259.796 306.519 259.796C316.023 259.796 322.839 252.788 322.839 240.308ZM330.423 240.308C330.423 256.82 319.959 266.228 306.519 266.228C293.271 266.228 282.903 256.916 282.903 240.308C282.903 223.604 293.271 214.292 306.711 214.292C319.959 214.292 330.423 223.604 330.423 240.308ZM383.134 264.5H376.126V260.468H376.03C371.998 264.02 367.006 266.228 360.766 266.228C348.19 266.228 338.59 256.82 338.59 240.308C338.59 223.796 348.574 214.292 362.014 214.292C367.678 214.292 372.478 216.02 375.934 218.42H376.03V192.5H383.134V264.5ZM376.03 253.556V225.716C372.958 222.74 368.446 220.916 363.55 220.916C352.99 220.916 346.27 227.924 346.27 240.308C346.27 252.404 352.798 259.7 362.782 259.7C368.158 259.7 372.766 257.396 376.03 253.556ZM436.683 260.852C432.459 264.404 426.315 266.228 419.786 266.228C405.963 266.228 395.403 257.012 395.403 240.308C395.403 223.796 404.811 214.292 417.675 214.292C429.579 214.292 438.891 223.22 438.891 236.66C438.891 237.908 438.795 239.732 438.795 241.076H402.891C402.987 253.268 410.379 259.796 420.747 259.796C427.659 259.796 433.035 257.012 436.299 252.884H436.683V260.852ZM417.675 220.724C409.515 220.724 404.043 226.1 403.083 234.932H431.499C431.307 226.676 425.643 220.724 417.675 220.724ZM544.353 264.5H536.865L532.737 218.9H532.641L511.233 266.228H510.657L489.249 218.804H489.153L485.025 264.5H477.633L483.297 199.028H489.057L510.945 249.14H511.041L532.833 199.028H538.593L544.353 264.5ZM596.401 264.5H589.489V260.564H589.297C585.553 264.02 580.657 266.228 574.609 266.228C565.297 266.228 558.289 260.468 558.289 251.156C558.289 241.652 564.817 235.508 576.241 235.508C581.233 235.508 585.649 236.66 589.297 238.58V233.492C589.297 224.372 583.345 220.724 576.049 220.724C570.001 220.724 564.721 223.796 561.553 227.54H561.265V219.956C565.489 216.308 571.249 214.292 577.297 214.292C588.145 214.292 596.401 220.148 596.401 233.012V264.5ZM589.297 254.228V244.724C586.225 242.804 581.809 241.46 577.489 241.46C569.905 241.46 565.489 244.724 565.489 250.676C565.489 255.86 569.233 259.988 576.817 259.988C581.617 259.988 586.033 257.876 589.297 254.228ZM619.833 264.5H612.729V192.5H619.833V264.5ZM650.169 264.5H641.337L621.081 240.116V239.732L640.569 216.02H649.017L629.433 239.444V239.636L650.169 264.5ZM695.433 260.852C691.209 264.404 685.065 266.228 678.536 266.228C664.713 266.228 654.153 257.012 654.153 240.308C654.153 223.796 663.561 214.292 676.425 214.292C688.329 214.292 697.641 223.22 697.641 236.66C697.641 237.908 697.545 239.732 697.545 241.076H661.641C661.737 253.268 669.129 259.796 679.497 259.796C686.409 259.796 691.785 257.012 695.049 252.884H695.433V260.852ZM676.425 220.724C668.265 220.724 662.793 226.1 661.833 234.932H690.249C690.057 226.676 684.393 220.724 676.425 220.724ZM718.28 264.5H711.176V216.02H717.896V220.244H717.992C721.64 216.788 725.672 214.292 730.664 214.292C732.488 214.292 734.216 214.58 735.752 215.156V222.932H735.464C733.64 221.684 731.624 221.108 729.512 221.108C725.192 221.108 721.544 223.508 718.28 226.868V264.5Z" fill="black"/>
<path d="M98.4062 320.32C98.4062 323.133 98.0234 325.68 97.2578 327.961C96.4922 330.242 95.3516 332.172 93.8359 333.75C92.3359 335.328 90.4609 336.477 88.2109 337.195L96.2734 345.656H90.5781L83.9453 337.922C83.7422 337.922 83.5312 337.93 83.3125 337.945C83.1094 337.961 82.9062 337.969 82.7031 337.969C80.0469 337.969 77.7266 337.547 75.7422 336.703C73.7734 335.859 72.1328 334.656 70.8203 333.094C69.5234 331.531 68.5469 329.664 67.8906 327.492C67.25 325.32 66.9297 322.914 66.9297 320.273C66.9297 316.773 67.5078 313.703 68.6641 311.062C69.8203 308.422 71.5703 306.367 73.9141 304.898C76.2734 303.43 79.2266 302.695 82.7734 302.695C86.1641 302.695 89.0156 303.422 91.3281 304.875C93.6562 306.328 95.4141 308.375 96.6016 311.016C97.8047 313.641 98.4062 316.742 98.4062 320.32ZM71.125 320.32C71.125 323.227 71.5391 325.742 72.3672 327.867C73.1953 329.992 74.4609 331.633 76.1641 332.789C77.8828 333.945 80.0625 334.523 82.7031 334.523C85.3594 334.523 87.5312 333.945 89.2188 332.789C90.9219 331.633 92.1797 329.992 92.9922 327.867C93.8047 325.742 94.2109 323.227 94.2109 320.32C94.2109 315.898 93.2812 312.445 91.4219 309.961C89.5781 307.461 86.6953 306.211 82.7734 306.211C80.1172 306.211 77.9297 306.781 76.2109 307.922C74.4922 309.062 73.2109 310.688 72.3672 312.797C71.5391 314.891 71.125 317.398 71.125 320.32ZM115.305 303.234C118.117 303.234 120.438 303.586 122.266 304.289C124.109 304.977 125.484 306.031 126.391 307.453C127.297 308.875 127.75 310.688 127.75 312.891C127.75 314.703 127.422 316.219 126.766 317.438C126.109 318.641 125.25 319.617 124.188 320.367C123.125 321.117 121.992 321.695 120.789 322.102L130.188 337.5H125.547L117.156 323.203H110.031V337.5H106.047V303.234H115.305ZM115.07 306.68H110.031V319.828H115.469C118.266 319.828 120.32 319.258 121.633 318.117C122.961 316.977 123.625 315.297 123.625 313.078C123.625 310.75 122.922 309.102 121.516 308.133C120.125 307.164 117.977 306.68 115.07 306.68ZM138.039 304.055H171.648V336.398H138.039V333.047H167.945V307.406H138.039V304.055ZM183.438 322.055V318.398H222.531V322.055H183.438ZM252.906 303.797L256.023 302.18C257.648 304.867 259.281 307.742 260.922 310.805L257.805 312.352C256.523 309.945 254.891 307.094 252.906 303.797ZM260.008 301.781L263.125 300.117C264.922 303.023 266.602 305.93 268.164 308.836L265 310.43C263.656 307.93 261.992 305.047 260.008 301.781ZM242.195 301.172V315.188C251.023 317.297 259.969 320.047 269.031 323.438L267.836 326.93C258.68 323.508 250.133 320.836 242.195 318.914V340.242H238.352V301.172H242.195ZM315.016 338.461C311.203 339.102 307.188 339.422 302.969 339.422C297.109 339.422 292.875 338.742 290.266 337.383C287.656 336.023 286.352 333.867 286.352 330.914C286.352 325.82 291.172 321.922 300.812 319.219C300.359 317.75 299.758 316.727 299.008 316.148C298.258 315.57 297.289 315.281 296.102 315.281C294.18 315.281 292.008 316.211 289.586 318.07C287.18 319.914 284.742 322.586 282.273 326.086L279.344 324.211C283.281 318.742 286.5 313.203 289 307.594H279.648V304.523H290.289C291.023 302.727 291.742 300.773 292.445 298.664L295.914 299.484C295.273 301.188 294.633 302.867 293.992 304.523H314.828V307.594H292.703C291.641 310 290.469 312.484 289.188 315.047L289.234 315.094C292.016 313.172 294.516 312.211 296.734 312.211C300.516 312.211 303.023 314.258 304.258 318.352C307.492 317.617 311.156 316.992 315.25 316.477L315.602 319.594C311.242 320.172 307.688 320.781 304.938 321.422C305.359 323.828 305.57 326.945 305.57 330.773H301.867C301.867 327.32 301.719 324.508 301.422 322.336C293.812 324.539 290.008 327.305 290.008 330.633C290.008 331.492 290.164 332.227 290.477 332.836C290.805 333.445 291.398 334.031 292.258 334.594C293.133 335.156 294.461 335.586 296.242 335.883C298.039 336.164 300.281 336.305 302.969 336.305C306.516 336.305 310.422 335.953 314.688 335.25L315.016 338.461ZM343.539 324.961C348.367 322.398 352.844 319.75 356.969 317.016H348.578C345.672 319.031 342.805 320.836 339.977 322.43C341.133 323.227 342.32 324.07 343.539 324.961ZM357.977 324.398L360.953 322.523C363.516 324.867 366.312 327.648 369.344 330.867L366.414 332.789C365.461 331.758 364.664 330.93 364.023 330.305L348.812 330.68V341.672H344.969V330.773L325.867 331.219L325.773 328.242L337.727 327.938C337.977 327.812 338.352 327.633 338.852 327.398C339.352 327.164 339.727 326.977 339.977 326.836C336.492 324.273 333.453 322.148 330.859 320.461L333.648 318.117C333.961 318.336 335.094 319.102 337.047 320.414C338.906 319.352 340.766 318.219 342.625 317.016H325.375V314.086H344.969V310.711H329.125V307.875H344.969V304.523H327.391V301.5H344.969V298.289H349V301.5H366.578V304.523H349V307.875H364.844V310.711H349V314.086H368.594V317.016H358.023L360.133 318.961C355.211 322.195 350.156 325.141 344.969 327.797L361.141 327.422C361.047 327.328 359.992 326.32 357.977 324.398ZM326.148 337.594C330.914 335.703 335.125 333.562 338.781 331.172L340.844 333.703C337.547 335.969 333.195 338.211 327.789 340.43L326.148 337.594ZM352.398 333.703L354.227 331.078C359.32 333.375 363.82 335.656 367.727 337.922L365.898 340.758C361.82 338.352 357.32 336 352.398 333.703ZM381.156 312.633V319.172H408.812V312.633H381.156ZM381.156 309.75H408.812V303.516H381.156V309.75ZM377.359 300.398H412.609V322.242H396.906V328.055H416.43V331.359H396.906V341.953H393.062V331.359H373.539V328.055H393.062V322.242H381.156H377.359V300.398ZM453.789 301.875C447.258 307.125 441.227 311.562 435.695 315.188C433.773 316.438 432.562 317.297 432.062 317.766C431.562 318.219 431.312 318.719 431.312 319.266C431.312 319.781 431.539 320.258 431.992 320.695C432.445 321.117 433.5 321.906 435.156 323.062C441.844 327.609 448.547 332.805 455.266 338.648L452.688 341.25C446.094 335.547 439.531 330.438 433 325.922C430.438 324.156 428.82 322.914 428.148 322.195C427.477 321.461 427.141 320.484 427.141 319.266C427.141 317.984 427.492 316.969 428.195 316.219C428.898 315.469 430.625 314.195 433.375 312.398C439.359 308.43 445.375 304.031 451.422 299.203L453.789 301.875ZM481.188 309.094C480.969 308.484 480.344 306.914 479.312 304.383H476.734C475.578 305.977 474.188 307.547 472.562 309.094H481.188ZM474.766 317.156V320.086H485.617V317.156H474.766ZM474.766 314.648H485.617V311.859H474.766V314.648ZM507.203 317.156H495.883V320.086H507.203V317.156ZM507.203 314.648V311.859H495.883V314.648H507.203ZM484.75 332.602V335.484H497.219V332.602H484.75ZM484.75 330.211H497.219V327.422H484.75V330.211ZM481.234 340.242V324.773H500.734V337.828C502.656 337.922 503.984 337.969 504.719 337.969C505.906 337.969 506.617 337.867 506.852 337.664C507.086 337.461 507.203 336.812 507.203 335.719V322.758H492.273V309.094H500.875C500.656 308.484 500.031 306.914 499 304.383H495.93C494.398 306.18 492.594 307.812 490.516 309.281L488.102 306.82C489.227 305.992 490.219 305.18 491.078 304.383H483.203C483.328 304.695 483.617 305.406 484.07 306.516C484.523 307.625 484.859 308.484 485.078 309.094H489.203V322.758H474.766V341.438H471.062V309.703L468.953 307.641C472.469 304.672 475.016 301.281 476.594 297.469L480.086 298.242C479.727 299.133 479.266 300.141 478.703 301.266H491.617V303.844C493.758 301.703 495.336 299.562 496.352 297.422L499.82 298.289C499.367 299.32 498.836 300.312 498.227 301.266H512.43V304.383H502.891C503.016 304.695 503.297 305.406 503.734 306.516C504.188 307.625 504.531 308.484 504.766 309.094H510.906V336.211C510.906 338.352 510.594 339.703 509.969 340.266C509.344 340.828 507.812 341.109 505.375 341.109C504.672 341.109 502.32 341.023 498.32 340.852L498.227 338.086H484.75V340.242H481.234ZM524.336 314.602H537.062V309.328H524.336V314.602ZM537.062 323.016V317.484H524.336V323.016H537.062ZM540.906 323.016H553.633V317.484H540.906V323.016ZM534.32 299.109L537.602 297.703C539.008 299.969 540.492 302.805 542.055 306.211H546.414C548.305 303.43 549.969 300.656 551.406 297.891L554.781 298.945C553.469 301.539 552.047 303.961 550.516 306.211H557.312V326.086H540.906V330.867H561.062V334.055H540.906V341.906H537.062V334.055H516.906V330.867H537.062V326.086H524.336H520.656V306.211H526.938C525.625 303.617 524.375 301.406 523.188 299.578L526.445 298.195C528.008 300.664 529.484 303.336 530.875 306.211H538.164C537.133 304.008 535.852 301.641 534.32 299.109ZM553.633 314.602V309.328H540.906V314.602H553.633ZM584.242 308.227V304.945H604.656V308.227H584.242ZM574.75 301.125C573.219 306.953 572.445 313.32 572.43 320.227C572.43 327.133 573.203 333.5 574.75 339.328L571.141 339.797C569.547 333.719 568.75 327.195 568.75 320.227C568.75 313.242 569.547 306.711 571.141 300.633L574.75 301.125ZM605.312 332.883L605.852 336.117C601.977 337.102 598.297 337.594 594.812 337.594C590.422 337.594 586.953 336.789 584.406 335.18C581.875 333.555 580.609 331.398 580.609 328.711C580.609 327.336 581.156 325.758 582.25 323.977C583.359 322.18 584.859 320.508 586.75 318.961L589.328 321.188C587.766 322.469 586.523 323.805 585.602 325.195C584.695 326.586 584.242 327.758 584.242 328.711C584.242 330.508 585.156 331.883 586.984 332.836C588.812 333.773 591.422 334.242 594.812 334.242C598.125 334.227 601.625 333.773 605.312 332.883ZM623.219 311.016V341.672H619.375V317.578C617.719 320.484 616.094 322.852 614.5 324.68L612.578 321.281C617.828 314.984 621.453 307.43 623.453 298.617L627.062 299.438C626.266 303.375 624.984 307.234 623.219 311.016ZM657.062 306.164H642.086V314.836H655.633V318.07H642.086V327.094H655.633V330.398H642.086V341.672H638.195V306.164H635.359C633.344 310.992 630.93 315.422 628.117 319.453L625.141 317.25C629.203 311.453 632.273 305.086 634.352 298.148L637.914 298.852C637.492 300.352 637.062 301.711 636.625 302.93H657.062V306.164ZM683.852 298.242H687.438C687.438 300.133 687.492 301.938 687.602 303.656H697.633C695.07 302.031 692.734 300.656 690.625 299.531L692.5 296.977C695.469 298.508 698.25 300.156 700.844 301.922L699.555 303.656H703.281V306.867H687.836C688.445 313.68 689.711 319.695 691.633 324.914C694.352 320.789 696.297 316.102 697.469 310.852L700.891 311.812C699.422 318.25 696.859 323.883 693.203 328.711C694 330.367 694.836 331.844 695.711 333.141C696.602 334.422 697.352 335.328 697.961 335.859C698.57 336.375 699.016 336.633 699.297 336.633C700.453 336.633 701.336 333.625 701.945 327.609L705.391 328.711C704.656 336.898 702.789 341 699.789 341.016C698.602 341.016 697.164 340.211 695.477 338.602C693.805 337.008 692.188 334.734 690.625 331.781C686.812 335.781 682.406 338.695 677.406 340.523L675.648 337.5C680.898 335.578 685.344 332.523 688.984 328.336C686.422 322.195 684.82 315.039 684.18 306.867H668.688V312.68H681.648C681.648 321.508 681.422 326.914 680.969 328.898C680.578 330.523 679.844 331.5 678.766 331.828C678.25 331.984 677.414 332.07 676.258 332.086C675.227 332.086 672.953 331.938 669.438 331.641L669.109 328.477C671.672 328.727 673.625 328.852 674.969 328.852C676.5 328.852 677.398 328.289 677.664 327.164C677.945 326.023 678.086 322.219 678.086 315.75H668.688V317.203C668.688 327.281 666.938 335.281 663.438 341.203L660.719 338.086C662.219 335.211 663.305 331.961 663.977 328.336C664.648 324.711 664.984 320.211 664.984 314.836V303.656H683.992C683.898 301.938 683.852 300.133 683.852 298.242Z" fill="black"/>
</svg>
