<svg width="1024" height="512" viewBox="0 0 1024 512" fill="none" xmlns="http://www.w3.org/2000/svg">
<rect width="1024" height="512" fill="#1747E6"/>
<path d="M93.088 264.5H85.504V206.228H66.88V199.028H111.712V206.228H93.088V264.5ZM151.214 260.852C146.99 264.404 140.846 266.228 134.318 266.228C120.494 266.228 109.934 257.012 109.934 240.308C109.934 223.796 119.342 214.292 132.206 214.292C144.11 214.292 153.422 223.22 153.422 236.66C153.422 237.908 153.326 239.732 153.326 241.076H117.422C117.518 253.268 124.91 259.796 135.278 259.796C142.19 259.796 147.566 257.012 150.83 252.884H151.214V260.852ZM132.206 220.724C124.046 220.724 118.574 226.1 117.614 234.932H146.03C145.838 226.676 140.174 220.724 132.206 220.724ZM204.879 264.5H196.239L181.647 244.916L168.783 264.5H160.431L177.039 239.828L159.567 216.02H168.207L182.319 235.316H182.415L195.471 216.02H203.727L187.023 240.116L204.879 264.5ZM222.534 264.5H215.43V222.644H211.494V222.26L215.43 216.02V201.428H222.534V216.02H234.438V222.644H222.534V264.5ZM319.676 264.5H309.884L281.852 234.74V234.356C300.092 231.668 304.7 226.292 304.7 218.42C304.7 210.74 298.94 206.132 289.052 206.132H280.124V264.5H272.636V199.028H289.916C303.26 199.028 312.572 205.364 312.572 217.652C312.572 227.636 307.772 234.164 294.14 237.908V238.1L319.676 264.5ZM365.62 260.852C361.396 264.404 355.252 266.228 348.724 266.228C334.9 266.228 324.34 257.012 324.34 240.308C324.34 223.796 333.748 214.292 346.612 214.292C358.516 214.292 367.828 223.22 367.828 236.66C367.828 237.908 367.732 239.732 367.732 241.076H331.828C331.924 253.268 339.316 259.796 349.684 259.796C356.596 259.796 361.972 257.012 365.236 252.884H365.62V260.852ZM346.612 220.724C338.452 220.724 332.98 226.1 332.02 234.932H360.436C360.244 226.676 354.58 220.724 346.612 220.724ZM398.193 264.5H393.201L372.465 216.02H380.529L395.889 252.98H395.984L411.153 216.02H418.929L398.193 264.5ZM464.151 260.852C459.927 264.404 453.783 266.228 447.255 266.228C433.431 266.228 422.871 257.012 422.871 240.308C422.871 223.796 432.279 214.292 445.143 214.292C457.047 214.292 466.359 223.22 466.359 236.66C466.359 237.908 466.263 239.732 466.263 241.076H430.359C430.455 253.268 437.847 259.796 448.215 259.796C455.127 259.796 460.503 257.012 463.767 252.884H464.151V260.852ZM445.143 220.724C436.983 220.724 431.511 226.1 430.551 234.932H458.967C458.775 226.676 453.111 220.724 445.143 220.724ZM486.999 264.5H479.895V216.02H486.615V220.244H486.711C490.359 216.788 494.391 214.292 499.383 214.292C501.207 214.292 502.935 214.58 504.471 215.156V222.932H504.183C502.359 221.684 500.343 221.108 498.231 221.108C493.911 221.108 490.263 223.508 486.999 226.868V264.5ZM542.422 252.308C542.422 260.372 536.854 266.228 526.102 266.228C520.342 266.228 515.446 264.5 511.99 261.332V253.172H512.278C515.734 257.588 520.918 260.084 526.102 260.084C531.862 260.084 535.51 257.204 535.51 252.788C535.51 240.692 512.182 245.492 512.182 227.828C512.182 220.244 517.27 214.292 527.446 214.292C532.534 214.292 537.526 215.732 540.694 218.996V227.156H540.502C537.43 223.316 532.63 220.532 527.638 220.532C522.07 220.532 519.286 223.412 519.286 227.444C519.286 239.348 542.422 234.26 542.422 252.308ZM593.62 260.852C589.396 264.404 583.252 266.228 576.724 266.228C562.9 266.228 552.34 257.012 552.34 240.308C552.34 223.796 561.748 214.292 574.612 214.292C586.516 214.292 595.828 223.22 595.828 236.66C595.828 237.908 595.732 239.732 595.732 241.076H559.828C559.924 253.268 567.316 259.796 577.684 259.796C584.596 259.796 589.972 257.012 593.236 252.884H593.62V260.852ZM574.612 220.724C566.452 220.724 560.98 226.1 560.02 234.932H588.436C588.244 226.676 582.58 220.724 574.612 220.724ZM616.467 264.5H609.363V216.02H616.083V220.244H616.179C619.827 216.788 623.859 214.292 628.851 214.292C630.675 214.292 632.403 214.58 633.939 215.156V222.932H633.651C631.827 221.684 629.811 221.108 627.699 221.108C623.379 221.108 619.731 223.508 616.467 226.868V264.5Z" fill="white"/>
<path d="M73.2578 305.953V302.602H102.742V305.953H73.2578ZM67.8438 315.562H108.156V318.914H91.7031C91.6719 324.711 90.4062 329.227 87.9062 332.461C85.4062 335.695 81.3594 338.062 75.7656 339.562L74.7109 336.258C79.5078 334.883 82.8906 332.891 84.8594 330.281C86.8281 327.672 87.8281 323.883 87.8594 318.914H67.8438V315.562ZM132.484 300.023L136.328 299.719L136.961 307.922L153.531 307.359L153.672 310.711L137.242 311.297L138.203 323.719L155.43 323.203L155.594 326.555L138.438 327.094L139.516 340.43L135.672 340.711L134.617 327.234L116.57 327.797L116.406 324.445L134.359 323.859L133.352 311.438L118.469 311.953L118.328 308.602L133.117 308.086L132.484 300.023ZM169.117 306.539V303.094H198.883V306.539C196.648 312.039 193.195 317.273 188.523 322.242C193.164 326.523 197.93 331.227 202.82 336.352L200.219 338.836C195.547 333.914 190.812 329.211 186.016 324.727C180.609 329.945 174.148 334.461 166.633 338.273L164.992 335.203C172.164 331.484 178.305 327.164 183.414 322.242C188.539 317.305 192.352 312.07 194.852 306.539H169.117ZM223.984 300.68V314.695C232.812 316.805 241.758 319.555 250.82 322.945L249.672 326.461C240.578 323.07 232.016 320.398 223.984 318.445V339.75H220.141V300.68H223.984ZM263.43 314.555V300.398H299.289V303.562H267.133V311.109H296.758V314.227C294.383 320.789 290.859 326.211 286.188 330.492C290.344 333.539 295.32 335.984 301.117 337.828L299.688 341.016C293.344 339.031 287.898 336.305 283.352 332.836C278.836 336.258 273.289 338.984 266.711 341.016L265.211 337.828C271.352 335.938 276.461 333.492 280.539 330.492C276.445 326.773 273.242 322.359 270.93 317.25L274.281 315.75C276.422 320.516 279.445 324.664 283.352 328.195C287.539 324.383 290.727 319.727 292.914 314.227H267.133V316.758C267.133 326.586 265.07 334.586 260.945 340.758L258.203 337.875C261.688 332.25 263.43 324.477 263.43 314.555ZM319.938 317.719H325.023V312.914H319.938V317.719ZM319.938 320.461V325.594H325.023V320.461H319.938ZM311.102 317.719H316.234V312.914H311.102V317.719ZM311.102 325.594H316.234V320.461H311.102V325.594ZM329.43 304.242V300.914H347.781V304.242H329.43ZM341.148 323.016L344.359 322.102C346.562 328.18 348.469 334.289 350.078 340.43L346.727 341.297C346.633 340.906 346.445 340.203 346.164 339.188C345.898 338.188 345.688 337.398 345.531 336.82C339.391 338.164 333.258 339.188 327.133 339.891L326.992 336.633C327.383 336.602 327.977 336.523 328.773 336.398C329.57 336.273 330.18 336.195 330.602 336.164C332.133 329.664 333.445 323.148 334.539 316.617H328.094V328.477H319.938V332.461H328.234V335.484H319.938V341.953H316.234V335.484H306.789V332.461H316.234V328.477H311.102H307.938V310.055H316.234V306.07H306.789V303.047H316.234V298.758H319.938V303.047H328.234V306.07H319.938V310.055H328.094V313.359H349.445V316.617H338.031C336.969 323.117 335.719 329.453 334.281 335.625C338.5 334.953 341.961 334.344 344.664 333.797C343.539 329.969 342.367 326.375 341.148 323.016ZM394.867 303.047C394.617 310.984 393.453 317.375 391.375 322.219C389.312 327.062 386.172 330.797 381.953 333.422C377.734 336.047 372.039 337.883 364.867 338.93L364.188 335.484C369.219 334.719 373.352 333.633 376.586 332.227C379.836 330.82 382.547 328.82 384.719 326.227C386.906 323.633 388.484 320.484 389.453 316.781C390.438 313.062 391.023 308.414 391.211 302.836L394.867 303.047ZM357.227 305.297L360.789 304.43C362.227 309.164 363.664 314.477 365.102 320.367L361.445 321.188C360.008 315.234 358.602 309.938 357.227 305.297ZM370.422 303.516L374.078 302.695C375.516 307.758 376.953 313.312 378.391 319.359L374.758 320.133C373.273 314.039 371.828 308.5 370.422 303.516ZM404.453 322.055V318.398H443.547V322.055H404.453ZM460.328 302.133H464.172V311.578C464.172 317.844 463.812 322.742 463.094 326.273C462.375 329.789 461.273 332.461 459.789 334.289C458.305 336.117 456.102 337.719 453.18 339.094L451.211 335.906C453.773 334.656 455.664 333.273 456.883 331.758C458.102 330.242 458.977 327.969 459.508 324.938C460.055 321.891 460.328 317.438 460.328 311.578V302.133ZM476.664 335.109C480.664 334.469 483.859 332.617 486.25 329.555C488.656 326.492 490.102 322.391 490.586 317.25L494.078 317.672C493.5 324.266 491.375 329.445 487.703 333.211C484.047 336.961 479.344 338.836 473.594 338.836H472.82V302.133H476.664V335.109Z" fill="white"/>
</svg>
