<svg width="1024" height="512" viewBox="0 0 1024 512" fill="none" xmlns="http://www.w3.org/2000/svg">
<rect width="1024" height="512" fill="#1747E6"/>
<path d="M130.24 231.764C130.24 254.228 115.936 266.228 99.328 266.228C83.2 266.228 68.704 254.324 68.704 231.764C68.704 209.3 83.008 197.3 99.52 197.3C115.744 197.3 130.24 209.204 130.24 231.764ZM122.272 231.764C122.272 213.908 112 204.404 99.52 204.404C87.136 204.404 76.672 213.716 76.672 231.764C76.672 249.62 86.944 259.124 99.328 259.124C111.808 259.124 122.272 249.812 122.272 231.764ZM187.771 240.308C187.771 256.82 177.883 266.228 164.443 266.228C158.683 266.228 153.883 264.5 150.523 262.1H150.427V283.028H143.323V216.02H150.331V220.148H150.427C154.459 216.5 159.451 214.292 165.595 214.292C178.171 214.292 187.771 223.796 187.771 240.308ZM180.187 240.308C180.187 228.212 173.563 220.916 163.675 220.916C158.203 220.916 153.691 223.22 150.427 226.964V254.9C153.499 257.78 157.915 259.7 162.907 259.7C173.467 259.7 180.187 252.596 180.187 240.308ZM237.37 260.852C233.146 264.404 227.002 266.228 220.474 266.228C206.65 266.228 196.09 257.012 196.09 240.308C196.09 223.796 205.498 214.292 218.362 214.292C230.266 214.292 239.578 223.22 239.578 236.66C239.578 237.908 239.482 239.732 239.482 241.076H203.578C203.674 253.268 211.066 259.796 221.434 259.796C228.346 259.796 233.722 257.012 236.986 252.884H237.37V260.852ZM218.362 220.724C210.202 220.724 204.73 226.1 203.77 234.932H232.186C231.994 226.676 226.33 220.724 218.362 220.724ZM293.433 264.5H286.329V234.164C286.329 224.948 280.665 220.916 273.273 220.916C267.705 220.916 263.289 223.028 259.833 226.964V264.5H252.729V216.02H259.737V220.148H259.833C263.865 216.5 268.953 214.292 275.097 214.292C285.177 214.292 293.433 219.956 293.433 231.86V264.5ZM372.377 248.18C372.377 258.26 364.985 266.228 351.737 266.228C344.825 266.228 338.105 264.308 333.593 260.084V251.06H333.881C338.489 256.532 344.921 259.412 351.545 259.412C359.801 259.412 364.793 255.284 364.793 248.756C364.793 231.86 333.881 237.908 333.881 214.964C333.881 205.94 339.641 197.3 353.369 197.3C359.609 197.3 365.753 199.22 370.073 203.444V212.468H369.785C365.369 206.9 359.417 204.116 353.465 204.116C345.593 204.116 341.561 208.436 341.561 214.388C341.561 231.092 372.377 224.852 372.377 248.18ZM424.026 260.852C419.802 264.404 413.658 266.228 407.13 266.228C393.306 266.228 382.746 257.012 382.746 240.308C382.746 223.796 392.154 214.292 405.018 214.292C416.922 214.292 426.234 223.22 426.234 236.66C426.234 237.908 426.138 239.732 426.138 241.076H390.234C390.33 253.268 397.722 259.796 408.09 259.796C415.002 259.796 420.378 257.012 423.642 252.884H424.026V260.852ZM405.018 220.724C396.858 220.724 391.386 226.1 390.426 234.932H418.842C418.65 226.676 412.986 220.724 405.018 220.724ZM408.09 211.124H401.562L413.85 192.5H421.53L408.09 211.124ZM446.49 264.5H439.386V192.5H446.49V264.5ZM476.826 264.5H467.994L447.738 240.116V239.732L467.226 216.02H475.674L456.09 239.444V239.636L476.826 264.5ZM494.021 264.5H486.917V216.02H494.021V264.5ZM494.405 199.892H486.533V192.5H494.405V199.892ZM542.501 252.116V225.332C539.429 222.548 535.013 220.916 530.597 220.916C520.709 220.916 514.085 227.636 514.085 239.156C514.085 250.484 520.517 257.588 529.925 257.588C535.109 257.588 539.525 255.476 542.501 252.116ZM528.869 283.22C523.397 283.22 516.965 281.876 512.837 277.94V269.492H513.029C516.485 274.58 522.533 276.788 528.581 276.788C538.757 276.788 542.501 270.836 542.501 263.156V258.74H542.405C538.757 262.004 533.669 264.116 527.717 264.116C516.005 264.116 506.309 255.476 506.309 239.156C506.309 223.124 516.005 214.292 528.965 214.292C534.437 214.292 539.429 216.308 542.981 218.9H543.173L549.317 215.636H549.605V262.772C549.605 276.5 541.541 283.22 528.869 283.22ZM601.37 264.5H594.458V260.564H594.266C590.522 264.02 585.626 266.228 579.578 266.228C570.266 266.228 563.258 260.468 563.258 251.156C563.258 241.652 569.786 235.508 581.21 235.508C586.202 235.508 590.618 236.66 594.266 238.58V233.492C594.266 224.372 588.314 220.724 581.018 220.724C574.97 220.724 569.69 223.796 566.522 227.54H566.234V219.956C570.458 216.308 576.218 214.292 582.266 214.292C593.114 214.292 601.37 220.148 601.37 233.012V264.5ZM594.266 254.228V244.724C591.194 242.804 586.778 241.46 582.458 241.46C574.874 241.46 570.458 244.724 570.458 250.676C570.458 255.86 574.202 259.988 581.786 259.988C586.586 259.988 591.002 257.876 594.266 254.228ZM654.37 260.852C650.146 264.404 644.002 266.228 637.474 266.228C623.65 266.228 613.09 257.012 613.09 240.308C613.09 223.796 622.498 214.292 635.362 214.292C647.266 214.292 656.578 223.22 656.578 236.66C656.578 237.908 656.482 239.732 656.482 241.076H620.578C620.674 253.268 628.066 259.796 638.434 259.796C645.346 259.796 650.722 257.012 653.986 252.884H654.37V260.852ZM635.362 220.724C627.202 220.724 621.73 226.1 620.77 234.932H649.186C648.994 226.676 643.33 220.724 635.362 220.724Z" fill="white"/>
<path d="M68.9453 307.031H93.5312V299.344H97.1172V307.031H108.016V310.289H97.1172V332.133C97.1172 334.758 96.75 336.43 96.0156 337.148C95.2812 337.867 93.6172 338.227 91.0234 338.227C88.5859 338.227 85.8828 338.062 82.9141 337.734L83.1484 334.383C85.8359 334.695 88.3672 334.852 90.7422 334.852C91.9609 334.852 92.7266 334.695 93.0391 334.383C93.3672 334.055 93.5312 333.289 93.5312 332.086V314.273C86.5938 321.664 78.9922 327.711 70.7266 332.414L69.0391 329.484C73.1953 327.109 77.3359 324.25 81.4609 320.906C85.6016 317.562 89.3359 314.023 92.6641 310.289H68.9453V307.031ZM116.453 322.055V318.398H155.547V322.055H116.453ZM195.133 302.93C195.133 301.227 195.734 299.781 196.938 298.594C198.141 297.391 199.586 296.789 201.273 296.789C202.977 296.789 204.422 297.391 205.609 298.594C206.812 299.797 207.414 301.25 207.414 302.953C207.414 304.641 206.812 306.086 205.609 307.289C204.422 308.492 202.977 309.094 201.273 309.094C200.82 309.094 200.5 309.078 200.312 309.047C199.703 318.297 196.922 325.352 191.969 330.211C187.016 335.07 179.625 338.031 169.797 339.094L169.164 335.672C178.289 334.641 185.039 331.914 189.414 327.492C193.805 323.055 196.195 316.469 196.586 307.734H164.805V304.242H195.227C195.164 303.945 195.133 303.508 195.133 302.93ZM203.734 305.391C204.406 304.719 204.742 303.906 204.742 302.953C204.742 301.984 204.406 301.164 203.734 300.492C203.062 299.82 202.242 299.484 201.273 299.484C200.32 299.484 199.508 299.82 198.836 300.492C198.164 301.164 197.828 301.984 197.828 302.953C197.828 303.906 198.164 304.719 198.836 305.391C199.508 306.062 200.32 306.398 201.273 306.398C202.242 306.398 203.062 306.062 203.734 305.391ZM215.055 305.766L216.789 302.508C221.914 305.07 226.805 307.789 231.461 310.664L229.609 313.922C225.188 311.172 220.336 308.453 215.055 305.766ZM252.156 307.641C248.922 326.078 237.102 336.188 216.695 337.969L216.109 334.383C225.484 333.523 232.852 330.828 238.211 326.297C243.57 321.766 247.055 315.289 248.664 306.867L252.156 307.641ZM298.375 302.273C297.922 310.211 296.648 316.594 294.555 321.422C292.461 326.25 289.32 330 285.133 332.672C280.945 335.344 275.281 337.273 268.141 338.461L267.461 335.016C273.992 333.828 279.125 332.047 282.859 329.672C286.609 327.281 289.422 323.914 291.297 319.57C293.172 315.211 294.32 309.367 294.742 302.039L298.375 302.273ZM261.719 304.148L265.258 302.648C268.008 308.383 270.492 313.82 272.711 318.961L269.055 320.367C266.367 314.164 263.922 308.758 261.719 304.148ZM308.453 322.055V318.398H347.547V322.055H308.453ZM361.117 306.539V303.094H390.883V306.539C388.648 312.039 385.195 317.273 380.523 322.242C385.164 326.523 389.93 331.227 394.82 336.352L392.219 338.836C387.547 333.914 382.812 329.211 378.016 324.727C372.609 329.945 366.148 334.461 358.633 338.273L356.992 335.203C364.164 331.484 370.305 327.164 375.414 322.242C380.539 317.305 384.352 312.07 386.852 306.539H361.117ZM428.617 335.25C432.461 334.828 435.453 333.305 437.594 330.68C439.734 328.055 440.805 324.57 440.805 320.227C440.805 316.164 439.461 312.805 436.773 310.148C434.086 307.492 430.641 306.094 426.438 305.953C425.766 312.156 424.922 317.406 423.906 321.703C422.906 326 421.797 329.242 420.578 331.43C419.375 333.617 418.164 335.156 416.945 336.047C415.727 336.922 414.398 337.359 412.961 337.359C410.664 337.359 408.547 335.969 406.609 333.188C404.672 330.406 403.703 326.992 403.703 322.945C403.703 316.93 405.758 312.039 409.867 308.273C413.977 304.492 419.328 302.602 425.922 302.602C431.234 302.602 435.625 304.258 439.094 307.57C442.562 310.883 444.297 315.102 444.297 320.227C444.297 325.539 442.953 329.836 440.266 333.117C437.578 336.398 433.93 338.227 429.32 338.602L428.617 335.25ZM422.805 306.164C418.07 306.742 414.281 308.555 411.438 311.602C408.609 314.633 407.195 318.414 407.195 322.945C407.195 325.961 407.836 328.523 409.117 330.633C410.398 332.742 411.68 333.797 412.961 333.797C413.539 333.797 414.141 333.586 414.766 333.164C415.391 332.727 416.086 331.883 416.852 330.633C417.617 329.383 418.336 327.781 419.008 325.828C419.68 323.875 420.359 321.211 421.047 317.836C421.734 314.445 422.32 310.555 422.805 306.164ZM464.078 308.836V304.805H456.742V308.836H464.078ZM467.781 308.836H481.352V304.805H467.781V308.836ZM467.781 311.906V317.25H481.352V311.906H467.781ZM472.633 320.133H464.078V311.906H456.742V318.023C456.742 327.367 455.172 335.141 452.031 341.344L449.289 338.461C450.633 335.445 451.609 332.18 452.219 328.664C452.828 325.148 453.133 320.828 453.133 315.703V301.688H471.18V297.562H475.023V301.688H492.789V304.805H485.102V308.836H492.789V311.906H485.102V320.133H476.312V323.906H490.469V333.281C490.469 336 490.242 337.688 489.789 338.344C489.352 339 488.172 339.328 486.25 339.328C484.875 339.328 482.922 339.25 480.391 339.094L480.25 335.906C482.453 336.062 484.055 336.148 485.055 336.164C486.055 336.164 486.633 336.047 486.789 335.812C486.945 335.562 487.023 334.734 487.023 333.328V326.789H476.312V342.164H472.633V326.789H463.023V339.328H459.414V323.906H472.633V320.133ZM515.594 320.227C513.547 317.852 511.289 315.789 508.82 314.039C507.727 316.383 506.305 318.445 504.555 320.227H515.594ZM535.117 320.227C532.945 318.211 531.188 315.984 529.844 313.547C528.75 316.078 526.953 318.305 524.453 320.227H535.117ZM507.672 336.398H532.328V331.125H507.672V336.398ZM528.297 298.523H532C532 300.148 531.984 301.352 531.953 302.133H540.555V305.203H531.719C531.562 306.906 531.352 308.344 531.086 309.516H541.844V312.539H533.102C535.273 316.023 538.344 318.891 542.312 321.141L540.883 324.352C539.18 323.43 537.609 322.359 536.172 321.141V341.344H532.328V339.281H507.672V341.344H503.828V320.93C502.484 322.18 500.914 323.32 499.117 324.352L497.688 321.141C501.375 319.094 504.031 316.227 505.656 312.539H498.156V309.516H506.758C507.148 308.172 507.438 306.734 507.625 305.203H499.445V302.133H507.906C507.969 300.602 508 299.398 508 298.523H511.703C511.703 299.773 511.656 300.977 511.562 302.133H518.57V305.203H511.258C511.07 306.609 510.797 308.047 510.438 309.516H519.133V312.539H512.172C514.547 314.242 516.773 316.258 518.852 318.586L516.742 320.227H522.438L520.633 318.727C523.539 316.805 525.508 314.742 526.539 312.539H520.867V309.516H527.477C527.727 308.391 527.938 306.953 528.109 305.203H521.43V302.133H528.25C528.281 301.383 528.297 300.18 528.297 298.523ZM532.328 328.289V323.203H507.672V328.289H532.328ZM552.016 310.945H581.828V314.508L569.922 324.305L569.969 324.352C570.281 324.289 570.539 324.258 570.742 324.258C571.836 324.258 572.703 324.688 573.344 325.547C574 326.406 574.664 328.117 575.336 330.68C575.914 332.852 576.531 334.227 577.188 334.805C577.844 335.383 579.055 335.672 580.82 335.672C582.898 335.672 584.945 335.383 586.961 334.805L587.594 337.969C585.25 338.609 582.875 338.93 580.469 338.93C577.906 338.93 576.031 338.484 574.844 337.594C573.672 336.703 572.781 335.039 572.172 332.602C571.625 330.43 571.062 328.953 570.484 328.172C569.922 327.375 569.203 326.977 568.328 326.977C567.812 326.977 567.398 327.031 567.086 327.141C566.773 327.234 565.984 327.719 564.719 328.594C563.453 329.469 561.875 330.656 559.984 332.156C558.094 333.641 555.102 336.031 551.008 339.328L548.898 336.633L576.695 314.227L576.648 314.133H552.016V310.945ZM557.055 303.562L557.477 300.398C564.68 301.555 571.758 302.133 578.711 302.133V305.438C572.367 305.438 565.148 304.812 557.055 303.562ZM634.867 303.047C634.617 310.984 633.453 317.375 631.375 322.219C629.312 327.062 626.172 330.797 621.953 333.422C617.734 336.047 612.039 337.883 604.867 338.93L604.188 335.484C609.219 334.719 613.352 333.633 616.586 332.227C619.836 330.82 622.547 328.82 624.719 326.227C626.906 323.633 628.484 320.484 629.453 316.781C630.438 313.062 631.023 308.414 631.211 302.836L634.867 303.047ZM597.227 305.297L600.789 304.43C602.227 309.164 603.664 314.477 605.102 320.367L601.445 321.188C600.008 315.234 598.602 309.938 597.227 305.297ZM610.422 303.516L614.078 302.695C615.516 307.758 616.953 313.312 618.391 319.359L614.758 320.133C613.273 314.039 611.828 308.5 610.422 303.516ZM644.453 322.055V318.398H683.547V322.055H644.453ZM700.328 302.133H704.172V311.578C704.172 317.844 703.812 322.742 703.094 326.273C702.375 329.789 701.273 332.461 699.789 334.289C698.305 336.117 696.102 337.719 693.18 339.094L691.211 335.906C693.773 334.656 695.664 333.273 696.883 331.758C698.102 330.242 698.977 327.969 699.508 324.938C700.055 321.891 700.328 317.438 700.328 311.578V302.133ZM716.664 335.109C720.664 334.469 723.859 332.617 726.25 329.555C728.656 326.492 730.102 322.391 730.586 317.25L734.078 317.672C733.5 324.266 731.375 329.445 727.703 333.211C724.047 336.961 719.344 338.836 713.594 338.836H712.82V302.133H716.664V335.109Z" fill="white"/>
</svg>
