<svg width="1024" height="512" viewBox="0 0 1024 512" fill="none" xmlns="http://www.w3.org/2000/svg">
<rect x="16" y="16" width="992" height="480" fill="#F2F5FF"/>
<rect x="16" y="16" width="992" height="480" stroke="#E63A69" stroke-width="32"/>
<path d="M93.088 264.5H85.504V206.228H66.88V199.028H111.712V206.228H93.088V264.5ZM162.531 264.5H155.427V234.164C155.427 224.948 149.955 220.916 142.947 220.916C137.763 220.916 133.443 223.028 130.083 226.964V264.5H122.979V192.5H130.083V220.052H130.179C134.115 216.5 139.107 214.292 144.867 214.292C154.467 214.292 162.531 219.956 162.531 231.86V264.5ZM217.737 216.02V247.22C217.737 259.316 209.865 266.228 197.865 266.228C186.057 266.228 178.185 259.316 178.185 247.22V216.02H185.289V246.452C185.289 255.572 190.089 259.796 197.961 259.796C205.737 259.796 210.633 255.572 210.633 246.452V216.02H217.737ZM305.977 264.5H298.873V234.164C298.873 224.948 293.497 220.916 286.393 220.916C281.689 220.916 277.177 222.74 273.145 227.444C273.433 228.788 273.625 230.324 273.625 231.86V264.5H266.521V234.164C266.521 224.948 261.049 220.916 254.041 220.916C248.857 220.916 244.537 223.028 241.177 226.964V264.5H234.073V216.02H241.081V220.148H241.177C245.209 216.5 250.201 214.292 255.961 214.292C262.393 214.292 268.153 216.884 271.225 222.164H271.321C276.697 216.5 282.265 214.292 288.409 214.292C298.009 214.292 305.977 219.956 305.977 231.86V264.5ZM366.833 240.308C366.833 256.82 356.946 266.228 343.506 266.228C337.362 266.228 332.562 264.308 329.01 261.62H328.914L322.674 264.884H322.386V192.5H329.49V220.052H329.586C333.522 216.5 338.514 214.292 344.658 214.292C357.234 214.292 366.833 223.796 366.833 240.308ZM359.25 240.308C359.25 228.212 352.626 220.916 342.738 220.916C337.266 220.916 332.754 223.22 329.49 226.964V254.9C332.562 257.78 336.978 259.7 341.97 259.7C352.53 259.7 359.25 252.596 359.25 240.308ZM419.902 264.5H412.798V234.164C412.798 224.948 407.134 220.916 399.742 220.916C394.174 220.916 389.758 223.028 386.302 226.964V264.5H379.198V216.02H386.206V220.148H386.302C390.334 216.5 395.422 214.292 401.566 214.292C411.646 214.292 419.902 219.956 419.902 231.86V264.5ZM471.526 264.5H464.614V260.564H464.422C460.678 264.02 455.782 266.228 449.734 266.228C440.422 266.228 433.414 260.468 433.414 251.156C433.414 241.652 439.942 235.508 451.366 235.508C456.358 235.508 460.774 236.66 464.422 238.58V233.492C464.422 224.372 458.47 220.724 451.174 220.724C445.126 220.724 439.846 223.796 436.678 227.54H436.39V219.956C440.614 216.308 446.374 214.292 452.422 214.292C463.27 214.292 471.526 220.148 471.526 233.012V264.5ZM464.422 254.228V244.724C461.35 242.804 456.934 241.46 452.614 241.46C445.03 241.46 440.614 244.724 440.614 250.676C440.614 255.86 444.358 259.988 451.942 259.988C456.742 259.988 461.158 257.876 464.422 254.228ZM494.958 264.5H487.854V216.02H494.958V264.5ZM495.342 199.892H487.47V192.5H495.342V199.892ZM518.958 264.5H511.854V192.5H518.958V264.5ZM628.166 264.5H620.678L616.55 218.9H616.454L595.046 266.228H594.47L573.062 218.804H572.966L568.838 264.5H561.446L567.11 199.028H572.87L594.758 249.14H594.854L616.646 199.028H622.406L628.166 264.5ZM680.214 264.5H673.302V260.564H673.11C669.366 264.02 664.47 266.228 658.422 266.228C649.109 266.228 642.102 260.468 642.102 251.156C642.102 241.652 648.63 235.508 660.054 235.508C665.046 235.508 669.462 236.66 673.11 238.58V233.492C673.11 224.372 667.158 220.724 659.862 220.724C653.814 220.724 648.534 223.796 645.366 227.54H645.078V219.956C649.302 216.308 655.062 214.292 661.109 214.292C671.958 214.292 680.214 220.148 680.214 233.012V264.5ZM673.11 254.228V244.724C670.038 242.804 665.622 241.46 661.302 241.46C653.718 241.46 649.302 244.724 649.302 250.676C649.302 255.86 653.046 259.988 660.63 259.988C665.43 259.988 669.846 257.876 673.11 254.228ZM703.646 264.5H696.542V192.5H703.646V264.5ZM733.982 264.5H725.15L704.894 240.116V239.732L724.382 216.02H732.83L713.246 239.444V239.636L733.982 264.5ZM779.245 260.852C775.021 264.404 768.877 266.228 762.349 266.228C748.525 266.228 737.965 257.012 737.965 240.308C737.965 223.796 747.373 214.292 760.237 214.292C772.141 214.292 781.453 223.22 781.453 236.66C781.453 237.908 781.357 239.732 781.357 241.076H745.453C745.549 253.268 752.941 259.796 763.309 259.796C770.221 259.796 775.597 257.012 778.861 252.884H779.245V260.852ZM760.237 220.724C752.077 220.724 746.605 226.1 745.645 234.932H774.061C773.869 226.676 768.205 220.724 760.237 220.724ZM802.092 264.5H794.988V216.02H801.708V220.244H801.804C805.452 216.788 809.484 214.292 814.476 214.292C816.3 214.292 818.028 214.58 819.564 215.156V222.932H819.276C817.452 221.684 815.436 221.108 813.324 221.108C809.004 221.108 805.356 223.508 802.092 226.868V264.5Z" fill="black"/>
<path d="M104.453 298.102L107.148 296.695C108.586 299.07 109.961 301.5 111.273 303.984L108.602 305.344C107.18 302.688 105.797 300.273 104.453 298.102ZM100.727 307.734H68.9453V304.242H101.055C99.3984 301.336 98.375 299.555 97.9844 298.898L100.633 297.516C101.945 299.656 103.289 302.039 104.664 304.664V305.016C104.664 315.609 102.164 323.656 97.1641 329.156C92.1797 334.656 84.4375 337.969 73.9375 339.094L73.3047 335.672C82.4297 334.641 89.1797 331.914 93.5547 327.492C97.9453 323.055 100.336 316.469 100.727 307.734ZM121.75 337.172H117.906V303.281H154.094V337.172H121.75ZM121.75 333.75H150.25V306.68H121.75V333.75ZM194.219 299.859L196.867 298.477C198.18 300.617 199.523 303 200.898 305.625L199.211 306.445C199.18 317.008 196.633 324.891 191.57 330.094C186.523 335.281 178.516 338.344 167.547 339.281L167.008 335.906C176.711 335.016 183.75 332.516 188.125 328.406C192.516 324.297 194.898 317.891 195.273 309.188H176.57C174.742 314.438 171.602 319.125 167.148 323.25L164.617 320.93C170.539 315.367 173.961 308.508 174.883 300.352L178.469 300.586C178.281 302.477 177.984 304.219 177.578 305.812H197.641C196.484 303.672 195.344 301.688 194.219 299.859ZM200.711 299.062L203.383 297.656C204.82 300.031 206.203 302.461 207.531 304.945L204.836 306.305C203.43 303.648 202.055 301.234 200.711 299.062ZM230.711 314.367H218.57V319.031C218.57 321.078 218.531 322.562 218.453 323.484H230.711V314.367ZM234.297 314.367V323.484H247.609V314.367H234.297ZM230.711 311.438V303.047H218.57V311.438H230.711ZM234.297 311.438H247.609V303.047H234.297V311.438ZM214.867 299.906H251.289V335.109C251.289 337.859 250.969 339.562 250.328 340.219C249.688 340.875 248.023 341.203 245.336 341.203C244.695 341.203 242.461 341.117 238.633 340.945L238.469 337.828C242.156 337.984 244.273 338.07 244.82 338.086C246.164 338.086 246.961 337.945 247.211 337.664C247.477 337.398 247.609 336.594 247.609 335.25V326.461H234.297V340.383H230.711V326.461H218.219C217.609 332.508 215.789 337.562 212.758 341.625L209.688 339.234C211.609 336.578 212.953 333.664 213.719 330.492C214.484 327.32 214.867 323.047 214.867 317.672V299.906ZM259.211 308.836H267.672V300.211H271.258V308.836H288.555V300.211H292.328V308.836H300.789V312.211H292.328V315.281C292.328 323.281 290.648 329.047 287.289 332.578C283.93 336.109 278.094 338.281 269.781 339.094L269.148 335.719C276.633 334.953 281.734 333.133 284.453 330.258C287.188 327.367 288.555 322.375 288.555 315.281V312.211H271.258V323.109H267.672V312.211H259.211V308.836ZM335.477 318.539L338.852 316.945C342.602 324.18 345.93 330.953 348.836 337.266L345.367 338.742C345.148 338.227 344.781 337.438 344.266 336.375C343.766 335.297 343.398 334.5 343.164 333.984C330.367 335.938 318.516 337.109 307.609 337.5L307.516 334.148C308.578 334.117 310.273 334.031 312.602 333.891C316.602 323.547 319.93 312.672 322.586 301.266L326.312 301.969C323.781 312.984 320.602 323.531 316.773 333.609C324.805 333.031 333.094 332.102 341.641 330.82C339.094 325.648 337.039 321.555 335.477 318.539ZM358.727 306.445H373.984V299.25H377.828V306.445H393.766V309.797C391.016 314.188 387.156 318.078 382.188 321.469C387.844 325.25 392.453 328.414 396.016 330.961L393.766 333.75C389.156 330.453 384.195 327.062 378.883 323.578C378.758 323.641 378.57 323.742 378.32 323.883C378.086 324.008 377.922 324.102 377.828 324.164V340.242H373.984V326.133C369.188 328.398 363.461 330.312 356.805 331.875L355.938 328.477C371.422 324.836 382.555 318.609 389.336 309.797H358.727V306.445ZM404.664 319.5C411.539 318.547 418.25 316.453 424.797 313.219C431.344 309.984 436.648 306.141 440.711 301.688L443.055 304.289C439.336 308.352 434.555 311.953 428.711 315.094V339.656H424.82V317.062C418.445 320.031 411.914 321.992 405.227 322.945L404.664 319.5ZM460.328 302.133H464.172V311.578C464.172 317.844 463.812 322.742 463.094 326.273C462.375 329.789 461.273 332.461 459.789 334.289C458.305 336.117 456.102 337.719 453.18 339.094L451.211 335.906C453.773 334.656 455.664 333.273 456.883 331.758C458.102 330.242 458.977 327.969 459.508 324.938C460.055 321.891 460.328 317.438 460.328 311.578V302.133ZM476.664 335.109C480.664 334.469 483.859 332.617 486.25 329.555C488.656 326.492 490.102 322.391 490.586 317.25L494.078 317.672C493.5 324.266 491.375 329.445 487.703 333.211C484.047 336.961 479.344 338.836 473.594 338.836H472.82V302.133H476.664V335.109ZM536.031 338.461C532.219 339.102 528.203 339.422 523.984 339.422C518.125 339.422 513.891 338.742 511.281 337.383C508.672 336.023 507.367 333.867 507.367 330.914C507.367 325.82 512.188 321.922 521.828 319.219C521.375 317.75 520.773 316.727 520.023 316.148C519.273 315.57 518.305 315.281 517.117 315.281C515.195 315.281 513.023 316.211 510.602 318.07C508.195 319.914 505.758 322.586 503.289 326.086L500.359 324.211C504.297 318.742 507.516 313.203 510.016 307.594H500.664V304.523H511.305C512.039 302.727 512.758 300.773 513.461 298.664L516.93 299.484C516.289 301.188 515.648 302.867 515.008 304.523H535.844V307.594H513.719C512.656 310 511.484 312.484 510.203 315.047L510.25 315.094C513.031 313.172 515.531 312.211 517.75 312.211C521.531 312.211 524.039 314.258 525.273 318.352C528.508 317.617 532.172 316.992 536.266 316.477L536.617 319.594C532.258 320.172 528.703 320.781 525.953 321.422C526.375 323.828 526.586 326.945 526.586 330.773H522.883C522.883 327.32 522.734 324.508 522.438 322.336C514.828 324.539 511.023 327.305 511.023 330.633C511.023 331.492 511.18 332.227 511.492 332.836C511.82 333.445 512.414 334.031 513.273 334.594C514.148 335.156 515.477 335.586 517.258 335.883C519.055 336.164 521.297 336.305 523.984 336.305C527.531 336.305 531.438 335.953 535.703 335.25L536.031 338.461ZM546.391 323.719H566.805V316.242H548.805V313.031H566.805V305.953C561.617 306.438 556.211 306.68 550.586 306.68L550.375 303.422C563.531 303.422 575.195 302.094 585.367 299.438L586.141 302.695C581.344 303.914 576.18 304.859 570.648 305.531V313.031H587.195V316.242H570.648V323.719H589.609V327.047H570.648V334.945C570.648 337.633 570.328 339.312 569.688 339.984C569.047 340.672 567.477 341.016 564.977 341.016C563.18 341.016 560.477 340.93 556.867 340.758L556.727 337.5C560.148 337.656 562.625 337.734 564.156 337.734C565.375 337.734 566.117 337.594 566.383 337.312C566.664 337.016 566.805 336.227 566.805 334.945V327.047H546.391V323.719ZM606.742 317.719H611.102V312.914H606.742V317.719ZM606.742 320.461V325.594H611.102V320.461H606.742ZM598.469 317.719H603.039V312.914H598.469V317.719ZM598.469 325.594H603.039V320.461H598.469V325.594ZM598.469 328.477H595.258V310.055H603.039V306.07H594.062V303.047H603.039V298.477H606.742V303.047H615.039V306.07H606.742V310.055H614.172V328.477H606.742V332.602H615.18V335.672H606.742V341.953H603.039V335.672H594.062V332.602H603.039V328.477H598.469ZM617.688 305.766L620.617 304.055C622.352 306.867 624.57 309.5 627.273 311.953C629.773 309.547 631.742 306.75 633.18 303.562H616.328V300.398H636.789V303.562C634.992 307.812 632.672 311.305 629.828 314.039C632.578 316.148 635.492 317.875 638.57 319.219L637.07 322.102C633.383 320.539 630.086 318.602 627.18 316.289C624.273 318.523 620.656 320.477 616.328 322.148L615.18 319.125C618.961 317.688 622.133 316.023 624.695 314.133C621.914 311.602 619.578 308.812 617.688 305.766ZM628.633 337.031H638.312V340.242H613.844V337.031H624.977V328.383H616.141V325.359H624.977V319.734H628.633V325.359H637.445V328.383H628.633V337.031ZM661.258 308.227V304.945H681.672V308.227H661.258ZM651.766 301.125C650.234 306.953 649.461 313.32 649.445 320.227C649.445 327.133 650.219 333.5 651.766 339.328L648.156 339.797C646.562 333.719 645.766 327.195 645.766 320.227C645.766 313.242 646.562 306.711 648.156 300.633L651.766 301.125ZM682.328 332.883L682.867 336.117C678.992 337.102 675.312 337.594 671.828 337.594C667.438 337.594 663.969 336.789 661.422 335.18C658.891 333.555 657.625 331.398 657.625 328.711C657.625 327.336 658.172 325.758 659.266 323.977C660.375 322.18 661.875 320.508 663.766 318.961L666.344 321.188C664.781 322.469 663.539 323.805 662.617 325.195C661.711 326.586 661.258 327.758 661.258 328.711C661.258 330.508 662.172 331.883 664 332.836C665.828 333.773 668.438 334.242 671.828 334.242C675.141 334.227 678.641 333.773 682.328 332.883ZM700.234 311.016V341.672H696.391V317.578C694.734 320.484 693.109 322.852 691.516 324.68L689.594 321.281C694.844 314.984 698.469 307.43 700.469 298.617L704.078 299.438C703.281 303.375 702 307.234 700.234 311.016ZM734.078 306.164H719.102V314.836H732.648V318.07H719.102V327.094H732.648V330.398H719.102V341.672H715.211V306.164H712.375C710.359 310.992 707.945 315.422 705.133 319.453L702.156 317.25C706.219 311.453 709.289 305.086 711.367 298.148L714.93 298.852C714.508 300.352 714.078 301.711 713.641 302.93H734.078V306.164ZM760.867 298.242H764.453C764.453 300.133 764.508 301.938 764.617 303.656H774.648C772.086 302.031 769.75 300.656 767.641 299.531L769.516 296.977C772.484 298.508 775.266 300.156 777.859 301.922L776.57 303.656H780.297V306.867H764.852C765.461 313.68 766.727 319.695 768.648 324.914C771.367 320.789 773.312 316.102 774.484 310.852L777.906 311.812C776.438 318.25 773.875 323.883 770.219 328.711C771.016 330.367 771.852 331.844 772.727 333.141C773.617 334.422 774.367 335.328 774.977 335.859C775.586 336.375 776.031 336.633 776.312 336.633C777.469 336.633 778.352 333.625 778.961 327.609L782.406 328.711C781.672 336.898 779.805 341 776.805 341.016C775.617 341.016 774.18 340.211 772.492 338.602C770.82 337.008 769.203 334.734 767.641 331.781C763.828 335.781 759.422 338.695 754.422 340.523L752.664 337.5C757.914 335.578 762.359 332.523 766 328.336C763.438 322.195 761.836 315.039 761.195 306.867H745.703V312.68H758.664C758.664 321.508 758.438 326.914 757.984 328.898C757.594 330.523 756.859 331.5 755.781 331.828C755.266 331.984 754.43 332.07 753.273 332.086C752.242 332.086 749.969 331.938 746.453 331.641L746.125 328.477C748.688 328.727 750.641 328.852 751.984 328.852C753.516 328.852 754.414 328.289 754.68 327.164C754.961 326.023 755.102 322.219 755.102 315.75H745.703V317.203C745.703 327.281 743.953 335.281 740.453 341.203L737.734 338.086C739.234 335.211 740.32 331.961 740.992 328.336C741.664 324.711 742 320.211 742 314.836V303.656H761.008C760.914 301.938 760.867 300.133 760.867 298.242Z" fill="black"/>
</svg>
